<svg viewBox="0 0 173 50" fill="none" xmlns="http://www.w3.org/2000/svg"><path d="M38.93 8.11c.95.41 2.6 2.87 2.23 5.56a13.43 13.43 0 0 1-6.24 2.87v17.12h6.38c0 2.64-.41 4.73-.87 5.5h-11.66v-22.35h-8.1v13.34c0 6.74-3.78 10.02-8.6 10.02-1.37 0-2.97-.18-4.38-.6-.64-.86-.96-3.45-1.05-6.69 3.19 1.55 7.56 2.28 7.93-2.73v-12.48c-4.88.5-6.65 3.92-8.34 6.2.05-3.05.18-5.83.37-7.7 3.32-3.6 7.05-5.28 14.43-5.28h10.52c2.55.04 5.06-.91 7.38-2.78Zm-14.98-4.87c-9.48 0-13.3.59-13.3.59-4.05.18-6.92 2.96-7.33 7.7 0 0-.69 6.19-.69 13.38 0 7.2.69 13.4.69 13.4.4 4.73 3.28 7.55 7.33 7.69 0 0 3.82.6 13.3.6 9.47 0 13.3-.6 13.3-.6 4.05-.18 6.92-2.96 7.33-7.7 0 0 .68-5.96.68-13.39 0-7.15-.68-13.38-.68-13.38-.41-4.74-3.28-7.56-7.34-7.7 0-.05-3.82-.6-13.3-.6Z" fill="#37B34A"/><path d="M68.9 10.3c0-4.06 1.68-7.56 6.6-7.56 4.91 0 6.6 3.46 6.6 7.56s-1.69 7.56-6.6 7.56c-4.97.04-6.6-3.46-6.6-7.56Zm3.04 0c0 2.37.5 4.64 3.51 4.64 3.05 0 3.5-2.27 3.5-4.64 0-2.37-.5-4.65-3.5-4.65s-3.5 2.28-3.5 4.65Zm74.41-7.2 2.7 4.47 2.68-4.47h3.64l-4.37 6.92 4.74 7.52h-3.65l-3.05-5.06-3.05 5.06h-3.64l4.73-7.52-4.37-6.92h3.64Zm-13.3 5.74h5.7v2.78h-5.7v3.05h6.7v2.91h-9.8v-14.48h9.8v2.92h-6.7v2.82Zm-13.06 8.7v-11.52h-3.96v-2.92h11.02v2.92h-3.97v11.52h-3.1Zm-15.94 0h-2.92v-14.44h3.1v8.88l5.7-8.88h2.9v14.44h-3.09v-8.88l-5.7 8.88Zm-20.27-2.87c1.28.04 2.14-.5 2.46-1.69.82-3.1.96-6.64 1.37-9.92h9.29v14.43h-3.1v-11.47h-3.5c-.19 2-.55 5.5-1.14 7.7-.69 2.5-2.69 4-5.42 3.9v-2.95h.04Zm-29.64 2.87v-14.44h11.25v14.44h-3.1v-11.52h-5.1v11.52h-3.05Zm29.83 18.35h-.78l-1.04-1.6-1.05 1.6h-.77l1.45-2.14-1.45-2.05h.77l1 1.55 1-1.55h.78l-1.46 2.05 1.55 2.14Zm25.82-13.43-1.82 5.05c-.23.68-.64 1.05-1.33 1.1-.18 0-.36 0-.59-.1v-.63c.19.09.46.09.6.09.31-.05.54-.32.68-.69l.23-.63-1.69-4.2h.73l1.28 3.33 1.18-3.32h.73Zm-8.88 22.63h-.87l-1.45-1.87h-.37v1.87h-.68v-4.15h.68v1.74h.41l1.37-1.73h.82l-1.64 2 1.73 2.14Zm9.6-9.2h-.86l-1.46-1.87h-.36v1.87h-.68v-4.14h.68v1.73h.4l1.38-1.73h.81l-1.64 2 1.74 2.14Zm-38.75-9.24h-.86l-1.46-1.87h-.4v1.87h-.7v-4.15h.7v1.73h.4l1.37-1.73h.82l-1.64 2 1.77 2.15Zm30.42-2.1c0-.6.41-1.36 1.37-1.36.96 0 1.23.59 1.23 1.45 0 .91-.41 1.5-1.32 1.5-.96 0-1.28-.72-1.28-1.59Zm-.04-1.32c.09-.68.36-1.18.82-1.5.36-.28.9-.32 1.4-.5.5-.14.74-.46.74-.91h-.64c0 .09-.05.32-.36.4-.5.14-1 .23-1.42.5-1.04.64-1.18 1.92-1.14 3.06.05 1.23.6 2.41 1.96 2.41 1.23 0 2-.77 2-2.1 0-1.31-.58-2.09-1.81-2.04-.6.04-1.23.32-1.55.68Zm-47.45.5c0-1.41.59-2.32 2.05-2.32.5 0 1.04.09 1.45.23l.05-.73a5.24 5.24 0 0 0-1.5-.18c-1.87 0-2.87 1.13-2.87 3s1 3 2.87 3c.5 0 1.04-.04 1.5-.18l-.05-.72a4.9 4.9 0 0 1-1.45.22c-1.46 0-2.05-.9-2.05-2.32Zm62.34 6.65c.18.27.5.41.82.41a1 1 0 0 0 .82-.4l.36.3c-.27.42-.73.6-1.18.6a1.4 1.4 0 0 1-1.19-.59l.37-.32Zm-.23 5.51h-.68v-4.14h.59v3.32c.14-.23.27-.5.46-.73l1.77-2.55h.68v4.15h-.59v-3.33c-.14.23-.27.5-.45.73l-1.78 2.55Zm-4.83 0h-.68v-4.14h.6v3.32c.13-.23.27-.5.45-.73l1.77-2.55h.69v4.15h-.6v-3.33c-.13.23-.27.5-.45.73l-1.78 2.55Zm-21.76 0h-.69v-4.14h.6v3.32c.13-.23.27-.5.45-.73l1.78-2.55h.68v4.15h-.6v-3.33c-.13.23-.27.5-.45.73l-1.77 2.55Zm65.3 0h-.69v-4.14h.6v3.32c.13-.23.27-.5.45-.73l1.78-2.55h.68v4.15h-.6v-3.33c-.13.23-.26.5-.45.73l-1.77 2.55Zm-4.7-2.1c0-1.5.92-2.18 2.1-2.18.28 0 .69.05 1 .14l-.04.59a3.8 3.8 0 0 0-1.05-.14c-.77.05-1.32.5-1.32 1.6 0 1.13.6 1.59 1.32 1.59.32 0 .73 0 1.05-.14l.04.6c-.31.09-.72.09-1 .09-1.23.04-2.1-.64-2.1-2.14Zm-47.67 0c0-1.5.91-2.18 2.1-2.18.27 0 .68.05 1 .14l-.05.59a3.8 3.8 0 0 0-1.05-.14c-.77.05-1.32.5-1.32 1.6 0 1.13.6 1.59 1.32 1.59.32 0 .73 0 1.05-.14l.05.6c-.32.09-.73.09-1 .09-1.24.04-2.1-.64-2.1-2.14Zm15.07-9.24c0-1.5.91-2.18 2.1-2.18.27 0 .68.04 1 .13l-.05.6c-.32-.1-.73-.14-1.04-.14-.78.04-1.33.5-1.33 1.6 0 1.13.6 1.59 1.33 1.59.31 0 .72 0 1.04-.14l.05.6c-.32.08-.73.08-1 .08-1.23.05-2.1-.6-2.1-2.14Zm-26.77 20.54h-.69v-3.6h-1.18a8.54 8.54 0 0 1-.5 2.87c-.27.55-.6.82-1.32.73v-.64c.32.05.64-.09.77-.45.28-.55.37-1.6.46-3.1h2.46v4.19Zm-31.84-11.3c0-.9.32-1.59 1.28-1.59s1.28.68 1.28 1.6c0 .9-.32 1.59-1.28 1.59s-1.28-.68-1.28-1.6Zm3.28 0c0-1.32-.63-2.18-1.96-2.18-1.32 0-1.95.86-1.95 2.19 0 1.32.63 2.18 1.95 2.18 1.28 0 1.96-.86 1.96-2.18Zm46.77 9.25c0-.91.32-1.6 1.28-1.6.95 0 1.27.69 1.27 1.6 0 .91-.32 1.6-1.27 1.6-.96 0-1.28-.69-1.28-1.6Zm3.28 0c0-1.32-.64-2.19-1.96-2.19-1.32 0-1.96.87-1.96 2.19 0 1.32.64 2.19 1.96 2.19 1.28-.05 1.96-.91 1.96-2.19Zm-11.02 0c0-.91.32-1.6 1.28-1.6.95 0 1.27.69 1.27 1.6 0 .91-.32 1.6-1.27 1.6-.96 0-1.28-.69-1.28-1.6Zm3.23 0c0-1.32-.64-2.19-1.96-2.19-1.32 0-1.95.87-1.95 2.19 0 1.32.63 2.19 1.95 2.19 1.32-.05 1.96-.91 1.96-2.19Zm-38.11-16.4h-.69v-1.9h-2.14v1.9h-.63v-4.14h.68v1.69h2.14v-1.69h.68l-.04 4.15Zm8.1-3.6h-1.23v3.6h-.68v-3.6h-1.23v-.58h3.19v.59h-.05Zm2.46 1.83h-2.18v-.64h2.23l-.05.64Zm5.83 1.78h-.68v-5.2h-3.05v5.2h-.69v-5.83h4.42v5.83Zm8.38-3.6h-1.23v3.6h-.68v-3.6h-1.28v-.6h3.19v.6Zm26.14 0h-1.82v3.6h-.64v-4.15h2.5v.55h-.04Zm7.7 3.6h-.87l-1.46-1.87h-.36v1.87h-.69v-4.15h.69v1.73h.4l1.37-1.73h.82l-1.64 2 1.73 2.15Zm-58.61 9.24h-.69v-3.6h-1.18a8.54 8.54 0 0 1-.5 2.87c-.27.55-.6.82-1.32.73v-.64c.32.05.64-.09.77-.45.28-.55.37-1.6.46-3.1h2.46v4.19Zm8.83-3.6h-1.23v3.6h-.68v-3.6h-1.28v-.54h3.2v.54Zm12.3 3.6h-.69v-1.91h-2.14v1.91h-.68v-4.14h.68v1.68h2.14v-1.68h.69v4.14Zm9.38 0h-.69v-1.64c-.31.14-.77.18-1.18.18-.73-.04-1.41-.36-1.41-1.45v-1.28h.68v1.23c0 .73.41.91.96.91.36 0 .77-.09 1-.18v-1.96h.68l-.04 4.19Zm33.7 0h-.69v-1.91h-2.14v1.91h-.63v-4.14h.68v1.68h2.14v-1.68h.68v4.14h-.04Zm6.19 0v-4.14h1.82c.64 0 1.28.32 1.28 1 0 .55-.28.86-.69 1 .6.1.87.41.87.96 0 .73-.64 1.18-1.32 1.18h-1.96Zm.64-3.6v1.19h1c.55 0 .77-.23.77-.64 0-.37-.18-.55-.68-.55h-1.1Zm0 1.73v1.28h1.14c.54 0 .77-.23.77-.64 0-.4-.27-.64-.87-.64h-1.04Zm24.22-1.73h-1.23v3.6h-.68v-3.6h-1.23v-.54h3.19l-.05.54Zm7.6 0h-1.22v3.6h-.68v-3.6h-1.28v-.54h3.19v.54Zm-111.24 12.84h-.68v-5.19h-3.06v5.2h-.68v-5.83h4.42v5.82Zm8.42-3.6h-1.23v3.6h-.68v-3.6h-1.27v-.59h3.18v.6Zm12.03 3.6v-5.82h2.04c.96 0 1.64.54 1.6 1.54 0 .6-.32 1-.78 1.19.69.18 1.1.77 1.1 1.41 0 1.1-.82 1.68-1.82 1.68h-2.14Zm.68-5.23v1.86h1.1c.67 0 1.13-.31 1.13-1.04 0-.55-.32-.87-1.05-.87l-1.18.05Zm0 2.5v2.1h1.32c.68 0 1.23-.32 1.23-1.05 0-.68-.41-1.05-1.37-1.05h-1.18Zm28.91-.86h-1.63v3.6h-.69v-4.2h2.32v.6Zm-20.44-16.76h-3.05c.04 1.05.63 1.41 1.4 1.37.46 0 .97-.14 1.33-.32v.63c-.41.19-1 .28-1.41.23-1.1 0-2.05-.73-2.05-2.18 0-1.19.64-2.19 1.91-2.19 1.41.05 1.91.96 1.87 2.46Zm-.68-.6c0-.81-.46-1.22-1.1-1.22-.82 0-1.23.5-1.27 1.23h2.37Zm8.28.6h-3.05c.05 1.05.64 1.41 1.41 1.37.46 0 .96-.14 1.32-.32v.63c-.4.19-1 .28-1.4.23-1.1 0-2.06-.73-2.06-2.18 0-1.19.64-2.19 1.92-2.19 1.4.05 1.9.96 1.86 2.46Zm-.68-.6c0-.81-.46-1.22-1.1-1.22-.81 0-1.22.5-1.27 1.23h2.37Zm71.18 9.8h-3.06c.05 1.05.64 1.41 1.42 1.36.45 0 .95-.13 1.32-.31v.63c-.41.19-1 .28-1.41.23-1.1 0-2.05-.73-2.05-2.18 0-1.19.63-2.19 1.9-2.19 1.42.09 1.92 1 1.88 2.46Zm-.69-.55c0-.82-.45-1.23-1.09-1.23-.82 0-1.23.5-1.28 1.23h2.37Zm-20.44.55h-3.06c.05 1.05.64 1.41 1.42 1.36.45 0 .95-.13 1.32-.31v.63c-.41.19-1 .28-1.41.23-1.1 0-2.05-.73-2.05-2.18 0-1.19.63-2.19 1.9-2.19 1.42.09 1.92 1 1.88 2.46Zm-.69-.55c0-.82-.45-1.23-1.09-1.23-.82 0-1.23.5-1.28 1.23h2.37Zm-42.07.55h-3.06c.05 1.05.64 1.41 1.42 1.36.45 0 .95-.13 1.32-.31v.63c-.41.19-1 .28-1.41.23-1.1 0-2.05-.73-2.05-2.18 0-1.19.63-2.19 1.9-2.19 1.42.09 1.92 1 1.88 2.46Zm-.69-.55c0-.82-.45-1.23-1.09-1.23-.82 0-1.23.5-1.28 1.23h2.37Zm-21.86.55h-3.05c.05 1.05.64 1.41 1.42 1.36.45 0 .95-.13 1.32-.31v.63c-.41.19-1 .28-1.42.23-1.09 0-2.05-.73-2.05-2.18 0-1.19.64-2.19 1.92-2.19 1.4.09 1.91 1 1.86 2.46Zm-.68-.55c0-.82-.45-1.23-1.1-1.23-.81 0-1.22.5-1.27 1.23h2.37Zm-15.75 9.8h-3.06c.05 1.04.64 1.4 1.42 1.36.45 0 .95-.14 1.32-.32v.64c-.41.18-1 .27-1.41.23-1.1 0-2.05-.73-2.05-2.19 0-1.18.63-2.19 1.9-2.19 1.42.1 1.92 1 1.88 2.46Zm-.69-.55c0-.82-.45-1.23-1.09-1.23-.82 0-1.23.5-1.28 1.23h2.37Zm24.6.54h-3.06c.05 1.05.64 1.41 1.41 1.37.46 0 .91-.1 1.28-.32v.64a2.7 2.7 0 0 1-1.32.23c-1.1 0-2.05-.73-2.05-2.19 0-1.18.64-2.19 1.91-2.19 1.37.1 1.87 1 1.82 2.46Zm-.69-.54c0-.82-.46-1.23-1.1-1.23-.81 0-1.22.5-1.27 1.23h2.37Zm46.58-6.79h-.68v-4.14h.6v3.27c.13-.22.22-.45.4-.68l1.78-2.6h.68v4.15h-.59v-3.28c-.13.23-.23.46-.4.69l-1.78 2.59Zm-1.13-14.75c.18.27.5.4.82.4a1 1 0 0 0 .82-.4l.36.31c-.27.41-.73.6-1.18.6a1.4 1.4 0 0 1-1.19-.6l.37-.31Zm-.23 5.5h-.68v-4.14h.59v3.33c.13-.23.27-.5.45-.73l1.78-2.55h.68v4.14h-.59v-3.32c-.14.23-.27.5-.46.73l-1.77 2.55Zm-4.83 0h-.68v-4.14h.6v3.33c.13-.23.26-.5.45-.73l1.77-2.55h.69v4.14h-.6v-3.32c-.13.23-.27.5-.45.73l-1.78 2.55Zm-58.01 9.25h-.69v-4.14h.6v3.32c.13-.23.27-.5.45-.73l1.78-2.55h.68v4.15h-.6v-3.33c-.13.23-.27.5-.45.73l-1.77 2.55Zm24.31 9.2h-.68v-4.15h.6v3.33c.13-.23.27-.5.45-.73l1.77-2.55h.69v4.14h-.6v-3.32c-.13.23-.27.5-.45.73l-1.78 2.55Zm-25-.46v2.37h-.68v-6.05h.6l.04.54c.4-.5.95-.64 1.5-.59 1.23.05 1.69 1.05 1.69 2.19-.05 1.13-.6 2.14-1.92 2.14-.73 0-1.09-.37-1.23-.6Zm-.04-1.54c0 .77.23 1.54 1.23 1.54.9 0 1.27-.82 1.27-1.59.05-.77-.23-1.64-1.18-1.64-1.05 0-1.32.82-1.32 1.69Zm78.5-7.7v2.37h-.68v-6.06h.6l.04.55c.41-.5.96-.64 1.5-.6 1.23.05 1.69 1.05 1.69 2.2-.05 1.13-.64 2.13-1.91 2.13a1.5 1.5 0 0 1-1.24-.59Zm0-1.55c0 .78.23 1.55 1.24 1.55.9 0 1.27-.82 1.27-1.6.04-.77-.23-1.63-1.18-1.63-1.05 0-1.33.86-1.33 1.68Zm-35.6-7.65v2.37h-.69v-6.1h.6l.04.54c.4-.5.96-.63 1.5-.59 1.23.05 1.69 1.05 1.69 2.19-.05 1.14-.64 2.14-1.92 2.14-.72 0-1.09-.37-1.22-.55Zm-.05-1.6c0 .78.23 1.55 1.23 1.55.9 0 1.27-.81 1.27-1.59.05-.77-.22-1.64-1.18-1.64-1 .05-1.32.87-1.32 1.69Zm-13.7 1.6v2.37h-.7v-6.1h.6l.05.54c.4-.5.95-.63 1.5-.59 1.23.05 1.69 1.05 1.69 2.19-.05 1.14-.64 2.14-1.92 2.14-.73 0-1.1-.37-1.23-.55Zm-.05-1.6c0 .78.22 1.55 1.23 1.55.9 0 1.27-.81 1.27-1.59.05-.77-.23-1.64-1.18-1.64-1 .05-1.32.87-1.32 1.69Zm-22.77 18.5v.31c0 .69-.46 1.19-1.14 1.23-.41 0-.77-.22-.77-.68-.05-1 .86-.91 1.9-.86Zm-2.32-2 .04.63a3.1 3.1 0 0 1 1.32-.23c.5.05.96.23.96.91v.19c-1.55-.1-2.64.04-2.64 1.36 0 .82.59 1.28 1.32 1.28.54 0 1-.23 1.32-.6l.09.5h.55v-2.73c0-1.14-.69-1.45-1.55-1.5a3.64 3.64 0 0 0-1.41.18Zm-10.7-16.5v.33c0 .68-.46 1.18-1.14 1.22-.41 0-.78-.22-.78-.68-.04-.95.91-.86 1.91-.86Zm-2.33-2 .05.64a3.1 3.1 0 0 1 1.32-.23c.5.05.95.23.95.91v.19c-1.54-.1-2.64.04-2.64 1.36 0 .82.6 1.28 1.32 1.28.55 0 1-.23 1.32-.6l.1.5h.54v-2.73c0-1.13-.68-1.45-1.55-1.5a3.64 3.64 0 0 0-1.4.18Zm-1.6 9.11h-3.45v4.14h.68v-3.5h2.14v3.5h.68l-.04-4.14Zm69.27 0h-.68l-1.19 3.32-1.27-3.32h-.73l1.69 4.19-.23.64c-.14.36-.32.64-.69.68-.18 0-.4 0-.59-.09v.64c.23.09.41.09.6.09.63-.05 1.04-.46 1.31-1.1l1.78-5.05Z" fill="#404041"/></svg>