<svg viewBox="0 0 274 36" fill="none" xmlns="http://www.w3.org/2000/svg"><g clip-path="url(#a)"><mask id="b" style="mask-type:luminance" maskUnits="userSpaceOnUse" x="0" y="0" width="274" height="36"><path d="M273.9 0h-273.9v35.97h273.9v-35.97Z" fill="#fff"/></mask><g mask="url(#b)"><path d="m12.58 7.3 2.77.84-.68 1.6 1.58-.69.84 2.83.84-2.83 1.58.68-.68-1.6 2.78-.84-2.78-.88.68-1.6-1.58.7-.84-2.84-.84 2.83-1.58-.68.68 1.6-2.77.87Z" fill="#25429D"/><path d="M26.28 16.18v-6.9l6.8 6.9h-6.8Zm0 7.48v-6.9h6.8l-6.8 6.9Zm-.58-7.48h-6.77l6.77-6.9v6.9Zm0 7.48-6.77-6.9h6.77v6.9Zm-8.32 1.56v-6.9l6.8 6.9h-6.8Zm0 7.49v-6.9h6.8l-6.8 6.9Zm-.58-7.49h-6.77l6.77-6.9v6.9Zm0 7.49-6.77-6.9h6.77v6.9Zm-8.32-9.05v-6.9h6.8l-6.8 6.9Zm-.58-7.48h-6.77l6.77-6.9v6.9Zm0 7.48-6.77-6.9h6.77v6.9Zm7.38-7.48h-6.8v-6.9l6.8 6.9Zm18.87.22s-.07-2.11-1.61-5.04c-1.1-2.08-2.36-3.48-2.36-3.48l-7.12-7.29-.23.26h-.03l-.2.2-2 2.05-.19.2.26.28 2.84 2.87c-.04-.04-.07-.04-.07-.04l.1.07.29.3c.1.16.2.32.2.55.03.39-.1.61-.23.74l-.13.13c0 .04-.03.04-.03.04h.03l-6.58 6.67-6.77-6.87a1.3 1.3 0 0 1-.2-.71c.04-.2.1-.4.2-.53l.35-.35.07-.04s-.03 0-.03.04l2.8-2.87.2-.22-.2-.2-.29-.3-2.13-2.17-7.12 7.25s-1.23 1.44-2.36 3.49c-1.45 2.73-1.58 4.75-1.61 5v.04l.2.2 7.8 7.9.19.23.71.72.2.2 7.8 7.93.19.2.2-.2 7.8-7.94.2-.2.7-.71.23-.23 7.77-7.9.19-.2-.03-.07Zm6 9.4v-25.5h8.5l3.94 17.34h.07l4.22-17.34h8.22v25.5h-5.15v-19.68h-.07l-4.87 19.69h-5.03l-4.64-19.69h-.07v19.69h-5.12Zm28.28 0v-25.5h13.12v3.93h-7.84v21.58h-5.28Zm20.12-14.3h2.93c1.58 0 2.64-1.73 2.64-3.43 0-2.08-.54-3.84-2.93-3.84h-2.64v7.26Zm-5.3-11.2h9.52c4.84 0 6.7 2.96 6.7 7.64 0 2.9-.83 7.49-7.02 7.49h-3.9v10.38h-5.3v-25.51Zm23.55 15.52 5.64-15.52h5.64v25.5h-5.28v-15.51h-.07l-5.64 15.52h-5.65v-25.51h5.3v15.52h.06Z" fill="#25429D"/><path d="M143.75 4.07h.65c.35 0 .6-.39.6-.78 0-.49-.12-.88-.67-.88h-.58v1.66Zm-1.2-2.53h2.14c1.1 0 1.51.68 1.51 1.72 0 .65-.2 1.7-1.58 1.7h-.87v2.33h-1.2v-5.75Zm7.04 2.86c0-1.47-.1-2.09-.74-2.09-.68 0-.78.62-.78 2.08 0 1.5.1 2.12.78 2.12.64 0 .74-.62.74-2.12Zm-2.71 0c0-1.5 0-2.97 1.97-2.97 1.93 0 1.93 1.47 1.93 2.96 0 1.53 0 2.97-1.93 2.97-1.97 0-1.97-1.44-1.97-2.97Zm4.8 0c0-1.5 0-2.97 1.97-2.97 1.2 0 1.71.69 1.64 1.92h-1.16c0-.78-.13-1.04-.48-1.04-.68 0-.77.62-.77 2.08 0 1.5.1 2.12.77 2.12.55 0 .52-.72.55-1.17h1.16c0 1.53-.61 2.02-1.7 2.02-1.98 0-1.98-1.44-1.98-2.97Zm4.39 0c0-1.5 0-2.97 1.97-2.97 1.19 0 1.67.69 1.64 1.92h-1.16c0-.78-.13-1.04-.49-1.04-.67 0-.77.62-.77 2.08 0 1.5.1 2.12.78 2.12.54 0 .51-.72.54-1.17h1.16c0 1.53-.6 2.02-1.7 2.02-1.97 0-1.97-1.44-1.97-2.97Zm5.67.62 1.26-3.48h1.3v5.75h-1.2v-3.51h-.03l-1.26 3.51h-1.26v-5.75h1.2v3.48Zm4.81-5.02c.06.33.45.4.68.4.25 0 .6-.07.67-.4h.58c-.03.65-.54 1.05-1.25 1.05s-1.23-.4-1.26-1.05h.58Zm1.35 7.3v-3.52l-1.29 3.51h-1.26v-5.76h1.2v3.49l1.29-3.49h1.26v5.76h-1.2Zm2.16-2.9c0-1.5 0-2.97 1.97-2.97 1.23 0 1.71.69 1.68 1.92h-1.2c0-.78-.12-1.04-.48-1.04-.68 0-.74.62-.74 2.08 0 1.5.06 2.12.74 2.12.55 0 .55-.72.55-1.17h1.16c0 1.53-.58 2.02-1.7 2.02-1.98 0-1.98-1.44-1.98-2.97Zm6.97-2.86h1.32l-1.58 2.57 1.58 3.18h-1.35l-1.36-2.96v2.96h-1.2v-5.75h1.2v2.47l1.39-2.47Zm3.1 3.48 1.28-3.48h1.26v5.75h-1.2v-3.51l-1.28 3.51h-1.26v-5.75h1.2v3.48Zm4.83-5.02c.03.33.42.4.65.4.25 0 .64-.07.67-.4h.62c-.07.65-.55 1.05-1.3 1.05-.7 0-1.19-.4-1.25-1.05h.61Zm1.32 7.3v-3.52l-1.25 3.51h-1.3v-5.76h1.2v3.49h.03l1.26-3.49h1.26v5.76h-1.2Zm3.97 0v-5.76h2.97v.87h-1.78v4.88h-1.19Zm6.19-2.9c0-1.47-.1-2.09-.77-2.09-.65 0-.74.62-.74 2.08 0 1.5.1 2.12.74 2.12.67 0 .77-.62.77-2.12Zm-2.74 0c0-1.5 0-2.97 1.97-2.97 1.96 0 1.96 1.47 1.96 2.96 0 1.53 0 2.97-1.96 2.97-1.97 0-1.97-1.44-1.97-2.97Zm4.84 0c0-1.5 0-2.97 1.96-2.97 1.2 0 1.68.69 1.65 1.92h-1.16c0-.78-.13-1.04-.49-1.04-.67 0-.77.62-.77 2.08 0 1.5.1 2.12.77 2.12.55 0 .52-.72.52-1.17h1.2c0 1.53-.62 2.02-1.72 2.02-1.96 0-1.96-1.44-1.96-2.97Zm6.83 1.5c-.32 1-.84 1.46-1.51 1.46-.26 0-.49-.1-.58-.16v-.88c.06.06.25.13.41.13.17 0 .36-.13.4-.2.06-.1.12-.22.02-.45l-1.6-4.26h1.22l.93 2.76.1.4.03-.4.84-2.76h1.2l-1.46 4.36Zm4.61.48v-3.97h-1.06c0 1.53-.13 2.41-.23 2.8-.06.46-.19.91-.32 1.17h1.61Zm1.2-4.84v4.84h.35v2.18h-1.2v-1.27h-2.41v1.27h-1.2v-2.18h.4c.12-.29.32-.81.41-1.33.1-.46.2-1.46.2-3.51h3.45Zm2.67 1.56h-.03l-.42 2.01h.9l-.45-2.01Zm-.9 4.2h-1.26l1.42-5.76h1.39l1.51 5.75h-1.19l-.29-1.3h-1.32l-.26 1.3Zm4.77-3.23h.68c.35 0 .61-.39.61-.78 0-.49-.13-.88-.67-.88h-.62v1.66Zm-1.16-2.53h2.13c1.1 0 1.52.68 1.52 1.72 0 .65-.2 1.7-1.58 1.7h-.9v2.33h-1.17v-5.75Zm4.29 2.86c0-1.5 0-2.97 1.97-2.97 1.22 0 1.7.69 1.68 1.92h-1.2c0-.78-.13-1.04-.48-1.04-.65 0-.74.62-.74 2.08 0 1.5.1 2.12.74 2.12.55 0 .55-.72.55-1.17h1.19c0 1.53-.61 2.02-1.74 2.02-1.97 0-1.97-1.44-1.97-2.97Zm7.84-2.86v.94h-1.32v4.81h-1.2v-4.81h-1.32v-.94h3.84Zm1.77 4.84h.55c.26 0 .84 0 .84-.78 0-.52-.2-.84-.8-.84h-.59v1.62Zm0-2.5h.71c.26 0 .61-.16.61-.72 0-.42-.29-.75-.67-.75h-.65v1.47Zm-1.2 3.41v-5.75h2c.94 0 1.68.26 1.68 1.5 0 .64-.32 1.13-.96 1.26.83.13 1.06.68 1.06 1.47 0 1.46-1.26 1.52-1.77 1.52h-2Zm4.71.01v-5.76h3.1v.87h-1.9v1.44h1.74v.87h-1.74v1.66h1.97v.91h-3.16Zm6.52-3.45v-2.31h1.2v5.75h-1.2v-2.57h-1.36v2.57h-1.19v-5.75h1.2v2.3h1.35Zm4.83 0v-2.31h1.2v5.75h-1.2v-2.57h-1.38v2.57h-1.16v-5.75h1.16v2.3h1.38Zm6.39-2.31h1.2v5.75h-1.2v-5.75Zm-2.32 3.22h-.61v1.62h.54c.55 0 .68-.39.68-.84 0-.4-.26-.78-.61-.78Zm.29 2.53h-2.1v-5.75h1.2v2.34h.84c1.38 0 1.57 1.04 1.57 1.69 0 1.04-.42 1.72-1.51 1.72Zm5.52-7.29c.03.33.41.4.64.4.26 0 .64-.07.68-.4h.58c-.04.65-.52 1.05-1.26 1.05-.71 0-1.2-.4-1.26-1.05h.61Zm1.32 7.3v-3.52l-1.26 3.51h-1.3v-5.76h1.2v3.49h.03l1.26-3.49h1.26v5.76h-1.2Zm-113.99 8.98v-5.76h2.93v.87h-1.74v4.89h-1.2Zm3.51 0v-5.76h3.1v.87h-1.9v1.44h1.77v.87h-1.78v1.7h1.97v.88h-3.16Zm6.61-2.9c0-1.47-.1-2.08-.77-2.08-.65 0-.74.61-.74 2.08 0 1.5.1 2.11.74 2.11.68 0 .77-.61.77-2.11Zm-2.7 0c0-1.5 0-2.96 1.93-2.96 1.97 0 1.97 1.46 1.97 2.96 0 1.53 0 3-1.97 3-1.94 0-1.94-1.47-1.94-3Zm8.7 2.9h-1.2v-4.89h-1v1.4c0 2.12-.16 2.57-.77 3.22-.25.27-.61.33-.8.33a1 1 0 0 1-.55-.16v-.98a.5.5 0 0 0 .26.07.4.4 0 0 0 .32-.17c.39-.52.35-.87.35-2.96v-1.62h3.39v5.76Zm3.71-2.9c0-1.47-.1-2.08-.78-2.08-.64 0-.74.61-.74 2.08 0 1.5.1 2.11.74 2.11.68 0 .78-.61.78-2.11Zm-2.71 0c0-1.5 0-2.96 1.93-2.96 1.97 0 1.97 1.46 1.97 2.96 0 1.53 0 3-1.97 3-1.93 0-1.93-1.47-1.93-3Zm4.84 2.9v-5.76h2.93v.87h-1.74v4.89h-1.2Zm6.19-2.9c0-1.47-.1-2.08-.78-2.08s-.74.61-.74 2.08c0 1.5.06 2.11.74 2.11.68 0 .78-.61.78-2.11Zm-2.74 0c0-1.5 0-2.96 1.96-2.96 1.97 0 1.97 1.46 1.97 2.96 0 1.53 0 3-1.97 3-1.96 0-1.96-1.47-1.96-3Zm6.09-.33h.65c.35 0 .6-.39.6-.78 0-.45-.12-.88-.67-.88h-.58v1.66Zm-1.2-2.53h2.14c1.1 0 1.51.68 1.51 1.72 0 .65-.2 1.7-1.58 1.7h-.87v2.34h-1.2v-5.76Zm5.81 1.56h-.03l-.42 2.02h.94l-.49-2.02Zm-.9 4.2h-1.23l1.39-5.76h1.39l1.51 5.76h-1.16l-.32-1.27h-1.32l-.26 1.27Zm3.54-4.33c0-1.2.49-1.53 1.65-1.53 1.06 0 1.58.45 1.58 1.56 0 .52-.16 1.17-.8 1.27v.03c.77.13.86.72.86 1.4 0 1.2-.6 1.7-1.77 1.7-1.13 0-1.58-.43-1.58-1.67h1.16c0 .4-.03.82.49.82.51 0 .54-.5.54-.91 0-.85-.25-.88-1.06-.88v-.91c.74.03 1-.07 1-.88 0-.3-.07-.69-.45-.69-.42 0-.45.36-.45.69h-1.16Zm5.42 3.45h.58c.26 0 .8-.04.8-.82 0-.52-.18-.84-.76-.84h-.62v1.66Zm0-2.54h.71c.26 0 .62-.16.62-.72 0-.42-.3-.75-.68-.75h-.65v1.47Zm-1.19 3.42v-5.76h2.03c.9 0 1.65.26 1.65 1.5 0 .64-.33 1.13-.97 1.26.84.13 1.06.68 1.06 1.47 0 1.46-1.25 1.53-1.74 1.53h-2.03Zm4.71 0v-5.76h3.1v.87h-1.91v1.44h1.77v.87h-1.77v1.7h1.97v.88h-3.16Zm6.8-.88v-4h-1.03c0 1.52-.16 2.4-.23 2.8-.1.45-.19.9-.32 1.2h1.58Zm1.2-4.88v4.88h.38v2.14h-1.2v-1.26h-2.41v1.26h-1.2v-2.14h.36c.16-.33.32-.85.45-1.37.07-.46.2-1.43.2-3.51h3.41Zm3.67 2.86c0-1.47-.1-2.08-.77-2.08-.68 0-.75.61-.75 2.08 0 1.5.07 2.11.75 2.11.67 0 .77-.61.77-2.11Zm-2.74 0c0-1.5 0-2.96 1.97-2.96 1.96 0 1.96 1.46 1.96 2.96 0 1.53 0 3-1.97 3-1.96 0-1.96-1.47-1.96-3Zm7.22-2.86h1.2v5.76h-1.2v-2.35h-.51c-1.33 0-1.94-.68-1.94-1.75v-1.66h1.2v1.59c0 .68.28.98.7.98h.55v-2.57Zm4.83 2.31v-2.31h1.2v5.76h-1.2v-2.58h-1.38v2.58h-1.2v-5.76h1.2v2.3h1.39Zm6.4-2.31h1.19v5.76h-1.2v-5.76Zm-2.33 3.22h-.61v1.66h.55c.55 0 .67-.43.67-.88 0-.4-.25-.78-.6-.78Zm.3 2.54h-2.1v-5.76h1.19v2.34h.84c1.38 0 1.58 1.04 1.58 1.7 0 1.03-.42 1.72-1.52 1.72Zm5.51-7.3c.03.33.42.4.64.4.26 0 .65-.07.68-.4h.58c-.03.66-.52 1.05-1.26 1.05-.7 0-1.22-.4-1.26-1.05h.62Zm1.32 7.3v-3.52l-1.3 3.51h-1.25v-5.76h1.2v3.49h.03l1.25-3.49h1.26v5.76h-1.2Zm6.38-1.4c-.32 1-.83 1.5-1.51 1.5a.98.98 0 0 1-.55-.2v-.85c.03.03.26.1.39.1.2 0 .35-.13.38-.2a.5.5 0 0 0 .07-.45l-1.65-4.26h1.26l.94 2.76.06.4.07-.4.8-2.76h1.2l-1.46 4.36Zm4.58-2.05v-2.31h1.2v5.76h-1.2v-2.58h-1.39v2.58h-1.16v-5.76h1.16v2.3h1.4Zm3.45 1.17 1.3-3.48h1.25v5.76h-1.2v-3.52l-1.28 3.52h-1.26v-5.76h1.2v3.48Zm4.78 1.4h.58c.25 0 .83-.04.83-.82 0-.52-.19-.84-.8-.84h-.61v1.66Zm0-2.54h.7c.26 0 .65-.16.65-.72 0-.42-.29-.75-.7-.75h-.65v1.47Zm-1.2 3.42v-5.76h2.03c.9 0 1.68.26 1.68 1.5 0 .64-.32 1.13-.97 1.26.84.13 1.03.68 1.03 1.47 0 1.46-1.22 1.53-1.74 1.53h-2.03Zm4.74 0v-5.76h3.1v.87h-1.94v1.44h1.78v.87h-1.78v1.7h2v.88h-3.16Zm5.13-3.23h.64c.36 0 .62-.39.62-.78 0-.45-.13-.88-.68-.88h-.58v1.66Zm-1.2-2.53h2.13c1.1 0 1.52.68 1.52 1.72 0 .65-.16 1.7-1.58 1.7h-.87v2.34h-1.2v-5.76Zm4.32 2.86c0-1.5 0-2.96 1.97-2.96 1.2 0 1.71.68 1.65 1.92h-1.16c0-.78-.13-1.04-.49-1.04-.67 0-.77.61-.77 2.08 0 1.5.1 2.11.77 2.11.55 0 .52-.71.55-1.17h1.16c0 1.53-.61 2.05-1.7 2.05-1.98 0-1.98-1.46-1.98-3Zm5.68.62 1.26-3.48h1.29v5.76h-1.2v-3.52h-.03l-1.25 3.52h-1.26v-5.76h1.2v3.48Zm6.97-3.48v.97h-1.33v4.79h-1.19v-4.79h-1.32v-.97h3.84Zm.55 5.76v-5.76h3.09v.87h-1.9v1.44h1.77v.87h-1.77v1.7h1.97v.88h-3.16Zm7.32-5.76v.97h-1.33v4.79h-1.2v-4.79h-1.31v-.97h3.84Zm-131.18 14.74v-5.76h.74v4.3l2-4.3h.7v5.76h-.7v-4.3h-.03l-1.97 4.3h-.74Zm5.51 0h-.67v-5.76h1.16l1.38 4.81h.04l1.42-4.81h1.19v5.76h-.74v-5.11l-1.55 5.1h-.71l-1.52-5.1v5.1Zm5.84 0v-5.76h2.94v.65h-2.2v1.85h2.03v.62h-2.03v1.98h2.23v.66h-2.97Zm3.93 0v-5.76h.75v2.5h2v-2.5h.7v5.76h-.7v-2.64h-2v2.64h-.75Zm4.84 0v-5.76h.71v4.3l2-4.3h.71v5.76h-.71v-4.3l-2 4.3h-.7Zm9-4.17c.03-.32 0-.65-.16-.85-.13-.16-.49-.22-.65-.22-.58 0-.8.35-.84.42-.03.06-.16.23-.16 1.2v1.53c0 1.4.45 1.6 1 1.6.23 0 .9-.1.9-1.2h.75c.03 1.78-1.23 1.78-1.62 1.78-.7 0-1.77-.03-1.77-2.24v-1.63c0-1.63.7-2.08 1.8-2.08 1.13 0 1.59.58 1.52 1.7h-.77Zm1.93 4.17v-5.76h2.94v.65h-2.23v1.85h2.06v.62h-2.06v1.98h2.26v.66h-2.97Zm4.68-3.19h.77c.32 0 1.03-.07 1.03-.98 0-.85-.64-.94-.8-.94h-1v1.92Zm-.74 3.19v-5.76h1.67c.78 0 1.62.29 1.62 1.66 0 1.3-1.04 1.56-1.62 1.56h-.93v2.54h-.74Zm4.35 0v-5.76h2.8v.65h-2.1v5.1h-.7Zm6.29-2.09v-1.92c0-1.2-.8-1.27-1.03-1.27-.23 0-1.07.07-1.07 1.27v1.92c0 1.27.39 1.6 1.07 1.6.67 0 1.03-.33 1.03-1.6Zm-2.84-.03v-1.89c0-1.14.58-1.85 1.8-1.85 1.2 0 1.78.71 1.78 1.85v1.89c0 1.6-.58 2.21-1.77 2.21-1.23 0-1.81-.62-1.81-2.21Zm9.42.03v-1.92c0-1.2-.84-1.27-1.07-1.27-.22 0-1.03.07-1.03 1.27v1.92c0 1.27.35 1.6 1.03 1.6.71 0 1.06-.33 1.06-1.6Zm-2.84-.03v-1.89c0-1.14.58-1.85 1.77-1.85 1.23 0 1.8.71 1.8 1.85v1.89c0 1.6-.57 2.21-1.8 2.21-1.2 0-1.77-.62-1.77-2.21Zm5.61-1.07h.8c.3 0 1-.07 1-.98 0-.85-.64-.94-.8-.94h-1v1.92Zm-.74 3.19v-5.76h1.7c.75 0 1.59.29 1.59 1.66 0 1.3-1.04 1.56-1.62 1.56h-.93v2.54h-.74Zm6.57-5.11h-1.19c0 1.17-.2 2.47-.42 3.19-.22.71-.48 1.17-.51 1.26h2.12v-4.45Zm.4 6.37v-1.26h-3.04v1.26h-.74v-1.92h.38c.3-.35.59-.94.72-1.36.28-.91.45-1.89.45-3.74h2.58v5.1h.38v1.92h-.74Zm3.89-4.26h-.03l-2 3h-.93l2.19-3.16-2.06-2.6h.8l2 2.53h.03v-2.53h.71v2.53h.04l1.96-2.53h.84l-2.06 2.6 2.16 3.16h-.9l-2-3h-.04v3h-.7v-3Zm7.23.91v-1.92c0-1.2-.81-1.27-1.07-1.27-.22 0-1.03.07-1.03 1.27v1.92c0 1.27.36 1.6 1.03 1.6.71 0 1.07-.33 1.07-1.6Zm-2.84-.03v-1.89c0-1.14.58-1.85 1.77-1.85 1.23 0 1.8.71 1.8 1.85v1.89c0 1.6-.57 2.21-1.8 2.21-1.2 0-1.77-.62-1.77-2.21Zm4.87 2.12v-5.76h.74v2.5h2v-2.5h.7v5.76h-.7v-2.64h-2v2.64h-.74Zm4.83 0v-5.76h.71v4.3l2-4.3h.74v5.76h-.74v-4.3l-2 4.3h-.7Zm4.81 0v-5.76h.74v2.53l2-2.53h.8l-2.06 2.6 2.2 3.16h-.94l-2-3v3h-.74Zm4.42 0v-5.76h.7v4.3h.04l1.97-4.3h.74v5.76h-.74v-4.3l-2 4.3h-.71Zm7.67-5.11h-1.16c0 1.17-.22 2.47-.45 3.19-.23.71-.48 1.17-.52 1.26h2.13v-4.45Zm.39 6.37v-1.26h-3.03v1.26h-.74v-1.92h.38c.3-.35.58-.94.71-1.36.3-.91.45-1.89.45-3.74h2.58v5.1h.39v1.92h-.74Zm2.42-4.65c.67.07 1.16-.2 1.16-.94 0-.52-.23-.91-.78-.91-.64 0-.74.48-.7.94h-.78c-.06-.98.42-1.56 1.48-1.56.97 0 1.55.49 1.55 1.5 0 1.07-.8 1.23-1.13 1.33.87.13 1.16.62 1.16 1.46 0 1.14-.58 1.66-1.67 1.66-1.62 0-1.49-1.36-1.49-1.69h.78c0 .55.1 1.07.77 1.07.68 0 .87-.42.87-1.04 0-.94-.35-1.14-1.22-1.14v-.68Zm3.09 3.39v-5.76h2.94v.65h-2.23v1.85h2.07v.62h-2.07v1.98h2.26v.66h-2.97Zm-202.63 9.2c.68 0 .61-.68.61-1v-.2c0-.88-.26-.98-.61-.98h-.1v2.18h.1Zm-.64-2.18c-.36 0-.62.1-.62.98v.2c0 .32-.03 1 .62 1h.1v-2.18h-.1Zm.64-.35c.42 0 1.06.03 1.06 1.36v.26c0 1.01-.41 1.27-1.1 1.27h-.06v.4h-.45v-.4h-.06c-.68 0-1.1-.26-1.1-1.27v-.26c0-1.33.65-1.36 1.1-1.36h.06v-.2h.45v.2h.1Zm1.84 3.28v-3.48h1.77v.36h-1.32v1.14h1.26v.39h-1.26v1.2h1.35v.4h-1.8Zm4.13-3.12h-.71c0 .71-.13 1.5-.26 1.95-.13.42-.29.72-.32.78h1.29v-2.73Zm.26 3.87v-.75h-1.88v.75h-.41v-1.14h.22c.16-.23.36-.58.42-.84.16-.56.3-1.14.3-2.25h1.54v3.1h.22v1.13h-.41Zm.93-.75v-3.48h1.77v.36h-1.35v1.14h1.26v.39h-1.26v1.2h1.38v.4h-1.8Zm2.8-1.91h.49c.2 0 .61-.07.61-.63 0-.52-.39-.58-.48-.58h-.62v1.2Zm-.41 1.91v-3.48h1c.48 0 .96.16.96.98 0 .78-.61.94-.97.94h-.58v1.56h-.41Zm3.35-3.06h-.03l-.45 1.83h.96l-.48-1.83Zm-.8 3.06h-.49l1-3.48h.51l1.04 3.48h-.45l-.23-.84h-1.2l-.19.84Zm4.7-3.48v3.48h-.45v-3.12h-.9v.94c0 1.14-.07 1.63-.46 2.02a.6.6 0 0 1-.41.2.44.44 0 0 1-.23-.07v-.4s.06.04.13.04c.1 0 .2-.03.26-.13.32-.42.29-.71.29-1.98v-.98h1.77Zm1.65 1.82h-.49v1.27h.61c.1 0 .49-.1.49-.65 0-.52-.42-.62-.61-.62Zm.1 1.66h-1v-3.48h.41v1.46h.58c.36 0 .97.17.97.98 0 .81-.48 1.04-.97 1.04Zm1.67 0v-3.48h.42v1.5h1.22v-1.5h.42v3.48h-.42v-1.6h-1.22v1.6h-.42Zm4.58-1.27v-1.17c0-.71-.52-.75-.65-.75s-.64.04-.64.75v1.17c0 .75.22.95.64.95.42 0 .65-.2.65-.95Zm-1.71-.03v-1.14c0-.68.32-1.14 1.06-1.14s1.1.46 1.1 1.14v1.14c0 .98-.36 1.37-1.1 1.37-.74 0-1.06-.4-1.06-1.37Zm2.93 1.3v-3.48h1.78v.36h-1.32v1.14h1.22v.39h-1.22v1.2h1.35v.4h-1.8Zm3.45 0v-3.48h1.71v.36h-1.26v3.12h-.45Zm3.84-1.27v-1.17c0-.71-.52-.75-.65-.75-.12 0-.64.04-.64.75v1.17c0 .75.23.95.64.95.42 0 .65-.2.65-.95Zm-1.74-.03v-1.14c0-.68.35-1.14 1.1-1.14.7 0 1.06.46 1.06 1.14v1.14c0 .98-.36 1.37-1.07 1.37-.74 0-1.1-.4-1.1-1.37Zm4.45-1.24c0-.2 0-.39-.1-.48-.1-.13-.29-.17-.39-.17-.35 0-.51.23-.51.26-.03.04-.1.13-.1.72v.94c0 .85.26.95.61.95.13 0 .55-.04.55-.72h.45c0 1.1-.74 1.1-.96 1.1-.45 0-1.1-.03-1.1-1.4v-.97c0-.97.42-1.27 1.1-1.27.67 0 .96.36.9 1.04h-.45Zm2.32 1.7c-.23.58-.35.84-.9.84h-.13v-.39h.1c.25 0 .32-.06.38-.26l.16-.32-1.1-2.51h.46l.84 1.95.74-1.95h.45l-1 2.64Zm3-2.28h-.71c0 .71-.13 1.5-.26 1.95-.13.42-.32.72-.32.78h1.29v-2.73Zm.22 3.87v-.75h-1.83v.75h-.45v-1.14h.22c.2-.23.36-.58.45-.84a7.5 7.5 0 0 0 .26-2.25h1.58v3.1h.23v1.13h-.46Zm1.91-3.81-.48 1.83h1l-.52-1.83Zm-.78 3.06h-.48l1-3.48h.52l1 3.48h-.46l-.19-.84h-1.2l-.19.84Zm2.97-1.91h.48c.17 0 .62-.07.62-.63a.53.53 0 0 0-.52-.58h-.58v1.2Zm-.45 1.91v-3.48h1.03c.45 0 .94.16.94.98 0 .78-.58.94-.94.94h-.58v1.56h-.45Zm4.13-2.54c0-.2-.04-.39-.13-.48-.07-.13-.3-.17-.39-.17-.35 0-.48.23-.52.26 0 .04-.1.13-.1.72v.94c0 .85.3.95.62.95.13 0 .55-.04.55-.72h.45c.03 1.1-.74 1.1-.97 1.1-.42 0-1.1-.03-1.1-1.4v-.97c0-.97.46-1.27 1.13-1.27.68 0 .94.36.9 1.04h-.44Zm3.06-.94v.36h-.9v3.12h-.45v-3.12h-.9v-.36h2.25Zm.9 3.09h.61c.49 0 .65-.36.65-.62 0-.55-.32-.65-.77-.65h-.49v1.27Zm0-1.63h.65c.35-.03.51-.22.51-.55 0-.3-.16-.55-.55-.55h-.6v1.1Zm-.42 2.02v-3.48h1.1c.48 0 .64.16.77.36.13.16.13.39.13.45 0 .43-.13.72-.58.82v.03c.49.06.71.36.71.81 0 .91-.64 1.01-1.03 1.01h-1.1Zm2.84 0v-3.48h1.77v.36h-1.32v1.14h1.23v.39h-1.23v1.2h1.36v.4h-1.8Zm2.39 0v-3.48h.45v1.5h1.2v-1.5h.44v3.48h-.45v-1.6h-1.2v1.6h-.44Zm2.93 0v-3.48h.42v1.5h1.23v-1.5h.42v3.48h-.42v-1.6h-1.23v1.6h-.42Zm4.58-1.27v-1.17c0-.71-.48-.75-.64-.75-.13 0-.62.04-.62.75v1.17c0 .75.2.95.62.95.41 0 .64-.2.64-.95Zm-1.7-.03v-1.14c0-.68.35-1.14 1.06-1.14.74 0 1.1.46 1.1 1.14v1.14c0 .98-.36 1.37-1.1 1.37-.71 0-1.07-.4-1.07-1.37Zm2.93 1.3v-3.48h1.77v.36h-1.32v1.14h1.22v.39h-1.22v1.2h1.35v.4h-1.8Zm3.9-.39h.6c.46 0 .65-.32.65-.65 0-.45-.35-.62-.7-.62h-.55v1.27Zm-.45.4v-3.49h1.8v.36h-1.35v1.1h.55c.58 0 1.16.17 1.16.98 0 .91-.65 1.04-1.07 1.04h-1.1Zm5.48-1.28v-1.17c0-.71-.49-.75-.61-.75-.17 0-.65.04-.65.75v1.17c0 .75.23.95.65.95.42 0 .6-.2.6-.95Zm-2.61 1.27v-3.48h.42v1.5h.48v-.46c0-.68.35-1.14 1.1-1.14.7 0 1.06.46 1.06 1.14v1.14c0 .98-.36 1.37-1.06 1.37-.75 0-1.1-.4-1.1-1.37v-.3h-.48v1.6h-.42Zm5.61-3.12h-.75c0 .71-.1 1.5-.25 1.95-.13.42-.3.72-.33.78h1.33v-2.73Zm.22 3.87v-.75h-1.84v.75h-.45v-1.14h.23c.2-.23.35-.58.45-.84a7.5 7.5 0 0 0 .26-2.25h1.55v3.1h.25v1.13h-.45Zm2.36-2.57h-.04l-1.19 1.82h-.58l1.32-1.92-1.22-1.56h.48l1.2 1.53h.03v-1.53h.42v1.53h.03l1.2-1.53h.5l-1.25 1.56 1.32 1.92h-.58l-1.2-1.82h-.02v1.82h-.42v-1.82Zm2.7 1.82v-3.48h1.78v.36h-1.36v1.14h1.26v.39h-1.26v1.2h1.39v.4h-1.8Zm4.29-3.48v.36h-.9v3.12h-.45v-3.12h-.9v-.36h2.25Zm.49 3.48v-3.48h.42v1.5h1.22v-1.5h.42v3.48h-.42v-1.6h-1.22v1.6h-.42Zm4.58-1.27v-1.17c0-.71-.52-.75-.65-.75s-.64.04-.64.75v1.17c0 .75.22.95.64.95.42 0 .65-.2.65-.95Zm-1.71-.03v-1.14c0-.68.35-1.14 1.06-1.14.74 0 1.1.46 1.1 1.14v1.14c0 .98-.36 1.37-1.1 1.37-.7 0-1.06-.4-1.06-1.37Zm2.93 1.3v-3.48h1.78v.36h-1.33v1.14h1.23v.39h-1.23v1.2h1.36v.4h-1.8Zm5.13-1.27v-1.17c0-.71-.48-.75-.64-.75-.13 0-.62.04-.62.75v1.17c0 .75.2.95.62.95.41 0 .64-.2.64-.95Zm-1.7-.03v-1.14c0-.68.34-1.14 1.06-1.14.74 0 1.1.46 1.1 1.14v1.14c0 .98-.36 1.37-1.1 1.37-.72 0-1.07-.4-1.07-1.37Zm3.38.91h.6c.5 0 .65-.32.65-.65 0-.45-.32-.62-.7-.62h-.55v1.27Zm-.46.4v-3.49h1.81v.36h-1.35v1.1h.58c.54 0 1.13.17 1.13.98 0 .91-.65 1.04-1.04 1.04h-1.13Zm3.33-1.92h.48c.16 0 .61-.07.61-.63 0-.52-.39-.58-.48-.58h-.61v1.2Zm-.46 1.91v-3.48h1.03c.46 0 .97.16.97.98 0 .78-.61.94-.97.94h-.57v1.56h-.46Zm3.36-3.06-.49 1.83h.97l-.48-1.83Zm-.8 3.06h-.46l1-3.48h.52l1 3.48h-.46l-.22-.84h-1.16l-.23.84Zm3.05-2.05c.42.03.71-.13.71-.58 0-.33-.16-.56-.48-.56-.39 0-.45.3-.42.59h-.48c-.04-.59.25-.98.9-.98.58 0 .94.33.94.91 0 .69-.49.78-.68.82.55.1.7.39.7.9 0 .7-.35 1.02-1.03 1.02-.96 0-.87-.85-.87-1.04h.46c0 .35.06.65.45.65.42 0 .55-.26.55-.65 0-.56-.23-.69-.75-.69v-.39Zm3.55.78v-1.17c0-.71-.51-.75-.64-.75s-.65.04-.65.75v1.17c0 .75.23.95.65.95.42 0 .64-.2.64-.95Zm-1.74-.03v-1.14c0-.68.36-1.14 1.1-1.14.74 0 1.1.46 1.1 1.14v1.14c0 .98-.36 1.37-1.1 1.37-.74 0-1.1-.4-1.1-1.37Zm3.42.91h.61c.45 0 .65-.36.65-.62 0-.55-.36-.65-.8-.65h-.46v1.27Zm0-1.63h.64c.33-.03.49-.22.49-.55 0-.3-.16-.55-.52-.55h-.61v1.1Zm-.45 2.02v-3.48h1.13c.48 0 .64.16.77.36.1.16.13.39.13.45 0 .43-.16.72-.58.82v.03c.48.06.7.36.7.81 0 .91-.64 1.01-1.06 1.01h-1.1Zm3.77-3.06-.48 1.83h1l-.52-1.83Zm-.78 3.06h-.48l1-3.48h.52l1 3.48h-.46l-.19-.84h-1.2l-.19.84Zm4.3-3.48v.36h-.9v3.12h-.46v-3.12h-.9v-.36h2.25Zm.48 3.48v-3.48h1.77v.36h-1.35v1.14h1.25v.39h-1.25v1.2h1.38v.4h-1.8Zm4.55-3.48v3.48h-.46v-3.12h-.9v.94c0 1.14-.06 1.63-.45 2.02a.6.6 0 0 1-.42.2.39.39 0 0 1-.22-.07v-.4s.06.04.16.04c.06 0 .16-.03.22-.13.32-.42.32-.71.32-1.98v-.98h1.75Zm1.64 1.82h-.45v1.27h.58c.1 0 .48-.1.48-.65 0-.52-.42-.62-.61-.62Zm.13 1.66h-1.03v-3.48h.45v1.46h.55c.35 0 .96.17.96.98 0 .81-.48 1.04-.93 1.04Zm1.64 0v-3.48h.42v1.5h1.23v-1.5h.42v3.48h-.42v-1.6h-1.23v1.6h-.42Zm4.58-1.27v-1.17c0-.71-.48-.75-.64-.75-.13 0-.62.04-.62.75v1.17c0 .75.2.95.62.95s.64-.2.64-.95Zm-1.7-.03v-1.14c0-.68.35-1.14 1.06-1.14.74 0 1.1.46 1.1 1.14v1.14c0 .98-.36 1.37-1.1 1.37-.71 0-1.07-.4-1.07-1.37Zm2.93 1.3v-3.48h1.8v.36h-1.35v1.14h1.26v.39h-1.26v1.2h1.35v.4h-1.8Zm4.61-.84c-.23.58-.36.84-.9.84h-.13v-.39h.1c.25 0 .31-.06.38-.26l.16-.32-1.1-2.51h.46l.83 1.95.75-1.95h.45l-1 2.64Zm1.8-2.64v.62c0 .71.16.98.68.98h.52v-1.6h.45v3.48h-.45v-1.5h-.62c-.67 0-1.03-.38-1.03-1.36v-.62h.45Zm2.81 1.57h.48c.2 0 .62-.07.62-.63 0-.52-.39-.58-.49-.58h-.61v1.2Zm-.45 1.91v-3.48h1.03c.45 0 .97.16.97.98 0 .78-.61.94-.97.94h-.58v1.56h-.45Zm2.64 0v-3.48h1.78v.36h-1.36v1.14h1.26v.39h-1.26v1.2h1.39v.4h-1.8Zm3.78-1.82-1.23 1.82h-.55l1.32-1.92-1.25-1.56h.51l1.2 1.53v-1.53h.45v1.53l1.22-1.53h.49l-1.26 1.56 1.32 1.92h-.55l-1.22-1.82v1.82h-.45v-1.82Zm4.44-1.3h-.7c0 .71-.13 1.5-.26 1.95-.13.42-.3.72-.32.78h1.28v-2.73Zm.23 3.87v-.75h-1.84v.75h-.45v-1.14h.26c.16-.23.32-.58.42-.84.16-.56.29-1.14.29-2.25h1.55v3.1h.22v1.13h-.45Zm.97-.75v-3.48h1.77v.36h-1.35v1.14h1.25v.39h-1.25v1.2h1.38v.4h-1.8Zm2.35 0v-3.48h.45v1.5h1.23v-1.5h.42v3.48h-.42v-1.6h-1.23v1.6h-.45Zm2.94 0v-3.48h.42v2.57h.03l1.2-2.57h.44v3.48h-.45v-2.6l-1.22 2.6h-.42Zm2.9 0v-3.48h1.77v.36h-1.32v1.14h1.22v.39h-1.22v1.2h1.35v.4h-1.8Zm3.9-.39h.61c.45 0 .65-.36.65-.62 0-.55-.36-.65-.8-.65h-.46v1.27Zm0-1.63h.61c.36-.03.52-.22.52-.55 0-.3-.16-.55-.52-.55h-.61v1.1Zm-.45 2.02v-3.48h1.13c.48 0 .64.16.77.36.1.16.13.39.13.45 0 .43-.16.72-.58.82v.03c.48.06.68.36.68.81 0 .91-.65 1.01-1.04 1.01h-1.1Zm5.58 0h-.42v-3.48h.42v3.48Zm-1.8-1.66h-.5v1.27h.62c.1 0 .48-.1.48-.65 0-.52-.41-.62-.6-.62Zm.09 1.66h-1v-3.48h.42v1.46h.58c.35 0 .97.17.97.98 0 .81-.49 1.04-.97 1.04Zm4.03-2.54c0-.2 0-.39-.1-.48-.1-.13-.29-.17-.38-.17-.36 0-.52.23-.52.26 0 .04-.1.13-.1.72v.94c0 .85.3.95.62.95.13 0 .54-.04.54-.72h.45c.04 1.1-.74 1.1-.96 1.1-.45 0-1.1-.03-1.1-1.4v-.97c0-.97.42-1.27 1.1-1.27.7 0 .97.36.9 1.04h-.45Zm1.16-.94h.45v3.1h1.1v-3.1h.45v3.1h1.13v-3.1h.42v3.48h-3.55v-3.48Zm4.35 3.48v-3.48h1.78v.36h-1.32v1.14h1.22v.39h-1.22v1.2h1.35v.4h-1.8Zm2.39 0v-3.48h1.7v.36h-1.25v3.12h-.45Zm3.8-1.27v-1.17c0-.71-.48-.75-.6-.75-.14 0-.65.04-.65.75v1.17c0 .75.22.95.64.95.42 0 .61-.2.61-.95Zm-1.7-.03v-1.14c0-.68.35-1.14 1.1-1.14.7 0 1.06.46 1.06 1.14v1.14c0 .98-.36 1.37-1.07 1.37-.74 0-1.1-.4-1.1-1.37Zm5.7.03v-1.17c0-.71-.51-.75-.64-.75s-.65.04-.65.75v1.17c0 .75.23.95.65.95.42 0 .64-.2.64-.95Zm-1.74-.03v-1.14c0-.68.36-1.14 1.1-1.14.74 0 1.1.46 1.1 1.14v1.14c0 .98-.36 1.37-1.1 1.37-.74 0-1.1-.4-1.1-1.37Zm3.42.91h.61c.45 0 .65-.32.65-.65 0-.45-.36-.62-.71-.62h-.55v1.27Zm-.45.4v-3.49h1.8v.36h-1.35v1.1h.55c.58 0 1.16.17 1.16.98 0 .91-.65 1.04-1.07 1.04h-1.1Zm3.29-1.92h.48c.2 0 .61-.07.61-.63 0-.52-.38-.58-.48-.58h-.61v1.2Zm-.42 1.91v-3.48h1c.48 0 .96.16.96.98 0 .78-.6.94-.96.94h-.58v1.56h-.42Zm3.36-3.06-.5 1.83h.97l-.48-1.83Zm-.81 3.06h-.49l1-3.48h.55l1 3.48h-.45l-.23-.84h-1.16l-.22.84Zm3.03-2.05c.42.03.74-.13.74-.58 0-.33-.16-.56-.49-.56-.38 0-.45.3-.45.59h-.45c-.03-.59.26-.98.9-.98.59 0 .94.33.94.91 0 .69-.48.78-.68.82.52.1.71.39.71.9 0 .7-.35 1.02-1.03 1.02-.97 0-.9-.85-.9-1.04h.45c.03.35.06.65.48.65s.55-.26.55-.65c0-.56-.22-.69-.77-.69v-.39Zm3.54.78v-1.17c0-.71-.48-.75-.6-.75-.17 0-.65.04-.65.75v1.17c0 .75.22.95.64.95.42 0 .61-.2.61-.95Zm-1.7-.03v-1.14c0-.68.35-1.14 1.1-1.14.7 0 1.06.46 1.06 1.14v1.14c0 .98-.36 1.37-1.07 1.37-.74 0-1.1-.4-1.1-1.37Zm3.38.91h.65c.45 0 .6-.36.6-.62 0-.55-.31-.65-.77-.65h-.48v1.27Zm0-1.63h.65c.35-.03.51-.22.51-.55 0-.3-.16-.55-.51-.55h-.65v1.1Zm-.42 2.02v-3.48h1.13c.45 0 .61.16.74.36.13.16.16.39.16.45 0 .43-.16.72-.6.82v.03c.5.06.7.36.7.81 0 .91-.64 1.01-1.03 1.01h-1.1Zm3.78-3.06-.49 1.83h.97l-.49-1.83Zm-.81 3.06h-.45l1-3.48h.51l1 3.48h-.45l-.23-.84h-1.16l-.22.84Zm2.55 0v-3.48h.41v1.5h1.23v-1.5h.42v3.48h-.42v-1.6h-1.23v1.6h-.41Zm2.9 0v-3.48h.45v2.57l1.2-2.57h.44v3.48h-.45v-2.6l-1.2 2.6h-.44Zm4.32-3.12h-.68c-.32 0-.45.3-.45.55 0 .3.16.59.48.59h.65v-1.14Zm0 3.12v-1.62h-.52c-.16 0-.48.03-.51.45-.03.46 0 .91-.13 1.17h-.45c.06-.23.1-.78.1-.9.02-.72.16-.86.57-.92a.78.78 0 0 1-.64-.81c0-.43.23-.85.84-.85h1.19v3.48h-.45Z" fill="#4A4A48"/><path d="M135.08.59v25.22" stroke="#25429D" stroke-width="4"/></g></g><defs><clipPath id="a"><path fill="#fff" d="M0 0h274v36h-274z"/></clipPath></defs></svg>