<svg viewBox="0 0 187 70" fill="none" xmlns="http://www.w3.org/2000/svg"><path d="M96.7 23.5h-36.29l-.14-.3.67-.9 2.16-3.02c-.58-.96-1.2-1.87-1.83-2.74l-4.02.91-.72.2a24.49 24.49 0 0 0-2.5-2.5l.05-.19 1.06-4.55c-.87-.68-1.82-1.3-2.74-1.83l-3.93 2.83a27.42 27.42 0 0 0-3.26-1.34l-.76-4.8a24.47 24.47 0 0 0-3.26-.62l-2.55 4.13c-.57-.05-1.15-.05-1.77-.05-.57 0-1.2 0-1.77.05l-2.54-4.13c-1.16.15-2.26.34-3.31.63l-.77 4.79c-1.15.38-2.2.82-3.26 1.34l-3.93-2.83c-.96.58-1.87 1.2-2.73 1.83l1.05 4.55.05.2c-.86.76-1.73 1.62-2.5 2.49l-.71-.2-3.98-.9c-.67.86-1.3 1.81-1.83 2.73l2.16 3.02.67.9a27.43 27.43 0 0 0-1.34 3.27l-1.15.19-3.64.57a24.47 24.47 0 0 0-.63 3.26l3.26 2.02.87.53c-.05.57-.05 1.15-.05 1.77 0 .58 0 1.2.05 1.77l-.72.44-3.4 2.1c.14 1.1.38 2.21.62 3.27l4.74.76c.05.1.05.2.1.29.38 1 .77 2.01 1.25 3.02l-2.83 3.93c.57.96 1.2 1.87 1.82 2.73l3.79-.86.95-.24c.77.91 1.64 1.73 2.5 2.5l-.72 3.02-.38 1.67c.67.48 1.34.91 2.06 1.4.24.14.48.33.72.47l3.93-2.82c1.05.52 2.16.95 3.26 1.34l.77 4.8c1.05.28 2.15.47 3.26.62l2.54-4.13c.57.05 1.15.05 1.77.05.58 0 1.2-.05 1.77-.05l2.55 4.13c1.1-.15 2.2-.39 3.26-.63l.76-4.8c1.1-.38 2.2-.8 3.26-1.33l3.93 2.82c.24-.14.48-.33.72-.48.72-.43 1.4-.86 2.07-1.39l-.39-1.67-.72-3.02a30.6 30.6 0 0 0 2.5-2.5l.95.24 3.8.86a24.8 24.8 0 0 0 1.81-2.73h28.92l4.65-26.9Zm-59.11 34.9a23.55 23.55 0 0 1-24.3-24.3 23.55 23.55 0 0 1 44.2-10.55h-29.2l-4.75 26.89h30.93a23.82 23.82 0 0 1-16.88 7.96Z" fill="#2B3990"/><path d="m24.4 19.13-4.7 26.9h68.42l4.75-26.9h-68.47Z" fill="#BE1E2D"/><path d="M101.98 19.18h2.88c.48 0 .81.1 1 .34.2.19.25.52.15.95-.05.3-.15.53-.34.72-.14.2-.33.3-.52.39.38.1.57.38.67.76v.53c-.1.48-.24.82-.53 1.06-.24.24-.62.33-1.1.33h-3.12l.91-5.08Zm2.59 3.5c.05-.29-.05-.43-.33-.43h-1.44l-.2 1h1.44c.3 0 .48-.14.53-.43v-.14Zm.14-2.06c.05-.29-.04-.43-.33-.43h-1.25l-.19 1h1.25c.28 0 .48-.14.52-.43v-.14Zm5.47 3.55c-1.1.1-2.02.14-2.69.14-.48 0-.81-.1-1-.34-.2-.24-.24-.57-.15-1.05l.43-2.3c.1-.53.3-.87.53-1.1.29-.24.67-.34 1.15-.34h2.6l-.2 1h-2.3c-.29 0-.48.15-.53.44l-.43 2.3c0 .1 0 .2.05.29.05.04.14.1.24.1h1.1c.14 0 .29 0 .53-.05.19 0 .48-.05.81-.05l-.14.96Zm4.55.09h-3.98l.92-5.08h4.02l-.19 1h-2.73l-.2.97h2.16l-.19 1h-2.16l-.19 1.06h2.73l-.19 1.05Zm1.49-5.08h3.02c.53 0 .86.1 1.06.34.19.23.24.57.14 1.1l-.14.72c-.1.52-.3.86-.53 1.1-.29.24-.67.34-1.15.34h-1.73l-.24 1.43h-1.3l.87-5.03Zm2.92 1.44c.05-.29-.04-.43-.33-.43h-1.44l-.29 1.58h1.44c.29 0 .48-.15.53-.43l.1-.72Zm6.14 2.25a2 2 0 0 1-.53 1.1c-.28.24-.67.34-1.15.34h-1.82c-.53 0-.86-.1-1.05-.34-.2-.24-.24-.57-.15-1.1l.44-2.3c.09-.53.28-.87.52-1.1.29-.25.67-.34 1.15-.34h1.83c.52 0 .86.1 1.05.33.2.24.24.58.14 1.1l-.43 2.3Zm-.9-2.3c.04-.29-.06-.43-.34-.43h-1.25c-.29 0-.48.14-.53.43l-.43 2.3c-.05.29.05.43.34.43h1.24c.29 0 .48-.14.53-.43l.43-2.3Zm5.32 3.6c-1.11.1-2.02.14-2.7.14-.47 0-.8-.1-1-.34-.2-.24-.24-.57-.14-1.05l.43-2.3c.1-.53.29-.87.52-1.1.3-.24.68-.34 1.16-.34h2.59l-.2 1h-2.3c-.29 0-.48.15-.53.44l-.43 2.3c0 .1 0 .2.05.29.05.04.14.1.24.1h1.1c.15 0 .3 0 .53-.05.2 0 .48-.05.82-.05l-.15.96Zm4.45 0c-1.1.1-2.01.14-2.68.14-.48 0-.82-.1-1.01-.34-.2-.24-.24-.57-.14-1.05l.43-2.3c.1-.53.28-.87.52-1.1.3-.24.68-.34 1.16-.34h2.58l-.19 1h-2.3c-.29 0-.48.15-.53.44l-.43 2.3c0 .1 0 .2.05.29.05.04.14.1.24.1h1.1c.15 0 .29 0 .53-.05.2 0 .48-.05.81-.05l-.14.96Zm4.99.09h-1.3l.53-3.11-2.3 3.11h-1.34l.9-5.08h1.3l-.53 3.12 2.3-3.12h1.4l-.96 5.08Zm3.98 0 .52-3.12-2.3 3.12h-1.34l.91-5.08h1.3l-.53 3.12 2.3-3.12h1.39l-.91 5.08h-1.34Zm-.34-5.42c-.62 0-.86-.33-.77-.96l.05-.24h.96l-.05.2c0 .1 0 .14.05.19.05.05.1.1.2.1h.23c.1 0 .15 0 .2-.1.04-.05.09-.1.09-.2l.05-.19h.96l-.05.24c-.1.63-.48.96-1.1.96h-.82Zm6.42 5.33c-1.1.1-2 .14-2.68.14-.48 0-.81-.1-1-.34-.2-.24-.25-.57-.15-1.05l.43-2.3c.1-.53.29-.87.53-1.1.29-.24.67-.34 1.15-.34h2.59l-.2 1h-2.3c-.28 0-.47.15-.52.44l-.43 2.3c0 .1 0 .2.04.29.05.04.15.1.24.1h1.11c.14 0 .28 0 .53-.05.19 0 .47-.05.81-.05l-.14.96Zm5.18-5.04c.15 0 .34.05.63.1l-.2.95h-.28c-.1 0-.15 0-.2.05l-.14.15-.9 1.29.95 2.59h-1.39l-.77-2.06h-.67l-.38 2.06h-1.3l.92-5.08h1.29l-.34 2.01h.68l.95-1.39c.15-.2.3-.38.48-.48.2-.14.44-.2.67-.2Zm5.09 3.74a2 2 0 0 1-.53 1.1c-.29.24-.67.34-1.15.34h-1.82c-.53 0-.87-.1-1.06-.34-.19-.24-.24-.57-.14-1.1l.43-2.3c.1-.53.29-.87.53-1.1.28-.25.67-.34 1.15-.34h1.82c.53 0 .86.1 1.06.33.19.24.24.58.14 1.1l-.43 2.3Zm-.87-2.3c.05-.29-.04-.43-.33-.43h-1.25c-.29 0-.48.14-.53.43l-.43 2.3c-.05.29.05.43.34.43h1.25c.28 0 .47-.14.52-.43l.43-2.3Zm5.37 3.69h-4.03l.92-5.08h4.02l-.19 1h-2.73l-.2.97h2.17l-.2 1h-2.16l-.19 1.06h2.74l-.15 1.05Zm-59.59 7.29a2 2 0 0 1-.53 1.1c-.29.24-.67.34-1.15.34h-1.82c-.53 0-.87-.1-1.06-.34-.19-.24-.24-.57-.14-1.1l.43-2.3c.1-.53.29-.87.53-1.1.24-.25.67-.34 1.15-.34h1.82c.53 0 .86.1 1.06.33.19.24.23.58.14 1.1l-.43 2.3Zm-.91-2.3c.04-.3-.05-.43-.34-.43h-1.25c-.28 0-.47.14-.52.43l-.44 2.3c-.04.29.05.43.34.43h1.25c.28 0 .48-.14.52-.43l.44-2.3Zm3.26.57h1.72c.53 0 .86.1 1.06.34.19.24.24.57.14 1.1l-.05.24c-.1.53-.28.86-.52 1.1-.3.24-.68.34-1.16.34h-3.02l.91-5.08h4.03l-.19 1h-2.73l-.2.96Zm1.63 1.44c.04-.29-.05-.43-.34-.43h-1.44l-.19 1.1h1.44c.29 0 .48-.14.53-.43v-.24Zm1.63 1.68.9-5.08h1.3l-.72 4.07h1.25l.72-4.07h1.3l-.73 4.07h1.25l.72-4.07h1.3l-.72 4.07h.52l-.33 1.97h-1.25l.1-.96h-5.61Zm11.51 0h-4.03l.9-5.08h4.03l-.19 1h-2.73l-.2.96h2.17l-.2 1h-2.15l-.2 1.06h2.74l-.15 1.06Zm4.5-.1c-1.1.1-2.01.15-2.68.15-.48 0-.82-.1-1.01-.34-.2-.24-.24-.58-.14-1.05l.43-2.3c.1-.53.28-.87.52-1.1.3-.25.67-.34 1.16-.34h2.58l-.19 1h-2.3c-.29 0-.48.15-.53.43l-.43 2.3c0 .1 0 .2.05.3a.4.4 0 0 0 .24.09h1.1c.15 0 .29 0 .53-.05.2 0 .48-.05.81-.05l-.14.96Zm3.02.1h-1.3l.73-4.08h-1.54l.2-1h4.36l-.2 1h-1.53l-.72 4.08Zm2.93-5.08h2.87c.48 0 .82.1 1.01.33.2.2.24.53.14.96a1.2 1.2 0 0 1-.33.72c-.15.2-.34.29-.53.38.38.1.58.39.67.77v.53c-.1.48-.24.81-.53 1.05-.24.24-.62.34-1.1.34h-3.12l.92-5.08Zm2.59 3.5c.04-.3-.05-.44-.34-.44h-1.44l-.2 1.01h1.45c.28 0 .48-.14.53-.43v-.14Zm.14-2.02c.05-.29-.05-.43-.34-.43h-1.24l-.2 1h1.25c.29 0 .48-.14.53-.42v-.15Zm6.32 2.21c-.09.53-.28.86-.52 1.1-.24.24-.67.34-1.15.34h-1.82c-.53 0-.86-.1-1.06-.34-.19-.24-.24-.57-.14-1.1l.43-2.3c.1-.53.29-.87.53-1.1.24-.25.67-.34 1.15-.34h1.82c.53 0 .86.1 1.06.33.19.24.24.58.14 1.1l-.43 2.3Zm-.9-2.3c.05-.3-.05-.43-.34-.43h-1.25c-.28 0-.47.14-.52.43l-.43 2.3c-.05.29.04.43.33.43h1.25c.29 0 .48-.14.53-.43l.43-2.3Zm-37.64 12.37h-1.3l.53-3.12-2.3 3.12h-1.39l.91-5.08h1.3l-.53 3.11 2.3-3.11h1.39l-.91 5.08Zm.77-1.06c1.2.1 2.06.1 2.59.1.1 0 .19-.05.28-.1.1-.05.15-.14.15-.29l.05-.28c.04-.3-.05-.43-.34-.43h-1.73l.2-1.01h1.58c.28 0 .48-.14.52-.43l.05-.15c.05-.28-.05-.43-.33-.43h-2.3l.19-1h2.68c.48 0 .82.1 1 .33.2.2.25.53.15.96-.05.29-.14.53-.33.72-.15.2-.39.29-.58.38.39.1.58.39.67.77v.63c-.1.47-.24.8-.52 1.05-.24.24-.63.33-1.1.33-.82 0-1.78-.04-2.88-.14v-1Zm9.54-.29c-.1.53-.29.87-.53 1.1-.29.25-.67.34-1.15.34h-1.82c-.53 0-.86-.1-1.06-.33-.19-.24-.24-.58-.14-1.1l.43-2.3c.1-.53.29-.87.53-1.1.29-.25.67-.34 1.15-.34h1.82c.53 0 .86.1 1.06.33.19.24.23.58.14 1.1l-.43 2.3Zm-.91-2.34c.05-.3-.05-.44-.34-.44h-1.24c-.3 0-.48.15-.53.44l-.43 2.3c-.05.28.04.43.33.43h1.25c.29 0 .48-.15.53-.43l.43-2.3Zm3.26.57h1.72c.53 0 .87.1 1.06.34.19.24.24.57.14 1.1l-.05.24c-.1.53-.28.86-.52 1.1-.3.24-.67.34-1.16.34h-3.02l.92-5.08h4.02l-.19 1h-2.73l-.2.96Zm1.63 1.44c.05-.29-.05-.43-.34-.43h-1.44l-.19 1.1h1.44c.29 0 .48-.14.53-.43v-.24Zm2.54-3.36h3.02c.53 0 .86.1 1.05.34.2.24.24.57.15 1.1l-.15.72c-.1.53-.28.86-.52 1.1-.3.24-.67.34-1.15.34h-1.73l-.24 1.44h-1.3l.87-5.04Zm2.92 1.44c.05-.29-.04-.43-.33-.43h-1.44l-.29 1.58h1.44c.29 0 .48-.14.53-.43l.1-.72Zm5.32 3.6h-4.02l.9-5.08h4.04l-.2 1h-2.73l-.19.96h2.16l-.2 1h-2.15l-.2 1.06h2.74l-.15 1.06Zm3.07 0h-1.3l.73-4.08h-1.54l.2-1h4.36l-.2 1h-1.53l-.72 4.08Zm2.4 0h-1.39l2.83-5.08h1.44l1 5.08h-1.38l-.15-.91h-1.82l-.53.9Zm1-1.82h1.16l-.29-1.68-.86 1.68Zm5.19 1.82h-1.3l.72-4.08h-1.53l.19-1h4.36l-.2 1h-1.53l-.71 4.08Zm6.04 0h-4.03l.91-5.08h4.03l-.2 1h-2.73l-.19.96h2.16l-.2 1h-2.1l-.2 1.06h2.74l-.2 1.06Zm1.82-.24c-.24.2-.48.29-.77.29-.29 0-.57 0-.81-.1l.19-.96h.33c.1 0 .2-.05.24-.1.05-.04.1-.14.15-.23l.86-3.8h4.03l-.91 5.1h-1.3l.72-4.08h-1.53l-.72 3.02c-.1.43-.24.67-.48.86Zm8.2.24h-4.03l.91-5.08h4.03l-.2 1h-2.73l-.19.96h2.16l-.2 1h-2.15l-.2 1.06h2.74l-.14 1.06Zm3.69 0 .53-3.12-2.3 3.12h-1.35l.91-5.09h1.3l-.53 3.12 2.3-3.12h1.4l-.92 5.09h-1.34Zm-.34-5.42c-.62 0-.86-.34-.76-.96l.04-.24h.96l-.05.2c0 .09 0 .14.05.18.05.05.1.1.2.1h.23c.1 0 .15 0 .2-.1.04-.04.1-.1.1-.19l.04-.19h.96l-.05.24c-.1.62-.48.96-1.1.96h-.82Zm9.11 5.42h-1.34l.53-3.12-2.3 3.12h-1.4l.92-5.08h1.3l-.53 3.11 2.3-3.11h1.39l-.87 5.08Zm-70.28 3.64h3.02c.52 0 .86.1 1.05.34.2.24.24.57.14 1.1l-.14.72a2 2 0 0 1-.53 1.1c-.28.24-.67.34-1.15.34h-1.72l-.24 1.44h-1.3l.87-5.04Zm2.92 1.44c.05-.29-.05-.43-.33-.43h-1.44l-.3 1.58h1.45c.28 0 .48-.14.52-.43l.1-.72Zm1.78 3.6h-1.4l2.83-5.09h1.44l1 5.09h-1.38l-.15-.91h-1.87l-.47.9Zm.95-1.82h1.15l-.28-1.68-.87 1.68Zm3.26 1.82.91-5.09h1.3l-.72 4.08h1.82l.72-4.08h1.3l-.72 4.08h.52l-.33 1.97h-1.25l.1-.96h-3.65Zm9.98 0h-1.3l.53-3.12-2.3 3.12h-1.4l.92-5.09h1.3l-.53 3.12 2.3-3.12h1.39l-.91 5.09Zm5.65-1.35c-.1.53-.28.87-.52 1.1-.3.25-.67.34-1.16.34h-1.82c-.52 0-.86-.1-1.05-.33-.2-.24-.24-.58-.14-1.1l.43-2.3c.1-.53.28-.87.52-1.1.3-.25.67-.35 1.15-.35h1.83c.52 0 .86.1 1.05.34.2.24.24.58.14 1.1l-.43 2.3Zm-.86-2.34c.05-.3-.05-.44-.33-.44h-1.25c-.29 0-.48.15-.53.44l-.43 2.3c-.05.28.05.43.34.43h1.24c.29 0 .48-.15.53-.43l.43-2.3Zm5.75 3.69h-1.29l.38-2.06h-1.82l-.38 2.06h-1.3l.91-5.09h1.3l-.34 2.02h1.83l.33-2.02h1.3l-.92 5.09Zm1.78 0h-1.4l2.84-5.09h1.43l1.01 5.09h-1.39l-.14-.91h-1.82l-.53.9Zm1-1.82h1.16l-.3-1.68-.85 1.68Zm4.46 1.62c-.24.2-.48.3-.76.3-.3 0-.58 0-.82-.1l.2-.96h.33c.1 0 .2-.05.24-.1.05-.05.1-.14.14-.24l.86-3.79h4.03l-.9 5.09h-1.3l.72-4.08h-1.54l-.72 3.02c-.05.39-.24.63-.48.87Zm8.59.2h-1.3l.53-3.12-2.3 3.12h-1.4l.92-5.09h1.3l-.53 3.12 2.3-3.12h1.39l-.91 5.09Zm.76-1.01c1.2.1 2.06.1 2.6.1.09 0 .18-.05.28-.1.1-.05.14-.14.14-.29l.05-.29c.05-.28-.05-.43-.33-.43h-1.73l.2-1h1.57c.3 0 .48-.15.53-.44l.05-.14c.05-.29-.05-.43-.34-.43h-2.3l.2-1h2.68c.48 0 .81.09 1 .33.2.19.25.52.15.96-.05.28-.14.52-.34.72-.14.19-.38.28-.57.38.38.1.57.38.67.77v.62c-.1.48-.24.81-.53 1.05-.24.24-.62.34-1.1.34-.82 0-1.77-.05-2.88-.14v-1.01Zm5.66 1.01h-1.39l2.83-5.09h1.44l1 5.09h-1.39l-.14-.91h-1.87l-.48.9Zm.96-1.82h1.15l-.29-1.68-.86 1.68Zm5.23 1.82h-1.3l.72-4.08h-1.53l.19-1h4.36l-.2 1h-1.53l-.72 4.08Zm6.85-1.35c-.1.53-.29.87-.53 1.1-.28.25-.67.34-1.15.34h-1.82c-.53 0-.86-.1-1.05-.33-.2-.24-.24-.58-.15-1.1l.43-2.3c.1-.53.3-.87.53-1.1.29-.25.67-.35 1.15-.35h1.82c.53 0 .87.1 1.06.34.19.24.24.58.14 1.1l-.43 2.3Zm-.91-2.34c.05-.3-.05-.44-.34-.44h-1.24c-.29 0-.48.15-.53.44l-.43 2.3c-.05.28.05.43.33.43h1.25c.29 0 .48-.15.53-.43l.43-2.3Zm2.26-1.35h3.01c.53 0 .87.1 1.06.34.2.24.24.57.14 1.1l-.14.72a2 2 0 0 1-.53 1.1c-.29.24-.67.34-1.15.34h-1.72l-.24 1.44h-1.3l.86-5.04Zm2.92 1.44c.05-.29-.05-.43-.34-.43h-1.44l-.28 1.58h1.43c.3 0 .49-.14.53-.43l.1-.72Zm6.14 2.25c-.1.53-.3.87-.53 1.1-.29.25-.67.34-1.15.34h-1.82c-.53 0-.87-.1-1.06-.33-.2-.24-.24-.58-.14-1.1l.43-2.3c.1-.53.29-.87.53-1.1.28-.25.67-.35 1.15-.35h1.82c.53 0 .86.1 1.05.34.2.24.24.58.15 1.1l-.44 2.3Zm-.92-2.34c.05-.3-.04-.44-.33-.44h-1.25c-.29 0-.48.15-.53.44l-.43 2.3c-.04.28.05.43.34.43h1.25c.28 0 .47-.15.52-.43l.43-2.3Zm2.31-1.35h2.87c.48 0 .82.1 1.01.34.2.19.24.52.14.96-.04.28-.14.52-.33.72-.15.19-.34.28-.53.38.38.1.58.38.67.77v.52c-.1.48-.24.82-.53 1.06-.24.24-.62.33-1.1.33h-3.12l.92-5.08Zm2.54 3.45c.04-.28-.05-.43-.34-.43h-1.44l-.19 1h1.44c.29 0 .48-.13.53-.42v-.15Zm.14-2.01c.05-.29-.05-.43-.34-.43h-1.24l-.2 1h1.25c.3 0 .48-.14.53-.43v-.14Z" fill="#2B3990"/><path d="M31.6 41.86c-.05.33-.2.62-.39.76-.19.15-.48.24-.81.24h-1.3c-.33 0-.62-.1-.72-.24-.14-.14-.19-.43-.1-.76l.3-1.63c.04-.34.19-.63.38-.77.2-.15.48-.24.81-.24h1.3c.33 0 .62.1.72.24.14.14.19.43.1.77l-.3 1.63Zm-.63-1.68c.05-.2-.04-.29-.24-.29h-.86c-.2 0-.34.1-.38.29l-.3 1.63c-.04.19.06.29.25.29h.86c.2 0 .34-.1.39-.3l.28-1.62Zm3.31 2.59c-.67.05-1.2.1-1.72.1-.24 0-.39-.05-.53-.2a.7.7 0 0 1-.1-.57l.2-1.2a1 1 0 0 1 .33-.63 1 1 0 0 1 .62-.23h1.63l-.14.67h-1.34c-.15 0-.24.04-.24.19l-.2 1c0 .05 0 .1.05.15.05.05.05.05.1.05.29 0 .77-.05 1.39-.1l-.05.77Zm2.54-1.68.2-1h.86l-.48 2.72h-.91l.19-1h-.91l-.2 1h-.9l.47-2.73h.91l-.19 1h.96Zm3.98.96a1 1 0 0 1-.33.62c-.2.15-.39.24-.63.24h-1.2a.8.8 0 0 1-.57-.24c-.14-.14-.14-.33-.1-.62l.2-1.2a1 1 0 0 1 .33-.62c.2-.15.38-.24.62-.24h1.2c.24 0 .43.1.58.24.1.14.14.33.1.62l-.2 1.2Zm-.67-1.1c0-.15-.05-.2-.19-.2h-.62c-.15 0-.24.05-.24.2l-.2 1c-.04.15.05.2.2.2h.62c.14 0 .24-.05.24-.2l.2-1Zm2.97 1.86h-1.96l.48-2.73h1.77c.24 0 .38.05.53.2.1.14.14.28.14.43-.05.14-.1.28-.19.43-.1.1-.2.19-.34.19.15.05.3.1.34.24.1.14.1.29.1.48-.05.19-.15.38-.3.53a.88.88 0 0 1-.57.23Zm0-.86c0-.05 0-.1-.05-.14-.04-.05-.04-.05-.1-.05h-.71l-.1.43h.72c.05 0 .1 0 .15-.05.04-.04.04-.1.1-.14v-.05Zm.05-1.05c0-.05 0-.1-.05-.15-.05-.04-.05-.04-.1-.04h-.57l-.1.47h.58c.05 0 .1 0 .14-.04.05-.05.05-.1.1-.15v-.1Zm1.68-.77c.62-.05 1.2-.1 1.72-.1.24 0 .39.05.53.2.1.14.15.33.1.57l-.34 2.02h-.81v-.24c-.2.1-.34.19-.53.24-.2.04-.34.1-.43.1h-.2a.66.66 0 0 1-.52-.2c-.1-.14-.14-.34-.1-.58l.05-.23c.05-.24.15-.44.29-.58.14-.14.38-.2.57-.2h1.06l.05-.18c0-.05 0-.1-.05-.15-.05-.05-.05-.05-.1-.05-.24 0-.48 0-.72.05-.28 0-.48.05-.67.05l.1-.72Zm.57 2.01c.2 0 .39-.04.63-.1l.05-.28h-.72c-.05 0-.1 0-.15.05-.05.05-.05.1-.1.14v.05c0 .05 0 .1.05.14.05.05.05.05.1.05h.14v-.05Zm3.98-1.05.2-1h.9l-.47 2.72h-.91l.19-1h-.91l-.2 1h-.9l.47-2.73h.92l-.2 1h.91Zm3.98.96a1 1 0 0 1-.33.62c-.2.15-.39.24-.63.24h-1.2a.8.8 0 0 1-.57-.24c-.14-.14-.14-.33-.1-.62l.2-1.2a1 1 0 0 1 .33-.62c.2-.15.39-.24.63-.24h1.2c.23 0 .43.1.57.24.1.14.14.33.1.62l-.2 1.2Zm-.72-1.1c0-.15-.04-.2-.19-.2h-.62c-.14 0-.24.05-.24.2l-.2 1c-.04.15.06.2.2.2h.62c.15 0 .24-.05.24-.2l.2-1Zm4.51 1.86h-1.96l.48-2.73h1.77c.24 0 .38.05.53.2.1.14.14.28.14.43-.05.14-.1.28-.2.43-.09.1-.18.19-.33.19.15.05.3.1.34.24.1.14.1.29.1.48-.05.19-.15.38-.3.53a.8.8 0 0 1-.57.23Zm.05-.86c0-.05 0-.1-.05-.14-.05-.05-.05-.05-.1-.05h-.71l-.1.43h.72c.05 0 .1 0 .14-.05.05-.04.05-.1.1-.14v-.05Zm.05-1.05c0-.05 0-.1-.05-.15-.05-.04-.05-.04-.1-.04h-.57l-.1.47h.58c.05 0 .1 0 .14-.04.05-.05.05-.1.1-.15v-.1Zm3.16 1.91.48-2.78-.62.2-.15-.58 1.01-.43h.81l-.62 3.6h-.9Zm1.73-.76c.67.05 1.2.1 1.48.1.1 0 .15 0 .2-.05.04-.05.1-.1.1-.2l.09-.47c-.34.04-.63.1-.91.1h-.34a.69.69 0 0 1-.53-.2c-.1-.14-.14-.34-.1-.58l.1-.67c.05-.28.2-.52.34-.67.19-.14.43-.24.77-.24h.95c.34 0 .58.1.72.24.15.15.15.39.1.67l-.34 1.78c-.04.33-.19.57-.38.72-.2.14-.43.24-.77.24-.48 0-1-.05-1.67-.1l.19-.67Zm1.34-1.25c.2 0 .38 0 .62-.05l.1-.57c.05-.2-.05-.29-.24-.29h-.48c-.2 0-.34.1-.38.29l-.1.43c0 .05 0 .1.05.14.05.05.05.05.1.05h.33Zm3.36 2.06c-.58 0-1.2-.04-1.87-.1l.14-.66c.77.04 1.3.1 1.68.1.1 0 .14 0 .2-.06.04-.04.09-.1.09-.19l.04-.19c.05-.2-.04-.29-.24-.29h-1.05l.14-.72h.96c.2 0 .34-.1.39-.28v-.1c.04-.2-.05-.29-.24-.29h-1.49l.14-.72h1.73c.34 0 .58.1.72.24.14.15.14.39.1.67-.05.2-.1.39-.24.48a.7.7 0 0 1-.44.3c.24.09.44.23.48.57v.43c-.04.33-.19.57-.38.72-.24 0-.53.1-.86.1Zm4.46-2.49c-.05.29-.25.53-.49.77-.1.05-.19.14-.28.19l-1.25.82h1.73l-.15.71h-2.78l.2-.95 2.06-1.35.04-.24c.05-.19-.04-.28-.24-.28h-1.43l.14-.72h1.63c.33 0 .62.1.72.24.14.14.19.43.1.76v.05Zm4.17-.29-.15.67h-1.3l-.33 2.02h-.9l.47-2.73h2.2v.04Zm-.48 1.97h.9l-.14.76h-.9l.14-.76Zm-35.29-19.42h-11.8l-.52 2.83h3.64l-2.01 11.36h8.72c1.35 0 2.35-.29 3.07-.91a4.83 4.83 0 0 0 1.44-2.92 5 5 0 0 0 .05-1.44c-.2-1.15-.82-1.92-1.87-2.2.53-.2 1.05-.58 1.48-1.06a4.1 4.1 0 0 0 .87-1.97c.24-1.25.05-2.16-.43-2.73-.39-.67-1.3-.96-2.64-.96Zm-.91 9.73-.05.39c-.14.81-.62 1.2-1.44 1.2h-4.07l.48-2.83h4.07c.82 0 1.15.43 1 1.24Zm.38-5.7-.05.38c-.14.81-.62 1.2-1.43 1.2h-3.46l.48-2.83h3.45c.82.05 1.16.43 1.01 1.25Zm15.58-4.26h-5.08c-1.44 0-2.5.33-3.26.95-.77.62-1.25 1.68-1.48 3.12l-1.16 6.52c-.24 1.43-.1 2.44.44 3.11.52.67 1.48.96 2.92.96h5.08c1.44 0 2.5-.33 3.26-.96.77-.62 1.25-1.68 1.54-3.11l1.15-6.52c.24-1.44.1-2.45-.43-3.12-.58-.62-1.54-.96-2.98-.96Zm-.28 4.07-1.15 6.52c-.15.81-.63 1.2-1.44 1.2h-3.45c-.82 0-1.16-.39-1.01-1.2l1.15-6.52c.14-.82.62-1.2 1.44-1.2h3.45c.81 0 1.15.38 1 1.2Zm14.86-3.84-6.38 8.72 1.54-8.72h-3.7l-2.49 14.2h3.88l6.38-8.74-1.53 8.73h3.69l2.5-14.2h-3.9Zm17.79.96c-.53-.63-1.49-.96-2.93-.96h-8.53l-2.5 14.2h3.65l.72-4.08h4.89c1.44 0 2.5-.34 3.26-.96.76-.63 1.24-1.68 1.53-3.12l.34-2.01c.19-1.4.1-2.45-.43-3.07Zm-3.26 3.07-.34 2.01c-.14.82-.62 1.2-1.44 1.2h-4.07l.76-4.46h4.08c.81.05 1.15.43 1 1.25Z" fill="#fff"/></svg>