<svg viewBox="0 0 125 50" fill="none" xmlns="http://www.w3.org/2000/svg"><path d="M9.44 48.47s-5.1.57-5.29-.19c-.18-.76 11.28-7.14 27.67-8.7 0 0 5.93-.7.7 2.56-3.74 2.37-9.4 4.6-9.91 6.7-.4 1.2 4.26.22 5.5 0 0 0 4.77-.59 6.57-1.92 0 0 4.13-1.68 5.99-1.5 1.85.19-2.4 1.28-3.98 1.77-1.59.49-2.22.79.57.36a50 50 0 0 0 6.81-1.64c1.19-.36 1.83-.12.46.73s-1.03.82-.4.8c.64-.04 3.99-.46 4.75-.62.76-.15.91-.06 1.34.25.42.3 2.25-.06 3.83-.8 1.58-.72 1.64-1.24 4.35-1.36 1.03.02 6.14-.3 4.25 1.94-1.46 1.1-.15.64.42.43 0 0 2.32-.6 4.2-1.06 1.89-.46 3.01-.58 3.01.4 0 .96 2.65.33 3.96-.16 1.3-.49 2.64-.58 1.49.46a8.33 8.33 0 0 1-1.77 1.36c-.33.19-1 .19-1.1-.12-.08-.3 1.32-.79 1.5-1.03.18-.24-1.8.18-2.98.36-1.19.19-2.37.19-2.46-.97-.13-.82-7.09 2.04-8.67 1.82-.81-.12-1.34-.06.03-.82s2.92-2.1-.91-2.06c-2.74-.03-3.8 1.15-6.17 1.7-2.38.55-4.23 1.25-4.69.33-.64-.06-4.5.92-6.1.55-.97-.31-.89-.42-.37-.79.51-.36-1.83.55-3.56.85-1.73.3-4.8.53-5.08.06-.91.34-19.36 4.78-12.15-1.49 2.26-1.22 11.7-4.55 10.18-6.35-8.32.34-20.99 4.32-24.76 7.54-.17.15 2.44-.15 3.01 0 .58.15.29.55-.24.6Z" fill="#000"/><path d="m124.03 47.95-49.67-.05v-.42l49.68.05v.42Z" fill="#000"/><path d="M124.03 47.95h-.42v-47.56h.42v47.56Z" fill="#000"/><path d="M124.03.42h-86.31v-.42h86.31v.42Zm-114.76 20.41c-.12.17-.03.2 0 .27.02.07.07.07.14.07s.1-.02.17-.09c.06-.06.04-.25.04-.25s-.23-.17-.35 0Zm1.03-5.39c-.05-.18.17-.16.3-.18.09.03.26.03.25.15 0 .07-.06.14-.12.19-.07.06-.13.04-.2.06a.2.2 0 0 1-.1-.04c-.04-.05-.12-.12-.14-.18Zm-.19-.71c.02-.06.06-.12.09-.17l.02.01c.05.01.1 0 .14 0 .12.01.21.04.32.07l.14.04.1.03c.07.02.13.07.2.09.1.02.2-.01.24.1.05.23-.22.16-.35.17a.94.94 0 0 0-.2.04c-.09-.06-.27-.06-.43-.1h-.02c-.15-.03-.28-.1-.24-.28Zm.42 1.33c.25-.18.44-.5.76-.58.17-.04.35-.03.52-.04.17 0 .3-.1.45-.15.08-.03.4-.1.3-.27-.07-.1-.37-.1-.47-.15-.18-.07-.36-.12-.52-.2-.11-.06-.17-.17-.27-.24a.3.3 0 0 0-.19-.06.86.86 0 0 0-.37-.04c-.06 0-.12.02-.18.04-.24 0-.5 0-.72.03l-.1.01h-.03c-.25.01-.5-.07-.76 0-.24.07.02.26.1.35l.03.03c.19.19.35.4.54.59.06.06.1.13.14.2l-.03-.02-.06.85a.33.33 0 0 0-.05.1c-.05.04-.03.14.05.15.1.02.2-.06.28-.12.17-.12.36-.24.5-.39a.5.5 0 0 0 .08-.1Zm1.21-10.18.02-.04.03-.15-.05.2Zm-.09-2.48c.04-.05.06-.1.06-.16l-.06.16Zm3.63 13.11c.09-.01.14-.4.1-.46l-.02.01c-.22-.05-.18.46-.08.45Zm-3.19-4.42.08.03c-.08-.01-.13.05-.12.13 0 .08.1.12.17.15.13.04.4.08.54.02.05-.02.13-.12.1-.18-.02-.08-.15-.07-.22-.08l-.55-.07Zm-.02-1c.15.04.36.16.53.16.06 0 .18-.06.14-.15-.02-.04-.08-.04-.12-.07-.04-.02-.04-.07-.08-.1-.07-.04-.16 0-.23-.02-.09-.02-.13-.1-.22-.12-.18-.06-.39-.06-.59-.06-.2 0-.36-.08-.55-.14-.07 0-.14-.03-.2-.05-.04-.02-.06 0-.1-.05-.02-.03-.01-.07-.04-.1-.08-.07-.17-.02-.18.08-.01.12.04.17.12.23.14.12.25.22.44.24.17.03.34 0 .52.02s.38.08.56.13Zm11.55 2.93h.07l.13.05c.07 0 .12-.02.15-.05l-.05-.03c-.03-.16-.47-.17-.53-.01l.1.01v.06l.26.02a3.55 3.55 0 0 0-.13-.05Zm.24.09-.04-.04h-.07l.1.04Zm-6.4-5.03h-.03c.18-.18-.16-.3-.28-.18-.2.2.16.3.3.18Zm2.1-3.35a.89.89 0 0 1-.13.08l.13-.08Z" fill="#000"/><path d="M25.44 28.21c-4.03.5-7.33 3.76-8.23 4.73-.12.03-.24.07-.33.12-.45.27-3.08 2.14-3.73 2.8-.47.47-1.3 1.45-2 2.33l-1.06 1.34-.02.03c-.18.24-.31.38-.42.48l-.15-.1s-.24-.28-.27-1.09a8.1 8.1 0 0 1 .15-2.08c.12-.42.02-.73.14-.95.08-.16.2-.33.25-.54.09-.35.2-.85-.28-.35-.49.5-.96 2.17-1.13 2.6-.17.44-.12 1.68-.12 1.68 0 .4.02.58.08.86l.02.05c-.6.36-1.55.93-1.92 1.17-.4.25-1.7 1.65-2.19 2.21a4.3 4.3 0 0 0-.4.6c-.34.54-.63 1.16-.85 1.3-.22.16-.72.22-1.18.52l-.07.06c-.14.1-.27.22-.39.38l-.16.2c-.27.29-.42.28-.52.22l-.12-.12a.32.32 0 0 1-.01-.06v-.03c0-.24.2-.89.38-1.33v-.02l.24-.7c.25-.77.58-1.82.67-2.05.15-.34 1.65-3.35 1.69-3.42v-.01l1.58-2.31c2.27-2.7 4.7-5.47 5.63-5.91a.6.6 0 0 1 .09-.05s7.52-7.9 10.87-8.68c.18-.16.47-.24.68-.13.06.03.09.02.1 0 .29.14.68.46.74.75.04.22-.03.64.13.83.02.2-.1.34-.22.47-.05.05-.14.04-.13.13.01.1.15.08.22.08.18.02.3-.04.4.12.06.13.06.3.12.44.07.13.18.26.12.43-.04.13-.17.23-.21.38-.12.5.4.4.62.67l.06.1v.05c.17.35.55.62.67.98.05.16.12.3.21.44.07.12.13.31.25.38Zm.4 1.07a7.15 7.15 0 0 1 1.13 1.67l-.8.08-2.43-.03s-2.22.45-2.67.69c-.45.24-2.45.82-2.64 1-.01.02-.04.03-.07.05l.54-.51a11.4 11.4 0 0 1 6.34-3.4.2.2 0 0 0 .12.04c.26.02.22.16.49.41Zm-16.6 10.86h-.42l-.01-.06c-.08-.17-.02-.16-.18-.73-.15-.56.02-1.54.07-1.84.05-.3.18-.7.34-.78l.04-.02v.99c-.01.31-.03 1.07 0 1.38.03.22-.02.84.15.98.17.14 0 .08 0 .08Zm10.68-24.89a1.73 1.73 0 0 0-.07-.04.36.36 0 0 0 .06-.04l.01.08Zm.33-.98c-.1.13-.17.33-.34.37-.18.03-.35-.18-.4-.33-.06-.22.04-.34.17-.5l.16-.21c.14.21.52.35.68.47-.11.07-.19.1-.27.2Zm-.09.65c.13-.14.26-.3.3-.47.12 0 .24.03.34.1.1.06.1.14.13.2l-.21.19a.66.66 0 0 1-.27.03c-.07 0-.18-.04-.29-.05Zm-.07.47c.12 0 .26-.02.23.15 0 .15-.06.16-.17.11-.13-.05-.1-.16-.05-.24v-.02Zm.4 6.2c-.53.42-.53.68-.55.9-.03.2-1.11.68-1.53 1.02-1.08.85-7.44 6.65-7.63 6.8-.18.17-.05-.57.03-.86.08-.3-.18-.58-.18-.98s.07-.84.05-1.24l-.02-.14c.33-.35 1-.98 1.85-1.12 1.48-.57 6.48-5.14 7.1-5.7 1.06-.5 1.26-.07 1.83 0 0 0 .79.67.92 1.45 0 0-.65-.3-.97 0-.32.29-.85.58-.92.58-.08 0-.24-.3.02-.42.27-.14.27-.29.53-.3.26 0 0-.41-.53 0Zm-6.65-13.74a.42.42 0 0 0-.08.12c-.13 0-.27.01-.36-.07-.14-.13-.06-.33.04-.47l.08-.01c.16-.04.5-.2.62 0 .14.25-.2.32-.3.43Zm.37.6c-.3 0-.58-.17-.2-.4h-.02l.09-.03c.28-.1.32.02.6.1l.18.02c-.04.08-.15.18-.2.28-.13-.02-.34.03-.45.03Zm.2.65c-.1.1-.4.09-.54.08-.1 0-.2-.04-.3-.06-.03-.1-.06-.22-.06-.27.09 0 .2 0 .28-.03.13-.05.15-.14.29-.19.12-.05.34-.02.52 0-.07.14-.05.36-.18.47Zm.77 1.87c-.26-.06-.56-.02-.75-.28-.14-.18-.2-.5-.2-.75.25-.1.35.16.46.37.1.2.3.3.42.47a.5.5 0 0 1 .07.2Zm-.23-1.27a.88.88 0 0 0-.42-.04l.03-.04c.18-.01.3.07.47.07.23 0 .35-.17.55.05.32.33.05.86-.38.56l.01-.08c-.29.04-.33-.31-.26-.52Zm-4.5 17.35-.17.13c-.23.19-.7.25-.78.33-.5.1-1.7.24-2.26-.23-.72-.75-.55-1.03-.55-1.45a3.4 3.4 0 0 0-.72-1.75c-.2-.14-.02-.56.42-.57.44 0 1.54-.25 1.56-.64.02-.39-.2-.3-.54-.11-.35.18-1.86.53-1.98.07-.12-.43.23-.86-.12-1.27-.34-.41-.3-.65 0-.62.22 0 .4.13.58.18.3.09.64-.1.82.04.19.14.5.04.08-.28-.1-.17-.13-.24.05-.54.17-.3-.08-.58-.34-.5-.25.08-.11.15-.03.38s-.05.55-.53.28c-.49-.28-.77-.1-1.1.31-.59.7-.93.48-.76-.23a17.55 17.55 0 0 0 2.65-3.6c.5-.85 1.04-1.5 1.07-2.11.04-.62.02-1.22.28-1.58.55-.32 1.08-.67 1.87-.64 1.58.04 1.51-.37.42-.35-.83.02-.7.02-1.37.18-.44.1-.81.36-.48-.18.34-.54.32-.74.7-.72.4.02.13.03.36.16.23.12.46-.25-.02-.46-.37-.02-.67-.1-.37-.26.3-.16.32-.27 0-.46-.14-.95-.28-2.4.6-2.43.88-.03.39-.31.99.42l.29.38.03.07c.11.2.32.32.55.35.17.01.42-.02.38-.2v-.05c0-.07.03-.1.07-.14l.04-.06c.35.02.71.25 1.02.39.05.02.14.08.23.1.08.1.29.07.4.06l-.27-.04.04-.01c.32 0 .38.12.39.47.01.28.03.64.16.9.1.2.36.35.57.45.23.11.45.1.6-.06.04.02.07.03.12.03.16.02.45-.17.57-.27.21-.16.35-.38.4-.62.04-.16-.03-.17.11-.27.1-.07.3.02.37-.13.13-.29-.32-.33-.47-.37-.31-.08-.31-.16-.29-.47 0-.06.08-.09.07-.19-.36-.06-.3.23-.53.35-.12.07-.24.01-.36.04s-.21.12-.34.14c-.05.28-.23.15-.36.19a.6.6 0 0 0 .04-.14l.02-.14.03-.02c.2.1.4-.15.24-.3a.23.23 0 0 0-.07-.03l.01-.01c.07-.07.22-.18.25-.3a2.42 2.42 0 0 0 .36-.18c.21-.07.4-.26.61-.36.23-.1.47-.16.68-.3.13-.08.54-.36.27-.55-.1-.07-.33.03-.48.15-.09.03-.17.02-.26.06-.17.06-.3.2-.45.31l-.14.13-.07-.04c-.1-.05-.2-.03-.3.02.1-.13.19-.3.01-.37-.15-.05-.43.21-.63.16-.22-.05-.3-.24-.3-.47.01-.24.12-.41.24-.6.07-.13.31-.57-.05-.54-.24.03-.14.4-.4.4-.27 0-.07-.4.04-.53.25-.29.6-.77.94-.91.09-.04.74-.12.47-.35-.04-.04-.6.03-.68.05-.35.1-.7.6-.9.9-.11.15-.48.42-.5.6-.02.3.34.2.4.45.13.57-.77.44-1.06.22h-.03l-.01-.03.04.03.03.02-.07-.05a.8.8 0 0 0-.19-.22c.14-.2.25-.48.3-.6.09-.2.18-.82-.1-.89a1.05 1.05 0 0 0-.07-.12l-.02-.02-.03-.05c.02-.2.04-.52.06-.58l.02-.06.15.08c.23.1.26.12.3.36.01.19-.03.52.16.28.07-.1.09-.35.13-.48.1-.27.09-.92.5-.77.28.1.22.7.5.69.09-.21.13-.61.07-.88.27-.04.48-.23.77-.25.33-.03.67.27.8.57.11.26.04.85-.03 1.11-.07.26-.43.61-.36.9.7.14.51-1.36.7-1.74.15-.27.56-.35.86-.26.23.07.3.3.44.44 0 .16-.05.15-.22.22l-.42.13c-.05.27.31.28.26.55-.06.31-.42.09-.63.13-.37.1-.07.34.18.37.22.04.54.06.74-.05.08.38-.74.37-.47.87.19.35.83.35 1.16.4.39.05.71 0 1.02-.17v.06c.04.13.3.2.4.29.14.1.26.26.35.43.15.3.22.63-.14.78-.29.13-.65.18-.95.27-.29.08-.82.2-.97.5l-.1.06c-.07.15-.22.2-.16.41.17-.25.76-.53 1.04-.63.37-.14.99-.27 1.35-.1.44.18.38.86.27 1.27-.12.48-.72.73-.82 1.2a.75.75 0 0 0 0 .18c.24-.29.48-.56.7-.87.3-.39.56-.72 1.12-.56.23.06.32.25.59.28.22.03.53.04.76 0 .2-.03.34-.16.53-.2.19-.05.37.01.55.02.01.1.04.19.07.29.12.38 0 .48-.37.63-.35.14-.65.2-1.04.21-.13.35.66.28.84.2.32-.14.6-.41.95-.52.23.16-.2.4-.27.56-.08.22.04.46-.1.66-.15.22-.97.4-.87.73.21.03.41-.03.5-.23.3-.07.4-.07.6.16l.4.4c.17.18.34.36.63.3h.03a.5.5 0 0 0 .24.17.78.78 0 0 0-.09.12c.33.34.12 1.15.68 1.27.54.11.67-.8.88-1.16.12-.18.38-.5.6-.53.33-.05.3.2.33.37-.08.31-.51.64-.7.89-.1.14-.27.47-.25.68-.16.2-.68.79-1.29 1.08-.72.36-1.4.95-2.14.9-.7.28-1.99 1.85-1.9 2.52-1.46-.34-2.62-.23-3.18.22-1.48.1-1.64.11-1.08-.44.57-.54 1.98-.87 1.44-1.67-.54-.79.05-.44.73-.64.12-.03.14-.12.14-.2-.02 0-.04 0-.06.02v-.07c.11-.24.45-.51.7-.19.1.12.02.17-.12.19.59.26.36.38 1.2.41.86.03 1.36-.2 1.5-.74 1.02-1.63.52-1.66 0-.6-.45.5-.5.2-.27-.16.13-.72-.13-.35-.47.18-.77.92-2.25-.37-1.06-.47 1.1-.03 1.5-.37-.34-.27-.25-.23-.1-.4.45-.53s.37-.17-.32-.9a4.13 4.13 0 0 0-.2-.1.7.7 0 0 0-.09-.16 2.19 2.19 0 0 0-.67-.49c-.01-.1-.1-.18-.07-.3.03-.1.27-.3.36-.36.19-.14.34-.07.52.05.18.11.33.25.5.38.1.07.2.2.33.26.1.14.28.25.44.36.2.15.37.35.6.47.53.29 1.18.76 1.83.55.03-.24-.05-.2-.24-.24a1.85 1.85 0 0 1-.5-.2c-.06-.03-.23-.13-.25-.23l-.11-.01a.1.1 0 0 1 0-.06l-.45-.13a2 2 0 0 1-.83-.4c-.33-.26-.35-.47-.23-.86.05-.17.1-.34.08-.53-.02-.2-.07-.33-.2-.13-.12.2-.21.88-.52.65-.1-.07-.31-.22-.35-.35-.07-.22.17-.3.14-.48-.05-.22-.32-.07-.41.03l-.44.5c-.1.13-.15.25-.3.34-.13.08-.26.1-.39.2-.28.23-.39.02-.66-.15-.16-.1-.3-.21-.48-.28a.9.9 0 0 0-.38-.05c-.01.17-.04.26.1.38.12.12.3.17.46.25.21.1.84.24.76.58-.03.14-.2.2-.3.3-.13.14-.27.3-.37.47-.09.14-.25.58-.17.82-.17.23-.14.63.17.96 1.56 1 .87.95.08 1.03-.19.24-.37.53-.71.55a8.7 8.7 0 0 1-2.11-.18c-.7.1.05.31.34.63.29.32-1.64.42-2.06-.26-.42-.69.19-.95.13-1.35-.05-.4-.08.13-.31.4-.37.6-.35 1-.87 1-.53 0-.32.4.55.76.87.37 1.1.61-.3.7-1.39.07-2.34-.06-2.34-.06s-.1.79 1 1c1.16.21 1.53-.13 1.8.03.37.42.34.47-.53.66a4.4 4.4 0 0 1-1.74.05c-.19-.1-.34.42.4.79.9.34 1.84.48 1.37.69-.87 0-.82.18-1.38-.19-.73-.02-.4.95-.02 1.24.37.3.6.6-.27.6s-1-.12-1.31-.15c-.32-.03-.3.74.7 1 1.01.27 1.09.35.17 1.24-.51.33-.7.59-.77.77Zm-.88-20.87c.02-.08.08-.06.15-.13a.26.26 0 0 0 .05-.14c.05.03.1.07.14.13.21.28.46.5.14.6l-.28.08c-.03-.04-.08-.08-.12-.15a.74.74 0 0 1-.08-.39Zm-.05-.34.02-.04c0 .02 0 .03-.02.04Zm2.06-2.67h.15a.3.3 0 0 1 0 .15l-.08.08-.08.12-.2.35c-.12.2-.31.3-.44.48-.1.12-.42.47-.42.7l-.33.07c.03-.2-.83-1.85 1.4-1.95Zm.1 5.85a.41.41 0 0 1-.2-.09.21.21 0 0 1-.03-.1.4.4 0 0 1 .13-.02c.04 0 .09 0 .11-.02.01.04.03.06.05.07-.03.05-.06.1-.06.16Zm.18-4.2.01-.02c.02 0 .03 0 0 0a.3.3 0 0 0 .07-.11c0 .05.01.11.04.18l.02.05c-.04.05-.09.1-.1.17l-.07.45c0 .06 0 .13-.02.19l-.05.1c-.03.13-.05.25-.05.37 0 .17.03.38 0 .55-.03.14-.16.1-.25.15 0-.04 0-.06-.02-.1-.45-.2-.79-1.6.01-1.92l-.15.03.13-.05a.4.4 0 0 1 .13-.01c-.04 0-.08.02-.1.03l.15-.03c.1 0 .19.02.25-.03Zm.24 3.8a.22.22 0 0 0-.12-.02.94.94 0 0 0 .08-.2l.04.22Zm.2-1.73-.01.04-.03-.01.03-.03Zm-.24-1.12a.54.54 0 0 1 .1-.24c.09-.09.33-.28.43-.12l.01.03-.02.03c-.03.1-.03.2-.03.31l-.01.05-.03-.01.03.01v.14l-.01.1c-.1.16-.17.4-.15.56l-.04.03h-.15a.44.44 0 0 1-.21-.02l-.04-.15c0-.2.08-.35.06-.55l.02-.05h-.01a.57.57 0 0 0 .05-.12Zm-.04-1.35Zm.23-.4c.08.03.17.1.2.2 0 .08 0 .17-.04.25l-.2-.22a1 1 0 0 0 0-.18l.04-.04Zm.43-.93-.04.01a.85.85 0 0 1-.21.03h-.03l.28-.04Zm1.5-.44c.1-.06.33-.05.43 0 .12.07.44.5.42.62-.23.02-.4.02-.48.16-.1-.13-.23-.17-.36-.28-.15-.13-.2-.4 0-.5Zm1.35-.53c-.05.24-.26.41.05.47.24.05.41-.07.61-.13.46-.14 1.02-.13 1.51-.13h.3c0 .02 0 .03.02.04.11.14.6.08.75.09.42.04.96.15 1.33.31.18.08.5.13.36-.2-.08-.2-.5-.24-.67-.27-.48-.07-.97-.08-1.43-.19-.08-.47 1.45-.06 1.68.03.24.1.57.25.75.44.15.16.33.68.6.67.06-.34-.48-.52-.47-.9.43-.01.58.05.92.3.16.11.42.27.6.45h.08c.2.15.17.98-.15 1.02-.08 0-.09-.1-.07-.23-.16.1-.34.19-.47.23-.15.04-.39.02-.57.05-.15-.06-.63-.01-.78-.01-.25 0-.45.03-.66.14-.22.1-.86.21-1.12.44-.14-.03-.27-.06-.32-.12-.13-.14-.14-.38-.33-.4-.15-.42-.77-.59-1.22-.55-.17.02-.62.15-.67-.13-.04-.26.42-.21.4-.5-.15 0-.37.02-.53 0-.1-.02-.18-.06-.21-.14-.02-.06-.01-.15.05-.28-.16 0-.76.12-.87.02-.26-.23.38-.47.53-.52Zm3.5 2.82c.29-.1.55-.28.88-.25.02.06.01.12 0 .18-.28.05-.62.26-.55.59l.03-.04c.04.05.08.06.12.07a.28.28 0 0 0-.16 0c-.12.04-.4.47-.47.58-.13.22-.12.42-.4.56-.45.23-1.05-.45-.47-.77.1-.05.24-.04.32-.15.08-.1.04-.24.13-.34.1-.12.57-.19.58-.4v-.03Zm3.86-.22-.05.28c-.15.91-.94.2-1.54.25-.1.56 1.8 0 .74 1-.18.05-.35.2-.47.32-.32.31-.62.84-1.14.8-.26-.03-.31-.26-.5-.42a1.33 1.33 0 0 0-.33-.2c.09-.06.15-.11.19-.3.02-.17 0-.37-.24-.3-.07.25-.55.53-.75.34.08-.19.35-.37.5-.55a.82.82 0 0 0 .12-.16l.14-.05c.31-.24.45-.65.82-.8.12-.05.89-.21 1-.49.2-.02.38-.05.56-.09.37-.07.42-.09.69.2.09.09.18.14.26.17Zm.09 2.4.02-.03.02.1-.03.2c-.18 0-.44.08-.53-.03-.24-.29.32-.47.52-.25Zm.05.75c.08.36.03.56-.22.83-.26.27-.28.46-.22.82a.7.7 0 0 0 .15.33c-.14.06-.28.14-.45.16-.26.02-.52-.01-.74-.1l-.16-.09v.07a.7.7 0 0 1-.13 0l-.64-1.51.14.1c0-.33.24-.65.36-.95.08-.2.17-.34.38-.5.17-.13.39-.22.58-.34.13-.1.32-.22.3-.33l.14-.02c0 .15-.02.34.02.49a.59.59 0 0 0-.4.36c-.16.5.38.6.78.54v.12l.1-.02v.04Zm.68.46c.08-.06.22-.17.34-.11.07.03.09.13.15.16.03.12.06.25.03.38h-.54c-.02.32.02.3.23.45.12.09.26.21.24.37-.02.14-.13.2-.18.32a.8.8 0 0 0-.32-.05c-.14 0-.27-.02-.4-.04-.12-.13-.42-.13-.44-.36-.02-.23.17-.52.3-.68.17-.22.4-.28.6-.44Zm-.24-4.2c.43.16 1.37.18.74.63v-.07a.62.62 0 0 0-.04.09l-.1-.02c-.18-.03-.3-.02-.46-.1-.12-.06-.08-.14-.24-.19.05-.1.09-.22.1-.35Zm.16 3.42h-.02.02Zm1.39-2.34c.35.07.66.33 1.02.32 0 .02.01.05.03.07.11.2.38.3.67.33 0 .07.03.13.13.18.16.06.31.06.46.17.06.05.17.14.19.22v.08l-.07.04.05-.01-.01.07a.58.58 0 0 1-.17.05c-.23.03-.47.02-.7 0a.33.33 0 0 0-.1-.14c-.11-.1-.22-.23-.34-.32-.12-.09-.28-.22-.44-.23-.32-.03-.1.13-.02.25.2.23.04.71-.26.73-.34.03-.65-.06-.87-.3-.12-.12-.23-.23-.42-.19-.28.07-.11.21.05.3.26.13.58.4.27.68a.98.98 0 0 1-.42.16c-.16.02-.3-.1-.45-.14.02-.26-.18-.58-.15-.87.04-.33.15-.63.36-.89.16-.2.5-.43.61-.63.2.05.45.05.58.07Zm.7-.24c.33-.07.3.16.3.37l-.01-.02c-.12-.08-.3.02-.4-.07-.15-.15-.05-.25.11-.28Zm.31 9.6c-.05-.05-.1-.47-.2-.7.32.06.67.06.84.07.05.34-.3 1-.64.64Zm.61-1.06c-.2.07-.41.15-.64.11-.19-.04-.3-.17-.47-.24v-.04c.18-.1.4-.28.46-.32.1-.07.3-.31.41-.3.2.02.13.3.14.45.22.01.21-.29.25-.45.05-.2.14-.33.28-.5.12-.13.24-.27.34-.42.13-.19.15-.19.3-.2 0 .08.03.16.02.22-.05.34-.16.7-.28 1.03-.16.4-.42.52-.81.66Zm1.35-6.45.02-.07c.07.08.14.2.14.28.02.2-.21.24-.31.39-.09.12-.28.34-.06.45l.02.01-.02.06c-.12.09-.23.2-.35.28l-.19.1-.1-.2c-.05-.18-.1-.35-.11-.54-.03-.26-.13-.69-.32-.2-.1.2 0 .82.2 1.1l-.17.1c-.16.13-.37.27-.48.44-.26.4.1.4.35.17.28-.24.92-1.02 1.32-.67.24.2.05.41-.03.61-.07.22-.04.45-.05.68l-.03-.14c-.3.64-.32 1.43-.81 1.97-.23.25-.55.39-.77.62-.2.21-.67.72-.97.57l.02.06c-.08.01-.17.04-.24.02a1.42 1.42 0 0 1-.6-.69c-.14-.46.3-.84.34-1.3a3.6 3.6 0 0 0-.05-.81c-.04-.28.04-.6-.03-.87s-.2-.5-.23-.79c-.02-.12-.02-.3-.09-.41.11-.18.08-.54.31-.65.41-.2.35.52.39.73.02.1.13.37.28.24.08-.07.01-.37 0-.46-.03-.35-.16-.68.21-.86.15-.07.3-.14.45-.23l.24-.11h.16c.2.13.42.22.58.42.12.15.26.51.47.48 0-.14 0-.26-.03-.38-.03-.11-.19-.24-.13-.38.08-.2.5-.11.67-.02Zm.27 4.24c.1.08.2.13.16.28-.01.08-.12.2-.21.19-.2-.01-.11-.31-.33-.34h-.04c0-.14-.01-.3.04-.4.05-.1.1-.12.17-.12-.01.17.08.27.2.39Zm-.3.84c.04-.04.1-.06.15-.08.01.04.02.08.04.1.04.09.12.16.1.26 0 .07-.07.12-.1.18a5 5 0 0 0 0-.06c-.29.03-.38-.2-.19-.4Zm0 1.73a.36.36 0 0 0-.02.1l.02-.11v.01Zm.58.77c-.04.15-.18.26-.27.38-.18-.05-.35.03-.52.14.08-.15.15-.3.18-.41.12-.38.17-.53.44-.81l.03.02.1.12c.05.18.08.4.04.56Zm-1.7 2.8c-.27.16-.57.25-.87.34-.26.08-.54.24-.81.27-.2.03-.37 0-.46.18-.08.16-.09.32-.28.42-.15.07-.29 0-.42-.08.04-.05-.85-.53-.4-.85.88-.13 3.6-1.74 3.66-2.11v-.02h.08l.07-.03c.11.11.2.29.21.4.1.63-.28 1.15-.78 1.47Zm-4.1 3.6a.21.21 0 0 0 .03-.12c.04.06.09.1.14.12.23.1.36.23.1.42-.05.05-.1.04-.15.09-.09-.2-.2-.45-.13-.52Zm1.24.05c-.15.12-.26.2-.48.09-.17-.1-.4-.2-.36-.44h.19c.04.12.2.07.32.12.16.08.13.21.33.23Zm-.3-.68h-.07c0-.06-.01-.1-.04-.15.06-.1.1-.29.19-.32.16-.07.28.1.28.24-.02.2-.18.22-.36.23Zm-1.25 1.43Zm-.04-2.58c.08-.47.48-1.26 1.38-.73l.14.08c.04.1.12.19.1.3-.01.17-.16.3-.23.43-.1.18-.13.37-.25.53-.05.06-.16.19-.17.3-.07 0-.13.06-.2.11-.18.15-.22.04-.4.06.02-.08-.46-.54-.37-1.08Zm.98 4.35-.04-.07.04.03v.04Zm.19-.2-.01.06v-.01l.01-.04Zm1.12-1.63c.04.12-.04.23-.06.33l-.06.45c-.09.02-.28.26-.33.33-.1.17-.19.36-.34.49-.22.2-.29.07-.4-.11 0-.25-.13-.55-.2-.73l-.25-.6c.13-.01.35-.11.44-.14.18-.05.26-.17.42-.26.26-.15.68-.07.78.24Zm.42 1.54c.02.2.07.44-.04.63-.17.3-.49.07-.64-.15v-.1c0-.15-.02-.34.06-.46.04-.07.1-.1.15-.13.13.01.3.14.47.2Zm-.76 1.9c-.03.03-.01.08-.04.1-.03.03-.1 0-.12.03a.25.25 0 0 0-.04.05 6.1 6.1 0 0 1-.2-.5 2.78 2.78 0 0 0-.12-.38.3.3 0 0 1-.02-.13l.25.18c.08.07.13.17.2.24a.6.6 0 0 0 .35.14c-.1.04-.18.15-.26.26Zm.74 2.02c-.06-.05-.06-.13-.04-.22-.03-.04-.05-.09-.09-.13-.2-.26-.7-.74-.5-1.1.06-.12.31-.27.45-.42-.12.01-.28 0-.3-.07-.07-.16.19-.22.32-.26a.43.43 0 0 0-.05-.05h.16c.1-.03.18-.02.27-.12.06-.06 0-.2.08-.25.04-.03.1-.04.14-.04a.73.73 0 0 0 .01-.23c-.02-.21.06-.7-.09-.94a.35.35 0 0 1-.13.05v-.17c0-.13 0-.28-.03-.4-.07-.2-.28-.35-.16-.58l.14.15-.03-.13c-.04-.15-.14-.28-.2-.43-.15-.35-.58-.7-.28-1.09.17-.23.58-.37.59-.7 0-.07-.07-.25-.16-.23-.05.02-.13.22-.16.26-.14.21-.34.45-.55.62-.07-.18-.28-.39-.31-.54a.96.96 0 0 1 .06-.45c.05-.14.08-.24.08-.42 0-.44.35-.5.61-.78.25-.26.49-.4.86-.3.35.08.46.3.58.63.14.34.02.6-.1.93-.05.16-.05.3-.14.45-.06.1-.25.26-.23.39.15 0 .3.16.43.22l-.02-.1.07.08c0-.1.02-.2.04-.3l.07.11c-.09-.26.06-.32.28-.29v-.03c-.18 0-.29-.01-.3-.22-.02-.11 0-.3.03-.4.1-.31.32-.47.26-.83-.03-.2-.22-.53-.15-.74.03-.1.22-.27.3-.36.1-.11.23-.22.35-.3.08-.08.19-.1.29-.14-.05-.17.02-.32.24-.27.03-.14.04-.3.06-.43h-.04c-.31-.12.22-.97.36-1.15h.1v.09c.12-.16.22-.33.18-.46.25-.25.3-.87.33-1.15.03-.33.33-1.12.06-1.36l.02-.08c.02-.16.06-.33.1-.49l-.02-.03v-.05a1.03 1.03 0 0 1-.04-.5.3.3 0 0 1-.16.02 1.67 1.67 0 0 0-.56-.61l.11-.03c-.03-.15-.06-.28-.05-.44 0-.09 0-.16.05-.24.02-.03.09-.07.13-.1-.05-.14-.07-.31.04-.36a.24.24 0 0 1 0-.12c.02-.16.2-.37.28-.51.13-.24.26-.65.16-.94a.45.45 0 0 0-.04-.09h-.15l-.01.06-.04-.07h.05l.02-.05a.42.42 0 0 1 .05-.12h-.05l.07-.02c.15-.19.44-.18.68-.02-.09-.17-.38-.34-.46-.4-.2-.16-.39-.37-.58-.55-.1-.1-.23-.16-.29-.3-.04-.1 0-.27-.1-.35.17-.16.54.17.67.27.13-.14-.01-.31-.02-.46-.02-.26.16-.14.28-.3.15-.22-.13-.64-.2-.85-.12-.34-.44-.43-.78-.47-.12-.02-.32-.1-.44-.05-.25.08.02.18.15.2l.04.01c.2.08.47.09.65.23.17.14.5.6.35.84-.09.15-.35.02-.45-.07-.13-.12-.23-.29-.36-.4-.09-.08-.17-.12-.24-.12-.29-.32-1.2-.3-1.5-.32-.27-.02-1.82-.4-1.72-.74a5.95 5.95 0 0 1 1.65.1c.27.07.59.34.88.28.5-.1.04-.37-.21-.48a4.84 4.84 0 0 0-1.86-.25c-.24 0-1.15-.01-1.5.13-.14-.3-.48-.61-.69-.82a3.5 3.5 0 0 0-1.13-.86 8.1 8.1 0 0 0-1.98-.43c-.32-.03-.64-.07-.97-.07-.21 0-.42.04-.62.08v.1a.52.52 0 0 0-.28-.08c.09 0 .18 0 .28-.02l-.3.02h-.2c-.53.03-1 .19-1.54.21-.54.03-1 .23-1.52.36-.31.08-.6.12-.85.26-.09.03-.18.07-.26.12-.21.1-.4.3-.63.4.01-.07-.83-.1-.83-.1s-1.85-.25-2 .8c-.16 1.02-.03 1.58-.27 1.84a.29.29 0 0 0-.05.03c-.07.05-.13.2-.13.3a.62.62 0 0 0-.06.11.65.65 0 0 0-.04.35c.02.16.1.48.24.62-.05.24-.09.49-.3.4-.22-.11-.03.26-.34.17-.32-.1-.87-.81-.94-1.46-.07-.65-.24-.69-.26-.34-.02.36-.09.69.2 1.04.27.35.78.92.98 1.16.12.42.26.39.05.92-.21.52-.28.63-.25 1.21a3.93 3.93 0 0 1-.98 2.7c-.18.84.02 1.3-.14 1.82-.16.51-1.62 2.78-2.52 3.92-.9 1.14-1.72 2.1-1.28 2.67.44.59.56.2 1.02.4.4.38.46.6.33 1.03-.12.42 1.3 2.94 1.25 3.53-.05.6.3 1.13 1.02 1.57.72.44 1.08.26 1.83.25.38-.01.64-.07.8-.13.1.06.18.12.2.2.05.23.18.18.23.58.06.4-.02.92-.02 1.24 0 .31-.69 0-.77-.14-.08-.13-1.1.16-1.42-.02-.32-.19-.93-.6-1.48-.37-.55.24-1.4.53-2.19 1.26-.41.39-.53.74.13.8.66.05 1-.14.56.5-.45.63-.69.87-.82 1.32-.13.44-.08.42-.37.74-.3.31-.45.34-.58.58-.13.23 0 .31.29.34.29.02.29.1.6-.08.32-.19.4-.16.7-.34.1-.08.21-.2.3-.3.12-.14.2-.21.2.06 0 .45-.2.53-.14.84.05.32.03.64.19.43.15-.22.15-.03.15-.37 0-.35-.1-.82.03-.9.13-.08.19-.4.34-.48.16-.08.21-.18.21-.37 0-.18-.29-.23-.42.03s-.02.32-.18.4c-.16.08-.3.05-.48.18s-.45.42-.45.16.19-.16 0-.26c-.18-.11-.2-.27-.29.1-.07.37-.05.4-.2.5-.17.1-.5.08-.27-.18.24-.27.4-1 .69-1.32.29-.32.76-1.16.94-1.48.19-.31.16-.29-.4-.29-.54 0-1.15.04-.3-.47.84-.5 1.87-1.59 2.87-.9.68.18 1.1.1 1.42.1.32 0 .53-.02.72.16.18.19.15.27.13.53-.03.27-.03.24-.43.6-.4.38-2.45 2.33-2.66 2.62-.21.29-.34.4-.42.47-.08.08.02.03.02-.23 0-.27-.1-.45-.2-.24-.11.21-.27.24-.16.4.1.15.23.15.1.31s.08.17-.26.45a36.9 36.9 0 0 0-2.83 3.56c-.34.58-1.1 2.24-1.37 2.85-.26.6-1.45 3.56-1.87 4.7-.42 1.13.6 1.18 1.05.79.45-.4 1.35-1.3 1.83-1.27.47.03.79-.3.84-.43 0 0 .69-2.1 3.46-3.95 1.52-.74 2.05-1.08 2.5-.41.5-.13 1.08-1.14 1.19-1.33.1-.18 2.82-4.17 6.25-5.83 1.53-.9 2.15-1.5 5.51-2.14 1.86-.13 3.3-.36 4.36-.15.9.18.51-.28.3-.51l-.1-.1c0-.02-.02-.02-.03-.03l-.01-.01-.27-.28-.02-.03-.13-.22a4.1 4.1 0 0 0-.23-.37 10.93 10.93 0 0 1-.61-.86l.05-.2c.25-.21.68-.67-.15-.65-.01-.14-.29-.29-.36-.37-.12-.12-.14-.27-.23-.41l-.09-.13a.11.11 0 0 1-.13-.02Z" fill="#000"/><path d="M26.56 20.7a.3.3 0 0 0-.09-.01l.06.15a.47.47 0 0 0 .03-.14Zm.04-.12h-.07l.05.05v-.03l.02-.02Zm2.31-8.59.04.08.04-.16.05-.18c-.1.06-.16.14-.13.26Zm-1.38 5.38.06.12-.14-.07c.6.44.4 1.1.25 1.69-.06.25.05.64.32.32.11-.13.02-.32.06-.47.04-.16.15-.35.25-.48.03.14.25 1.28.62.94.22-.19-.43-.75-.38-1.05a.43.43 0 0 1 .1-.2l-.06-.02c-.25-.13-.28-.31-.28-.54l-.43-.16a.67.67 0 0 1 .01-.2l.06.01c-.05-.07-.1-.14-.17-.16h-.03c-.22-.05-.29.1-.24.27Z" fill="#000"/><path d="M29.58 11.01h.04c.02-.12 0-.23-.01-.35-.05-.26-.11-.52.04-.77.07-.1.27-.19.32-.3.21.23.46.36.64.65a1.71 1.71 0 0 1 .26 1.23c-.04.1-.17.2-.23.3-.06 0-.11 0-.17.03l-.14-.1c-.2-.18-.29-.2-.29-.5l-.2.1a.84.84 0 0 1-.5.07c-.06-.03-.13-.18-.19-.2.09-.15.24-.17.43-.16Zm1.35 2.76c.23-.31.01-.85.22-1.06a2 2 0 0 1 .37.22c.53.36 1 .84 1.06 1.5.06.6.01 1.36-.17 1.92-.22.67-.32 1.47-1.17 1.2-.18-.05-.26 0-.31-.2-.03-.13.14-.28.1-.39-.13-.4-.48.09-.63.25h-.03c-.14-.04-.27-.03-.39-.13-.1-.08-.17-.33-.24-.44-.19-.33-.3-.62-.32-1.02-.03-.42.14-.54.34-.85a.82.82 0 0 0 .08-.16c.37-.25.82-.47 1.1-.84Zm-1.2.27.15-.08a.75.75 0 0 0-.13.38.59.59 0 0 0-.33.05c-.13-.26.17-.26.32-.35Zm.6-1.77c.02.07.05.14.1.21-.09-.06-.12-.14-.1-.21Zm-.28 1.46c.1-.24.15-.97.56-.92v-.05c.13.15.2.1.25.33.03.15 0 .35-.07.47-.11.17-.59.53-.71.31a.16.16 0 0 0-.13.02.64.64 0 0 0 .1-.17Zm-1.27-5.86-.02.02a.42.42 0 0 0-.05.12l-.02.06h.15c.55.06.52.37.54.97.01.28.26 1.48-.42 1.24-.22-.08-.15-.52-.39-.57a.21.21 0 0 0-.13.02c-.1.05-.1.22-.04.36.02.06.04.11.07.15.14.2.3.24.37.5.06.22.05.46.05.69v.06a.93.93 0 0 0 .02.5c-.03-.12.02-.2.13-.26a1 1 0 0 1 .55-.08c.37.06.4.26.45.6.1.65-.23 1.36-.76 1.72-.35.24-.34.35-.36.78-.01.33-.17.54-.14.9.06.6.15 1.15.67 1.49l.1.05.02.02c.15.09.3.17.46.22l.67.4a1 1 0 0 0 .25.14l.01.01c.03 0 .07.03.1.04.22.06.4.08.56.06.4.17.57-.1.57-.47.4-.79.8-1.65.75-2.58a2.84 2.84 0 0 0-.46-1.66c-.2-.31-.3-.43-.64-.63-.3-.17-.5-.33-.73-.6a2.04 2.04 0 0 0-.21-.23c.07-.1.13-.24.16-.3.49-1.07.06-2.2-1.16-2.28-.06-.07-.13-.14-.17-.22-.13-.37.14-.89-.17-1.18a.72.72 0 0 0-.1-.08c-.24-.16-.53-.17-.68.02Z" fill="#000"/><path d="m28.68 8.13.01-.06h-.05l.04.06Zm.24 3.91.03.03.05.07-.05-.07a.54.54 0 0 1-.04-.08l.01.05Zm-.77 3.48c-.14.18-.67 1.03-.36 1.14l.04.01c.37.08.42-.74.43-1.06v-.1h-.1Zm3.45 1.22c.23.05.52-.1.38-.37-.23-.02-.43.17-.62-.05-.13-.15-.07-.43-.08-.62a.1.1 0 0 0-.07-.03c-.4.26 0 1.05.38 1.07Zm-.2 4.62c-.06.18-.2.56-.39.34.11-.32.1-.67.38-.9l.03-.02c.05.2.03.38-.03.58Zm-.54 1.2c.07 0 .14-.01.18.03.06.06.07.18.08.28-.31 0-.27-.07-.26-.3Zm-.06-.72-.02-.16c-.11.05-.1-.03-.17.1-.17-.01-.15-.18-.27-.27.1-.03.22-.07.32-.02.09.04.12.17.2.25a.35.35 0 0 0-.06.1Zm-.74 2.21-.01-.09-.1.18c-.21.39-.95.32-.88.94h.03l-.05.04c-.46-.04-.78.24-.83-.33.46-.13.37-.85.84-.9.08 0 .29.22.43.08.09-.09-.04-.2 0-.33.03-.1.15-.21.23-.32.22 0 .31.05.45.18.02.07.03.14.02.21a.77.77 0 0 1-.13.34Zm-.56.72c.05-.08.1-.15.16-.2l.07-.04-.23.24Zm-.16.85-.06-.12c-.02-.04-.13-.04-.18-.1.25-.1.33-.57.73-.48.08.29-.28.5-.49.7Zm-.24-.5Zm-1.11-.49c-.12-.07-.11-.25-.25-.34.04-.1.1-.12.27-.25.11-.08.22-.19.29-.3.12.03.22.07.24.19.05.3-.4.46-.55.7Zm-.37-1.94c.14-.17.36-.37.52-.17.24.3-.26.38-.5.46a2.75 2.75 0 0 1-.02-.29Zm-.46 1.38c-.23.33-.62.57-.07.91l.05.03c0 .18 0 .36-.15.4-.15.02-.34-.12-.47-.28-.01-.2-.1-.37-.09-.57.27 0 .52 0 .45-.35-.04-.23-.3-.3-.24-.6.09-.01.15-.09.23-.11.1.06.2.1.28.13l.01.06v-.05c.13.07.19.15 0 .43Zm-.74-.95a.58.58 0 0 1-.16-.26c-.08-.26-.08-.57.1-.8l.06-.07c.25.14.45.74.28.98-.05.07-.18.1-.28.15Zm.64-.2c-.01.16-.08.28-.26.27-.02-.04-.03-.07-.01-.1.03-.1.17-.12.27-.16Zm-.5-2.22c.04.01.08.03.11.02l-.09-.09-.05-.05h.07c.24 0 .4 0 .6.14.13.09.26.28.4.38.14.11.34.2.44.36.09.14.08.36.17.48-.15 0-.16.08-.33.2-.32.23-.52.33-.64.47.02-.18-.02-.4-.04-.55-.03-.28-.04-.6-.4-.68a.4.4 0 0 0-.2 0v-.02c-.02-.13-.03-.34-.07-.52a.94.94 0 0 0-.06-.15.3.3 0 0 1 .1.01Zm1.77 2.43v.2a.35.35 0 0 1-.32-.07h-.01v-.01a.34.34 0 0 1 .08-.08c.07-.06.18-.03.25-.04Zm0-1.63c.14-.02.26-.08.39-.1l.14.13c0 .04-.03.1-.08.16-.09.01-.16.05-.17.11v.1a.86.86 0 0 0-.09.14.56.56 0 0 0-.2-.08l.01-.46Zm.62.6h.01c.19.1.4.25.63.3.06.07.14.15.17.26.05.15 0 .28-.03.4-.48.13-.81-.01-1.04-.43.07-.1.09-.22.1-.41a.56.56 0 0 0 .16-.13Zm.3-.67.28.02a.3.3 0 0 0 .1.07l-.1-.02c.16.11.3.35.3.56h-.24c-.14-.08-.31-.15-.44-.24.05-.12.08-.26.1-.39Zm.93-.36c.15-.24.29-.45.4-.72.03-.05.05-.23.07-.26.07-.06.17-.01.24-.02 0 .2.05.45.04.55-.04.34-.47.84-.81.55l.06-.1Zm.4-1.96c.42 0 .39.4.5.65h-.09c-.06-.07-.26-.17-.34-.3l-.08-.16c0-.06.02-.13.01-.19Zm1.1 1.6c.04-.12-.12-.19-.15-.27-.05-.1-.12-.35-.2-.5h.04c.14-.8-.44-1.37-1.09-1.71a2.1 2.1 0 0 0-.58-.2c-.11-.27-.5-.34-.76-.45a8.9 8.9 0 0 0-.78-.26l-.2-.06-.05-.01c0 .06-.02.14 0 .2l.42.16c0 .23.03.4.28.54l.06.02c.23.1.54.1.76.2.28.12.46.2.65.44.08.1.15.25.24.37-.15.25-.59.08-.83.18.03.26.52.14.7.38.18.23.11.58-.03.8-.2.36-1.03.7-1.41.6v-.03l-.1.03-.29-.04c-.3-.07-.43-.18-.7-.35-.1-.07-.58-.31-.91-.36-.22-.03-.37.03-.28.3a.38.38 0 0 0-.07-.12c-.02.1-.05.2-.04.3l-.07-.07.02.09c.14.46-.1.95-.3 1.32-.1.19-.1.51-.3.55-.13.03-.31-.15-.45-.3l-.14-.15c-.12.23.09.38.16.59.03.11.03.26.03.4v.16c.04 0 .09-.02.13-.05.23-.13.4-.44.6.02.1.23.07.98-.15 1.13-.11.08-.25.01-.37.02-.05 0-.1 0-.14.04-.07.05-.02.2-.08.25-.1.1-.16.1-.27.13-.02 0-.03 0-.05.02l-.06.02c-.13.04-.39.1-.33.26.03.08.19.08.31.07l.16-.03c.09.4.26.81.14 1.3-.02.07-.12.23-.16.38-.02.09-.02.17.04.22.05.04.09.04.13.02.14-.07.24-.35.27-.45.13-.48-.18-1.09.04-1.51.14-.28.6-.52.8-.33v.01l.1.24.01.04h.02c.15.29.36.42.78.42.43 0 .57.15.93.28.25.09.9.11 1.1-.07.05-.05.08-.1.1-.14.41-.08.95-.94 1.08-1.23.04-.08.1-.27.13-.47.03.03.05.05.08.05.28.04.55-.97.56-1.22h-.02c.1-.18.15-.49.08-.68.1-.08.18-.18.23-.24.17-.27.27-.87.1-1.17.02 0 .05-.02.07-.07Zm.76-1.67c-.22-.01-.4.22-.42.42l.04-.28c-.05.42-.38.8-.28 1.27.05.24.58 1 .83 1 .1-.43-.5-.6-.48-1.11 0-.45.36-.88.3-1.3Zm-11.68-10.56-.14-.1.64 1.51h.13v-.07a1.62 1.62 0 0 0-.63-1.34Zm1.54-4.59c-.02.13-.01.24.07.23.32-.04.36-.87.15-1.02h-.17c.1.13-.01.53-.05.79Zm-1.92 13.06c-.26-.32-.6-.05-.7.19v.07l.05-.02c.14-.04.36-.03.52-.05.14-.02.23-.07.13-.19Zm17.12 2.93v-.32l.05-.04.8-.06c.16-.03.26-.07.3-.13a.56.56 0 0 0 .1-.28c.02-.13.04-.46.05-.98v-5.8a6.6 6.6 0 0 0-.06-.92.4.4 0 0 0-.1-.2.6.6 0 0 0-.28-.1 5.3 5.3 0 0 0-.81-.06l-.05-.05v-.33l.05-.04a160.61 160.61 0 0 1 1.9.05l1.88-.05.05.04v.33l-.05.05c-.39.01-.66.03-.81.06-.15.02-.25.06-.3.12a.52.52 0 0 0-.1.27 81.72 81.72 0 0 0-.05 2.28v5.07l.1.05a143.78 143.78 0 0 0 5.3-8.27 17.1 17.1 0 0 0 2.57 0l.05.04v.33l-.05.05c-.43.01-.71.03-.84.06s-.22.07-.26.1a.44.44 0 0 0-.1.23 87.92 87.92 0 0 0-.06 2.34v3.06a76.78 76.78 0 0 0 .05 2.27c.02.14.06.23.11.28.05.06.16.1.31.13.16.02.42.04.8.05l.04.04v.33l-.05.06a149.37 149.37 0 0 1-1.9-.06l-1.88.06-.05-.06v-.32l.05-.05c.39-.01.66-.03.81-.06.15-.03.25-.07.3-.12.05-.05.08-.14.1-.27a81.99 81.99 0 0 0 .05-2.28v-4.92l-.12-.05c-.39.56-1.27 1.9-2.67 4.03l-2.65 4.1a14.08 14.08 0 0 0-2.53 0l-.05-.06Zm11.4-9.31 1.9.05 1.89-.05.05.04v.33l-.05.05c-.3 0-.54.02-.7.04a.86.86 0 0 0-.37.1c-.07.04-.12.16-.14.34a5.8 5.8 0 0 0-.04.74l-.01 1.51v.93a101.3 101.3 0 0 0 5.42 0v-2.21c-.01-.5-.03-.83-.05-.97a.65.65 0 0 0-.09-.3.54.54 0 0 0-.24-.11 5.73 5.73 0 0 0-.88-.07l-.05-.05v-.33l.05-.04 1.9.05 1.88-.05.06.04v.33l-.06.05c-.3 0-.54.02-.7.04a.86.86 0 0 0-.36.1c-.08.04-.13.16-.15.34a9.9 9.9 0 0 0-.04.74l-.01 1.51v3.06l.01 1.28c0 .5.02.82.04.97.02.14.05.24.1.29a.5.5 0 0 0 .23.12c.12.03.41.06.88.08l.06.03v.33l-.06.06-1.89-.06-1.9.06-.04-.06v-.33l.05-.03c.41-.02.69-.04.82-.07.14-.03.23-.06.27-.1.05-.04.08-.13.12-.27.03-.14.04-.44.04-.91l.01-1.4v-1.5l-2.73-.03c-.54 0-1.44 0-2.7.03v1.5l.01 1.3c0 .5.02.81.04.96.03.14.06.24.1.29.04.05.12.09.24.12s.41.06.88.08l.05.03v.33l-.05.06-1.9-.06-1.88.06-.05-.06v-.33l.05-.03c.4-.02.68-.04.82-.07a.6.6 0 0 0 .27-.1c.05-.04.08-.13.11-.27s.05-.44.05-.91v-5.73c-.01-.5-.02-.83-.04-.97-.02-.15-.05-.24-.1-.3a.54.54 0 0 0-.24-.11 5.66 5.66 0 0 0-.87-.07l-.05-.05v-.33l.05-.04Zm20.15 8.2-.25.61a6.8 6.8 0 0 1-3.13.75 5.53 5.53 0 0 1-3.86-1.35c-1-.9-1.49-2.08-1.49-3.54a4.66 4.66 0 0 1 2.7-4.3 6.5 6.5 0 0 1 2.73-.57 8.2 8.2 0 0 1 3.17.63l.05.07c-.1.24-.2.85-.29 1.82l-.04.06h-.31l-.06-.06-.06-1.12a3.8 3.8 0 0 0-1.17-.6 4.7 4.7 0 0 0-3.42.27c-.59.32-1.04.78-1.37 1.38a4.7 4.7 0 0 0-.49 2.22c0 .88.2 1.65.58 2.32.38.66.9 1.17 1.56 1.53a5.54 5.54 0 0 0 4.35.15c.24-.12.47-.25.69-.4l.11.13Zm8.43-8.2.06.06c-.04.4-.06 1.08-.06 2.07l-.05.05h-.31l-.05-.06-.08-.6a5.66 5.66 0 0 0-.08-.6.28.28 0 0 0-.1-.16 1.2 1.2 0 0 0-.42-.09 9.18 9.18 0 0 0-.81-.03h-1.25c-.04 1-.05 1.57-.05 1.72v3.85l.01 1.28c0 .5.02.82.04.97a.7.7 0 0 0 .09.3c.04.04.12.08.24.1.12.04.41.07.88.09l.05.03v.33l-.05.06a138.4 138.4 0 0 0-1.88-.06l-1.88.06-.06-.06v-.33l.06-.03c.41-.02.68-.04.82-.07a.6.6 0 0 0 .27-.1c.05-.04.08-.13.11-.27.04-.14.05-.44.05-.91l.01-1.4v-3.84l-.05-1.72h-.98c-.4 0-.76.01-1.05.03-.3.02-.47.06-.51.13-.05.08-.09.31-.13.71l-.07.6-.06.07h-.3l-.05-.05a32.04 32.04 0 0 0-.06-2.07l.06-.06a95 95 0 0 0 3.82.05c1.81 0 3.09-.02 3.82-.05Zm.75 9.31v-.32l.05-.04.81-.06c.15-.03.25-.07.3-.13a.56.56 0 0 0 .1-.28 79.73 79.73 0 0 0 .05-2.27v-3.06l-.01-1.45a6.6 6.6 0 0 0-.06-.92.4.4 0 0 0-.1-.2.6.6 0 0 0-.28-.1c-.14-.03-.4-.05-.8-.06l-.06-.05v-.33l.05-.04a160.61 160.61 0 0 1 1.9.05l1.88-.05.05.04v.33l-.05.05c-.39.01-.65.03-.8.06-.16.02-.26.06-.3.12a.52.52 0 0 0-.1.27 81.72 81.72 0 0 0-.05 2.28v5.07l.1.05a143.78 143.78 0 0 0 5.3-8.27 17.1 17.1 0 0 0 2.57 0l.05.04v.33l-.05.05c-.44.01-.72.03-.85.06s-.21.07-.26.1a.44.44 0 0 0-.1.23 87.92 87.92 0 0 0-.06 2.34v3.06a76.78 76.78 0 0 0 .06 2.27c.02.14.05.23.1.28.06.06.16.1.32.13.15.02.42.04.79.05l.05.04v.33l-.05.06a149.37 149.37 0 0 1-1.91-.06l-1.87.06-.06-.06v-.32l.06-.05c.38-.01.65-.03.8-.06.16-.03.26-.07.3-.12.05-.05.09-.14.1-.27a81.99 81.99 0 0 0 .05-2.28l.01-4.92-.13-.05c-.38.56-1.27 1.9-2.66 4.03l-2.65 4.1a14.08 14.08 0 0 0-2.54 0l-.05-.06Zm18.98-9.31.06.06c-.04.4-.06 1.08-.06 2.07l-.05.05h-.31l-.05-.06-.08-.6a5.66 5.66 0 0 0-.08-.6.28.28 0 0 0-.1-.16 1.2 1.2 0 0 0-.42-.09 9.18 9.18 0 0 0-.81-.03h-1.25l-.05 1.72v3.85l.01 1.28c0 .5.02.82.04.97a.7.7 0 0 0 .09.3c.04.04.12.08.24.1.12.04.41.07.88.09l.05.03v.33l-.05.06a138.4 138.4 0 0 0-1.88-.06l-1.88.06-.05-.06v-.33l.05-.03c.41-.02.68-.04.82-.07a.6.6 0 0 0 .27-.1c.05-.04.08-.13.12-.27.03-.14.04-.44.04-.91l.01-1.4v-3.84l-.05-1.72h-.98c-.4 0-.76.01-1.05.03-.3.02-.46.06-.51.13-.05.08-.09.31-.13.71l-.07.6-.06.07h-.3l-.05-.05a32.04 32.04 0 0 0-.06-2.07l.06-.06a95 95 0 0 0 3.82.05c1.81 0 3.09-.02 3.82-.05Zm.8.42-.05-.06v-.31l.05-.05a28.23 28.23 0 0 0 3.29 0l.05.05v.3l-.05.07a3.1 3.1 0 0 0-.67.2c-.1.07-.14.15-.14.25s.06.29.19.56c.16.38.54 1.17 1.14 2.36a28.6 28.6 0 0 0 .95 1.77l.03-.01.14-.24.53-1.15.77-1.7.47-1.1c.09-.22.13-.37.13-.45a.32.32 0 0 0-.08-.22.5.5 0 0 0-.22-.14 7.2 7.2 0 0 0-.56-.13l-.06-.06v-.31l.06-.05a18.43 18.43 0 0 0 2.66 0l.06.05v.3l-.05.07c-.28.06-.5.15-.64.26-.14.11-.34.38-.59.8-.25.43-.66 1.21-1.23 2.35-.45.9-.85 1.68-1.22 2.37l-1 1.89c-.26.44-.47.75-.62.91a1.3 1.3 0 0 1-.5.36c-.16.08-.36.11-.57.11-.21 0-.47-.05-.79-.15a14.9 14.9 0 0 0-.24-1.96l.27-.1c.17.37.34.62.5.75.17.13.35.2.55.2.29 0 .57-.12.84-.35.27-.24.5-.55.71-.94-.2-.45-.6-1.23-1.2-2.34l-1.38-2.65a7.91 7.91 0 0 0-.66-1.14c-.1-.1-.2-.18-.31-.23-.1-.06-.3-.1-.56-.14Zm16.74-.42.06.06c-.04.4-.06 1.08-.06 2.07l-.05.05h-.3l-.06-.06-.07-.6a5.47 5.47 0 0 0-.09-.6.28.28 0 0 0-.1-.16 1.2 1.2 0 0 0-.42-.09 9.17 9.17 0 0 0-.81-.03h-1.25l-.05 1.72v3.85l.01 1.28c0 .5.02.82.04.97.02.15.05.24.1.3.03.04.11.08.23.1.12.04.41.07.88.09l.05.03v.33l-.05.06-1.88-.06-1.88.06-.05-.06v-.33l.05-.03c.41-.02.69-.04.82-.07a.6.6 0 0 0 .27-.1c.05-.04.08-.13.12-.27.03-.14.04-.44.04-.91l.02-1.4v-3.84l-.06-1.72h-.98c-.4 0-.75.01-1.05.03-.3.02-.46.06-.51.13-.05.08-.09.31-.13.71l-.06.6-.06.07h-.3l-.06-.05c0-1.06-.03-1.75-.06-2.07l.06-.06c.77.03 2.04.05 3.82.05 1.81 0 3.09-.02 3.82-.05Zm-73.37 25.53-.05.05a107.4 107.4 0 0 1-1.9-.06l-1.88.06-.05-.06v-.33l.05-.04c.39-.01.66-.03.8-.06.16-.02.26-.06.3-.12a.56.56 0 0 0 .1-.28c.02-.13.04-.46.05-.98v-5.79a6.76 6.76 0 0 0-.06-.92.4.4 0 0 0-.1-.21.58.58 0 0 0-.28-.1c-.13-.03-.4-.05-.81-.06l-.05-.05v-.33l.05-.05.4.01h.26l.45.01.93.01 1.37.01 1.71.02 4.2-.04c.3 0 .6 0 .89-.02l.05.05v.33l-.05.05a5.9 5.9 0 0 0-.84.06c-.13.03-.22.06-.26.1a.44.44 0 0 0-.1.23c-.02.1-.04.44-.05 1.01l-.01 1.33v3.06a77.44 77.44 0 0 0 .05 2.27c.01.13.05.23.1.28.05.06.16.1.32.12.15.03.42.05.79.06l.05.04v.33l-.05.06a94.6 94.6 0 0 1-1.91-.06l-1.88.06-.04-.06v-.33l.04-.04c.44-.01.73-.04.85-.07.13-.02.22-.06.26-.1a.47.47 0 0 0 .1-.23 76.67 76.67 0 0 0 .07-2.33v-5.58l-.08-.07h-5.03l-.07.07v5.58a79.42 79.42 0 0 0 .05 2.27c.02.13.05.23.1.28.05.06.16.1.31.12.16.03.42.05.8.06l.05.04v.33Zm7.24-8.9-.05-.06v-.31l.05-.06a28.15 28.15 0 0 0 3.29 0l.05.06v.3l-.05.07c-.35.07-.58.15-.67.2-.09.07-.14.15-.14.24 0 .1.07.3.19.57a43 43 0 0 0 1.15 2.36 29.23 29.23 0 0 0 .94 1.77l.03-.01c.02-.01.06-.09.14-.24l.53-1.15.77-1.7.47-1.1c.09-.22.13-.37.13-.46a.32.32 0 0 0-.08-.22.5.5 0 0 0-.22-.13 7.1 7.1 0 0 0-.56-.13l-.06-.06v-.31l.06-.06a18.37 18.37 0 0 0 2.66 0l.06.06v.3l-.05.07c-.28.06-.5.14-.64.26-.14.1-.34.38-.59.8-.24.43-.66 1.2-1.23 2.35-.45.89-.85 1.68-1.22 2.36l-1 1.9c-.26.44-.46.74-.62.91-.15.16-.32.28-.49.36-.17.07-.37.11-.58.11-.21 0-.47-.05-.79-.15a13.3 13.3 0 0 0-.24-1.96l.27-.1c.17.36.34.62.5.75.17.13.36.2.55.2.29 0 .57-.12.84-.35.27-.24.5-.55.71-.94-.2-.45-.6-1.23-1.2-2.34l-1.38-2.65a7.9 7.9 0 0 0-.66-1.14c-.1-.1-.2-.18-.3-.24a2.1 2.1 0 0 0-.57-.13Zm9.3 8.9v-.34l.05-.04c.39-.01.66-.03.81-.06.15-.02.25-.06.3-.12a.56.56 0 0 0 .1-.28 79.56 79.56 0 0 0 .05-2.27v-3.06c0-.45 0-.94-.02-1.45a6.6 6.6 0 0 0-.05-.92.4.4 0 0 0-.1-.2.6.6 0 0 0-.28-.1c-.14-.03-.4-.05-.8-.06l-.06-.05v-.33l.05-.05a168.51 168.51 0 0 1 1.9.06l1.88-.06.05.05v.33l-.05.05c-.39 0-.66.03-.8.06-.16.02-.26.06-.3.12a.52.52 0 0 0-.1.27c-.02.13-.04.46-.05 1v6.84l.1.1h3.36l.1-.1v-5.56l-.01-1.44a6.68 6.68 0 0 0-.05-.92.43.43 0 0 0-.1-.21.59.59 0 0 0-.28-.1 7.8 7.8 0 0 0-.81-.06l-.06-.05v-.33l.06-.05a117.45 117.45 0 0 1 1.9.06l1.88-.06.05.05v.33l-.06.05c-.43.01-.71.04-.84.06-.13.03-.21.06-.25.1a.47.47 0 0 0-.1.23 73.02 73.02 0 0 0-.07 2.34v5.56l.12.1h3.35l.11-.1v-5.56a79.58 79.58 0 0 0-.05-2.28.53.53 0 0 0-.1-.28.6.6 0 0 0-.32-.12 7.82 7.82 0 0 0-.79-.05l-.05-.05v-.33l.05-.05a104.46 104.46 0 0 1 1.87.06l1.9-.06.06.05v.33l-.05.05a6.8 6.8 0 0 0-.8.06c-.16.02-.26.06-.3.12a.53.53 0 0 0-.1.27c-.03.13-.04.46-.05.99l-.01 1.3v3.05a36.54 36.54 0 0 0 .07 2.36c.02.1.06.17.1.2a.6.6 0 0 0 .27.1c.14.03.41.06.82.07l.05.04v.33l-.05.06-.82-.02-1.79-.01-1.54-.01-2.63-.02-5.4.04-1.27.02-.05-.06Zm17.08-4.78.6-.52c.14-.11.3-.26.48-.43l.57-.55 1.47-1.47a14 14 0 0 0 1.05-1.1v-.42l.07-.06.9.03 1.23-.02.07.06v.3l-.05.06c-.4 0-.7.03-.9.07-.19.04-.4.13-.6.27-.22.14-.6.45-1.13.93l-2.64 2.4 4.08 3.82c.6.57.96.89 1.06.95.1.06.26.1.49.1l.05.05v.28l-.05.05c-.8-.02-1.28-.04-1.44-.06a1.52 1.52 0 0 1-.49-.16c-.16-.08-1.77-1.52-4.82-4.32v2.7c0 .5.02.81.04.96a.6.6 0 0 0 .1.29c.04.05.12.08.23.12.12.03.42.06.9.07l.04.04v.33l-.05.06a95.37 95.37 0 0 1-1.9-.06l-1.88.06-.06-.06v-.33l.06-.04c.6-.02.95-.06 1.05-.14.1-.07.15-.2.17-.4.02-.21.03-.94.04-2.2v-3.05l-.02-1.29c0-.5 0-.82-.03-.96-.02-.15-.05-.24-.1-.3a.54.54 0 0 0-.23-.11 5.62 5.62 0 0 0-.88-.07l-.06-.05v-.33l.06-.05 1.88.06 1.9-.06.05.05v.33l-.05.05c-.43 0-.7.03-.84.06-.13.03-.22.06-.26.1a.59.59 0 0 0-.1.28c-.04.13-.05.43-.06.9v2.78Zm7.33 4.78v-.34l.05-.04c.39-.01.65-.03.8-.06.16-.02.26-.06.3-.12a.56.56 0 0 0 .1-.28 78.59 78.59 0 0 0 .05-2.27v-4.51a6.6 6.6 0 0 0-.06-.92.4.4 0 0 0-.1-.2.6.6 0 0 0-.28-.1 5.3 5.3 0 0 0-.81-.06l-.05-.05v-.33l.05-.05a168.73 168.73 0 0 1 1.9.06l1.88-.06.05.05v.33l-.05.05c-.39 0-.66.03-.81.06-.15.02-.25.06-.3.12a.52.52 0 0 0-.1.27 82.76 82.76 0 0 0-.05 2.28v5.07l.1.04a143.61 143.61 0 0 0 5.3-8.27 17.1 17.1 0 0 0 2.57 0l.05.05v.33l-.05.05a5.9 5.9 0 0 0-.84.06c-.13.03-.22.06-.26.1a.44.44 0 0 0-.1.23c-.02.1-.04.44-.05 1v4.4a76.77 76.77 0 0 0 .04 2.27c.02.13.06.23.11.28.05.06.16.1.31.12.16.03.42.05.8.06l.04.04v.33l-.05.06a149.03 149.03 0 0 1-1.9-.06l-1.88.06-.05-.06v-.33l.05-.04c.39-.01.66-.03.81-.06.15-.03.25-.07.3-.12.05-.05.08-.14.1-.27a83.29 83.29 0 0 0 .05-2.28v-4.92l-.12-.05c-.39.56-1.27 1.9-2.67 4.03l-2.65 4.1a14.11 14.11 0 0 0-2.53 0l-.05-.06Zm11.41-9.33 1.88.06 1.9-.06.05.05v.33l-.05.05c-.3 0-.54.02-.7.04a.86.86 0 0 0-.37.1c-.07.04-.12.16-.14.33-.03.18-.04.43-.04.75l-.01 1.51v.93a101.3 101.3 0 0 0 5.42 0v-2.21c-.01-.5-.03-.83-.05-.97a.65.65 0 0 0-.1-.3c-.03-.04-.11-.08-.23-.11a5.7 5.7 0 0 0-.88-.07l-.05-.05v-.33l.05-.05 1.9.06 1.88-.06.06.05v.33l-.06.05c-.3 0-.54.02-.7.04a.86.86 0 0 0-.36.1c-.08.04-.13.16-.15.33a7.1 7.1 0 0 0-.04.75l-.01 1.51v3.06l.01 1.28c0 .5.02.82.04.97.02.14.05.24.1.29a.5.5 0 0 0 .23.12c.12.03.41.06.88.07l.06.04v.33l-.06.06a134.8 134.8 0 0 0-1.89-.06l-1.9.06-.04-.06v-.33l.05-.04c.41-.01.69-.04.82-.06.14-.03.23-.06.27-.1.05-.05.08-.14.11-.27.03-.14.05-.44.05-.91l.01-1.4v-1.5l-2.73-.04-2.7.04v1.5l.01 1.3c0 .49.02.81.04.96.02.14.06.24.1.29.04.04.12.08.24.12.12.03.41.06.88.07l.05.04v.33l-.05.06-1.9-.06-1.88.06-.06-.06v-.33l.06-.04c.4-.01.68-.04.81-.06a.6.6 0 0 0 .28-.1.7.7 0 0 0 .11-.27c.03-.14.05-.44.05-.91v-5.73c-.01-.5-.02-.83-.04-.97-.02-.15-.05-.24-.1-.3a.54.54 0 0 0-.24-.11 5.68 5.68 0 0 0-.87-.07l-.06-.05v-.33l.06-.05Zm14.24 5.68h3.34l-1.66-3.98-1.68 3.98Zm-3 3.7-.07-.06v-.34l.06-.05c.32 0 .53-.02.62-.05.1-.03.18-.09.25-.17.07-.09.22-.37.44-.84l.69-1.5 1.8-4.07 1-2.39h.43l3.2 7.5a11.17 11.17 0 0 0 .67 1.35c.05.05.12.09.2.12.09.03.27.04.55.05l.05.05v.34l-.05.06c-.47-.04-.89-.06-1.26-.06l-2.2.06-.04-.06v-.34l.05-.05c.5-.01.8-.03.92-.07.12-.03.19-.1.19-.22 0-.1-.04-.23-.1-.39l-.8-2h-3.83l-.72 1.68c-.12.3-.19.53-.19.67 0 .1.06.19.18.24.12.05.42.08.9.09l.06.05v.34l-.06.06a24.19 24.19 0 0 0-2.95 0Z" fill="#000"/></svg>