<svg viewBox="0 0 158 50" fill="none" xmlns="http://www.w3.org/2000/svg"><g clip-path="url(#a)"><path d="M26.97 49.23h12.21c1.4-4.99 2.44-15.7 3.9-31.88-1.77 5.1-5.99 10.78-5.99 10.78s-3.9 14.72-10.12 21.1Z" fill="#5170B6"/><path d="M46.91 0c0 2.98-1.28 10.55-2.36 13.14l-2.16 36.09h4.56l-.04-49.23Z" fill="#DD4B42"/><path d="M55.83 17.73h4.18v.47c-.31 0-.58.04-.74.08-.15.03-.3.07-.46.19a.55.55 0 0 0-.23.46v.39c.27-.16.54-.23.85-.31.3-.08.54-.08.7-.08a3.15 3.15 0 0 1 2.16.85c.27.27.5.58.65.97a3.35 3.35 0 0 1-.15 2.82c-.27.5-.62.93-1.08 1.24-.47.3-1.05.46-1.66.46l-.04-.04c-.23 0-.47-.04-.81-.08a1.46 1.46 0 0 1-.66-.19v.54c0 .35.04.58.15.74.12.15.24.27.43.3.15.04.46.08.81.08v.47h-4.17v-.47c.38 0 .65-.04.8-.08a.6.6 0 0 0 .43-.3c.12-.2.16-.4.16-.74v-.5c-.12.08-.35.15-.66.2-.3.03-.58.07-.81.07l-.04.04a2.96 2.96 0 0 1-2.74-1.7 3.35 3.35 0 0 1-.39-1.63 3.01 3.01 0 0 1 3.1-2.98c.61 0 1.11.13 1.54.36v-.08c0-.43-.12-.73-.35-.85a2.1 2.1 0 0 0-1.04-.2l.07-.5Zm1.4 2.13a1.73 1.73 0 0 0-1.16-.35c-.27 0-.54.04-.81.16-.47.19-.82.46-1 .8-.2.36-.28.86-.32 1.51v.12c0 .46.08.85.2 1.24.15.38.34.7.61.92.27.24.58.4.97.4h.31c.54 0 .96-.09 1.27-.24l-.07-4.56Zm1.39 4.56c.3.15.73.27 1.23.27h.31c.54-.04.97-.31 1.28-.77.3-.47.46-1.09.46-1.78v-.12a3 3 0 0 0-.15-1.12c-.08-.27-.24-.5-.39-.7-.2-.19-.42-.34-.77-.5a3.29 3.29 0 0 0-.85-.15c-.47 0-.85.12-1.12.35v4.52Zm12.28-4.25-4.6 5.25c0 .35.04.58.16.74.12.15.23.27.43.3.15.05.46.08.8.08v.47h-4.17v-.47c.39 0 .66-.03.81-.07a.67.67 0 0 0 .43-.31c.12-.2.15-.39.15-.74v-6.14c0-.35-.03-.58-.15-.73-.12-.16-.23-.28-.43-.31a3.79 3.79 0 0 0-.8-.08v-.46h4.17v.46c-.47 0-.81.08-1.09.2-.11.07-.23.19-.23.34-.04.15-.04.35-.04.58v5.33l4.6-5.33c0-.31-.04-.54-.15-.7-.12-.15-.23-.27-.43-.3a4.1 4.1 0 0 0-.8-.08v-.47h4.16v.43c-.5 0-.85.08-1.08.2-.11.07-.23.19-.23.34-.04.15-.04.35-.04.58v6.14c0 .35.04.62.16.78.11.15.23.27.42.27.2 0 .43.04.81.07v.47h-4.17v-.47c.35 0 .62-.03.81-.07.2-.04.31-.16.43-.31.11-.16.15-.39.15-.74l-.08-5.25Zm10.55 2.2h-4.6v3.05c0 .35.04.58.16.74.11.15.23.27.42.3.16.05.47.08.82.08v.47h-4.18v-.47c.39 0 .66-.03.81-.07a.67.67 0 0 0 .43-.31c.11-.2.15-.39.15-.74v-6.14c0-.35-.04-.58-.15-.73-.12-.16-.23-.28-.43-.31a3.79 3.79 0 0 0-.8-.08v-.46h4.17v.46c-.47 0-.82.08-1.09.2-.11.07-.23.19-.23.34-.04.15-.04.35-.04.58v2.51h4.6v-2.51c0-.31-.04-.54-.15-.7-.12-.15-.24-.27-.43-.3a4.1 4.1 0 0 0-.81-.08v-.47h4.13v.43c-.5 0-.85.08-1.08.2-.11.07-.23.19-.23.34 0 .15-.04.35-.04.58v6.14c0 .35.04.62.16.78.11.15.23.27.42.27.2 0 .43.04.81.07v.47h-4.17v-.47c.35 0 .62-.03.81-.07.2-.04.31-.16.43-.31.11-.16.15-.39.15-.74l-.04-3.05Zm8.31-4.79 3.48 8.04c.15.3.3.54.5.7.2.15.46.23.81.23v.46h-3.82v-.46h.3c.55 0 .82-.16.82-.43 0-.11-.04-.27-.12-.5l-.73-1.78h-3.67l-.74 1.78c-.08.2-.11.3-.11.39 0 .34.27.54.85.54h.3v.46h-3.2v-.46c.42 0 .73-.08.96-.2.24-.11.43-.34.54-.73l3.33-8.04h.5Zm.93 5.68-1.2-2.93a9.69 9.69 0 0 1-.39-1.13c-.04.08-.07.2-.11.35l-1.51 3.71h3.2Zm11.47-.89h-4.6v3.05c0 .35.04.58.16.74.12.15.23.27.42.3.16.05.47.08.82.08v.47h-4.18v-.47c.39 0 .66-.03.81-.07a.67.67 0 0 0 .43-.31c.12-.2.15-.39.15-.74v-6.14c0-.35-.03-.58-.15-.73-.12-.16-.23-.28-.43-.31a3.79 3.79 0 0 0-.8-.08v-.46h4.17v.46c-.47 0-.82.08-1.09.2-.11.07-.23.19-.23.34-.04.15-.04.35-.04.58v2.51h4.6v-2.51c0-.31-.04-.54-.15-.7-.12-.15-.23-.27-.43-.3a4.1 4.1 0 0 0-.8-.08v-.47h4.16v.43c-.5 0-.85.08-1.08.2a.53.53 0 0 0-.23.34c-.04.15-.04.35-.04.58v6.14c0 .35.04.62.16.78.11.15.23.27.42.27.16.04.43.04.81.07v.47h-4.17v-.47c.35 0 .62-.03.81-.07.2-.04.31-.16.43-.31.11-.16.15-.39.15-.74l-.08-3.05Zm12.06-4.63.16 3.32h-.43a5.89 5.89 0 0 0-.62-1.58 2.92 2.92 0 0 0-2.67-1.47c-.73 0-1.3.19-1.77.61-.47.43-.81.97-1.05 1.59a5.94 5.94 0 0 0 .04 4.13 3.22 3.22 0 0 0 3.1 2.2c.69 0 1.35-.23 2-.65a3.42 3.42 0 0 0 1.36-1.62l.5.38a4.22 4.22 0 0 1-2.51 2.28 5 5 0 0 1-3.6-.04 3.98 3.98 0 0 1-1.46-1 5.05 5.05 0 0 1-.97-1.5 5.15 5.15 0 0 1 0-3.8 4.68 4.68 0 0 1 2.47-2.67 5.33 5.33 0 0 1 4.9.54c.09-.1.2-.34.32-.69l.23-.03Zm6.07 9.5c-.93 0-1.74-.2-2.52-.62-.77-.42-1.35-1-1.77-1.74a4.97 4.97 0 0 1-.66-2.5c0-.93.2-1.78.62-2.52.42-.73 1-1.31 1.78-1.74a5.04 5.04 0 0 1 2.5-.62 5 5 0 0 1 2.52.62c.77.43 1.35 1 1.78 1.74a5.07 5.07 0 0 1 0 5.02c-.43.74-1 1.32-1.78 1.74-.73.39-1.55.62-2.47.62Zm0-.5c.8 0 1.46-.2 1.93-.62.46-.42.85-.93 1.08-1.62.2-.66.3-1.4.3-2.17 0-.58-.03-1.12-.15-1.66a3.6 3.6 0 0 0-.58-1.35 2.9 2.9 0 0 0-1.04-1 3.31 3.31 0 0 0-1.58-.4 2.78 2.78 0 0 0-2.55 1.4c-.27.43-.43.89-.54 1.4a7.7 7.7 0 0 0 .15 3.83c.2.64.58 1.18 1.04 1.6.47.4 1.12.59 1.94.59Zm10.12-4.79c.5.03 1 .11 1.47.3a2.38 2.38 0 0 1 1.12 3.52c-.23.39-.58.7-1 .89-.43.2-.9.3-1.4.3h-4.71v-.45c.39 0 .66-.04.81-.08.2-.04.3-.12.42-.31.12-.2.16-.39.16-.74v-6.1c0-.35-.04-.58-.16-.73-.11-.16-.23-.28-.42-.31a4.1 4.1 0 0 0-.81-.08v-.46h4.48c.43 0 .81.07 1.2.23.39.15.7.38.93.7.23.3.34.69.34 1.11 0 .7-.23 1.2-.7 1.55-.45.35-1 .58-1.73.66Zm-1.7-.16c.58 0 1.08-.04 1.43-.11.35-.08.66-.24.89-.5.23-.28.35-.66.35-1.2a2.3 2.3 0 0 0-.35-1.36c-.23-.3-.62-.46-1.2-.46h-1.12v3.63Zm0 .46v3.17c0 .43.11.7.35.85.23.16.58.24 1 .24.62 0 1.08-.2 1.35-.62.28-.43.4-.93.4-1.63 0-.61-.16-1.08-.43-1.39-.28-.3-.62-.46-1-.54a17.1 17.1 0 0 0-1.67-.08Zm8.39-2.97v2.51h1.42c.66 0 1.24.12 1.74.35.5.23.85.54 1.12.93.27.38.39.88.43 1.43a2.47 2.47 0 0 1-1.4 2.2c-.42.2-.88.3-1.38.3h-4.72v-.46c.39 0 .66-.03.81-.07.2-.04.31-.12.43-.31.11-.2.15-.39.15-.74v-6.14c0-.35-.03-.58-.15-.73-.12-.16-.23-.28-.43-.31a4.1 4.1 0 0 0-.8-.08v-.46h4.17v.46c-.47 0-.82.08-1.05.2a.5.5 0 0 0-.27.34 2.3 2.3 0 0 0-.07.58Zm0 2.97v3.17c0 .43.11.7.34.85.23.16.58.24 1 .24.63 0 1.09-.2 1.36-.62.27-.43.39-.93.39-1.63 0-.58-.12-1.04-.35-1.31a1.64 1.64 0 0 0-.9-.54 7.2 7.2 0 0 0-1.38-.12l-.47-.04Zm9.3 4.76h-4.17v-.47c.39 0 .66-.03.81-.07.2-.04.31-.12.43-.31.12-.2.16-.39.16-.74v-6.1c0-.35-.04-.58-.16-.74-.12-.15-.23-.27-.43-.3a4.1 4.1 0 0 0-.8-.08v-.47h4.17v.47c-.47 0-.81.07-1.05.2a.5.5 0 0 0-.27.34c-.04.15-.04.35-.04.58v6.14c0 .35.04.58.16.74.11.15.23.27.42.3.2.04.47.08.81.08l-.03.43Zm7.93-6.84-4.6 5.25c0 .35.04.58.15.74.12.15.24.27.43.3.2.05.46.08.81.08v.47h-4.17v-.47c.38 0 .65-.03.8-.07.2-.04.32-.12.43-.31.12-.2.16-.39.16-.74v-6.14c0-.35-.04-.58-.16-.73-.11-.16-.23-.27-.42-.31a4.1 4.1 0 0 0-.81-.08v-.46h4.17v.46c-.46 0-.81.08-1.08.2a.5.5 0 0 0-.23.34c-.04.16-.04.35-.04.58v5.33l4.6-5.33c0-.3-.04-.54-.16-.7-.11-.15-.23-.27-.42-.3-.2-.04-.47-.08-.81-.08v-.46h4.17v.42c-.5 0-.85.08-1.08.2a.54.54 0 0 0-.24.34c-.03.16-.03.35-.03.58v6.14c0 .35.03.62.15.78.12.15.23.27.43.27.15.04.42.04.8.07v.47h-4.17v-.47c.35 0 .62-.03.81-.07.2-.04.31-.16.43-.31.12-.16.16-.39.16-.74l-.08-5.25Zm-2.13-4.17c.27 0 .54-.04.81-.12.27-.08.39-.23.39-.42-.04-.28-.08-.47-.08-.55 0-.19.08-.34.2-.46.11-.12.27-.2.46-.23h.04c.11 0 .23.04.35.08.11.03.23.11.27.15.11.16.19.35.19.62 0 .39-.2.7-.5.89-.31.23-.7.35-1.08.42a5.82 5.82 0 0 1-2.25 0 3.33 3.33 0 0 1-1.08-.42.99.99 0 0 1-.46-.9c0-.26.08-.45.2-.6a.88.88 0 0 1 .61-.24h.08c.2 0 .34.08.46.23.12.12.2.31.2.46 0 .12-.04.31-.08.55 0 .19.15.3.38.42a4 4 0 0 0 .9.12Zm-94.47 24.77s-.08.15-.31.5l-.35.35c-.11.11-.23.15-.27.19-.2.08-.42.15-.73.15s-.54-.07-.74-.19c-.04-.04-.15-.11-.23-.27a1.1 1.1 0 0 1-.15-.5c0-.2.07-.35.19-.5a.6.6 0 0 1 .5-.27c.08 0 .2.03.35.03l.2.16c.15.11.26.15.42.15h.27a.5.5 0 0 0 .35-.15c.07-.08.15-.23.3-.47.16-.23.2-.34.24-.38l-3.87-5.87c-.11-.16-.23-.28-.34-.43-.12-.15-.2-.23-.28-.3a.78.78 0 0 0-.3-.16 1.2 1.2 0 0 0-.43-.08v-.46h3.9v.58h-.3c-.55 0-.82.15-.82.42 0 .12.04.27.12.5l3.01 4.68 2.28-4.68c.08-.2.12-.35.12-.42 0-.2-.08-.35-.27-.43-.2-.07-.39-.07-.66-.07h-.27v-.47h3.28v.47h-.11c-.66.07-1.16.38-1.43.92l-3.67 7Zm12.94-3.6h-4.71v3.13c0 .35.04.62.15.77.12.16.24.27.43.31.2.04.46.08.85.08v.46h-4.25v-.46c.39 0 .66-.04.85-.08.2-.04.3-.15.42-.3.12-.16.16-.43.16-.78v-6.34c0-.34-.04-.62-.16-.77-.11-.15-.23-.27-.42-.3-.2-.05-.46-.09-.85-.09v-.46h4.25v.5c-.46 0-.85.08-1.12.2a.5.5 0 0 0-.27.34c-.04.16-.04.35-.04.62v2.59h4.75v-2.59c0-.3-.04-.58-.15-.73-.12-.16-.23-.27-.43-.31a4.1 4.1 0 0 0-.8-.08v-.46h4.24v.42c-.5 0-.85.08-1.12.2a.5.5 0 0 0-.27.34c-.04.16-.04.35-.04.62v6.3c0 .35.04.62.16.77.11.16.27.27.42.31.16.04.47.08.81.08v.46h-4.25v-.46c.35 0 .66-.04.85-.08a.6.6 0 0 0 .43-.3c.11-.16.15-.43.15-.74l-.04-3.17Zm10.86-2.28-4.71 5.41c0 .35.04.62.15.77.12.16.23.27.43.31.19.04.46.08.85.08v.46h-4.25v-.46c.38 0 .65-.04.85-.08.19-.04.3-.15.42-.3.12-.16.16-.43.16-.78v-6.34c0-.34-.04-.62-.16-.77-.11-.15-.23-.27-.42-.3-.2-.05-.47-.09-.85-.09v-.46h4.25v.5c-.47 0-.85.08-1.12.2a.5.5 0 0 0-.27.34c-.04.16-.04.35-.04.62v5.45l4.71-5.49c0-.3-.04-.58-.15-.73-.12-.16-.24-.27-.43-.31a4.1 4.1 0 0 0-.81-.08v-.46h4.25v.46c-.5 0-.85.08-1.12.2a.5.5 0 0 0-.27.34c-.04.16-.04.35-.04.62v6.3c0 .35.04.62.16.77.11.16.27.27.42.31.15.04.46.08.81.08v.46h-4.25v-.46c.35 0 .66-.04.85-.08a.6.6 0 0 0 .43-.3c.07-.16.15-.43.15-.74v-5.45Zm7.84 1.85c.54.04 1.05.12 1.51.31.46.2.85.47 1.12.85.27.39.43.85.43 1.4a2.47 2.47 0 0 1-1.4 2.24c-.42.19-.88.3-1.39.3h-4.83v-.46c.4 0 .66-.04.85-.08.2-.03.31-.15.43-.3.12-.16.15-.43.15-.78v-6.26c0-.34-.03-.62-.15-.77-.12-.15-.23-.27-.43-.3a3.36 3.36 0 0 0-.85-.09v-.46h4.6c.43 0 .85.08 1.24.23.39.16.7.39.93.7.23.3.34.7.34 1.16 0 .7-.23 1.23-.7 1.58a3.5 3.5 0 0 1-1.85.73Zm-1.73-.19a7.8 7.8 0 0 0 1.46-.11c.35-.08.66-.24.9-.5a2 2 0 0 0 .34-1.24 2.3 2.3 0 0 0-.35-1.4c-.23-.3-.65-.46-1.23-.46h-1.12v3.71Zm0 .47v3.28c0 .42.11.7.34.85.23.15.58.23 1.05.23.61 0 1.08-.2 1.39-.62a3 3 0 0 0 .42-1.66c0-.66-.15-1.12-.42-1.43-.27-.3-.62-.5-1.05-.54-.42-.04-1-.11-1.73-.11Zm12.75-4.64.27 2.32h-.43a2.95 2.95 0 0 0-.66-1.36c-.3-.3-.7-.5-1.27-.5h-2.09v3.71h.93c.85 0 1.28-.42 1.31-1.31h.47v3.2h-.47c-.07-.5-.15-.88-.34-1.08-.16-.19-.47-.3-.97-.3h-.93v3.05c0 .46.12.8.39.96.27.16.62.27 1.12.27.73 0 1.27-.07 1.7-.19.42-.12.77-.46 1.08-.97.27-.54.39-.96.43-1.27h.42l-.2 2.94h-7.8v-.47c.39 0 .66-.04.85-.08.2-.03.31-.15.43-.3.11-.16.15-.43.15-.78v-6.26c0-.34-.04-.62-.15-.77-.12-.15-.23-.27-.43-.3a3.36 3.36 0 0 0-.85-.09v-.46l7.04.04Zm4.17 4.98v2.94c0 .35.04.62.15.77.12.16.23.27.43.31.2.04.46.08.85.08v.46h-4.25v-.46c.39 0 .66-.04.85-.08.2-.04.3-.15.42-.3.12-.16.16-.43.16-.78v-6.34c0-.34-.04-.62-.16-.77-.11-.15-.23-.27-.42-.3-.2-.05-.47-.09-.85-.09v-.46h3.32c.81 0 1.5.04 2.09.12.58.07 1.04.3 1.43.7.38.38.58.92.58 1.7 0 .42-.12.84-.31 1.23-.2.38-.5.65-.9.89-.42.23-1.11.34-2 .34l-1.4.04Zm0-.42h1.08c.62 0 1.12-.2 1.47-.54.35-.39.5-.9.5-1.51 0-.5-.08-.89-.23-1.2a1.3 1.3 0 0 0-.7-.65c-.3-.12-.73-.2-1.2-.2h-.88l-.04 4.1Zm13.99-4.52.15 3.4h-.46a6.16 6.16 0 0 0-.66-1.62 3.12 3.12 0 0 0-2.74-1.55 2.8 2.8 0 0 0-1.86.66c-.5.42-.85.96-1.08 1.62a6.16 6.16 0 0 0 .04 4.21c.23.66.66 1.24 1.16 1.63.5.38 1.2.61 1.97.61.7 0 1.4-.23 2.05-.65a3.6 3.6 0 0 0 1.39-1.66l.5.38c-.23.54-.58 1-1.04 1.43-.47.39-.97.7-1.55.93a5.21 5.21 0 0 1-3.67-.04 4.08 4.08 0 0 1-1.5-1.04 4.96 4.96 0 0 1-1.32-3.48c0-.7.12-1.31.35-1.97a4.9 4.9 0 0 1 .97-1.62 4.56 4.56 0 0 1 3.47-1.51c1.12 0 2.13.3 3.1.96.07-.15.19-.38.3-.7h.43Zm8.42 2.48-4.71 5.4c0 .35.04.62.15.77.12.16.23.27.43.31.2.04.46.08.85.08v.46h-4.25v-.46c.38 0 .65-.04.85-.08.19-.04.3-.15.42-.3.12-.16.16-.43.16-.78v-6.34c0-.34-.04-.62-.16-.77-.11-.15-.23-.27-.42-.3-.2-.05-.5-.05-.9-.05v-.46h4.26v.46c-.47 0-.85.08-1.12.2a.5.5 0 0 0-.27.34c-.04.16-.04.35-.04.62v5.45l4.71-5.45c0-.3-.04-.58-.15-.73-.12-.16-.23-.27-.43-.31a3.88 3.88 0 0 0-.8-.08v-.46h4.24v.42c-.5 0-.85.08-1.12.2a.49.49 0 0 0-.27.34c-.04.16-.04.35-.04.62v6.3c0 .35.04.62.16.77.11.16.27.27.42.31.2.04.47.08.81.08v.46h-4.25v-.46c.39 0 .66-.04.85-.08a.6.6 0 0 0 .43-.3c.08-.16.15-.43.15-.74l.04-5.45Zm9.73 6.98h-4.24v-.46c.38 0 .66-.04.85-.08.2-.03.3-.15.42-.3.12-.16.16-.43.16-.74v-7.42h-1.59c-.54 0-.96.16-1.23.47a4 4 0 0 0-.66 1.35h-.46l.27-2.28h8.73l.27 2.28h-.42c-.12-.39-.28-.7-.4-.97a1.49 1.49 0 0 0-.57-.62 1.65 1.65 0 0 0-.93-.23h-1.58v7.42c0 .35.04.58.15.77.12.2.24.27.43.31.2.04.46.08.8.08v.42Zm9.75-9.5.27 2.32h-.43a2.96 2.96 0 0 0-.66-1.36c-.3-.3-.69-.5-1.23-.5h-2.09v3.71h.93c.85 0 1.27-.42 1.31-1.31h.47v3.2h-.5c-.08-.5-.2-.88-.35-1.08-.16-.19-.47-.3-.97-.3h-.93v3.05c0 .46.12.8.39.96.27.2.62.27 1.12.27.73 0 1.28-.07 1.7-.19.43-.12.77-.46 1.08-.97a4 4 0 0 0 .43-1.27h.42l-.2 2.94h-7.8v-.47c.39 0 .66-.04.85-.08.2-.03.31-.15.43-.3.12-.16.15-.43.15-.78v-6.26c0-.34-.03-.62-.15-.77-.12-.15-.23-.27-.43-.3a3.36 3.36 0 0 0-.85-.09v-.46l7.04.04Zm7.8 9.5h-4.25v-.46c.39 0 .66-.04.85-.08.2-.03.3-.15.43-.3.11-.16.15-.43.15-.74v-7.42h-1.59c-.54 0-.96.16-1.23.47a4 4 0 0 0-.66 1.35h-.46l.27-2.28h8.73l.27 2.28h-.42c-.12-.39-.27-.7-.39-.97a1.49 1.49 0 0 0-.58-.62 1.65 1.65 0 0 0-.93-.23h-1.58v7.42c0 .35.04.58.15.77.12.2.24.27.43.31.2.04.46.08.81.08v.42Zm-99.19 7.35h-.42v-2.82h-1.55v2.82h-.42v-3.17h2.4v3.17Zm1.2-1.23v1.23h-.42v-3.17h1.16c.34 0 .61.08.8.27.2.2.32.42.32.7 0 .3-.08.54-.27.69-.2.15-.47.23-.82.23h-.77v.04Zm0-.32h.74c.23 0 .38-.04.5-.15.11-.12.2-.27.2-.47 0-.19-.05-.34-.2-.46-.12-.12-.27-.16-.5-.16h-.78v1.24h.04Zm4.37-1.58h.42v3.17h-.42v-2.44l-1.55 2.44h-.42v-3.17h.42v2.43l1.55-2.43Zm4.67 3.13h-.42v-2.82h-1.55v2.82h-.42v-3.17h2.4v3.17Zm1.16-1.23v1.23h-.42v-3.17h1.15c.35 0 .62.08.82.27.19.2.3.42.3.7 0 .3-.07.54-.27.69-.19.15-.46.23-.8.23h-.78v.04Zm0-.32h.73c.24 0 .4-.04.5-.15.12-.12.2-.27.2-.47 0-.19-.04-.34-.2-.46-.1-.12-.26-.16-.5-.16h-.77v1.24h.04Zm3.83.74h-1.32l-.3.8h-.43l1.2-3.16h.34l1.2 3.17h-.42l-.27-.81Zm-1.2-.35h1.08l-.54-1.47-.54 1.47Zm2.36 1.16v-3.17h1.04c.35 0 .62.08.77.23.16.16.27.35.27.62 0 .15-.04.27-.11.39a.99.99 0 0 1-.35.27c.15.03.3.15.38.27.12.11.16.3.16.46 0 .27-.08.5-.27.66-.2.15-.43.23-.77.23h-1.12v.04Zm.38-1.78h.62c.2 0 .35-.04.42-.12.12-.07.16-.23.16-.38 0-.16-.04-.31-.16-.39a.82.82 0 0 0-.46-.12h-.62v1.01h.04Zm0 .3v1.13h.7c.19 0 .34-.04.46-.16.12-.11.16-.23.16-.42 0-.39-.2-.58-.62-.58h-.7v.04Zm4.37-1.65h.42v3.17h-.42v-2.44l-1.55 2.44h-.42v-3.17h.42v2.43l1.55-2.43Zm3.28.35h-1.04v2.82h-.39v-2.82h-1v-.35h2.43v.35Zm2.24 1.35h-1.35v1.12h1.59v.35h-2.01v-3.17h1.97v.35h-1.59v1h1.36v.35h.03Zm3.13-1.7v3.17h-.42v-2.82h-1.12l-.04 1.23a9.2 9.2 0 0 1-.12.93.92.92 0 0 1-.27.46c-.11.12-.3.16-.5.16h-.15v-.35h.07c.16 0 .24-.08.31-.12.08-.03.12-.19.16-.34.04-.16.07-.43.07-.78l.08-1.5 1.93-.04Zm1.12 1.27h.78c.34 0 .58.08.77.27.2.16.27.39.27.66s-.08.5-.27.7c-.2.19-.43.27-.77.27h-1.2v-3.17h.42v1.27Zm0 .35v1.2h.78c.19 0 .34-.04.46-.16a.58.58 0 0 0 .15-.42c0-.16-.03-.31-.15-.43-.12-.11-.27-.15-.46-.15h-.78v-.04Zm4.72.54c-.04.35-.16.58-.39.77-.2.2-.46.27-.81.27-.39 0-.66-.11-.89-.38a1.58 1.58 0 0 1-.35-1.08v-.31c0-.31.04-.54.16-.78.11-.23.23-.38.42-.5.2-.11.43-.2.66-.2.35 0 .62.09.81.28.2.2.31.46.35.77h-.43a.82.82 0 0 0-.23-.54c-.11-.12-.3-.15-.5-.15-.27 0-.46.07-.62.3-.15.24-.23.47-.23.86v.3c0 .35.08.62.23.82.16.19.35.3.62.3.23 0 .43-.03.54-.15.12-.12.2-.27.23-.54h.43v-.04Zm2.66-1.81h-1v2.82h-.43v-2.82h-1v-.35h2.43v.35Zm.47 2.78v-3.17h1.04c.35 0 .62.08.77.23.16.16.27.35.27.62 0 .15-.03.27-.11.39a.99.99 0 0 1-.35.27c.16.03.31.15.39.27.07.11.15.3.15.46 0 .27-.08.5-.27.66-.2.15-.42.23-.77.23h-1.12v.04Zm.42-1.78h.62c.2 0 .35-.04.43-.12.11-.07.15-.23.15-.38 0-.16-.04-.31-.15-.39a.82.82 0 0 0-.47-.12h-.62v1.01h.04Zm0 .3v1.13h.7c.2 0 .35-.04.46-.16.12-.11.16-.23.16-.42 0-.39-.2-.58-.62-.58h-.7v.04Zm4.14.05h-1.36v1.12h1.59v.35h-2.01v-3.17h1.97v.35h-1.58v1h1.35v.35h.04Zm2.24.2v1.23h-.43v-3.17h1.16c.35 0 .62.08.81.27.2.2.31.42.31.7 0 .3-.07.54-.27.69-.2.15-.46.23-.8.23h-.78v.04Zm0-.32h.73c.23 0 .39-.04.5-.15.12-.12.2-.27.2-.47 0-.19-.04-.34-.2-.46a.71.71 0 0 0-.5-.16h-.77v1.24h.04Zm4.83.08c0 .3-.04.58-.16.81-.11.23-.23.43-.42.54-.2.12-.43.2-.66.2a1.3 1.3 0 0 1-.65-.2c-.2-.11-.35-.3-.47-.5-.11-.2-.15-.5-.15-.77v-.24c0-.3.04-.58.15-.8.12-.24.27-.43.47-.55.19-.11.42-.2.65-.2.23 0 .47.09.66.2.2.12.35.31.42.54.12.23.16.5.16.81v.16Zm-.43-.2c0-.38-.07-.65-.23-.84a.75.75 0 0 0-.62-.31.75.75 0 0 0-.61.3c-.16.2-.24.47-.24.86v.23c0 .35.08.65.24.85.15.2.34.3.61.3.27 0 .47-.07.62-.3.16-.23.23-.47.23-.85v-.23Zm3.37.7c-.04.35-.16.58-.4.77-.18.2-.45.27-.8.27a1.1 1.1 0 0 1-.9-.38 1.58 1.58 0 0 1-.34-1.08v-.31c0-.31.04-.54.16-.78.11-.23.23-.38.42-.5.2-.11.43-.2.66-.2.34 0 .62.09.8.28.2.2.32.46.36.77h-.43c-.04-.27-.11-.42-.23-.54-.12-.12-.3-.15-.5-.15-.27 0-.47.07-.62.3-.15.2-.23.47-.23.86v.3c0 .35.08.62.2.82.14.19.34.3.57.3.23 0 .42-.03.54-.15.12-.12.2-.27.23-.54h.5v-.04Zm2.86 0c-.04.35-.16.58-.4.77-.18.2-.45.27-.8.27a1.1 1.1 0 0 1-.9-.38 1.58 1.58 0 0 1-.34-1.08v-.31c0-.31.04-.54.16-.78.11-.23.23-.38.42-.5.2-.11.42-.2.66-.2.34 0 .62.09.8.28.2.2.32.46.36.77h-.43c-.04-.27-.11-.42-.23-.54-.12-.12-.31-.15-.5-.15-.27 0-.47.07-.62.3-.16.2-.23.47-.23.86v.3c0 .35.07.62.19.82.16.19.35.3.58.3.23 0 .42-.03.54-.15.12-.12.2-.27.23-.54h.5v-.04Zm2.55-2.16h.42v3.17h-.42v-2.44l-1.55 2.44h-.43v-3.17h.43v2.43l1.55-2.43Zm3.16 0h.43v3.17h-.43v-2.44l-1.54 2.44h-.43v-3.17h.43v2.43l1.54-2.43Zm-.11-.78c0 .16-.04.31-.2.43-.11.12-.27.15-.46.15-.2 0-.35-.03-.46-.15a.55.55 0 0 1-.2-.43h.35c0 .12.04.2.08.24.04.03.15.07.23.07.08 0 .2-.04.23-.07.04-.04.08-.12.08-.24h.35Zm3.63 2.94c-.04.35-.16.58-.39.77-.19.2-.46.27-.8.27-.4 0-.67-.11-.9-.38a1.58 1.58 0 0 1-.34-1.08v-.31c0-.31.03-.54.15-.78.11-.23.23-.38.42-.5.2-.11.43-.2.66-.2.35 0 .62.09.81.28.2.2.31.46.35.77h-.42a.88.88 0 0 0-.24-.54c-.11-.12-.3-.15-.5-.15-.27 0-.46.07-.62.3-.15.2-.23.47-.23.86v.3c0 .35.08.62.2.82.15.19.34.3.57.3.24 0 .43-.03.55-.15a.94.94 0 0 0 .23-.54h.5v-.04Zm1.35-.42h-.38v1.43h-.43v-3.17h.43v1.39h.3l1.13-1.4h.5l-1.2 1.51 1.28 1.63h-.5c.03 0-1.13-1.4-1.13-1.4Zm4.41-.08c0 .3-.04.58-.16.81-.11.23-.23.43-.42.54-.2.12-.43.2-.66.2a1.3 1.3 0 0 1-.66-.2c-.19-.11-.34-.3-.46-.5s-.16-.5-.16-.77v-.24c0-.3.04-.58.16-.8.12-.24.27-.43.46-.55.2-.11.43-.2.66-.2.23 0 .46.09.66.2.19.12.34.31.42.54.12.23.16.5.16.81v.16Zm-.43-.2c0-.38-.08-.65-.23-.84a.75.75 0 0 0-.62-.31.75.75 0 0 0-.62.3c-.15.2-.23.47-.23.86v.23c0 .35.08.65.23.85.16.2.35.3.62.3s.47-.07.62-.3c.15-.23.23-.47.23-.85v-.23Zm3.02-1.46h.42v3.17h-.42v-2.44l-1.55 2.44h-.42v-3.17h.42v2.43l1.55-2.43Zm-.12-.78c0 .16-.04.31-.2.43-.1.12-.26.15-.46.15-.19 0-.34-.03-.46-.15s-.2-.23-.2-.43h.35c0 .12.04.2.08.24.04.03.16.07.23.07.08 0 .2-.04.23-.07.04-.04.08-.12.08-.24h.35Zm3.94 1.08h.08c.23 0 .46.08.66.16.19.08.34.27.46.46.12.2.15.43.15.66 0 .23-.03.46-.15.66-.12.19-.27.34-.47.46a1.2 1.2 0 0 1-.65.16h-.08v.42h-.39v-.42h-.07a1.24 1.24 0 0 1-1.12-.62c-.12-.2-.16-.43-.16-.66 0-.23.04-.46.16-.66.11-.19.27-.34.46-.46.2-.12.43-.15.66-.15h.07v-.47h.4v.47Zm-.46.35c-.27 0-.5.08-.66.27-.15.2-.23.39-.23.7 0 .3.08.54.23.7.16.15.39.23.66.23h.04v-1.9h-.04Zm.46 0v1.9h.08c.27 0 .5-.08.66-.27a1 1 0 0 0 .23-.7 1 1 0 0 0-.24-.7c-.15-.19-.38-.27-.65-.27l-.08.04Zm3.67 1.05h-1.35v1.12h1.58v.35h-2v-3.17h1.97v.35h-1.55v1h1.35v.35Zm3.56 2.2h-.39v-.77h-2.28v.77h-.43v-1.12h.28c.15-.16.23-.35.3-.62.08-.27.12-.54.16-.85l.08-1.35h1.89v2.82h.42l-.03 1.12Zm-2.36-1.08h1.54v-2.48h-1.08l-.04.93a3.33 3.33 0 0 1-.42 1.55Zm4.64-1.12h-1.36v1.12h1.59v.35h-2.01v-3.17h1.97v.35h-1.55v1h1.36v.35Zm1.16.2v1.23h-.43v-3.17h1.16c.35 0 .62.08.81.27.2.2.31.42.31.7 0 .3-.08.54-.27.69-.2.15-.46.23-.81.23h-.77v.04Zm0-.32h.73c.23 0 .39-.04.5-.15.12-.12.2-.27.2-.47 0-.19-.04-.34-.2-.46a.71.71 0 0 0-.5-.16h-.77v1.24h.04Zm3.82.74h-1.31l-.31.8h-.43l1.2-3.16h.35l1.2 3.17h-.43l-.27-.81Zm-1.2-.35h1.09l-.54-1.47-.55 1.47Zm2.36-1.97h.43v2.82h1.54v-2.82h.43v2.78h.34l-.03 1.12h-.4v-.77h-2.3v-3.13Zm5.22 0h.42v3.17h-.42v-2.44l-1.55 2.44h-.42v-3.17h.42v2.43l1.55-2.43Zm3.17 0h.42v3.17h-.43v-2.44l-1.54 2.44h-.42v-3.17h.42v2.43l1.55-2.43Z" fill="#266568"/><path d="M.04 49.03c12.25-1.7 24.57-6.91 33.54-16.84-.97 3.55-6.18 12.56-11.2 16.84h-22.34Z" fill="#fff" stroke="#ACADB0"/><path d="m15.65 47.64-.04-.07.39.04v.11h-.97v-.11l.46-.04-.03.04v-1.59h.07l-.5.27-.08-.15.54-.35h.2v1.85h-.04Zm1.66-1v.15c-.08.08-.2.12-.3.16-.12.04-.2.04-.32.04-.11 0-.19-.04-.3-.08-.12-.04-.16-.12-.2-.2a.73.73 0 0 1-.08-.3.7.7 0 0 1 .08-.31c.08-.08.16-.16.23-.2.12-.03.23-.07.35-.07.15 0 .27.04.39.08a.5.5 0 0 1 .23.27c.08.11.08.27.08.46 0 .23-.04.42-.12.58-.08.15-.2.27-.3.39-.16.07-.32.11-.51.11-.12 0-.2 0-.31-.04l.04-.15c.04 0 .11 0 .15.04h.12c.15 0 .3-.04.42-.12a.6.6 0 0 0 .24-.3c.03-.16.07-.32.07-.51a.88.88 0 0 0-.11-.5c-.08-.12-.2-.16-.35-.16a.44.44 0 0 0-.31.12.44.44 0 0 0-.12.3c0 .09 0 .16.04.24.04.08.08.12.16.12.07.03.11.03.19.03s.2 0 .27-.03c.12 0 .2-.04.27-.12Zm1.16 1-.04-.07.39.04v.11h-.97v-.11l.46-.04-.03.04v-1.59h.07l-.5.27-.08-.15.54-.35h.2v1.85h-.04Zm1.7-1v.15c-.08.08-.2.12-.31.16-.12.04-.2.04-.31.04-.12 0-.2-.04-.3-.08-.12-.04-.16-.12-.2-.2a.73.73 0 0 1-.08-.3.7.7 0 0 1 .08-.31c.08-.08.15-.16.23-.2.12-.03.23-.07.35-.07.15 0 .27.04.38.08.12.07.2.15.24.27.07.11.07.27.07.46 0 .23-.04.42-.11.58-.08.15-.2.27-.31.39-.16.07-.31.11-.5.11-.12 0-.2 0-.31-.04l.04-.15c.03 0 .11 0 .15.04h.12c.15 0 .3-.04.42-.12a.6.6 0 0 0 .23-.3c.04-.16.08-.32.08-.51a.88.88 0 0 0-.12-.5c-.07-.12-.19-.16-.34-.16a.44.44 0 0 0-.31.12.44.44 0 0 0-.12.3c0 .09 0 .16.04.24.04.08.08.12.15.12.08.03.12.03.2.03.07 0 .2 0 .27-.03.08 0 .2-.04.27-.12Z" fill="#8E9193"/></g><defs><clipPath id="a"><path fill="#fff" d="M0 0h157.11v50h-157.11z"/></clipPath></defs></svg>