<svg viewBox="0 0 76 76" fill="none" xmlns="http://www.w3.org/2000/svg"><g clip-path="url(#a)"><path d="m6.65 27.94-3.5-1.05 2.68 3.77-.3 1.03-5.53-1.66.36-1.19 3.51 1.06-2.7-3.78.32-1.02 5.52 1.66-.36 1.18Zm3.89-7.85-.62 1.07-2.03-1.18-1.24 2.13 2.03 1.18-.62 1.07-4.99-2.9.62-1.06 2 1.16 1.24-2.14-2-1.16.62-1.06 4.99 2.89Zm-.13-8.73c.24-.14.47-.24.67-.3a4.68 4.68 0 0 1 .97-.12l.16.01.03 1.11h-.1a2.02 2.02 0 0 0-1.6.61 1.87 1.87 0 0 0 .1 2.68c.4.37.85.54 1.36.52.5-.01.95-.22 1.32-.61a2.03 2.03 0 0 0 .52-1 2.72 2.72 0 0 0 .04-.7l-.02-.1 1.09-.01a1.75 1.75 0 0 1 .02.56c0 .2-.03.4-.07.6-.05.2-.13.42-.27.68a3.2 3.2 0 0 1-2.66 1.75 2.87 2.87 0 0 1-2.18-.79 3.08 3.08 0 0 1-.06-4.34 3 3 0 0 1 .68-.55Zm6.87-5.53.65.91-1.34.95 2.69 3.8-1 .7-2.7-3.78-1.34.95-.65-.9 3.7-2.63Zm8.73 2.11-1.45-3.37-1.16 4.49-.98.42-2.28-5.29 1.13-.49 1.46 3.37 1.15-4.5.98-.41 2.29 5.3-1.14.48Zm6.44-7.61.21 1.09-1.6.32.9 4.56-1.2.24-.92-4.56-1.62.32-.21-1.09 4.43-.88Zm5.43 2.4 1.14-2.72 1.32-.01-2 4.33c-.23.5-.51.88-.83 1.14a1.82 1.82 0 0 1-1.51.36 1.3 1.3 0 0 1-.25-.06l-.08-.03v-1.07c.13.05.3.08.49.08.4 0 .72-.2.94-.58l.17-.29-2.08-3.86h1.32l1.37 2.7Zm9.34-1.65-.2 1.1-1.62-.3-.85 4.57-1.22-.22.86-4.58-1.62-.3.2-1.1 4.45.84Zm6.36 5.02 3.17-1.2 1.27.66-3 1.14.5 4.06-1.27-.66-.37-2.97-1.03.4-.76 1.46-1.1-.57 2.64-5.13 1.1.57-1.15 2.24Zm6.5 8.26 2.35-2.8-4.52.97-.83-.68 3.71-4.42.95.8-2.36 2.8 4.53-.98.82.69-3.7 4.41-.95-.8Zm9.7 2.32-.88.68-1.01-1.29-3.66 2.87-.76-.97 3.66-2.87-1.02-1.3.88-.68 2.8 3.56Zm-1.93 5.32-1.43.18-.6-1.17 6.15-.64.6 1.17-4.07 4.66-.6-1.17.97-1.06-1.02-1.98Zm3.14-.38-2 .24.64 1.25 1.36-1.49Zm-.74 10.6-.32-1.2 1.95-.52-.28-1.03-2.24-.55-.34-1.27 2.43.62.02-.12.11-.28a1.7 1.7 0 0 1 .63-.75c.18-.13.38-.22.6-.28.52-.14 1-.08 1.45.2.45.26.74.67.9 1.22l.66 2.46-5.57 1.5Zm2.43-3.83a.78.78 0 0 0-.06.6l.33 1.23 1.47-.4-.33-1.23a.75.75 0 0 0-.96-.55.71.71 0 0 0-.44.35Zm-67.68 12.61-3.37.03-.01-.7 2.2-.03-2.23-1.72v-.63l3.37-.05v.7l-2.2.03 2.23 1.73v.63Zm.25 5.16a1.7 1.7 0 0 1 .82 1.83 1.6 1.6 0 0 1-.22.55l-.12.18-.55-.33a1.29 1.29 0 0 0 .24-.48.99.99 0 0 0 .02-.53.98.98 0 0 0-.5-.64 1.1 1.1 0 0 0-.84-.11c-.3.07-.54.24-.7.49a1 1 0 0 0 .1 1.25c.13.13.24.22.34.27l.15.07-.33.55-.1-.04a2.4 2.4 0 0 1-.47-.36 1.85 1.85 0 0 1-.45-.8 1.7 1.7 0 0 1 .22-1.32c.25-.42.61-.69 1.07-.8.46-.11.9-.04 1.32.22Zm1.35 4.71a1.7 1.7 0 0 1 .95 2.28 1.7 1.7 0 0 1-2.28.94c-.46-.19-.78-.5-.95-.94-.19-.44-.18-.88.01-1.34.2-.45.5-.77.94-.95a1.7 1.7 0 0 1 1.34.01Zm.36 2a1 1 0 0 0-.57-1.38 1.1 1.1 0 0 0-.85.02c-.3.12-.5.31-.62.59a1 1 0 0 0-.02.81c.1.26.3.45.58.56.28.1.57.1.86-.01.29-.12.5-.32.62-.6Zm2.94 3.72c.17.28.23.54.18.79a.8.8 0 0 1-.4.57.82.82 0 0 1-.38.12.62.62 0 0 1-.3-.05l-.11-.05v.23c0 .08-.02.16-.04.23a.83.83 0 0 1-.36.44.9.9 0 0 1-.77.1 1.23 1.23 0 0 1-.67-.58l-.87-1.45 2.89-1.74.83 1.39Zm-2.07.18-.78.47.5.84c.08.12.17.2.29.23.11.03.22 0 .34-.07a.44.44 0 0 0 .16-.63l-.5-.84Zm1.61.4a.35.35 0 0 0-.05-.27l-.47-.78-.6.36.47.78c.05.1.12.15.21.17.09.03.18.01.27-.05a.3.3 0 0 0 .17-.2v-.01Zm.52 5.35a1.33 1.33 0 0 1-.14-.56v-.25l-1.43 1.19-.45-.54 3.72-3.1.45.53-.3.25.19.03c.08 0 .21.06.4.15.18.09.34.21.46.36.29.35.4.75.35 1.22-.05.47-.26.86-.64 1.18-.37.3-.8.45-1.27.42a1.55 1.55 0 0 1-1.33-.88Zm1.66-1.92c-.3-.01-.57.08-.8.27-.24.2-.38.45-.42.75-.04.3.03.55.2.75.17.21.41.32.71.34.3.02.57-.07.8-.27.25-.2.38-.45.42-.75a.94.94 0 0 0-.2-.75.95.95 0 0 0-.7-.34Zm2.71 4.44a1 1 0 0 0-.14.7c.03.26.14.48.35.66.14.13.31.22.5.27.19.05.33.06.44.05l.17-.03.04.65-.1.01a2 2 0 0 1-.61-.04 1.96 1.96 0 0 1-.86-.43 1.67 1.67 0 0 1-.57-1.22c-.03-.5.12-.93.45-1.3.31-.35.71-.54 1.19-.56.48-.03.89.11 1.24.43a1.6 1.6 0 0 1 .13 2.33l-.26.24-1.97-1.75Zm1.07-.63c-.23 0-.44.07-.65.2l1.46 1.3c.13-.2.18-.41.15-.64a.95.95 0 0 0-.33-.6.94.94 0 0 0-.63-.26Zm6.35 3.75.48.3-1.8 2.86-.6-.37 1.19-1.88-1.62.52-.23-1.68-1.18 1.88-.6-.38 1.8-2.86.48.3.25 1.9 1.83-.59Zm2.11 3.25a1.06 1.06 0 0 0 .63 1.22 1.24 1.24 0 0 0 1 0l.15-.08.24.6-.09.04-.23.09c-.12.03-.24.06-.36.07a2.04 2.04 0 0 1-.95-.13c-.44-.18-.76-.5-.94-.96a1.74 1.74 0 0 1 .01-1.37c.18-.44.5-.75.94-.93.44-.18.88-.18 1.32 0a1.62 1.62 0 0 1 .88 2.17l-.17.3-2.43-1.01Zm.8-.94c-.21.07-.4.2-.54.4l1.8.76a.94.94 0 0 0-.58-1.12.96.96 0 0 0-.68-.04Zm4.14 4.25-.68-.17.81-3.27.69.17-.32 1.3 1.6.39.32-1.3.68.17-.8 3.28-.7-.17.35-1.37-1.6-.4-.34 1.37Zm5.66 1.08-.7-.07.3-3.36.7.06-.12 1.33 1.65.15.11-1.33.7.06-.3 3.36-.7-.06.13-1.4-1.64-.15-.13 1.4Zm5.15-2.7a1.7 1.7 0 0 1 2.47-.18c.37.33.57.73.6 1.2.03.47-.11.9-.43 1.26-.33.37-.73.58-1.2.6a1.7 1.7 0 0 1-1.26-.43 1.68 1.68 0 0 1-.61-1.2c-.03-.46.11-.89.44-1.26Zm2 .3a1 1 0 0 0-1.48.1c-.2.22-.28.5-.26.8.02.32.15.58.37.78.22.2.48.3.76.28a.99.99 0 0 0 .72-.38c.19-.23.28-.5.26-.82a1.1 1.1 0 0 0-.37-.77Zm5.91-1.96.75 3.3-.68.15-.5-2.16-1.22 2.55-.61.14-.76-3.29.69-.16.5 2.16 1.21-2.55.62-.14Zm-1.43-.9c.07-.1.09-.23.06-.37l.51-.12c.06.28.02.53-.12.75a1 1 0 0 1-.65.44 1 1 0 0 1-.78-.11.94.94 0 0 1-.44-.62l.52-.12c.03.13.1.24.21.3.12.08.24.1.38.07s.24-.1.31-.22Zm6.77-2.83.69-.35 4.07 3.44-.72.37-1.07-.91-1.94 1 .13 1.4-.72.36-.44-5.31Zm.96 2.79 1.44-.74-1.65-1.44.2 2.18h.01Zm6.18-3.96c0 .15-.02.26-.07.34l-.07.14.07-.03.18-.03h.25a.8.8 0 0 1 .27.1.88.88 0 0 1 .39 1.04c-.08.3-.3.6-.65.85a1.78 1.78 0 0 1-1.35.34l-.08-.03.1-.64.16.04c.07 0 .19 0 .36-.03.17-.03.31-.1.44-.19.19-.14.3-.28.35-.41.04-.15.02-.27-.06-.37a.4.4 0 0 0-.33-.16.89.89 0 0 0-.5.2l-.32.24-.33-.45.3-.23a.72.72 0 0 0 .28-.34.33.33 0 0 0-.05-.3.33.33 0 0 0-.28-.15.7.7 0 0 0-.4.17.9.9 0 0 0-.28.3.91.91 0 0 0-.13.29l-.03.12-.64-.1.03-.19c.02-.08.09-.22.2-.42.12-.2.27-.37.47-.52.31-.23.61-.33.9-.32.3.02.52.13.68.34.1.13.14.26.14.4Zm3.17-4.62 2.37 2.4-.5.5-1.56-1.58.3 2.8-.44.45-2.37-2.4.5-.5 1.55 1.58-.3-2.8.45-.45Zm3.26-4.13 2.72 2-.42.57-1.78-1.32.73 2.73-.38.51-2.7-2 .41-.57 1.78 1.31-.73-2.73.37-.5Zm1.82-6.78c.18-.43.47-.74.87-.91.4-.18.82-.18 1.22-.02.41.17.7.46.86.87.16.41.16.83-.02 1.27l-.46 1.1 1.63.68-.3.71-4.55-1.88.75-1.81v-.01Zm.19 1.37 1.63.67.45-1.1c.1-.22.1-.45 0-.67a.84.84 0 0 0-.48-.47.85.85 0 0 0-.67 0 .85.85 0 0 0-.48.47l-.45 1.1Zm1.25-5.88.17-.76 5.24-.9-.17.78-1.39.23-.48 2.13 1.16.8-.18.78-4.35-3.06Zm2.75 1.05.35-1.58-2.16.34 1.81 1.24Zm3.07-9.35-.02.77-2.15-.06-.07 2.42 2.15.07-.03.77-4.92-.14.03-.77 2.07.06.07-2.43-2.07-.06.02-.77 4.92.14Z" fill="#1D1D1B"/><path d="M38.43 26.07h-10.84a.5.5 0 1 1 0-1h10.84a.5.5 0 1 1 0 1Z" fill="#E30613"/><path d="M38.42 26.07a.48.48 0 0 1-.24-.07l-9.4-5.42a.5.5 0 0 1 .51-.87l9.39 5.42a.5.5 0 0 1-.25.94Z" fill="#E30613"/><path d="M38.43 26.07a.5.5 0 0 1-.44-.25l-5.42-9.4a.5.5 0 0 1 .87-.5l5.42 9.4a.5.5 0 0 1-.43.75Z" fill="#E30613"/><path d="M38.43 26.07a.5.5 0 0 1-.5-.5v-10.85a.5.5 0 1 1 1 0v10.84a.5.5 0 0 1-.5.5Z" fill="#E30613"/><path d="M38.42 26.07a.5.5 0 0 1-.43-.75l5.42-9.4a.5.5 0 0 1 .87.5l-5.42 9.4a.5.5 0 0 1-.43.25Z" fill="#E30613"/><path d="M38.42 26.07a.5.5 0 0 1-.25-.94l9.4-5.42a.5.5 0 0 1 .5.87l-9.4 5.42a.48.48 0 0 1-.24.07Z" fill="#E30613"/><path d="M49.26 26.07h-10.83a.5.5 0 1 1 0-1h10.83a.5.5 0 1 1 0 1Zm5.48 2.91c.2-.28-.07-.65-.4-.55-2.17.7-7.69 2.15-15.92 2.15-8.22 0-13.74-1.45-15.92-2.15-.32-.1-.6.27-.4.55l5.32 7.51c.2.28.65.14.65-.2v-1.94c0-.2.16-.36.36-.36h20c.2 0 .35.17.35.36v1.93c0 .35.45.5.65.21l5.31-7.5Zm3.78 10.07a.36.36 0 0 0-.37-.56 94.54 94.54 0 0 1-19.72 2.3 94.54 94.54 0 0 1-19.73-2.3.36.36 0 0 0-.36.56l5.4 7.65c.2.28.66.14.66-.2v-1.94c0-.2.16-.36.35-.36h27.35c.2 0 .36.16.36.36v1.93c0 .35.44.5.65.2l5.4-7.64Zm2.54 10.3a.36.36 0 0 0-.36-.56c-3 .56-13.15 2.34-22.27 2.34s-19.28-1.78-22.27-2.34a.36.36 0 0 0-.36.56l5.44 7.69c.2.28.65.14.65-.2v-1.94c0-.2.16-.36.36-.36h32.36c.2 0 .36.17.36.36v1.93c0 .35.44.5.65.21l5.44-7.7Z" fill="#E30613"/></g><defs><clipPath id="a"><path fill="#fff" d="M0 0h76v76h-76z"/></clipPath></defs></svg>