<svg viewBox="0 0 140 40" fill="none" xmlns="http://www.w3.org/2000/svg"><path d="M13.17 23.02h-2.32v-3.75c-.7.17-1.52.26-2.48.26-.99 0-2.18-.09-3.6-.26v3.66l-2.47.23v-7.85c-.35-.06-.7-.09-1.05-.14-.35-.15-.53-.41-.53-.88v-.4h4.08l-.03 3.31c1.77.2 3.8.35 6.08.4v-3.71h2.2l.12 9.13Zm11.26-5.59c0 .53-.2.96-.64 1.28-.35.27-.76.41-1.17.41h-5.78v2.21h7.38l-.5 1.66h-7.55a1.9 1.9 0 0 1-1.17-.44 1.46 1.46 0 0 1-.64-1.25v-7.33h7.62v-.9l2.24-.23v2.76l-7.38.03v1.63h7.56v.17h.03Zm8.34-3.54h4.16v6.89h.58v3.52l-2.58.2v-1.51h-6.72v1.3l-2.56.21v-3.72h.52v-5.18c0-.52.2-.96.64-1.25.35-.29.73-.43 1.16-.43h2.6v-.67l2.23-.24v.88h-.03Zm-4.27 6.92h5.99v-5h-6v5Zm19.92-3.38c0 .53-.2.96-.64 1.28-.35.27-.76.41-1.16.41h-5.76v2.21h7.39l-.5 1.66h-7.56c-.4 0-.79-.15-1.16-.44a1.46 1.46 0 0 1-.64-1.25v-7.33h7.62v-.9l2.24-.23v2.76l-7.4.03v1.63h7.57v.17Zm1.2 5.59c0-2.74.98-5.18 2.96-7.33.81-.93 1.8-1.74 2.94-2.47 1.07.75 2 1.63 2.79 2.56a11.14 11.14 0 0 1 2.79 7.27h-2.5a9.68 9.68 0 0 0-3.08-7.13c-2.24 2.04-3.35 4.42-3.35 7.1h-2.56Zm12.73-1.75c.7.1 1.28.12 1.66.12 1.98 0 3-.76 3-2.24h-2.97c-.44 0-.82-.14-1.17-.44a1.47 1.47 0 0 1-.6-1.25l.02-3.49h10.73v9.02h-2.47v-3.84h-1.07c.05 2.59-1.6 3.9-4.92 3.9-.73 0-1.51-.06-2.38-.2l.17-1.58Zm8.2-3.98v-1.66h-5.82v1.66h5.82Zm20.91 5.55a7.76 7.76 0 0 1-5.23-.93 4.14 4.14 0 0 1-2.04-3.84h-1.08v4.92h-2.47v-9.04h2.47v2.23h5.82v-2.23h2.44l.03 2.4c.03.53-.17.94-.6 1.26-.36.29-.76.44-1.17.44h-2.97c0 1.07.5 1.91 1.49 2.5.78.5 1.68.72 2.67.72.18 0 .35 0 .47-.03l.17 1.6Zm.3.18.46.14c.06.03.17 0 .38-.05v-9.2h2.2v8.41a50.59 50.59 0 0 0 5.8-8.4h4.3v.4c0 .44-.18.73-.53.88-.34.05-.7.08-1.04.14v7.85l-2.47-.23v-5.55c-1.72 2.76-3.2 4.68-4.4 5.73a5.04 5.04 0 0 1-3.4 1.42c-.44 0-.9-.06-1.45-.15l.14-1.4Zm24.48-10.15v2.76h-4.33v7.39h-2.48v-7.39h-3.83l-.1-1.63h8.53v-.93l2.21-.2Zm11.49 10.15-8.96-.06c-.4 0-.78-.14-1.16-.44a1.5 1.5 0 0 1-.64-1.28l.03-3.86h8.25c0-1.49-.98-2.24-2.99-2.24-.87 0-2.15.14-3.9.4l-.72-1.65c1.68-.47 3.22-.7 4.6-.7 1.74 0 3.07.38 4.03 1.1a3.7 3.7 0 0 1 1.46 3.12v5.6Zm-2.48-1.95v-2.04h-5.81v2.04h5.81Zm4.08.2c.7.1 1.28.12 1.65.12 1.98 0 3-.76 3-2.24h-2.97c-.43 0-.81-.14-1.16-.44a1.47 1.47 0 0 1-.61-1.25l.03-3.49h10.73v9.02h-2.47v-3.84h-1.08c.06 2.59-1.6 3.9-4.91 3.9-.73 0-1.51-.06-2.39-.2l.18-1.58Zm8.2-3.98v-1.66h-5.82v1.66h5.82Zm-132.73 13.69c.11.15.17.3.17.5 0 .29-.12.5-.32.67-.2.14-.52.23-.9.23h-1.51v-3.2h1.42c.35 0 .64.06.84.2.2.15.3.35.3.61a.7.7 0 0 1-.12.44c-.09.12-.2.2-.35.3.2.02.35.1.47.25Zm-2.01-.46h.78c.2 0 .35-.03.44-.12.09-.09.15-.2.15-.35a.48.48 0 0 0-.15-.35c-.09-.08-.26-.11-.44-.11h-.78v.93Zm1.57.93c0-.32-.2-.47-.64-.47h-.93v.93h.93c.4 0 .64-.17.64-.46Zm5.04-2.15c.2.08.37.23.46.4.11.18.17.38.17.61a1.1 1.1 0 0 1-.64 1.02c-.2.09-.43.15-.72.15h-.73v.93h-.61v-3.2h1.3c.33-.06.56 0 .76.09Zm-.15 1.48c.14-.12.2-.26.2-.47 0-.2-.06-.34-.2-.46a.87.87 0 0 0-.58-.18h-.7v1.28h.7c.23-.03.43-.05.58-.17Zm2.24 1.42a1.68 1.68 0 0 1-.61-.58 1.67 1.67 0 0 1 0-1.68c.14-.26.34-.44.6-.58.27-.15.56-.2.88-.2.32 0 .6.05.87.2.26.14.47.34.61.58a1.67 1.67 0 0 1 0 1.68c-.14.27-.35.44-.6.59-.27.14-.56.2-.88.2a1.8 1.8 0 0 1-.87-.2Zm1.45-.46a.92.92 0 0 0 .4-.4c.1-.18.15-.38.15-.59 0-.2-.06-.4-.14-.58a.92.92 0 0 0-.41-.4 1.32 1.32 0 0 0-.58-.15c-.2 0-.4.06-.58.14a.92.92 0 0 0-.41.41c-.09.17-.15.38-.15.58 0 .2.06.4.15.58.09.18.23.32.4.41.18.09.38.15.59.15.23 0 .4-.03.58-.15Zm2.65.46a1.68 1.68 0 0 1-.62-.58 1.67 1.67 0 0 1 0-1.68 1.7 1.7 0 0 1 1.49-.78c.26 0 .5.05.73.14.2.09.4.23.55.4l-.38.35a1.1 1.1 0 0 0-.87-.37c-.24 0-.41.05-.58.14a.92.92 0 0 0-.41.4c-.09.18-.15.39-.15.59 0 .2.06.4.15.58.09.18.23.3.4.4.18.1.38.15.59.15.35 0 .64-.11.87-.37l.38.37c-.15.18-.32.32-.55.41-.24.09-.47.15-.73.15-.32-.09-.61-.15-.87-.3Zm3.46 0a1.68 1.68 0 0 1-.61-.58 1.67 1.67 0 0 1 0-1.68c.14-.26.34-.44.6-.58.27-.15.56-.2.88-.2.26 0 .5.05.73.14.2.09.4.23.55.4l-.38.35a1.1 1.1 0 0 0-.87-.37c-.23 0-.4.05-.58.14a.92.92 0 0 0-.41.4c-.09.18-.15.39-.15.59 0 .2.06.4.15.58.09.18.23.3.4.4.18.1.38.15.59.15.35 0 .64-.11.87-.37l.38.37c-.15.18-.32.32-.55.41-.24.09-.47.15-.73.15-.32-.09-.61-.15-.87-.3Zm2.93-3.05h.58v2.27l1.72-2.27h.55v3.2h-.58v-2.27l-1.71 2.27h-.56v-3.2Zm4.02 0h.58v2.27l1.72-2.27h.55v3.2h-.58v-2.27l-1.72 2.27h-.55v-3.2Zm.81-.38c-.14-.11-.2-.29-.2-.5h.4c0 .13.04.21.12.27.06.06.18.09.32.09.15 0 .23-.03.32-.09s.12-.14.12-.26h.4c0 .2-.08.38-.23.5a.95.95 0 0 1-.6.17c-.3 0-.53-.06-.65-.18Zm3.79 3.43a1.68 1.68 0 0 1-.62-.58 1.67 1.67 0 0 1 0-1.68c.15-.26.35-.44.61-.58.27-.15.56-.2.88-.2a1.7 1.7 0 0 1 1.28.54l-.38.35a1.1 1.1 0 0 0-.88-.37c-.23 0-.4.05-.58.14a.92.92 0 0 0-.4.4 1.23 1.23 0 0 0 0 1.17c.08.18.23.3.4.4.18.1.38.15.58.15.35 0 .64-.11.88-.37l.38.37a1.3 1.3 0 0 1-.56.41c-.23.09-.46.15-.72.15-.32-.09-.61-.15-.88-.3Zm4.12-1.19h-.6v1.37h-.59v-3.2h.58v1.34h.61l.93-1.34h.64l-1.1 1.54 1.13 1.66h-.67l-.93-1.37Zm2.82 1.19a1.68 1.68 0 0 1-.6-.58 1.67 1.67 0 0 1 0-1.68c.14-.26.34-.44.6-.58.26-.15.56-.2.88-.2.31 0 .6.05.87.2.26.14.46.34.6.58a1.67 1.67 0 0 1 0 1.68c-.14.27-.34.44-.6.59-.26.14-.55.2-.87.2-.32 0-.59-.06-.88-.2Zm1.49-.46a.92.92 0 0 0 .4-.4c.09-.18.15-.38.15-.59 0-.2-.06-.4-.15-.58a.92.92 0 0 0-.4-.4 1.32 1.32 0 0 0-.59-.15c-.2 0-.4.06-.58.14a.92.92 0 0 0-.4.41c-.1.17-.15.38-.15.58 0 .2.06.4.15.58.08.18.23.32.4.41.18.09.38.15.58.15.2 0 .41-.03.59-.15Zm4.97.64v-2.12l-1.05 1.77h-.26l-1.05-1.75v2.1h-.55v-3.2h.5l1.27 2.12 1.25-2.12h.5v3.2h-.61Zm6.4-.52v1.19h-.55v-.7h-2.48v.7h-.55v-1.2h.15c.2 0 .35-.14.43-.43.1-.29.12-.7.15-1.25l.03-1.02h2.35v2.7h.47Zm-2.44-.58c-.06.29-.15.46-.27.58h1.63v-2.21h-1.25l-.03.58c0 .43-.03.75-.08 1.05Zm3.84.92a1.68 1.68 0 0 1-.62-.58 1.67 1.67 0 0 1 0-1.68c.15-.26.35-.44.61-.58.26-.15.56-.2.88-.2.31 0 .6.05.87.2.26.14.46.34.6.58a1.67 1.67 0 0 1 0 1.68c-.14.27-.34.44-.6.59-.26.14-.55.2-.87.2-.32 0-.62-.06-.88-.2Zm1.45-.46a.92.92 0 0 0 .4-.4 1.2 1.2 0 0 0 0-1.17.92.92 0 0 0-.4-.4 1.32 1.32 0 0 0-.58-.15c-.2 0-.41.06-.59.14a.92.92 0 0 0-.4.41c-.1.17-.15.38-.15.58 0 .2.06.4.15.58.08.18.23.32.4.41.18.09.38.15.59.15.2 0 .4-.03.58-.15Zm4.97.64v-2.12l-1.04 1.77h-.27l-1.04-1.75v2.1h-.56v-3.2h.5l1.28 2.12 1.25-2.12h.5v3.2h-.62Zm4.13-.5v.5h-2.41v-3.2h2.36v.5h-1.75v.84h1.54v.5h-1.54v.86h1.8Zm5.32.5v-2.12l-1.04 1.77h-.26l-1.05-1.75v2.1h-.55v-3.2h.49l1.28 2.12 1.25-2.12h.5v3.2h-.62Zm4.11-.5v.5h-2.42v-3.2h2.36v.5h-1.75v.84h1.54v.5h-1.54v.86h1.8Zm3.69-.87h-.56v1.37h-.58v-1.37h-.55l-.81 1.37h-.7l1.02-1.69-.94-1.54h.64l.79 1.34h.55v-1.34h.58v1.34h.56l.78-1.34h.64l-.93 1.54 1.02 1.66h-.7l-.81-1.34Zm5.37.85v1.19h-.55v-.7h-2.47v.7h-.55v-1.2h.14c.2 0 .35-.14.44-.43.09-.29.12-.7.14-1.25l.03-1.02h2.36v2.7h.46Zm-2.4-.58c-.07.29-.15.46-.27.58h1.63v-2.21h-1.25l-.03.58c0 .43-.06.75-.09 1.05Zm5.96-2.13-1.4 2.6c-.12.22-.26.4-.44.51a.96.96 0 0 1-.55.18 1.3 1.3 0 0 1-.47-.09l.15-.46c.12.03.23.05.32.05.2 0 .35-.08.47-.29l.05-.08-1.28-2.39h.64l.96 1.9 1-1.9h.54v-.03Zm3.49 0v3.2h-.58v-1.37h-1.66v1.37h-.61v-3.2h.6v1.34h1.67v-1.34h.58Zm3.25 2.47h-1.6l-.32.76h-.6l1.45-3.2h.58l1.45 3.2h-.64l-.32-.76Zm-.17-.46-.61-1.4-.61 1.4h1.22Zm3.89-1.86c.2.08.38.23.47.4.12.18.17.38.17.61 0 .24-.05.44-.17.61-.12.18-.26.3-.47.41-.2.09-.43.15-.72.15h-.73v.93h-.61v-3.2h1.3c.33-.06.56 0 .76.09Zm-.17 1.48c.14-.12.2-.26.2-.47 0-.2-.06-.34-.2-.46a.87.87 0 0 0-.58-.18h-.7v1.28h.7c.26-.03.46-.05.58-.17Zm2.27 1.42a1.68 1.68 0 0 1-.61-.58 1.67 1.67 0 0 1 0-1.68c.14-.26.35-.44.6-.58.27-.15.56-.2.88-.2.32 0 .61.05.87.2.27.14.47.34.61.58a1.67 1.67 0 0 1 0 1.68c-.14.27-.34.44-.6.59-.27.14-.56.2-.88.2a1.8 1.8 0 0 1-.87-.2Zm1.45-.46a.92.92 0 0 0 .41-.4c.09-.18.15-.38.15-.59 0-.2-.06-.4-.15-.58a.92.92 0 0 0-.4-.4 1.32 1.32 0 0 0-.59-.15c-.2 0-.4.06-.58.14a.92.92 0 0 0-.4.41c-.1.17-.15.38-.15.58 0 .2.05.4.14.58.09.18.23.32.4.41.18.09.39.15.6.15.2 0 .4-.03.57-.15Zm5.12.12v1.19h-.55v-.7h-2.47v.7h-.56v-1.2h.15c.2 0 .35-.14.44-.43.08-.29.11-.7.14-1.25l.03-1.02h2.36v2.7h.46Zm-2.41-.58c-.06.29-.15.46-.27.58h1.63v-2.21h-1.25l-.03.58c0 .43-.03.75-.08 1.05Zm6.08-2.13v3.2h-.59v-1.37h-1.65v1.37h-.61v-3.2h.6v1.34h1.66v-1.34h.59Zm1.71 3.05a1.6 1.6 0 0 1-.84-1.43c0-.3.09-.57.23-.83.15-.26.35-.44.61-.58.26-.15.55-.2.87-.2.32 0 .61.05.88.2.26.14.46.34.6.58a1.66 1.66 0 0 1 0 1.68c-.14.27-.34.44-.6.59-.27.14-.56.2-.88.2-.32 0-.6-.06-.87-.2Zm1.46-.46a.92.92 0 0 0 .4-.4c.09-.18.15-.38.15-.59 0-.2-.06-.4-.15-.58a.92.92 0 0 0-.4-.4 1.32 1.32 0 0 0-.59-.15c-.2 0-.4.06-.58.14a.92.92 0 0 0-.4.41c-.1.17-.15.38-.15.58 0 .2.06.4.14.58.1.18.24.32.41.41.18.09.38.15.58.15.24 0 .44-.03.59-.15Zm4.24-2.07h-1.6v2.7h-.58v-3.19h2.18v.5Zm.96 2.53a1.68 1.68 0 0 1-.61-.58 1.67 1.67 0 0 1 0-1.68c.15-.26.35-.44.61-.58.26-.15.55-.2.87-.2.32 0 .61.05.88.2.26.14.46.34.6.58a1.67 1.67 0 0 1 0 1.68c-.14.27-.34.44-.6.59-.27.14-.56.2-.88.2-.32 0-.6-.06-.87-.2Zm1.45-.46a.92.92 0 0 0 .41-.4c.09-.18.15-.38.15-.59 0-.2-.06-.4-.15-.58a.91.91 0 0 0-.4-.4 1.32 1.32 0 0 0-.59-.15c-.2 0-.4.06-.58.14a.91.91 0 0 0-.4.41c-.1.17-.15.38-.15.58 0 .2.06.4.14.58.1.18.24.32.41.41.17.09.38.15.58.15.23 0 .41-.03.58-.15Zm-111.96 4.3v3.2h-.58v-1.37h-1.66v1.37h-.61v-3.2h.61v1.34h1.66v-1.34h.58Zm3.26 2.48h-1.6l-.32.75h-.61l1.45-3.2h.58l1.46 3.2h-.62l-.34-.75Zm-.2-.47-.62-1.4-.61 1.4h1.22Zm4.48-2.01-1.4 2.59c-.12.23-.27.4-.44.52a.96.96 0 0 1-.55.18 1.3 1.3 0 0 1-.47-.09l.15-.47c.11.03.23.06.32.06.2 0 .35-.08.46-.29l.06-.09-1.28-2.38h.64l.96 1.89.99-1.89h.55v-.03Zm3.19 0v3.2h-.58v-1.2c-.3.12-.58.18-.88.18-.4 0-.72-.09-.96-.29-.23-.2-.32-.5-.32-.84v-1.02h.59v.96c0 .23.05.4.2.52.15.12.32.18.55.18.3 0 .55-.06.79-.18v-1.48h.6v-.03Zm3.99 0v3.2h-.59v-1.37h-1.65v1.37h-.61v-3.2h.6v1.34h1.66v-1.34h.59Zm1.74 3.06a1.68 1.68 0 0 1-.6-.59 1.67 1.67 0 0 1 0-1.68c.14-.27.34-.44.6-.59.26-.14.56-.2.88-.2.32 0 .6.06.87.2a1.67 1.67 0 0 1 .61 2.27c-.15.26-.35.44-.61.58-.26.15-.55.2-.87.2a2.1 2.1 0 0 1-.88-.2Zm1.46-.47a.92.92 0 0 0 .4-.4 1.23 1.23 0 0 0 0-1.17.92.92 0 0 0-.4-.4 1.32 1.32 0 0 0-.58-.15c-.2 0-.41.05-.59.14a.92.92 0 0 0-.4.4c-.09.18-.15.39-.15.6 0 .2.06.4.15.57.08.18.23.32.4.4.18.1.38.15.59.15.2 0 .4-.05.58-.14Zm1.86-.9h1.25v.47h-1.25v-.47Zm4.36-1.19h-1.08v2.7h-.58v-2.7h-1.05v-.5h2.7v.5Zm3.14 2.21v.49h-2.41v-3.2h2.35v.5h-1.74v.84h1.54v.5h-1.54v.87h1.8Zm1.25-2.71.75 1.08.76-1.08h.7l-1.08 1.54 1.17 1.66h-.7l-.85-1.16-.84 1.16h-.7l1.17-1.66-1.08-1.57h.7v.03Zm5.76 0v3.2h-.59v-1.37h-1.65v1.37h-.61v-3.2h.6v1.34h1.66v-1.34h.59Zm1.13 0h.58v2.27l1.72-2.27h.55v3.2h-.58v-2.27l-1.72 2.27h-.55v-3.2Zm6.43 0v3.2h-.58v-1.2c-.3.12-.58.18-.87.18-.41 0-.73-.09-.96-.29-.24-.2-.32-.5-.32-.84v-1.02h.58v.96c0 .23.06.4.2.52.15.12.32.18.55.18.3 0 .56-.06.79-.18v-1.48h.61v-.03Zm3.52 2.71v.49h-2.42v-3.2h2.36v.5h-1.75v.84h1.54v.5h-1.54v.87h1.8Zm1.48.35a1.68 1.68 0 0 1-.6-.59 1.67 1.67 0 0 1 0-1.68c.14-.27.34-.44.6-.59a1.94 1.94 0 0 1 1.6-.05c.2.08.4.23.55.4l-.37.35a1.1 1.1 0 0 0-.88-.38c-.23 0-.4.06-.58.15a.92.92 0 0 0-.4.4 1.23 1.23 0 0 0-.01 1.17 1.12 1.12 0 0 0 .99.55c.35 0 .64-.11.88-.38l.37.38c-.14.18-.32.32-.55.41-.23.09-.46.15-.73.15a6.14 6.14 0 0 1-.87-.3Zm4.13-1.2h-.6v1.37h-.59v-3.2h.58v1.34h.61l.93-1.34h.64l-1.1 1.55 1.13 1.65h-.67l-.93-1.36Zm2.86 1.2a1.68 1.68 0 0 1-.62-.59 1.67 1.67 0 0 1 0-1.68c.15-.27.35-.44.61-.59.26-.14.55-.2.87-.2.32 0 .62.06.88.2a1.67 1.67 0 0 1 .61 2.27c-.15.26-.35.44-.61.58-.26.15-.56.2-.88.2-.32 0-.6-.08-.87-.2Zm1.45-.47a.92.92 0 0 0 .4-.4 1.23 1.23 0 0 0 0-1.17.92.92 0 0 0-.4-.4 1.32 1.32 0 0 0-.59-.15c-.2 0-.4.05-.58.14a.92.92 0 0 0-.4.4c-.1.18-.15.39-.15.6 0 .2.06.4.15.57.08.18.23.32.4.4a1.23 1.23 0 0 0 1.16 0Zm4.21-2.09h-1.6v2.7h-.58v-3.2h2.18v.5Zm.99 2.56a1.68 1.68 0 0 1-.61-.59 1.67 1.67 0 0 1 0-1.68c.15-.27.35-.44.61-.59.26-.14.55-.2.87-.2.32 0 .61.06.88.2a1.67 1.67 0 0 1 .61 2.27c-.15.26-.35.44-.61.58-.27.15-.56.2-.88.2-.32 0-.6-.08-.87-.2Zm1.45-.47a.92.92 0 0 0 .41-.4c.09-.18.15-.39.15-.59 0-.2-.06-.4-.15-.58a.92.92 0 0 0-.4-.4 1.32 1.32 0 0 0-.59-.15c-.2 0-.4.05-.58.14a.92.92 0 0 0-.4.4 1.24 1.24 0 0 0-.01 1.17c.1.18.24.32.41.4.18.1.38.15.58.15.2 0 .41-.05.58-.14Zm4.14.47a1.68 1.68 0 0 1-.61-.59 1.67 1.67 0 0 1 0-1.68c.14-.27.34-.44.6-.59a1.98 1.98 0 0 1 1.61-.05c.2.08.4.23.55.4l-.38.35a1.1 1.1 0 0 0-.87-.38c-.23 0-.4.06-.58.15a.92.92 0 0 0-.41.4c-.09.18-.15.39-.15.59 0 .2.06.4.15.58.09.17.23.3.4.4.18.1.38.15.59.15.35 0 .64-.11.87-.38l.38.38c-.15.18-.32.32-.55.41-.24.09-.47.15-.73.15a6.14 6.14 0 0 1-.87-.3Zm3.46 0a1.68 1.68 0 0 1-.62-.59 1.67 1.67 0 0 1 0-1.68c.15-.27.35-.44.62-.59.26-.14.55-.2.87-.2.32 0 .6.06.87.2.26.15.47.35.61.59a1.67 1.67 0 0 1 0 1.68c-.14.26-.35.44-.61.58-.26.15-.55.2-.87.2-.32 0-.61-.08-.87-.2Zm1.48-.47a.92.92 0 0 0 .4-.4 1.23 1.23 0 0 0 .01-1.17.92.92 0 0 0-.41-.4 1.32 1.32 0 0 0-.58-.15c-.2 0-.41.05-.58.14a.92.92 0 0 0-.41.4c-.09.18-.15.39-.15.6 0 .2.06.4.15.57.09.18.23.32.4.4.18.1.38.15.59.15.2 0 .4-.05.58-.14Zm4.33-2.09h-1.07v2.7h-.59v-2.7h-1.04v-.5h2.7v.5Zm2.79-.35c.2.09.38.23.47.4.12.18.17.39.17.62a1 1 0 0 1-.17.6c-.12.18-.26.3-.47.42-.2.08-.43.14-.72.14h-.73v.93h-.61v-3.2h1.3c.3-.05.53-.03.76.09Zm-.17 1.45c.14-.11.2-.26.2-.46s-.06-.35-.2-.47a.87.87 0 0 0-.58-.17h-.7v1.28h.7c.26 0 .43-.06.58-.18Zm4.27-1.6-1.4 2.59c-.1.23-.25.4-.43.52a.96.96 0 0 1-.55.18 1.3 1.3 0 0 1-.47-.09l.15-.47c.11.03.23.06.32.06.2 0 .35-.08.46-.29l.06-.09-1.28-2.38h.64l.96 1.89.99-1.89h.55v-.03Zm3.78 2.71v1.19h-.55v-.7h-2.47v.7h-.55v-1.2h.14c.2 0 .35-.14.44-.43.09-.3.12-.7.14-1.25l.03-1.02h2.36v2.7h.46Zm-2.4-.59c-.07.3-.15.47-.27.59h1.63v-2.21h-1.25l-.03.58c0 .4-.06.75-.09 1.04Zm6.07-2.12v3.2h-.59v-1.37h-1.65v1.37h-.61v-3.2h.6v1.34h1.66v-1.34h.59Zm1.1 0h.59v2.27l1.71-2.27h.55v3.2h-.58v-2.27l-1.71 2.27h-.56v-3.2Zm6.43 0v3.2h-.58v-1.2c-.3.12-.58.18-.87.18-.41 0-.73-.09-.96-.29-.24-.2-.32-.5-.32-.84v-1.02h.58v.96c0 .23.06.4.2.52.15.12.32.18.56.18.28 0 .55-.06.78-.18v-1.48h.61v-.03Zm3.52 2.71v.49h-2.41v-3.2h2.35v.5h-1.74v.84h1.54v.5h-1.54v.87h1.8Zm1.48.35a1.68 1.68 0 0 1-.6-.59 1.67 1.67 0 0 1 0-1.68c.14-.27.34-.44.6-.59a2.02 2.02 0 0 1 1.6-.06c.2.1.41.24.56.41l-.38.35a1.1 1.1 0 0 0-.88-.38c-.23 0-.4.06-.58.15a.92.92 0 0 0-.4.4 1.23 1.23 0 0 0 0 1.17c.08.17.23.3.4.4.18.1.38.15.58.15.35 0 .64-.11.88-.38l.38.38a1.3 1.3 0 0 1-.56.41c-.23.09-.46.15-.72.15a6.14 6.14 0 0 1-.88-.3Zm5.24-2.56h-1.08v2.7h-.58v-2.7h-1.05v-.5h2.7v.5Zm3.34 1.34c.12.14.18.29.18.5 0 .28-.12.49-.32.66-.2.15-.53.23-.9.23h-1.54v-3.2h1.42c.35 0 .64.06.84.2.2.15.3.36.3.62a.7.7 0 0 1-.12.43c-.09.12-.2.2-.35.3a.7.7 0 0 1 .5.26Zm-2-.47h.78c.2 0 .35-.03.44-.11.09-.1.14-.2.14-.35a.48.48 0 0 0-.14-.35c-.09-.09-.26-.12-.44-.12h-.78v.93Zm1.54.9c0-.32-.2-.46-.64-.46h-.9v.93h.93c.4.03.6-.15.6-.47Zm3.66.21h-1.6l-.32.75h-.6l1.45-3.2h.58l1.45 3.2h-.64l-.32-.75Zm-.2-.47-.61-1.4-.61 1.4h1.22Z" fill="#fff"/><path d="M3.05 1.25c.03-.03.06-.03.15-.03.11 0 .2.03.32.12.17.12.26.23.29.35.03.11-.03.23-.18.35a12.79 12.79 0 0 0-.96 1.22c-.03 0-.03 0-.03.03s-.2.26-.58.67a6.6 6.6 0 0 1-.67.67c-.11.11-.29.23-.52.37-.09.06-.15.1-.15.03a5.35 5.35 0 0 1 .38-.55c.12-.15.18-.26.24-.38.02-.03.08-.11.17-.29.12-.14.2-.29.26-.4.06-.12.15-.27.3-.47.1-.2.28-.44.43-.76.17-.32.26-.5.29-.52.03-.03.06-.12.14-.23a.55.55 0 0 1 .12-.18Zm2.65-.73c.08.03.17.1.26.18.17.17.23.46.23.84a5.4 5.4 0 0 0 .03 1.4c.03.12.18.12.44 0a.77.77 0 0 1 .4-.09.8.8 0 0 1 .38 0c.06.03.12.09.2.2.06.12.1.18.1.27 0 .06-.04.11-.1.17a.6.6 0 0 1-.17.12c-.06 0-.11 0-.2-.03-.09-.03-.23-.03-.4-.03-.18.03-.3.03-.33.03-.03.03-.06.11-.03.23 0 .15.03.3.06.5s.09.34.15.46c.05.18.11.23.14.23.03 0 .09-.11.23-.37.12-.24.2-.38.2-.44.04-.15.12-.15.27-.03.09.06.14.15.23.26.12.2.12.4-.03.64-.08.12-.14.2-.17.2-.03.03-.06.03-.06.1 0 .02-.03.08-.12.14-.11.14-.11.26 0 .4.06.1.15.18.24.3.08.11.14.17.14.2 0 0 .09.09.18.23.11.15.26.3.43.35a.6.6 0 0 0 .44.06c.09-.03.14-.09.2-.23.06-.12.09-.3.09-.44v-.23l.06.11c.08.18.17.5.23.96 0 .12.06.24.12.35.08.15.11.3.11.38 0 .09-.08.2-.2.38-.06.09-.12.12-.15.12s-.08.02-.08.05c-.06.06-.2.06-.5-.03a1.92 1.92 0 0 1-.4-.17 3.59 3.59 0 0 1-.47-.32 3.57 3.57 0 0 1-.93-.96c-.09-.17-.18-.29-.23-.38l-.1-.08h-.05l-.17.08-.12.06c0 .03-.2.12-.58.32-.38.2-.61.3-.64.3-.09 0-.06-.04.03-.13l.06-.02a5.56 5.56 0 0 0 1.13-1.25c0-.06-.03-.15-.09-.32-.2-.41-.32-.7-.38-.94-.08-.34-.14-.52-.17-.52s-.06.03-.09.12a.95.95 0 0 1-.17.23c-.06.09-.15.17-.26.32-.06.12-.12.2-.12.3-.03.08 0 .28 0 .66 0 .15 0 .32-.03.55-.03.24-.06.38-.06.47-.05.11-.05.23-.05.32 0 .08-.06.23-.15.46l-.06.18c0 .06-.03.14-.11.26-.1.12-.18.2-.27.26-.14.12-.23.18-.26.18-.06 0-.11-.03-.17-.06-.06-.06-.09-.09-.09-.12a.73.73 0 0 0-.12-.26l-.17-.3c-.03-.02-.06-.05-.06-.08s-.03-.09-.09-.17a2.56 2.56 0 0 1-.17-.3c-.06-.11-.12-.17-.15-.2s-.03-.06 0-.09c.03-.02.12 0 .32.12.35.23.59.38.64.38.12 0 .2-.12.3-.38.08-.26.14-.55.14-.9 0-.3 0-.44-.03-.44s-.06.03-.09.06c-.03.06-.05.06-.08.06s-.1.06-.2.17c-.12.12-.18.18-.21.24s-.06.11-.12.17a.63.63 0 0 0-.14.23c-.03.12-.09.2-.15.2-.06.04-.14 0-.23-.08-.09-.06-.15-.09-.2-.09-.06 0-.12.03-.12.06 0 .06-.03.4-.03 1.08 0 .29-.03.46-.06.55-.03.09-.11.17-.23.23-.06.03-.09.03-.12.03s-.08-.06-.14-.14a.67.67 0 0 1-.15-.2c-.03-.07-.03-.15-.03-.33 0-.2 0-.35.03-.4.03-.06.06-.3.09-.67l.09-1c.03-.25.06-.6.06-1.01l.02-.5c0-.11.03-.17.06-.23s.09-.06.12-.06c.06.03.11.06.2.15.09.06.15.12.18.15.03.02.14-.03.29-.12.23-.18.58-.35 1.04-.52l.1-.06v-.15c0-.11-.04-.2-.07-.26a.11.11 0 0 1 .03-.14c.06-.03.12-.03.2-.03.15.03.27.11.33.26.03.09.08.11.14.11.09 0 .23-.02.47-.08.03 0 .06-.03.06-.12v-.46c0-.35-.03-.53-.06-.53a.47.47 0 0 1-.18.09c-.08.03-.2.09-.35.2-.14.09-.23.15-.29.15-.06 0-.11.03-.2.06-.09.05-.23.11-.5.2-.23.09-.4.12-.52.09s-.17-.03-.17-.06c-.03-.06.11-.2.5-.44.17-.11.25-.17.31-.23.03-.06.18-.2.44-.44.26-.26.4-.37.46-.37s.15.02.26.08c.15.06.2.12.2.15s0 .03.04.03c0 0 .03-.06.03-.15v-.32c0-.11 0-.17-.03-.2s-.03-.12 0-.2c.03-.12.06-.18.11-.2 0-.15.09-.15.18-.13Zm-1.49 3.7c0-.03-.02-.06-.08-.06s-.18.06-.41.17l-.5.27c-.05.05-.17.05-.29.03l-.2-.03-.03.14c-.03.09-.03.3-.03.61 0 .2 0 .35.03.41 0 .06.03.09.06.09s.09-.03.2-.09c.12-.06.2-.15.32-.23.06-.03.2-.15.47-.35l.4-.32v-.38c.06-.12.06-.23.06-.26Zm1.23-.5c-.24 0-.38.06-.5.12-.06.03-.09.06-.09.09s0 .08.03.14a.2.2 0 0 1 0 .18c-.03.08-.03.11.03.08.03 0 .09-.02.18-.08.32-.2.46-.35.43-.44-.03-.09-.05-.12-.08-.09Zm1.48-2c0-.03 0-.06-.03-.06s-.03-.03-.06-.09 0-.09.06-.11c.06-.03.12-.06.15-.06.05 0 .17.03.29.06.14.05.26.08.35.14l.26.23c.08.12.11.18.08.24-.05.2-.11.32-.17.4a.47.47 0 0 1-.2.12.85.85 0 0 1-.27-.06.35.35 0 0 1-.14-.14c-.03-.06-.09-.15-.15-.3a2.35 2.35 0 0 1-.17-.37Zm7.09 1.48c.03-.03.06-.03.12-.03.09 0 .17.03.26.12.09.08.18.14.23.17.06.03.06.06.1.09 0 .03 0 .11-.04.23-.03.15-.03.2 0 .23.03 0 .09 0 .23-.06.1-.02.2-.02.35-.02.15 0 .27.02.32.08.1.03.15.06.2.06.07 0 .15.03.24.12.09.08.15.14.15.26.02.17 0 .35-.15.5-.06.05-.17.2-.32.43l-.35.52-.23.44c-.03.06-.03.23-.03.46.03.27 0 .41 0 .5a.26.26 0 0 1-.2.14.45.45 0 0 1-.3-.11l-.14-.15-.26.26c-.2.2-.53.44-.96.7-.06.03-.12.09-.23.12l-.27.14c-.08.06-.14.06-.17.06a.78.78 0 0 0-.3.12c-.17.09-.28.12-.37.14-.2.06-.29.06-.29 0 .03-.05.12-.17.35-.32l.5-.37c.17-.15.28-.27.4-.35.12-.09.17-.12.17-.15s.06-.06.18-.14l.4-.41c.21-.23.33-.35.33-.4 0-.04-.06-.07-.15-.15-.09-.09-.2-.2-.32-.38s-.17-.3-.17-.38c0-.09.08-.14.23-.2.12-.06.26-.06.44-.06.17 0 .34.03.49.06.09.03.15.03.17.03.03 0 .06-.1.15-.3l.26-.58c.03-.05 0-.11-.06-.17-.03-.03-.06-.06-.06-.09s-.05-.09-.14-.17c-.12-.12-.2-.15-.3-.12a8.26 8.26 0 0 1-1.16 1.1 8.36 8.36 0 0 1-.78.44c-.06 0-.12.03-.2.12l-.15.09c-.03-.03.03-.15.2-.35.2-.24.38-.44.5-.61l.17-.24c.03-.03.12-.11.24-.29.11-.17.2-.29.26-.35.06-.05.11-.17.2-.32.09-.14.15-.29.2-.4 0 .03.03-.03.06-.06Zm.85-2.94c.4 0 .6.03.67.03.08.03.29.06.64.09.34.03.58.08.7.08l.37.1c.15.02.26.08.32.1.06.04.12.12.2.21.06.06.1.12.12.18.03.05.03.11.03.2 0 .2-.09.38-.26.52-.09.06-.15.18-.2.32-.06.15-.12.3-.2.44-.1.15-.15.26-.18.32a1.4 1.4 0 0 1-.41.44c-.23.17-.38.29-.47.29-.05 0-.11-.06-.23-.15a.65.65 0 0 1-.2-.2c-.03-.06-.06-.09-.12-.09a.77.77 0 0 1-.29-.09 2.41 2.41 0 0 0-1.66.09c-.2.06-.32.15-.35.2a.22.22 0 0 1-.14.06c-.09 0-.15 0-.18-.03l-.17-.2-.17-.35c-.06-.14-.12-.23-.15-.32-.03-.06-.06-.12-.06-.17 0-.06-.03-.18-.09-.35-.05-.2-.08-.32-.11-.35a.41.41 0 0 1-.06-.18c-.06-.14-.12-.32-.23-.55-.03-.06.03-.09.11-.14.3-.18.64-.27 1.05-.32.09 0 .23-.03.47-.06.23-.03.4-.06.5-.06.08-.06.34-.09.75-.06Zm-.38.35c-.26 0-.47 0-.58.03l-.38.09a3.3 3.3 0 0 0-.76.2l-.11.06v.09c0 .08.03.17.03.29.02.26.05.43.11.52l.09.26c.03.12.06.23.12.35.05.12.11.15.17.15.06 0 .2-.03.47-.1.26-.05.43-.14.49-.2.06-.08.09-.11.09-.14 0-.03.03-.09.08-.15.06-.08.15-.26.27-.46.11-.2.17-.38.17-.47a2 2 0 0 1 .09-.23c.03-.09.06-.12.03-.17.03-.1-.12-.1-.38-.12Zm-.73.4c.12.1.2.18.23.3.03.11.06.32.06.58 0 .2 0 .35-.03.4-.03.07-.08.1-.14.07a.58.58 0 0 1-.38-.32 1.83 1.83 0 0 1-.17-.67c0-.24 0-.38.02-.41.06-.09.2-.09.41.06Zm2.24-.23c-.2-.02-.29-.02-.29 0-.03.03-.06.12-.09.3-.03.14-.08.29-.14.37-.06.1-.12.18-.18.3l-.23.37c-.09.15-.12.2-.12.26 0 .03.12.06.32.03.2 0 .35.03.41.06.15.09.23.06.32-.11l.2-.3c.1-.11.18-.29.24-.49.08-.2.11-.35.11-.44 0-.08 0-.14-.03-.14a.12.12 0 0 0-.11-.06c-.06-.12-.2-.15-.4-.15Zm7.77-.78c.03 0 .06.06.14.15.41.43.56.75.38.93a.33.33 0 0 0-.09.23l-.03.14h.38c.2 0 .35 0 .41.03s.12.09.15.2c0 .1-.03.15-.1.21a.51.51 0 0 1-.46.06.78.78 0 0 0-.29-.06h-.11s-.03.03-.03.09 0 .11-.03.17c-.03.06-.03.26-.06.58-.03.32-.03.5-.03.5a5.63 5.63 0 0 0 .96-.73c.96-.9 1.45-1.4 1.45-1.48.03-.09.06-.12.12-.09s.09.06.12.15c.03.08.11.2.23.32.12.14.17.2.14.26l-.05.14c0 .06-.06.12-.15.18a.47.47 0 0 1-.26.08 5.6 5.6 0 0 0-.73.38l-.81.44c-.18.12-.35.2-.55.29-.2.09-.35.17-.41.26-.09.09-.12.15-.12.23v.64c0 .3.03.44.03.44l.38-.03.44-.06c.02 0 .05-.03.05-.03v-.11c0-.12 0-.18.03-.2.03-.03.03-.06.03-.12v-1.02c.03-.03.03-.06.03-.06l.06-.09c0-.02.03-.05.06-.02.03 0 .08.05.17.14.09.09.15.15.15.2.03.06.05.15.08.3l.06.32.3-.1.25-.08.03-.26c.03-.15.06-.26.12-.38s.12-.17.15-.17c.05 0 .08 0 .14.03.06.02.06.05.06.08s.06.09.14.18c.1.08.15.14.18.17 0 .03.03.06.06.06h.17c.15 0 .26-.06.4-.12l.18-.05c.03 0 .1 0 .15.02.12.03.17.06.26.06.15.03.2.12.2.3 0 .31-.14.43-.4.4-.09 0-.24-.03-.44-.03s-.35 0-.4.03c-.06 0-.1.03-.1.06-.02.03-.02.06-.02.14 0 .12 0 .3-.03.5-.03.23-.03.6-.06 1.13 0 .56-.03.9-.03 1.08-.03.17-.03.29-.03.35 0 .09-.03.23-.06.5-.03.22-.05.37-.08.43s-.03.14-.03.23-.03.18-.06.3c-.06.08-.06.17-.06.17 0 .03-.03.05-.09.08-.05.03-.11.03-.14.03-.03 0-.06-.08-.09-.26l-.06-2.85c0-1.16-.03-1.74-.03-1.74h-.05c-.06.03-.12.03-.18.05l-.2.1c-.06.02-.12.05-.12.08s-.03.06-.03.12c0 .08.03.17.06.29l.06.17-.09.15a.97.97 0 0 0-.14.34c0 .12-.06.27-.1.44a2.68 2.68 0 0 1-.32.64.56.56 0 0 0-.08.18c0 .02-.17.23-.5.58-.08.08-.23.17-.37.29-.18.11-.32.2-.4.29-.15.11-.21.14-.21.09 0-.03.11-.15.29-.35.32-.35.55-.61.7-.85.03-.05.03-.08.03-.08s-.03 0-.03.03l-.2.08h-.12l-.15-.11c-.09-.1-.14-.15-.14-.2 0-.04-.03-.07-.06-.1a1.8 1.8 0 0 1-.23-.29c-.12-.17-.15-.29-.15-.29 0-.03.03-.05.06-.08 0-.03.03-.03.03-.03.03 0 .06 0 .11.03.1.03.15.03.18 0s.09 0 .14.05c.06.06.15.12.24.18.08.03.17.12.26.2.09.09.14.18.14.24 0 .05 0 .08-.03.11-.02.03-.02.03 0 .03.06 0 .12-.17.2-.5.1-.31.15-.58.15-.75 0-.09-.03-.12-.11-.15-.06-.02-.24 0-.5 0a.97.97 0 0 0-.5.1c-.02.02-.05.05-.08.05s-.06 0-.09-.03a.94.94 0 0 0-.4 0 9.5 9.5 0 0 0-1.28.26c-.3.09-.53.24-.73.38-.06.06-.15.09-.26.06-.12 0-.2-.03-.26-.09l-.15-.14a.09.09 0 0 1 0-.12c.03-.06.18-.15.47-.3.29-.14.52-.22.67-.28.11-.03.17-.06.23-.09.03-.03.06-.06.03-.09l.03-.43c.03-.26.05-.61.03-1.05 0-.44 0-.73.02-.93v-.26s-.02 0-.02.03a.58.58 0 0 1-.27.06c-.11 0-.2 0-.26-.03-.03-.03-.03-.06-.03-.06 0-.03 0-.06.03-.09.03-.06.15-.14.35-.2.15-.06.2-.09.23-.12s.03-.06.03-.12c0-.08 0-.14.03-.17s.03-.12 0-.26a.45.45 0 0 1 .06-.35c.06-.09.09-.12.12-.12.03.03.05.03.08 0 .03 0 .09.03.15.12s.09.15.14.15c.03 0 .03.02.06.05v.53s.15 0 .38-.06l.4-.09c.04-.03.07-.11.07-.26 0-.44.05-.79.2-1.05 0-.14.03-.23.06-.23Zm-1.75 5.76c.18.09.3.2.41.35.06.08.06.17 0 .29-.03.11-.09.17-.15.17-.05 0-.14.09-.29.24-.26.26-.5.43-.78.52-.15.06-.23.09-.26.14-.12.1-.18.12-.24.1 0-.04.1-.12.24-.3.43-.46.64-.78.64-.96 0-.06 0-.12.03-.17.02-.06.02-.15.05-.24 0-.08.03-.14.03-.17.06-.09.15-.06.32.03Zm1.25-1.72c-.03-.03-.06 0-.11.03-.06.03-.18.06-.38.12l-.35.09c-.03.02 0 .11 0 .32 0 .14.03.23.03.23 0 .03.03.03.09 0l.34-.06.3-.03.02-.2c.03-.12.06-.26.06-.38v-.12Zm.03-.99c-.03 0-.09.03-.23.12a.7.7 0 0 1-.35.12l-.23.05c-.03.03-.03.1-.03.2v.27l.09-.03.23-.09a.58.58 0 0 1 .26-.05h.26s.03-.03.03-.06v-.24c-.03-.17-.03-.29-.03-.29Zm.09-1.04h-.15l-.4.05c-.18.03-.26.06-.3.1-.02.02-.02.1-.05.28-.03.18-.03.3-.06.35 0 .03-.03.06 0 .06h.09c.05 0 .14-.03.23-.09.09-.03.2-.06.38-.06h.26v-.69Zm12.1.52c.12.06.17.09.26.12.18.06.26.17.32.35.03.11 0 .2-.06.26-.05.06-.08.11-.08.14 0 .03-.1.1-.27.18a1.1 1.1 0 0 1-.34.14.5.5 0 0 0-.2.1l-.36.14c-.29.05-.64.23-1.07.52l-.41.26a5.29 5.29 0 0 0-.94.53c-.02 0-.14.05-.34.2-.2.12-.3.2-.3.23s.13.06.39.09c.2.06.38.09.52.14.15.06.4.18.81.41.41.2.73.32.88.4a12 12 0 0 0 1.98.44c.95.12 1.5.24 1.65.32.12.1.09.15-.11.24l-.18.08c0 .03-.03.03-.09.03-.08 0-.34.12-.75.35-.09.06-.15.09-.15.15s-.08.06-.26.09c-.17.02-.38 0-.55-.03-.5-.12-1.05-.3-1.69-.53a4.84 4.84 0 0 1-1.19-.58c-.06-.06-.2-.14-.44-.32-.23-.14-.4-.26-.52-.35a.93.93 0 0 0-.61-.11c-.2.02-.35.14-.5.32-.23.32-.37.46-.46.46-.06 0-.18-.06-.35-.2-.14-.12-.23-.24-.23-.3 0-.05.03-.11.09-.2a.5.5 0 0 1 .17-.17.78.78 0 0 0 .23-.2c.06-.06.18-.15.38-.24.2-.11.32-.14.38-.14.03 0 .14-.09.38-.26.23-.18.37-.3.46-.35.03-.03.12-.12.26-.2.15-.12.27-.18.3-.24.05-.06.17-.15.31-.26.15-.12.24-.18.27-.18.03 0 .11-.05.32-.2.17-.15.29-.23.34-.32l.32-.3c.32-.28.47-.43.47-.46 0-.03.06-.08.15-.2l.17-.17h-.17c-.12 0-.3.02-.5.08-.2.09-.32.12-.35.09-.03-.03-.17.03-.4.15-.24.11-.41.2-.44.26a.26.26 0 0 1-.2.08.56.56 0 0 0-.27.15c-.11.09-.17.12-.2.12s-.06.03-.12.11c-.05.06-.08.12-.11.12s-.03.03-.03.12c0 .2-.15.32-.4.34h-.21c-.03 0-.09-.05-.12-.11a1.72 1.72 0 0 0-.17-.23c-.12-.15-.15-.27-.1-.35.04-.03.07-.06.07-.1 0-.02.08-.08.23-.14a.73.73 0 0 1 .26-.11c.03 0 .12-.06.3-.15.2-.11.49-.23.84-.32a3 3 0 0 1 .75-.17c.18 0 .38-.03.58-.09.2-.06.41-.09.59-.12.34-.02.66 0 .81.1Zm-2.7-1.74c0-.03.02-.06.11-.1h.18c.05 0 .17.04.34.1.18.05.32.14.38.17.12.09.18.15.2.23.04.1.04.24.04.41-.03.2-.06.35-.1.44a.62.62 0 0 1-.31.35c-.18.08-.32.11-.44.05-.06-.02-.08-.08-.14-.14-.06-.09-.06-.15-.06-.2 0-.06-.03-.1-.06-.12-.06-.03-.09-.18-.09-.47a2.2 2.2 0 0 0-.08-.52c-.03-.03-.06-.06-.06-.09s.03-.03.06-.06c0 0 .03-.02.03-.05Zm9.85-.59.15.06.29.15c.09.03.14.08.2.14.06.06.09.12.09.15l.06.2c0 .06.03.09.06.12.02.03.11.06.26.06.17.05.4.08.64.11.46.06.81.12 1.1.23.18.06.3.1.35.1.06 0 .15.05.26.17.12.11.2.2.24.29.08.17.02.35-.18.52-.2.15-.38.18-.58.06-.12-.09-.32-.06-.61.09-.15.05-.23.11-.26.11-.12 0-.12-.08 0-.23 0-.03.03-.06.03-.06.08-.11.14-.2.14-.26s.03-.12.09-.23c.11-.18.09-.26-.06-.26-.06 0-.15-.03-.26-.06l-.52-.09c-.24-.03-.38-.03-.5-.06-.06 0-.12-.03-.17 0a.5.5 0 0 0-.2.09c-.15.06-.24.12-.3.12s-.14-.03-.26-.06l-.17-.06a2.8 2.8 0 0 0-1.02.23c-.06.03-.12.06-.2.12-.06.03-.12.06-.12.09-.03.02-.06.11-.06.2-.06.17-.09.29-.09.38a.9.9 0 0 1-.14.32c-.09.14-.2.29-.32.37-.09.12-.18.15-.24.15-.05 0-.11-.03-.17-.12a1.84 1.84 0 0 1-.09-.72c.03-.03.09-.12.15-.24l.14-.29a.35.35 0 0 0 .06-.17c0-.06.03-.12.09-.23.03-.1.06-.15.09-.15.03-.03.08-.03.17-.03.15 0 .32-.03.58-.11.26-.1.5-.15.67-.18l.3-.03v-.17c0-.12 0-.24-.04-.38v-.3c.03-.05.06-.08.15-.08.14-.03.17-.06.2-.06Zm.93 2.36.2.12c.12.05.15.11.15.2 0 .09-.03.14-.06.2s-.11.09-.23.12c-.14.06-.29.17-.52.35-.24.17-.35.32-.47.4l-.17.15c.06.03.08.06.14.06.03.03.09.03.15.06a.9.9 0 0 1 .4.23c.12.12.24.14.35.12.1-.03.27-.18.53-.44.38-.4.58-.64.58-.73a.2.2 0 0 1 .06-.14c.06-.03.08-.03.17 0 .06 0 .12.05.15.11.06.06.11.18.17.32.06.15.09.26.06.35-.03.09-.09.15-.23.23l-.35.27c-.09.08-.2.2-.35.29-.15.11-.2.17-.2.17 0 .06.14.23.4.47.15.14.32.26.53.35.2.08.55.26 1.07.49.35.15.56.26.64.35.06.06.09.09.09.12 0 .02 0 .05-.06.11-.06.09-.11.12-.23.15a1.5 1.5 0 0 0-.38.14.84.84 0 0 0-.29.18c-.03.06-.09.08-.17.08-.1.03-.15 0-.15-.02 0-.03-.06-.06-.15-.06a5.93 5.93 0 0 1-1.1-.76l-.35-.32-.14-.11-.03.46a4.77 4.77 0 0 1-.15 1.02c-.03.03-.06.06-.06.09 0 .02-.03.11-.11.23-.1.11-.12.17-.12.23 0 .03-.09.12-.23.26-.15.15-.26.24-.38.3a1.4 1.4 0 0 1-.55.14c-.1 0-.15-.03-.2-.12a1.37 1.37 0 0 0-.27-.35c-.12-.11-.17-.17-.2-.17s-.12-.03-.23-.12c-.12-.08-.18-.14-.18-.17a.22.22 0 0 0-.06-.12c-.03 0 0-.03.06 0 .09 0 .26.03.52.12.24.06.41.09.53.09h.17c.03 0 .09-.06.12-.1.09-.08.17-.22.26-.43.09-.2.17-.38.2-.52.06-.18.06-.47.1-.87 0-.59-.04-.88-.13-.88-.02 0-.11.12-.2.32a3.7 3.7 0 0 1-1.13 1.28c-.15.09-.2.15-.2.18a1.9 1.9 0 0 1-.38.26c-.2.12-.35.17-.41.17s0-.08.17-.29l.15-.14c.06-.06.11-.09.11-.12s.12-.17.38-.46a5.06 5.06 0 0 0 .93-1.25c.09-.2.18-.32.2-.35.06-.03.04-.06-.02-.12a.49.49 0 0 0-.15-.06.06.06 0 0 0-.06.06c0 .12-.08.3-.23.5a2 2 0 0 1-.5.49l-.23.17a.53.53 0 0 1-.17.15l-.32.23c-.23.18-.38.26-.47.26-.11 0 .12-.29.64-.84.27-.26.44-.47.5-.61.09-.12.14-.23.17-.3.06-.05.06-.08.06-.1a.83.83 0 0 0-.23.08c-.15.09-.26.14-.32.2-.18.15-.32.24-.44.24-.11 0-.11-.12 0-.38.06-.09.12-.18.18-.24.08-.05.23-.2.5-.37.28-.2.46-.35.57-.44a4.77 4.77 0 0 0 .67-.64h-.06c-.05 0-.2.03-.46.12-.23.08-.38.14-.4.17-.04.03-.1.03-.18.03-.09 0-.18-.03-.2-.06-.15-.11-.06-.23.28-.4.24-.1.53-.18.88-.24l.52-.08c.4-.1.55-.12.55-.12Zm11.11-2.33c.03-.03.06-.03.12-.03.08 0 .17.03.26.09.09.03.2.12.32.23.12.12.17.2.17.24 0 .05-.03.11-.11.2-.09.09-.12.14-.12.2 0 .03-.03.09-.12.18-.08.08-.11.11-.11.14 0 .03-.03.09-.12.2-.06.12-.11.21-.17.27-.06.09-.15.17-.2.26l-.15.23c-.03.06-.06.09-.03.09.03.03.09 0 .23-.06.12-.06.3-.09.5-.09.2-.02.37 0 .5 0 .14.03.22.03.28.03.26.03.38.06.4.12.04.03.07.03.1.03s.11.03.17.12l.2.2a.6.6 0 0 1 .06.29c0 .14-.03.26-.06.32-.08.12-.14.55-.17 1.25-.03.38-.06.79-.12 1.2 0 .1-.03.17 0 .23 0 .05 0 .11-.03.23-.05.2-.08.38-.11.58-.03.26-.15.52-.32.76-.09.14-.15.2-.15.23s-.08.11-.26.29c-.17.17-.26.26-.29.26-.03 0-.09.03-.17.09a.5.5 0 0 1-.3.09c-.11 0-.17.02-.17.05 0 .03-.03.03-.12.03-.08 0-.17-.06-.26-.14-.11-.09-.14-.15-.14-.18s-.1-.14-.3-.35c-.2-.23-.31-.4-.4-.52-.03-.06 0-.09.03-.06s.14.06.23.09l.35.12c.09 0 .2 0 .32-.03a.47.47 0 0 0 .17-.1c.06-.02.12-.1.24-.25.14-.2.23-.32.29-.38.08-.12.17-.4.26-.84a18.42 18.42 0 0 0 .29-2.19c.03-.29.06-.55.06-.75v-.32l-.12-.03a1.07 1.07 0 0 0-.52.03c-.23.06-.38.09-.47.14a.31.31 0 0 1-.2.1c-.06 0-.12-.07-.2-.15-.12-.12-.18-.15-.24-.06 0 .06-.14.17-.4.4l-.47.41a2.1 2.1 0 0 0-.09.5c0 .29-.03.64-.08 1.07-.03.41-.1.67-.1.76-.02.09-.05.2-.1.32a.79.79 0 0 0-.1.23c0 .06-.05.15-.14.3-.09.14-.2.25-.26.34-.09.12-.18.18-.2.18-.03 0-.12 0-.18-.06s-.12-.18-.2-.32c-.1-.15-.15-.26-.15-.35-.03-.12-.09-.2-.2-.23-.12-.03-.3 0-.53.05l-.17.06c-.03.03-.06.06-.06.09 0 .09-.06.14-.12.23a.22.22 0 0 1-.17.09c-.03 0-.06-.06-.12-.12a.41.41 0 0 1-.05-.17c0-.06-.03-.09-.06-.12s-.03-.11-.03-.29c0-.17 0-.29.03-.35s0-.32-.03-.78a6.94 6.94 0 0 0-.12-.93c-.06-.27-.03-.41.06-.47.06-.03.12-.03.18.06a.6.6 0 0 1 .11.17c.03.06.03.24.06.5.03.35.09.67.12.96.02.23.02.38.05.43.03.06.1.06.18.03.11-.03.26-.08.46-.11.2-.06.32-.09.38-.09.06-.03.12 0 .18.03.08.03.11.09.14.14.03.12.09.12.18-.08.03-.12.08-.26.11-.47.03-.14.03-.29.06-.38 0-.08.03-.11 0-.14 0 0-.03-.03-.09 0l-.11.03.08-.12a.37.37 0 0 0 .12-.26c0-.12.03-.35.06-.7 0-.26.03-.4 0-.46 0-.06-.03-.12-.06-.12s-.2-.03-.52-.03-.58.03-.79.09c-.2.06-.35.11-.4.17-.06.06-.12.06-.2.06-.1 0-.21.03-.33.12-.14.08-.26.17-.35.26-.14.11-.23.17-.29.17v-.03l.76-.98a8.7 8.7 0 0 0 1.04-1.52c0-.03.1-.14.18-.32.12-.17.17-.26.26-.26.06 0 .18.09.32.23.15.15.2.27.2.3 0 .02-.05.11-.2.26-.14.14-.29.29-.44.4l-.37.38c-.18.2-.3.32-.32.38 0 .03 0 .06.03.06l.08-.03a4 4 0 0 1 1.66-.03c.3.06.5.15.64.29.06.06.12.09.15.03.05-.12.11-.2.17-.3.03-.05.09-.1.12-.2.14-.23.43-.84.84-1.8.06-.14.15-.35.23-.6.03.05.03 0 .06-.04Zm-3.31 3.96.2-.06c.03 0 .06.03.12.06.05.06.11.11.14.2.03.09.03.18-.03.26-.03.09-.09.15-.14.2-.06.04-.18.06-.32.1l-.5.05h-.2c-.03 0-.09-.06-.15-.11-.11-.1-.14-.15-.14-.2 0-.07.11-.12.35-.24.2-.12.35-.18.4-.18.06-.05.18-.05.27-.08Zm2.47.08c.06 0 .17 0 .29.06.11.06.2.09.23.09a.5.5 0 0 1 .2.09l.27.17c.05.06.11.18.11.3 0 .08 0 .14-.03.17s-.05.08-.14.14c-.09.09-.15.12-.18.15s-.11 0-.23 0c-.12 0-.17-.03-.23-.03a1.18 1.18 0 0 1-.3-.23c-.31-.32-.49-.47-.49-.5 0-.03.06-.09.2-.2.12-.12.21-.18.3-.2Zm5.23-2.99c0 .12-.03.26-.05.47-.03.2-.06.37-.06.46 0 .09.03.2.08.32l.1.2c0 .12-.1.18-.24.18a.73.73 0 0 1-.47-.2.65.65 0 0 1-.26-.5c0-.2.09-.4.3-.67.2-.26.37-.38.52-.38.05-.02.08.03.08.12Zm1.02 1.66a.86.86 0 0 1-.52-.23.66.66 0 0 1-.26-.53c0-.2.11-.46.32-.78.2-.32.37-.47.5-.47.1 0 .2.09.2.23 0 .1-.03.27-.1.53-.05.26-.08.43-.08.5 0 .05.03.17.12.28.05.12.11.2.11.26-.03.15-.11.2-.29.2Zm4.45-2.88a.5.5 0 0 1 .2.09c.12.05.18.11.27.17.14.12.17.3.14.52-.02.1-.02.27-.02.47v.32h.23c.14 0 .29.03.38.06.11.03.2.06.29.06l.4.05c.2.03.32.06.35.03.03-.03.06-.03.12-.03.03 0 .06-.03.09-.05 0-.03.05-.03.14.02.09.06.15.1.2.06.06-.03.12.03.2.12.1.09.18.17.3.26.09.09.15.12.17.12.03 0 .03.08.03.23 0 .12 0 .2-.03.29-.02.09-.05.12-.11.12a.22.22 0 0 0-.12.05l-.23.27c-.12.11-.2.26-.3.4-.1.27-.34.56-.66.85-.12.11-.2.17-.3.17-.05 0-.08 0-.08-.03l-.09-.14c-.02-.12-.08-.2-.14-.3-.06-.05-.09-.08-.15-.08-.05 0-.14-.03-.32-.03-.23 0-.37 0-.37.03-.03.03-.03.23-.03.58 0 .38-.03.58-.03.61-.03.03-.03.23-.03.58s0 .56-.03.58c0 .03-.03.15-.03.41-.03.61-.06 1-.09 1.1-.03.1-.03.24-.03.39 0 .17-.03.26-.03.26-.02 0-.02.06-.02.08 0 .06 0 .1-.03.1s-.03.02-.03.05c0 .03-.03.06-.09.06s-.12-.06-.17-.2c-.12-.3-.15-.62-.12-.97.03-.23.03-.4 0-.55a1.41 1.41 0 0 1 0-.5c.03-.2.03-.8.03-1.88v-.58h-.12a1.43 1.43 0 0 0-.58.2l-.09.14c-.03.1-.05.15-.08.15a.81.81 0 0 1-.24-.15c-.11-.08-.17-.14-.17-.17s0-.06-.06-.15a5.23 5.23 0 0 1-.44-.9c-.17-.43-.32-.78-.37-1.01 0-.06 0-.12.05-.15.06-.06.18-.12.35-.23.18-.12.32-.18.44-.2.12-.04.3-.06.52-.1l.58-.08.24-.03v-1.16c0-.1.03-.18.06-.27 0-.05.02-.11.05-.11Zm-.2 2h-.15c-.23 0-.46.03-.72.1-.26.05-.47.14-.61.23h-.03c-.12.08-.18.14-.18.17 0 .06.03.17.12.4 0 .04 0 .04.03.06l.2.41.03.09c.06.12.12.2.18.2.05 0 .2 0 .46-.06.06 0 .12 0 .15-.02.2-.06.35-.1.4-.1.06-.02.1-.02.1-.05 0-.06.02-.32.02-.76v-.66Zm1.22 0c-.09-.02-.14-.02-.2-.02-.12 0-.18.03-.2.08-.03.06-.06.24-.06.5 0 .23-.03.4-.03.52l-.03.2.17.03c.12.03.2.06.26.06s.12.03.24.09c.08.06.14.09.14.12 0 .08.09.11.24.02.08-.02.14-.08.23-.17.09-.09.17-.2.23-.3.06-.1.09-.17.12-.17s.08-.08.14-.23a.88.88 0 0 0 .09-.32c0-.06 0-.08-.03-.08-.03-.03-.06-.03-.12-.06a3.3 3.3 0 0 0-.75-.2c-.23 0-.35-.04-.44-.06Zm6.37 1.54c.03-.17.03-.5.03-1.01 0-.53.03-.88.06-1.08l.08-.3c.03 0 .09.07.18.15l.2.3c.06.05.06.11.06.17 0 .06 0 .14-.03.32-.03.23-.03.55-.06 1.02-.03.99-.09 1.65-.14 1.97-.03.24-.03.38-.03.41 0 .03 0 .2-.03.53-.03.32-.03.58-.06.78 0 .15-.03.3-.09.47-.06.17-.08.29-.11.32-.09.11-.18.14-.24.11-.05-.03-.14-.14-.2-.38-.06-.11-.06-.23-.06-.29 0-.06.03-.17.06-.29.06-.17.12-.5.18-1.02.05-.49.11-.96.11-1.4.06-.37.06-.6.09-.78Zm3-1.77c.14 0 .26 0 .31.06.06.06.1.11.1.23 0 .06 0 .12-.04.15a.4.4 0 0 1-.11.08c-.1.06-.18.09-.27.06h-.14s-.03.12-.03.26l-.03.26.32-.02c.17 0 .3 0 .35.02.06.03.12.1.12.2.02.12 0 .18-.1.27a.78.78 0 0 1-.43.12h-.2v1.16l.64.03c.43 0 .67.03.73.06.08.05.14.11.17.14.03.03.03.12.03.18 0 .08 0 .11-.03.14a.4.4 0 0 1-.12.09c-.14.09-.4.12-.78.06a4.81 4.81 0 0 0-1.34-.03 3 3 0 0 0-1.05.2c-.11.09-.2.12-.35.09a.32.32 0 0 1-.23-.23l-.03-.15c.09-.06.24-.12.47-.2.23-.09.38-.12.43-.12.06 0 .18-.03.3-.06.14-.03.2-.08.23-.08.03-.06.09-.32.11-.85 0-.09.03-.14 0-.17 0-.03-.02-.03-.05-.03-.06 0-.12.03-.2.06-.1.03-.15.05-.21.05s-.12 0-.2-.02c-.1-.03-.12-.06-.12-.06 0-.03 0-.06-.03-.12-.03-.12.15-.23.55-.38l.26-.08v-.32c0-.2 0-.3-.02-.32-.03-.03-.12 0-.27.05-.2.1-.35.12-.43.06-.09-.03-.12-.11-.09-.23.03-.09.15-.17.3-.26.17-.09.43-.15.8-.23.33-.1.53-.12.67-.12Zm0-1.46 1.13.18c.2.03.46.06.75.06h.44l.2.17c.12.12.2.18.2.2l.07.24a.5.5 0 0 1-.06.52c-.06.09-.12.26-.15.53-.03.26-.06.55-.03.87l.06 2.62c0 .4.03.7.09.9.03.14.03.35 0 .58-.03.29-.06.5-.12.6-.06.13-.11.24-.2.3a.4.4 0 0 0-.18.2.93.93 0 0 1-.46.38c-.06 0-.12 0-.23-.03-.12-.03-.3-.2-.56-.5a2.82 2.82 0 0 0-.55-.52l-.17-.08a71.7 71.7 0 0 1-.09-.09c-.03-.03-.03-.06 0-.09s.23-.06.61-.06.58-.02.64-.02c.12-.03.2-.12.3-.3a.8.8 0 0 0 .08-.52l-.03-.52c0-.2-.03-.87-.03-1.95s-.03-1.75-.09-2c-.06-.27-.06-.44-.08-.56 0-.12 0-.17-.03-.2 0-.12-.35-.2-1-.27-.25 0-.43-.02-.43-.02-.03 0-.35.02-1.02.11a3.09 3.09 0 0 0-.84.23c0 .03-.06.03-.12.03a.95.95 0 0 1-.29-.08c-.11-.06-.2-.12-.2-.15-.03-.06 0-.12.06-.2a.65.65 0 0 1 .11-.15l.3-.11c.46-.12.95-.2 1.5-.27.24-.03.36-.03.41-.03Zm.92 6c.18.11.24.23.15.37-.03.1-.15.15-.3.18-.17.03-.46.03-.86.03-.9 0-1.49.03-1.69.14l-.17.09-.18-.09a.47.47 0 0 1-.17-.08c-.03-.03-.03-.06-.03-.12 0-.15.14-.26.43-.35.3-.09.88-.14 1.72-.23l.52-.06c.24 0 .44.03.58.12Zm-.49-2.3a.06.06 0 0 1-.06-.06c0-.03 0-.09-.03-.12 0-.03 0-.08.06-.11.06-.06.2-.06.47-.06.17 0 .29.03.35.03.02 0 .08.06.11.11a.9.9 0 0 1 .15.3l.06.17c0 .03-.03.09-.06.12-.09.14-.18.23-.26.2a1.94 1.94 0 0 1-.5-.35c-.17-.17-.26-.23-.29-.23Zm9.72-3.75a4 4 0 0 1 1.01.09c.15.03.38.11.64.26.3.14.47.23.56.29.05.03.08.09.08.15v.46c0 .35-.03.64-.05.9-.06.35-.06.9.02 1.72.03.32.06.55.06.73.03.37.09.72.18 1.07.03.09.03.23.05.38 0 .14.03.23.06.29.03.03.03.15.03.35 0 .2-.03.32-.03.35a.24.24 0 0 0-.06.17c0 .09-.05.2-.11.32s-.15.2-.2.2c-.06.04-.06.06-.06.12s-.06.15-.15.3c-.11.14-.17.23-.23.23-.09 0-.15.03-.18.03-.02 0-.05 0-.05-.03s-.06-.15-.2-.3c-.15-.14-.21-.23-.21-.26s-.03-.05-.12-.08c-.06-.03-.11-.06-.11-.1 0-.02-.03-.05-.1-.1a.28.28 0 0 0-.17-.12c-.11-.06-.17-.12-.17-.2 0-.04 0-.04.03-.04.06-.03.17 0 .4.03.24.03.38.03.47 0 .09-.03.15-.14.2-.29a3.18 3.18 0 0 0 0-1.22c-.05-.2-.11-.67-.17-1.42a1.8 1.8 0 0 0-.09-.59 2.22 2.22 0 0 0-.64-.08c-.4-.03-.72-.03-1.01-.03-.5.03-.9.06-1.25.11-.15.03-.3.1-.44.15-.15.06-.23.12-.23.14 0 .2-.06.47-.12.79-.06.32-.12.55-.17.67l-.12.32c-.09.23-.23.5-.47.81-.23.32-.43.5-.55.53-.06 0-.09.03-.09.05 0 .03-.05.06-.2.12-.26.12-.38.09-.38-.09 0-.08.09-.23.26-.4.18-.2.27-.3.3-.3l.17-.23a.9.9 0 0 0 .17-.29l.18-.29c.06-.06.09-.17.14-.29.06-.12.1-.2.1-.23l.05-.23c.12-.38.2-.67.2-.9 0-.12 0-.21.03-.33.03-.11.06-.43.06-1.01.03-.5.06-.82.09-.96a.48.48 0 0 1 .2-.32c.09-.06.15-.06.15-.06s.03.32.03.96c0 .6.02.96.02.99.03.03.12.03.27-.03.14-.06.35-.09.58-.12.23-.03.35-.06.38-.09.03-.03.03-.08.03-.17 0-.09 0-.15-.03-.2-.03-.06-.1-.06-.12-.03-.12.05-.23.05-.32 0-.12-.06-.17-.15-.17-.26 0-.18.11-.32.37-.44l.18-.12.03-.32c0-.14.03-.23.03-.26a.4.4 0 0 1 .08-.12c.06-.05.12-.08.18-.08.03 0 .08-.03.14-.09.06-.06.12-.12.18-.09.06 0 .11.06.2.15.12.11.18.17.2.17.03 0 .06.06.12.15.03.11.06.17.06.26 0 .06 0 .09.03.09s.09.03.2.03c.15.03.26.05.32.11s.12.09.18.12c.05.03.08.06.11.12.03.05.03.14-.03.2-.03.06-.05.06-.08.09h-.27c-.2 0-.34 0-.37.03-.03.02-.06.11-.06.26 0 .14-.03.23-.03.29v.03s.03.03.09.03h.47c.31 0 .52 0 .54-.03.06-.03.06-.12.03-.32-.03-.12-.03-.41-.05-.88-.03-.46-.03-.78-.03-.93a.24.24 0 0 0-.06-.17 2.3 2.3 0 0 0-.93-.2c-.47-.03-.9-.03-1.25.02-.5.1-.85.18-1.02.3-.15.08-.23.08-.3-.06-.02-.06 0-.15.07-.24.17-.23.58-.4 1.22-.49h1.02Zm-.32 4.01s.17.03.52.06c.35.06.55.09.61.18.06.05.09.14.09.29 0 .11-.06.23-.12.35-.09.11-.14.17-.14.2s-.03.06-.06.12c-.06.05-.09.08-.06.14 0 .06.03.06.09.06.05 0 .11.03.17.06.06.06.09.11.09.17 0 .06-.06.15-.15.3-.08.1-.14.17-.23.17-.06.03-.15 0-.26-.06a.98.98 0 0 0-.55-.06c-.27.03-.44.06-.53.12-.03.03-.08.06-.17.06-.09.02-.18 0-.26-.1a3.13 3.13 0 0 1-.52-1.37v-.2c0-.02.05-.05.1-.08.1-.06.13-.06.13-.03.02 0 .05-.03.08-.03s.06-.03.09-.06c.23-.11.47-.17.7-.2l.38-.09Zm.2.85c.03-.18.06-.26.03-.26 0 0-.12-.03-.3-.03-.14 0-.31 0-.43.03a.82.82 0 0 0-.32.14c-.03.03-.06.06-.06.09s0 .06.03.11c.06.1.09.18.09.27 0 .08.03.14.09.2.03.06.06.06.08.06.03 0 .1 0 .18-.03.11-.03.23-.06.35-.06.08 0 .14 0 .14-.03.03 0 .03-.06.03-.14.03-.03.03-.18.09-.35Zm4.56-2.42a.37.37 0 0 1-.05-.17c0-.06.02-.2.08-.44.06-.23.09-.4.09-.52s-.03-.2-.09-.26-.08-.12-.08-.15.02-.06.08-.09.12-.03.18-.03c.17 0 .35.06.46.18.15.12.2.26.2.46s-.08.44-.29.7c-.2.3-.34.4-.49.4 0 0-.06-.02-.09-.08Zm1.78-.29c-.2.32-.38.47-.5.47-.14 0-.2-.1-.2-.24 0-.05.03-.23.09-.46.05-.23.08-.44.08-.55a1 1 0 0 0-.08-.38.79.79 0 0 1-.1-.23c0-.06.1-.12.27-.12.18 0 .35.09.52.23.18.15.27.3.27.44-.03.26-.15.55-.35.84Z" fill="#D6052D"/></svg>