<svg viewBox="0 0 36 36" fill="none" xmlns="http://www.w3.org/2000/svg"><path d="M23.84 22.77a13.68 13.68 0 0 0-10.18-22.77 13.68 13.68 0 0 0-13.66 13.66 13.68 13.68 0 0 0 22.6 10.33l11.04 11.05a.9.9 0 0 0 1.24 0 .87.87 0 0 0 0-1.23l-11.04-11.04Zm-22.09-9.1a11.92 11.92 0 1 1 23.81.01 11.92 11.92 0 0 1-23.8-.02Z" fill="url(#a)"/><path d="M19.14 12.79h-4.61v-4.6c0-.49-.4-.88-.87-.88-.49 0-.88.4-.88.87v4.6h-4.61c-.48 0-.88.4-.88.88 0 .49.4.88.88.88h4.61v4.61c0 .48.4.88.88.88s.87-.4.87-.88v-4.61h4.61c.48 0 .88-.4.88-.88s-.4-.87-.88-.87Z" fill="url(#b)"/><defs><linearGradient id="a" x1="17.569" y1="0" x2="17.569" y2="35.293" gradientUnits="userSpaceOnUse"><stop stop-color="#EE9305"/><stop offset="1" stop-color="#FFC32E"/></linearGradient><linearGradient id="b" x1="17.569" y1="0" x2="17.569" y2="35.293" gradientUnits="userSpaceOnUse"><stop stop-color="#EE9305"/><stop offset="1" stop-color="#FFC32E"/></linearGradient></defs></svg>