<svg viewBox="0 0 135 51" fill="none" xmlns="http://www.w3.org/2000/svg"><path d="M70 17.12h-26.27l-.1-.21.48-.67 1.56-2.2a26.4 26.4 0 0 0-1.32-1.99l-2.91.67-.52.14a17.77 17.77 0 0 0-1.8-1.82l.03-.14.76-3.32a17.8 17.8 0 0 0-1.98-1.33l-2.84 2.06a19.2 19.2 0 0 0-2.36-.97l-.56-3.5a17.6 17.6 0 0 0-2.36-.45l-1.84 3c-.41-.03-.83-.03-1.28-.03-.42 0-.87 0-1.29.03l-1.83-3c-.84.1-1.64.24-2.4.45l-.55 3.5c-.84.28-1.6.59-2.36.97l-2.85-2.06c-.7.42-1.35.88-1.98 1.33l.76 3.32.04.14a22.2 22.2 0 0 0-1.8 1.82l-.53-.14-2.88-.67c-.48.63-.93 1.33-1.31 2l1.56 2.2.48.66c-.38.77-.7 1.57-.97 2.37l-.83.14-2.64.42c-.2.77-.35 1.57-.45 2.38l2.36 1.46.62.39c-.03.42-.03.84-.03 1.3 0 .41 0 .86.03 1.28l-.52.32-2.46 1.53c.1.8.28 1.61.45 2.38l3.44.56c.03.07.03.14.07.2.27.74.55 1.48.9 2.2l-2.05 2.87c.42.7.87 1.37 1.32 2l2.74-.63.7-.18a17.2 17.2 0 0 0 1.8 1.82l-.52 2.2-.28 1.22c.49.35.97.66 1.5 1.01.17.1.34.25.51.35l2.85-2.06c.76.39 1.56.7 2.36.98l.56 3.5c.76.2 1.56.34 2.36.45l1.83-3c.42.03.84.03 1.29.03.41 0 .87-.04 1.28-.04l1.84 3c.8-.1 1.6-.27 2.36-.45l.56-3.49c.8-.28 1.6-.6 2.36-.98l2.84 2.06c.18-.1.35-.24.52-.35.52-.31 1.01-.63 1.5-1l-.28-1.23-.52-2.2c.62-.56 1.25-1.19 1.8-1.82l.7.18 2.74.62c.48-.62.93-1.32 1.32-1.99h20.92l3.37-19.6Zm-42.8 25.43a17.17 17.17 0 0 1-1.11-34.3 17.02 17.02 0 0 1 15.52 8.9h-21.13l-3.44 19.6h22.38a17.2 17.2 0 0 1-12.21 5.8Z" fill="#2B3990"/><path d="m17.66 13.94-3.4 19.6h49.53l3.43-19.6h-49.56Z" fill="#BE1E2D"/><path d="M73.82 13.97h2.08c.34 0 .59.07.73.25.14.14.17.38.1.7a.92.92 0 0 1-.24.52.98.98 0 0 1-.38.28c.27.07.41.28.48.56v.38c-.07.35-.17.6-.38.77-.17.18-.45.25-.8.25h-2.25l.66-3.7Zm1.87 2.55c.03-.2-.03-.31-.24-.31h-1.04l-.14.73h1.04c.2 0 .34-.1.38-.31v-.1Zm.1-1.5c.04-.2-.03-.31-.24-.31h-.9l-.14.73h.9c.21 0 .35-.1.38-.31v-.1Zm3.96 2.58c-.8.08-1.46.11-1.94.11-.35 0-.6-.07-.73-.24-.14-.18-.18-.42-.1-.77l.3-1.68c.08-.38.21-.63.39-.8.2-.18.48-.25.83-.25h1.88l-.14.74h-1.67c-.2 0-.35.1-.38.31l-.31 1.68c0 .07 0 .14.03.2.04.04.1.08.17.08h.8c.1 0 .21 0 .38-.04.14 0 .35-.03.6-.03l-.1.7Zm3.3.08h-2.88l.66-3.7h2.91l-.14.73h-1.97l-.14.7h1.56l-.14.73h-1.56l-.14.77h1.98l-.14.77Zm1.07-3.71h2.19c.38 0 .62.07.76.25.14.17.18.42.1.8l-.1.52c-.07.39-.2.63-.38.8-.2.18-.48.25-.83.25h-1.25l-.17 1.05h-.94l.62-3.67Zm2.12 1.05c.03-.2-.03-.31-.24-.31h-1.04l-.21 1.15h1.04c.2 0 .35-.1.38-.32l.07-.52Zm4.44 1.64c-.07.39-.2.63-.38.8-.2.18-.49.25-.83.25h-1.32c-.38 0-.63-.07-.77-.24-.13-.18-.17-.42-.1-.8l.31-1.68c.07-.39.21-.63.38-.8.21-.18.5-.25.84-.25h1.32c.38 0 .62.07.76.24.14.18.17.42.1.8l-.3 1.68Zm-.66-1.67c.04-.21-.03-.32-.24-.32h-.9c-.21 0-.35.1-.38.32l-.32 1.67c-.03.21.04.32.25.32h.9c.2 0 .35-.1.38-.32l.31-1.67Zm3.86 2.61c-.8.08-1.46.11-1.95.11-.35 0-.59-.07-.73-.24-.14-.18-.17-.42-.1-.77l.31-1.68c.07-.38.21-.63.38-.8.21-.18.49-.25.84-.25h1.87l-.14.74h-1.66c-.21 0-.35.1-.39.31l-.3 1.68c0 .07 0 .14.03.2.03.04.1.08.17.08h.8c.1 0 .2 0 .38-.04.14 0 .35-.03.59-.03l-.1.7Zm3.22 0c-.8.08-1.46.11-1.94.11-.35 0-.6-.07-.73-.24-.14-.18-.17-.42-.1-.77l.3-1.68c.08-.38.22-.63.39-.8.2-.18.49-.25.83-.25h1.88l-.14.74h-1.67c-.2 0-.34.1-.38.31l-.31 1.68c0 .07 0 .14.03.2.04.04.1.08.18.08h.79c.1 0 .21 0 .39-.04.13 0 .34-.03.59-.03l-.1.7Zm3.61.08h-.93l.38-2.28-1.67 2.28h-.97l.66-3.7h.94l-.39 2.26 1.67-2.27h1l-.69 3.7Zm2.89 0 .37-2.27-1.66 2.27h-.97l.66-3.7h.93l-.38 2.26 1.67-2.27h1l-.66 3.7h-.97Zm-.25-3.95c-.45 0-.63-.25-.56-.7l.04-.17h.7l-.04.14c0 .07 0 .1.03.13.04.04.07.07.14.07h.17c.07 0 .1 0 .14-.07.04-.03.07-.06.07-.13l.04-.14h.7l-.04.17c-.07.45-.35.7-.8.7h-.6Zm4.65 3.87c-.8.08-1.46.11-1.94.11-.35 0-.6-.07-.73-.24-.14-.18-.17-.42-.1-.77l.3-1.68c.08-.38.22-.63.39-.8.2-.18.48-.25.83-.25h1.88l-.14.74h-1.67c-.2 0-.35.1-.38.31l-.31 1.68c0 .07 0 .14.03.2.04.04.1.08.17.08h.8c.1 0 .21 0 .39-.04.13 0 .34-.03.59-.03l-.1.7Zm3.75-3.66c.1 0 .24.03.45.07l-.14.7h-.2c-.08 0-.11 0-.15.03l-.1.1-.66.95.7 1.89h-1.01l-.56-1.5h-.48l-.28 1.5h-.94l.66-3.7h.94l-.25 1.46h.49l.7-1.01c.1-.14.2-.28.34-.35a.8.8 0 0 1 .49-.14Zm3.68 2.72c-.07.39-.21.63-.39.8-.2.18-.48.25-.83.25h-1.32c-.38 0-.62-.07-.76-.24-.14-.18-.17-.42-.1-.8l.3-1.68c.08-.39.22-.63.39-.8.2-.18.48-.25.83-.25h1.32c.38 0 .63.07.76.24.14.18.18.42.1.8l-.3 1.68Zm-.63-1.67c.04-.21-.03-.32-.24-.32h-.9c-.21 0-.35.1-.39.32l-.3 1.67c-.04.21.03.32.23.32h.9c.22 0 .35-.1.39-.32l.31-1.67Zm3.89 2.69h-2.92l.66-3.7h2.92l-.14.73h-1.98l-.14.7h1.56l-.14.73h-1.56l-.14.77h1.98l-.1.77Zm-43.14 5.31c-.07.38-.2.63-.38.8-.2.17-.49.24-.83.24h-1.32c-.38 0-.63-.07-.77-.24-.13-.17-.17-.42-.1-.8l.31-1.68c.07-.38.21-.63.38-.8.18-.18.49-.25.84-.25h1.32c.38 0 .62.07.76.25.14.17.17.42.1.8l-.3 1.68Zm-.66-1.68c.04-.21-.03-.31-.24-.31h-.9c-.21 0-.35.1-.39.31l-.3 1.68c-.04.2.03.31.24.31h.9c.2 0 .34-.1.38-.31l.31-1.68Zm2.36.42h1.25c.38 0 .63.07.77.24.13.18.17.42.1.8l-.04.18c-.06.38-.2.63-.38.8-.2.18-.48.25-.83.25h-2.19l.66-3.7h2.92l-.14.73h-1.98l-.14.7Zm1.18 1.05c.04-.21-.03-.32-.24-.32h-1.04l-.14.8h1.04c.2 0 .35-.1.38-.31v-.17Zm1.18 1.22.66-3.7h.94l-.52 2.96h.9l.52-2.97h.94l-.52 2.97h.9l.52-2.97h.94l-.52 2.97h.38l-.25 1.44h-.9l.07-.7h-4.06Zm8.33 0h-2.91l.65-3.7h2.92l-.14.73h-1.98l-.14.7h1.57l-.14.73h-1.56l-.14.77h1.97l-.1.77Zm3.26-.07c-.8.07-1.45.1-1.94.1-.35 0-.59-.07-.73-.24-.14-.18-.17-.42-.1-.77l.31-1.68c.07-.38.2-.63.38-.8.21-.18.49-.25.83-.25h1.88l-.14.74h-1.67c-.2 0-.34.1-.38.31l-.31 1.68c0 .07 0 .14.03.2.04.04.1.08.18.08h.8c.1 0 .2 0 .38-.04.14 0 .34-.03.59-.03l-.1.7Zm2.19.07h-.94l.52-2.97h-1.1l.13-.74h3.16l-.14.74h-1.1l-.53 2.97Zm2.11-3.7h2.09c.35 0 .59.06.73.24.14.14.17.38.1.7a.92.92 0 0 1-.24.52c-.1.14-.24.21-.38.28.28.07.41.28.48.56v.38c-.07.35-.17.6-.38.77-.17.18-.45.25-.8.25h-2.25l.66-3.7Zm1.88 2.54c.04-.2-.03-.3-.24-.3h-1.04l-.14.72h1.04c.2 0 .35-.1.38-.31v-.1Zm.1-1.46c.04-.21-.03-.32-.24-.32h-.9l-.14.74h.9c.21 0 .35-.1.39-.32v-.1Zm4.58 1.61c-.06.38-.2.63-.38.8-.17.17-.48.24-.83.24h-1.32c-.38 0-.62-.07-.76-.24-.14-.17-.18-.42-.1-.8l.3-1.68c.08-.38.21-.63.39-.8.17-.18.48-.25.83-.25h1.32c.38 0 .62.07.76.25.14.17.18.42.1.8l-.3 1.68Zm-.66-1.68c.04-.21-.03-.31-.24-.31h-.9c-.2 0-.35.1-.38.31l-.31 1.68c-.04.2.03.31.24.31h.9c.2 0 .35-.1.38-.31l.31-1.68Zm-27.24 9.01h-.93l.38-2.27-1.67 2.27h-1l.65-3.7h.94l-.38 2.27 1.67-2.27h1l-.66 3.7Zm.56-.77c.87.07 1.5.07 1.87.07.07 0 .14-.03.21-.07.07-.03.1-.1.1-.2l.04-.22c.03-.2-.03-.31-.24-.31h-1.25l.14-.73h1.14c.21 0 .35-.1.38-.32l.04-.1c.03-.21-.04-.32-.24-.32h-1.67l.14-.73h1.94c.35 0 .6.07.73.24.14.14.17.39.1.7a.92.92 0 0 1-.24.53c-.1.14-.28.2-.41.28.27.07.41.28.48.55v.46c-.07.35-.17.6-.38.77-.17.17-.45.24-.8.24-.59 0-1.28-.03-2.08-.1v-.74Zm6.91-.21c-.07.39-.21.63-.39.8-.2.18-.48.25-.83.25h-1.32c-.38 0-.62-.07-.76-.24-.14-.18-.18-.42-.1-.8l.3-1.68c.08-.39.21-.63.39-.8.2-.18.48-.25.83-.25h1.32c.38 0 .62.07.76.24.14.18.18.42.1.8l-.3 1.68Zm-.66-1.7c.03-.22-.04-.32-.25-.32h-.9c-.2 0-.35.1-.38.31l-.31 1.68c-.04.2.03.31.24.31h.9c.21 0 .35-.1.38-.31l.32-1.68Zm2.35.41h1.25c.39 0 .63.07.77.25.14.17.17.41.1.8l-.03.17c-.07.39-.21.63-.38.8-.21.18-.5.25-.84.25h-2.18l.66-3.7h2.91l-.14.73h-1.98l-.14.7Zm1.18 1.05c.04-.21-.03-.32-.24-.32h-1.04l-.14.8h1.04c.21 0 .35-.1.38-.3v-.18Zm1.84-2.45h2.19c.38 0 .62.07.76.25.14.17.18.42.1.8l-.1.53c-.07.38-.2.63-.38.8-.2.17-.48.24-.83.24h-1.25l-.17 1.05h-.94l.62-3.67Zm2.12 1.05c.04-.2-.03-.31-.24-.31h-1.04l-.21 1.15h1.04c.2 0 .35-.1.38-.31l.07-.53Zm3.85 2.62h-2.91l.66-3.7h2.91l-.14.73h-1.97l-.14.7h1.56l-.14.73h-1.56l-.14.77h1.98l-.1.77Zm2.22 0h-.93l.52-2.97h-1.11l.14-.73h3.15l-.13.73h-1.11l-.53 2.97Zm1.74 0h-1l2.04-3.7h1.04l.73 3.7h-1l-.1-.66h-1.33l-.38.66Zm.73-1.33h.83l-.2-1.22-.63 1.22Zm3.75 1.33h-.94l.52-2.97h-1.11l.14-.73h3.16l-.14.73h-1.11l-.52 2.97Zm4.37 0h-2.92l.66-3.7h2.92l-.14.73h-1.98l-.14.7h1.57l-.14.73h-1.53l-.14.77h1.98l-.14.77Zm1.32-.17a.85.85 0 0 1-.56.2c-.2 0-.41 0-.59-.06l.14-.7h.24c.07 0 .14-.04.18-.07.03-.04.07-.1.1-.18l.63-2.76h2.91l-.66 3.7h-.93l.52-2.96h-1.11l-.53 2.2a.99.99 0 0 1-.34.63Zm5.93.17h-2.91l.66-3.7h2.91l-.14.73h-1.97l-.14.7h1.56l-.14.73h-1.56l-.14.77h1.98l-.1.77Zm2.68 0 .38-2.27-1.67 2.27h-.97l.66-3.7h.94l-.39 2.27 1.67-2.27h1l-.65 3.7h-.97Zm-.25-3.95c-.45 0-.62-.24-.55-.7l.03-.17h.7l-.04.14c0 .07 0 .1.03.14.04.03.08.07.14.07h.18c.07 0 .1 0 .14-.07.03-.04.07-.07.07-.14l.03-.14h.7l-.04.17c-.07.46-.35.7-.8.7h-.59Zm6.6 3.95h-.98l.39-2.27-1.67 2.27h-1l.65-3.7h.94l-.38 2.27 1.66-2.27h1.01l-.63 3.7Zm-50.88 2.66h2.19c.38 0 .62.07.76.24.14.18.17.42.1.8l-.1.53c-.07.38-.2.63-.38.8-.21.18-.49.25-.84.25h-1.24l-.18 1.04h-.94l.63-3.66Zm2.12 1.04c.03-.2-.04-.31-.25-.31h-1.04l-.2 1.15h1.03c.21 0 .35-.1.39-.31l.07-.53Zm1.28 2.62h-1l2.04-3.7h1.04l.73 3.7h-1l-.1-.66h-1.36l-.35.66Zm.7-1.32h.83l-.21-1.23-.63 1.23Zm2.35 1.32.66-3.7h.94l-.52 2.97h1.32l.52-2.97h.94l-.52 2.97h.38l-.25 1.43h-.9l.07-.7h-2.64Zm7.23 0h-.94l.38-2.27-1.67 2.27h-1l.65-3.7h.94l-.38 2.27 1.67-2.27h1l-.66 3.7Zm4.09-.97a1.5 1.5 0 0 1-.38.8 1.3 1.3 0 0 1-.84.24h-1.32c-.38 0-.62-.07-.76-.24-.14-.18-.17-.42-.1-.8l.3-1.68c.08-.38.22-.63.39-.8.2-.18.49-.25.83-.25h1.32c.38 0 .63.07.77.25.13.17.17.42.1.8l-.31 1.68Zm-.63-1.72c.04-.2-.03-.31-.24-.31h-.9c-.21 0-.35.1-.38.31l-.32 1.68c-.03.21.04.32.25.32h.9c.2 0 .35-.1.38-.32l.31-1.68Zm4.17 2.69h-.94l.28-1.5h-1.32l-.28 1.5h-.94l.66-3.7h.94l-.24 1.47h1.32l.24-1.47h.94l-.66 3.7Zm1.28 0h-1l2.04-3.7h1.04l.73 3.7h-1l-.1-.66h-1.33l-.38.66Zm.73-1.32h.83l-.2-1.23-.63 1.23Z" fill="#2B3990"/><path d="M97.07 36.5a.85.85 0 0 1-.56.21c-.2 0-.41 0-.59-.07l.14-.7h.24c.07 0 .14-.03.18-.06.03-.04.07-.1.1-.18l.63-2.76h2.91l-.66 3.7h-.94l.53-2.97h-1.12l-.52 2.2c-.03.29-.17.46-.34.63Zm6.21.14h-.94l.38-2.27-1.66 2.27h-1l.65-3.7h.94l-.38 2.27 1.66-2.27h1.01l-.66 3.7Zm.56-.73c.86.07 1.49.07 1.87.07a.5.5 0 0 0 .2-.07c.08-.03.11-.1.11-.2l.04-.22c.03-.2-.04-.31-.25-.31h-1.25l.14-.74h1.15c.2 0 .35-.1.38-.31l.03-.1c.04-.22-.03-.32-.24-.32h-1.66l.14-.73h1.94c.35 0 .59.07.73.24.14.14.17.39.1.7a.92.92 0 0 1-.24.52c-.1.14-.28.21-.42.28.28.07.42.28.49.56v.46c-.07.35-.17.59-.38.76-.18.18-.45.25-.8.25-.6 0-1.29-.04-2.08-.1v-.74Zm4.09.73h-1l2.04-3.7h1.04l.73 3.7h-1l-.1-.66h-1.36l-.35.66Zm.7-1.32h.83l-.21-1.23-.63 1.23Zm3.77 1.32h-.93l.52-2.97h-1.1l.13-.73h3.16l-.14.73h-1.11l-.52 2.97Zm4.97-.97c-.07.38-.2.62-.38.8-.21.17-.49.24-.83.24h-1.32c-.39 0-.63-.07-.77-.24-.14-.18-.17-.42-.1-.8l.31-1.68c.07-.38.2-.63.38-.8.21-.18.49-.25.84-.25h1.31c.39 0 .63.07.77.25.14.17.17.42.1.8l-.31 1.68Zm-.66-1.72c.04-.2-.03-.31-.24-.31h-.9c-.21 0-.35.1-.39.31l-.3 1.68c-.04.21.03.32.23.32h.9c.21 0 .35-.1.39-.32l.31-1.68Zm1.63-.97h2.19c.38 0 .62.07.76.24.14.18.17.42.1.8l-.1.53c-.07.38-.2.63-.38.8-.2.18-.49.25-.83.25h-1.25l-.18 1.04h-.93l.62-3.66Zm2.12 1.04c.03-.2-.04-.31-.24-.31h-1.05l-.2 1.15h1.04c.2 0 .34-.1.38-.31l.07-.53Zm4.44 1.65c-.07.38-.2.62-.38.8-.2.17-.49.24-.83.24h-1.32c-.39 0-.63-.07-.77-.24-.13-.18-.17-.42-.1-.8l.31-1.68c.07-.38.21-.63.38-.8.21-.18.49-.25.84-.25h1.31c.39 0 .63.07.77.25.14.17.17.42.1.8l-.3 1.68Zm-.66-1.72c.04-.2-.03-.31-.24-.31h-.9c-.21 0-.35.1-.39.31l-.3 1.68c-.04.21.03.32.23.32h.9c.21 0 .35-.1.39-.32l.31-1.68Zm1.66-.97h2.09c.35 0 .59.07.73.24.14.14.17.39.1.7a.93.93 0 0 1-.24.52.98.98 0 0 1-.38.28c.28.07.41.28.48.56v.39c-.07.35-.17.59-.38.76-.17.18-.45.25-.8.25h-2.25l.66-3.7Zm1.85 2.51c.03-.2-.04-.31-.25-.31h-1.04l-.14.73h1.05c.2 0 .34-.1.38-.31v-.1Zm.1-1.47c.04-.2-.03-.31-.24-.31h-.9l-.14.73h.9c.2 0 .35-.1.38-.31v-.1Z" fill="#2B3990"/><path d="M22.87 30.5c-.03.24-.14.45-.28.55a.99.99 0 0 1-.59.18h-.93c-.25 0-.46-.07-.52-.18-.1-.1-.14-.31-.07-.55l.2-1.2c.04-.24.14-.45.28-.55.14-.1.35-.18.6-.18h.93c.24 0 .45.07.52.18.1.1.14.31.07.56l-.21 1.19Zm-.45-1.23c.03-.14-.04-.2-.17-.2h-.63c-.14 0-.24.06-.28.2l-.2 1.2c-.04.13.03.2.17.2h.62c.14 0 .25-.07.28-.21l.2-1.19Zm2.39 1.89c-.48.03-.86.07-1.25.07a.5.5 0 0 1-.38-.14.54.54 0 0 1-.07-.42l.14-.87c.04-.18.1-.35.25-.46.13-.1.27-.17.45-.17h1.18l-.1.49h-.98c-.1 0-.17.03-.17.14l-.14.73c0 .04 0 .07.03.1.04.04.04.04.07.04.21 0 .56-.03 1-.07l-.03.56Zm1.84-1.22.14-.74h.63l-.35 2h-.66l.14-.74h-.66l-.14.73h-.66l.35-1.99h.66l-.14.74h.7Zm2.88.69a.73.73 0 0 1-.24.46.73.73 0 0 1-.45.17h-.87a.57.57 0 0 1-.41-.17c-.1-.1-.1-.25-.07-.46l.13-.87c.04-.17.1-.35.25-.45.14-.1.27-.18.45-.18h.87c.17 0 .3.07.41.18.07.1.1.24.07.45l-.14.87Zm-.48-.8c0-.1-.04-.14-.14-.14h-.45c-.1 0-.18.04-.18.14l-.14.74c-.03.1.04.13.14.13h.45c.1 0 .18-.03.18-.13l.14-.74Zm2.15 1.37h-1.42l.34-2h1.29a.5.5 0 0 1 .38.14c.07.1.1.21.1.32-.03.1-.07.2-.14.31-.07.07-.14.14-.24.14.1.04.2.07.24.18.07.1.07.2.07.35a.83.83 0 0 1-.2.38c-.1.1-.28.17-.42.17Zm0-.63c0-.04 0-.07-.04-.1-.03-.04-.03-.04-.07-.04h-.52l-.07.31h.52c.04 0 .07 0 .1-.03l.08-.11v-.03Zm.03-.77c0-.04 0-.07-.03-.1-.04-.04-.04-.04-.07-.04h-.42l-.07.35h.42c.03 0 .07 0 .1-.04.04-.03.04-.07.07-.1v-.07Zm1.22-.56c.45-.04.87-.07 1.25-.07.17 0 .27.03.38.14.07.1.1.24.07.42l-.24 1.46h-.6v-.17c-.13.07-.24.14-.38.17-.14.04-.24.07-.3.07h-.15c-.17 0-.28-.03-.38-.14a.54.54 0 0 1-.07-.42l.04-.17a.8.8 0 0 1 .2-.42c.1-.1.28-.14.42-.14h.76l.04-.14c0-.03 0-.07-.04-.1-.03-.04-.03-.04-.07-.04-.17 0-.34 0-.52.04-.2 0-.34.03-.48.03l.07-.52Zm.41 1.46c.14 0 .28-.03.46-.06l.03-.21h-.52c-.04 0-.07 0-.1.03l-.07.1v.04c0 .04 0 .07.03.1.04.04.04.04.07.04h.1v-.04Zm2.89-.76.13-.74h.66l-.34 2h-.66l.14-.74h-.66l-.14.73h-.66l.35-1.99h.66l-.14.74h.66Zm2.88.69a.73.73 0 0 1-.25.46.73.73 0 0 1-.45.17h-.86a.57.57 0 0 1-.42-.17c-.1-.1-.1-.25-.07-.46l.14-.87c.03-.17.1-.35.24-.45.14-.1.28-.18.45-.18h.87c.17 0 .31.07.42.18.07.1.1.24.07.45l-.14.87Zm-.52-.8c0-.1-.04-.14-.14-.14h-.45c-.1 0-.18.04-.18.14l-.14.74c-.03.1.04.13.14.13h.45c.1 0 .18-.03.18-.13l.14-.74Zm3.26 1.37h-1.42l.34-2h1.29a.5.5 0 0 1 .38.14c.07.1.1.21.1.32-.03.1-.07.2-.14.31-.07.07-.14.14-.24.14.1.04.2.07.24.18.07.1.07.2.07.35a.83.83 0 0 1-.2.38.6.6 0 0 1-.42.17Zm.03-.63c0-.04 0-.07-.03-.1-.04-.04-.04-.04-.07-.04h-.52l-.07.31h.52c.03 0 .07 0 .1-.03.04-.04.04-.07.07-.11v-.03Zm.04-.77c0-.04 0-.07-.04-.1-.03-.04-.03-.04-.07-.04h-.41l-.07.35h.41c.04 0 .07 0 .1-.04.04-.03.04-.07.08-.1v-.07Zm2.29 1.4.34-2.03-.45.14-.1-.42.73-.32h.59l-.45 2.62h-.66Zm1.25-.56c.48.03.86.06 1.07.06.07 0 .1 0 .14-.03.04-.04.07-.07.07-.14l.07-.35c-.24.04-.45.07-.66.07h-.24c-.18 0-.28-.03-.38-.14a.54.54 0 0 1-.07-.42l.07-.49a.93.93 0 0 1 .24-.49.9.9 0 0 1 .55-.17h.7c.24 0 .41.07.52.17.1.1.1.28.07.5l-.24 1.29a.77.77 0 0 1-.28.52.88.88 0 0 1-.56.17c-.34 0-.73-.03-1.21-.07l.14-.48Zm.97-.91c.14 0 .28 0 .45-.04l.07-.42c.03-.14-.04-.2-.17-.2h-.35c-.14 0-.24.06-.28.2l-.07.32c0 .03 0 .07.04.1.03.04.03.04.07.04h.24Zm2.43 1.5c-.42 0-.87-.04-1.36-.07l.1-.49c.56.04.94.07 1.22.07.07 0 .1 0 .14-.03.04-.04.07-.07.07-.14l.04-.14c.03-.14-.04-.21-.18-.21h-.76l.1-.53h.7c.14 0 .24-.07.27-.2v-.08c.04-.14-.03-.2-.17-.2h-1.08l.1-.53h1.26c.24 0 .41.07.52.17.1.1.1.28.07.5-.04.13-.07.27-.18.34a.5.5 0 0 1-.3.21c.17.07.3.18.34.42v.32a.77.77 0 0 1-.28.52c-.17 0-.38.07-.62.07Zm3.22-1.82c-.03.21-.17.39-.34.56l-.21.14-.9.6h1.25l-.1.52h-2.02l.14-.7 1.49-.98.04-.17c.03-.14-.04-.21-.18-.21h-1.04l.1-.53h1.18c.25 0 .46.07.53.18.1.1.13.31.06.56v.03Zm3.03-.21-.1.5h-.95l-.24 1.46h-.66l.35-2h1.6v.04Zm-.35 1.43h.66l-.1.56h-.67l.1-.56Zm-25.54-14.14h-8.54l-.38 2.06h2.63l-1.45 8.28h6.31c.97 0 1.7-.21 2.22-.67a3.5 3.5 0 0 0 1.04-2.13c.07-.42.07-.77.04-1.05-.14-.83-.59-1.4-1.35-1.6a2.8 2.8 0 0 0 1.07-.77 3 3 0 0 0 .63-1.43c.17-.91.03-1.58-.32-2-.27-.48-.93-.7-1.9-.7Zm-.66 7.09-.04.28c-.1.6-.45.87-1.04.87h-2.95l.35-2.06h2.95c.59 0 .83.31.73.9Zm.27-4.16-.03.28c-.1.6-.45.87-1.04.87h-2.5l.35-2.06h2.5c.58.04.83.32.72.91Zm11.28-3.11h-3.68a3.6 3.6 0 0 0-2.36.7c-.55.46-.9 1.22-1.07 2.27l-.84 4.75c-.17 1.05-.06 1.78.32 2.27.38.5 1.07.7 2.11.7h3.68a3.6 3.6 0 0 0 2.36-.7c.56-.45.9-1.22 1.11-2.27l.84-4.75c.17-1.05.07-1.78-.32-2.27-.41-.45-1.1-.7-2.15-.7Zm-.2 2.97-.84 4.75c-.1.6-.45.88-1.04.88h-2.5c-.59 0-.83-.28-.73-.88l.84-4.75c.1-.6.45-.87 1.04-.87h2.5c.59 0 .83.28.72.87Zm10.75-2.79-4.61 6.35 1.1-6.35h-2.66l-1.8 10.34h2.8l4.62-6.36-1.11 6.36h2.67l1.8-10.34h-2.8Zm12.88.69c-.38-.45-1.08-.7-2.12-.7h-6.18l-1.8 10.35h2.64l.52-2.97h3.54a3.6 3.6 0 0 0 2.36-.7c.55-.46.9-1.22 1.1-2.27l.25-1.47c.14-1.01.07-1.78-.31-2.24Zm-2.36 2.24-.24 1.47c-.1.6-.46.87-1.05.87h-2.95l.56-3.25h2.95c.59.04.83.32.73.91Z" fill="#fff"/></svg>