<svg viewBox="0 0 130 22" fill="none" xmlns="http://www.w3.org/2000/svg"><g clip-path="url(#a)"><path d="M126.23 7.8c.39-.23.61-.03.67.52-.16.52-.35.71-.54.58h-.1c-.1.04-.19.04-.22 0-.03-.06-.03-.16.03-.26.04-.13.04-.22-.03-.32-.16-.1-.16-.23 0-.36l.06-.03c.04-.07.07-.1.13-.13Zm-87.88 2.01h.16c.22-.06.42-.03.64-.03.16 0 .35.03.45-.06.28-.3.16-.72-.07-.98-.19-.2-.5-.26-.73-.39-.03-.03-.16-.06-.2-.1.1.23.23.52.2.75 0 .2-.1.4-.22.55-.07.1-.13.2-.23.26Z" fill="#000"/><path d="M42 10.63c.22-.5 1.33-.91.22-1.2.06-.33.06-.66.76-.66.1-.22-.19-.68-.54-.52-.03.04.06-1.1-.57-1.1-.64.03-.58.16-.32.49.7.94-.67 1.17-1.15 1.65a4.7 4.7 0 0 0-.96 1.76c-.26.71-.42 1.43-.6 2.14-.1.36-.2.72-.33 1.08-.03-.07-.1-.1-.13-.17a.61.61 0 0 1-.16-.45c0-.26.07-.55.13-.81.03-.17.1-.3.16-.43.07-.13.13-.29.16-.42.03-.2.03-.36-.03-.55-.1-.33-.29-.65-.38-1-.04-.2 0-.37.06-.56-.35.2-.54.58-.57.97-.04.3 0 .56.03.85l.1.84c.06.56.15 1.14.28 1.7.1.35.29.9.77.84.12-.04.19-.23.25-.33.2-.42.2-.87.23-1.33.03-.23.1-.45.1-.68 0-.81 1.05-1.01 1.65-1.3-.19.58-.38 1.17-.48 1.79-.06.32-.06.65-.06.97 0 .33.06.65.13.98.03.26.28.13.35-.04.1-.26.13-.52.1-.78 0-.13-.04-.29-.04-.42s0-.26-.03-.36c.03.07.06.2.13.26.1.1.16-.2.16-.22 0-.07 0-.13.03-.17.03-.13.13-.39.32-.35.13.03-.03.42 0 .52.03.26.29.26.45.39.1.06.22.19.32.29.1.13.12.26.12.39 0 .06 0 .16-.03.23 0 .03-.03.16-.06.16-.07.03-.16-.16-.2-.2l-.28-.29-.1-.13c-.03-.03-.1-.06-.13-.1-.03-.03-.06-.06-.12-.06-.03.1.06.23.1.29.02.1.09.2.12.3.06.09.1.19.13.32.06.2.1.39.16.55.03.13.16.26.29.32.16.1.38.04.47-.13.16-.22.16-.55.2-.84v-.71c0-.2-.07-.36-.1-.56-.03-.22-.03-.45-.06-.68-.04-.45-.07-.97-.26-1.4-.1-.2-.32-.26-.54-.22a.87.87 0 0 0-.42.1c-.19.06-.35.25-.5.38.44-1.56 2.26-.16 2.77-.97.54-1.07-1.63-.59-2.1-.42Zm-1.7-.1c.06.06.26.1.35.1h.23c.06 0 .12.06.1.13l-.04.03c-.03.06-.13.1-.2.13-.06.03-.12.06-.18.13-.26.16-.52.36-.77.52 0-.55.22-1.53.57-1.92.23.03.45.16.67.23-.12.06-.25.13-.41.16-.06.03-.13.03-.22.07a.45.45 0 0 0-.2.06c-.03.1.04.3.1.36Zm1.05 1.95c.1-.1.23-.2.36-.3a.6.6 0 0 1 .41-.19c.03 0 .06 0 .13.03.25.13.25.49.25.75.04.26.04.52.04.78-.16-.03-.3-.06-.45-.06l.03-.13c.06-.23.16-.88-.25-.85-.16 0-.3.13-.42.23-.06.06-.13.16-.2.26-.02.06-.06.1-.09.16 0 .03-.03.16-.1.1-.03-.03 0-.1 0-.13 0-.1.04-.16.07-.26.06-.16.13-.3.22-.4Zm20.83-2.57c-.04-.23-.23-.23-.39-.32-.22-.13-.45-.2-.7-.26-.1-.04-.29.06-.42.06a.32.32 0 0 1-.25-.1c-.13-.1-.16-.29-.2-.45l-.02-.46c0-.06 0-.13-.04-.22 0-.07 0-.13-.03-.2a2.56 2.56 0 0 0-.22-.39c-.07-.1-.16-.26-.29-.26h-.41c-.1 0-.23.03-.3.1-.15.16-.12.39-.06.62 0-.04.1-.13.1-.17.03-.03.1-.1.16-.1.1.04.06.17.1.27 0 .1.03.19.03.29 0 .23-.03.42-.07.65-.03.45-.12.97-.32 1.36-.06.1-.12.2-.19.26-.1.13-.16.26-.32.36-.12.1-.28.13-.41.16-.13.04-.23.1-.32.13-.16.07-.32.1-.45.13-.06 0-.32.04-.32.13 0 .07.13.17.2.2l.28.32c.16.2.38.55.67.46.1-.04.2-.1.29-.1.1.23-.13.39-.2.58a2.43 2.43 0 0 1-.8 1.14l-.28.2c-.03 0-.1.03-.16.06 0 0-.03 0-.03.03-.03 0-.03.04-.06.04h-.32c-.03-.04-.07-.04-.1 0-.03 0-.03.03-.06.03v.03c-.07.1 0 .16.03.26.16.26.57.3.83.26.06 0 .16 0 .22-.03.32-.03.67-.13.93-.33.1-.06.16-.16.25-.22.07-.07.2-.23.2-.3 0-.8.41-1.59.92-2.17.26-.33.55-.62.9-.85.25-.2.54-.45.9-.45.12 0 .31.03.44-.03.19-.13.32-.5.29-.72Zm-1.76-.16c0 .03-.07.1-.1.13-.1.1-.25.26-.41.23-.16 0-.1-.1-.1-.23.03-.16.16-.42.2-.52 0-.03.06-.03.06 0a.4.4 0 0 1 .25.23c.03.06.1.06.1.16Z" fill="#000"/><path d="M62.75 13.9c-1.25-.84-2.17-.7-3.54-.8l.03.03c1.08.23 1.98 1.82 2.78 1.82.25 0 1.02.71 1.02 0 0-.4-.07-.75-.29-1.04Zm13.35-1.2c-.23-1.2.06-1.33.8-2.43.06-.75-.2-.75-.83-1.17-.23-.26 0 .65-.32 1-.23.36-.36.98-.77 1.2-.16.37-.48 1.4.41 1.18.26.81-.41 1.82.26 2.47.7.71.54-2.08.54-2.54l-.1.3Zm4.98-2.89c.06.17.51.62.9.17.5-.62-.26-.72-.55-1.01a1.9 1.9 0 0 0-.7.03c.41.03.48.46.35.81Zm8.88-1.95c-1.09-.06-3.61-.13-4.12 1.2-.42-.19-.64-.22-1.03-.29.32.78.61.46.68 1.27.03.36.15.55.41.81.38.4.16-.97.22-1.1.13-1.3.35-.65.8.06-.45.2-.48.23-.73.46.19.2.41.3.67.3l-.07.02c.04 0 .07 0 .07-.03.13 0 .25-.03.41-.1.3-.16.61-.32.9-.35.16-.13.44-.17.8-.04.57 0 .67.1 1.2-.45.8-.98.58-.94-.21-1.76Zm-2.62 1.86c.19-.36.16-.69-.16-.98.25-.13.54-.2.83-.2.13.33-.13 1.01-.67 1.18Zm1.47-1.27c.1 2.4 1.4-.2 0 0Zm16.63-.39c.48 0 .8.62.45.97-.99 1.01-1.85 1.56-1.4 2.96.35-.3.38-.58.5-.97-.18 0-.4-.07-.57-.17.54-.74.77-.84 1.53-.45.32.49-.73 1.27-.44 1.56.25.26-1 .65-1.18 1.04-.58-.1-.42-1-.58-1.37-.1.13-1.3 1.43-1.3 1.34-.49 0-.14-.75 0-.95.38.2 1.1-.94.89-1.43.57.13.6-.42.89-.87.48-.75-.32-.72-.6-1.47.7.46 1.2 0 1.81-.2Zm9.87-.49c.22-.03.67.2.83.26.29.13.29.46.58.59.35.16.73.16 1.08.06.35-.1.67 0 .93.23.25.23.7.71.22.9-.54.2-1.15.17-1.69.33.22-.35.64-.61 1.02-.9-1.08-.46-2.3.51-3.42.51-1.02 0-.95.23-1.27 1.24 0 1-.8 1.14-.8.03 0-.49.38-1.66.57-2.08.07.33.23.65.3.98.53-.78 1.3-.91 2.2-.98-.2-.3-.64-.65-.7-1 0-.1.06-.17.15-.17Z" fill="#000"/><path d="M117.2 10.1c-.2.17-.36.43-.52.6.36-.04.93.09 1.06.48.19.42-1.37.32-1.57.32.13-.32.13-.97.23-1.5-.32.04-.7.14-.96.3.6.81-.86 1.43-1.47 1.79.06-.81 1-1.27.73-2.08.83.75 1.92-1.24 2.5.1Zm11.65 2.83c-.16 1.14-1.47 2.64-2.62 1.43-.29-.65 1.4-1.33.55-2.04.44-.36.44-1.43-.17-1.01-.54.3-.95.58-1.62.68.5-.3.92-.68 1.37-1.04.2-.13.38-.26.57-.36.1-.06.16-.16.23-.26 0-.03.16-.32.1-.32.12 0 .31-.13.4 0 .07.06.1.16.2.13s.16-.13.26-.16a.7.7 0 0 0 .28-.23c.07-.1.03-.2.03-.3a.52.52 0 0 0-.22-.45.36.36 0 0 0-.25-.1 1.19 1.19 0 0 0-.48 0c-.13.04-.26-.03-.42-.03a2 2 0 0 0-.76.13c-.23.07-.48.07-.7.2-.26.13-.49.29-.77.35-.07-.13-.1-.29-.3-.32-.15-.03-.21.2-.25.32l-.16.52c-.03.13 0 .26 0 .4v.16c0 .06.07.1.07.16s-.03.13-.03.2c0 .16.03.25.1.38-.04-.06.12-.32.18-.39.07-.13.13-.22.23-.32.16-.2.32-.4.5-.52.4-.3.87-.49 1.32-.65.25-.1.5-.16.76-.26.13-.03.3-.13.32.1 0 .13-.1.26-.16.35-.1.1-.16.23-.28.3l-.2.06c-.06.03-.1.13-.16.16-.28-.1-.8-.29-1.05 0-.51.17-1.21.72-.41 1.1-.45.33-1.8 1.67-.36 1.67-.16.26-1.75 1.56-1.08 1.72.77-.65 1.53-1.37 2.3-1.98-.1.71-1.06 1.65-.2 2.3.68.36 1.7.36 2.43.2 1.25-.03.64-1.43.45-2.28Zm-29.19-2.63a1.6 1.6 0 0 0-.57.3c-.2.12-.35.32-.6.28-.26-.03-.23-.29-.2-.48.03-.26.06-.62-.22-.75.64-.3 2.84-.94 1.4-1.82-.38-.23-.99.3-1.12.68.3-.29.42-.26.68-.45-.07.55-1.92 1.23-1.67 1.79.07-.3.32 1.1.32 1l-.16 1.1c-.22-.42-.31-.7-.8-.32.04-.49.93-4.06-.19-4.06-.28.03-.5.03-.54.33.58.22.07.61-.25.71-.16.03-.36.13-.45-.06-.1-.2.03-.43-.22-.56-.58-.35-.13.88-.16 1.1 0 .04-.45.2-.52.37-.19.45.23.22.42.32.2.1.22.42.22.62.07.52 0 1.13-.16 1.62-.32.52-1.66 1.17-2.23 1.27.13.03.45.45.57.45a5.59 5.59 0 0 1 1.5-.94c.32-.16.7-.36 1.06-.42.13-.03.22.3.22.3.26-.07.38.32.58-.33.06 0 .5-.43.8-.26 0 .55 0 1.46.5 1.72.61-.91-.25-1.82 1.19-2.3.19.7.13 1.49.13 2.23 0 .4 0 .75.03 1.14l.1.55c0 .07.09.4.06.4.28-.53.25-1.08.25-1.63 0-.59 0-1.2.2-1.79.06-.62-.23-1.23.47-1.4.03 0 .8-.03.83-.16.1-.65-1.08-.65-1.47-.55Zm-4.28.39c.1.03.2.07.3.07.18.29-.04.61-.4.8 0-.22.07-.64.1-.87Zm.1 1.27c.16-.17.29-.36.45-.52l.29-.3c-.13.52-.1.82-.74.82Zm.74-1.63c-.39-.32-.45-.06-.74-.22.1-.46.38-.82.8-1.04-.03.42-.06.84-.06 1.26Z" fill="#000"/><path d="M94.78 13.74c-.13-.03-.13-.1-.03-.2.06 0 .06-.02-.04-.15-.16-.04-.25 0-.35.03-.1.06-.16.1-.16.2 0 .16 0 .22-.03.22-.03.03-.03.1-.03.26l.03.1c.2.1.38.16.54.2a.8.8 0 0 0 .23-.17.7.7 0 0 1 .19-.3c.03-.02.03-.02.03-.06 0-.03 0-.06-.03-.06a.9.9 0 0 1-.35-.07Zm1.75-.64c-.03 0-.06 0-.1.03-.06.03-.06.03-.06 0-.1.06-.12.16-.06.22.03.1 0 .2-.06.26-.07.26 0 .4.19.4a.41.41 0 0 1 .25-.07c.13-.03.2-.1.26-.26v-.36c-.16-.2-.29-.3-.42-.23Zm12.01 2.66c.03-.52.1-.88.16-1.04.16-.75.26-1.6.2-2.53-.52.06-1.03.16-1.57.29 0 .45.03.94.13 1.46.03.13.06.33.06.59-.13.22-.22.29-.26.22a4.5 4.5 0 0 0-.41-1.2c-.1-.16-.16-.42-.13-.84a.92.92 0 0 0-.32-.07c-.13 0-.22-.1-.25-.3-.1-.32-.1-.54 0-.67.03-.04.12-.1.22-.26.06-.07.2-.07.35.03-.03.06-.06.13-.03.16.06 0 .13-.03.2-.1 0-.29.05-.61.15-.94.06-.06.1-.2.06-.32-.03-.17.13-.33.48-.56.1-.03.16 0 .23.07l.1.29c-.07.2-.13.3-.23.26-.1.07-.16.16-.16.36l-.1.62c0 .06.1.03.3-.04.31-.1.7-.16 1.1-.22 0-.33-.05-.62-.18-.88-.16-.1-.2-.23-.07-.36.1-.1.16-.2.2-.26.12-.1.31-.06.5.16.17.17.2.46.13.82-.03.19-.03.35.07.48.16.07.28.07.38 0 .22 0 .32.2.32.59a.53.53 0 0 0-.13.23c-.06.16-.13.22-.16.22h-.35a8.8 8.8 0 0 1-.16 1.73c-.16.35-.29.71-.35 1.07-.06.26-.22.58-.41.97-.07 0-.07 0-.07-.03Zm.96-7.7c.22.06.29.2.19.42-.03.03-.03.07-.06.07l-.07.22c-.06.17-.22.3-.48.46-.19.06-.28.06-.25 0 .03-.07-.07-.07-.32 0-.58.16-1.12.26-1.6.3-.28-.07-.44-.2-.44-.37 0-.03 0-.1.03-.26.03-.13.03-.2.06-.26.16-.16.29-.29.35-.32.23 0 .35.06.42.23a5.5 5.5 0 0 1 2.17-.5Zm5.72 3.74c.19-.2.38-.3.54-.26.03 0 .1.06.25.16-.03 0 0 0 .07.03.06.07.06.2 0 .36-.13.16-.26.26-.39.23-.03-.07-.1.03-.22.26.26-.1.54-.23.8-.36.29-.16.6-.23.96-.23.22.1.28.33.22.65-.22.33-.38.75-.48 1.27-.06.45-.03.75.16.84.29.2.6.26.9.17.38-.17.57-.33.54-.56a2.71 2.71 0 0 1-.29-1.56c-.03-.16 0-.16.06-.03.07.16.13.36.26.49s.29.26.42.42c.12.16.19.42.1.62a2.85 2.85 0 0 1-1.3 1.36c-.37.1-.6.13-.72.07a1.58 1.58 0 0 0-.22-.1c-.16-.07-.23-.1-.26-.1-.54-.26-.64-.94-.29-2.11.04-.16-.1-.2-.38-.06-.16.13-.29.19-.35.19-.29.07-.54.2-.77.33-.06.19-.1.22-.03.06-.06.16-.1.23-.16.26-.06.1-.13.2-.16.3-.1.32-.45.61-.64.87s-.54.55-.9.52c-.34-.03-.25-.36-.12-.55.03-.04.07-.13.13-.16.06 0 .16.06.22.03.23-.04.42-.2.58-.4.03-.06.48-.7.44-.74-.06-.03-.1 0-.19.07a.83.83 0 0 1-.54 0c-.13-.17-.16-.26-.06-.36.16-.13.28-.26.31-.36.2-.3.32-.39.39-.3-.03.1-.1.2-.1.33.32 0 .6-.42.74-.68.16-.36.28-.68.48-.97Zm9.26-3.16c-.04.36-.2.85-.55 1.4-.06.1-.06.2.03.26.23.23.32.58.32 1.1a2.05 2.05 0 0 1-.83 1.53c-.1.1-.16.13-.22.07-.13-.13-.06-.33-.13-.52l-.19-.43c.26 0 .51.17.73.1.23-.06.39-.45.36-.65-.03-.49-.23-.71-.51-.65-.16.03-.2-.1-.13-.39a.42.42 0 0 1 .13-.39c.16-.2.32-.42.38-.68.03-.06.03-.13 0-.16 0-.03-.03-.03-.1-.03a.54.54 0 0 1-.16.06 1.2 1.2 0 0 0-.44.2c-.07.03-.1.03-.13.06 0 .07.03.1.06.1a.4.4 0 0 1 .04.49c-.1.16-.2.58-.3 1.23.04.26 0 .45-.03.65a.98.98 0 0 0-.03.52c.1.32.03.62.03.97 0 .3.04.59.16.88.1.3.2.59.07.88-.03.1-.1.1-.16 0a7.4 7.4 0 0 1-.48-2.8c0-1.07.13-1.95.35-2.6.06-.16.03-.25-.13-.25-.22.03-.32-.1-.38-.33a.58.58 0 0 1 .26-.58c.06 0 .38-.13.92-.4.03-.03.07-.03.1-.06.6-.36.92-.2.96.42Zm-36.57 2.15c.07-.2.2-.36.3-.46.12-.1.21-.22.28-.39a4.9 4.9 0 0 0-.74.26c-.64.69-1.02 1.1-1.18 1.2-.13.1-.22.2-.22.3l-.1.26c-.06.52.2.52.8-.03.38-.33 1.02-.5 1.98-.5.06 0 .13.04.16.1.03.07 0 .14-.03.27-.38.78-1.66 2.1-3.87 4.06-.12.1-.19.13-.15.16.03.03.1 0 .22-.03.48-.33.83-.55 1.08-.65a11.09 11.09 0 0 0 3.26-2.86 2 2 0 0 0 .03-1.66c-.44-.49-1.05-.49-1.82-.03Z" fill="#000"/><path d="M87.82 12.48c-.13-.43-.45-.56-.96-.36-.2.1-.29.26-.32.45l.32.2c.1.1.16.26.22.39.1.26.45.3.6.06a.8.8 0 0 0 .14-.74Zm-6.74.87c-.13-.55.92-1.75.03-2.01.13-.1.2-.26.16-.46-.06-.29-.32-.39-.7-.29-.07.03-.1.03-.13 0-.03 0-.03 0-.06.03a5.9 5.9 0 0 1-.26-1.49c0-.71-.86-1.3-1.02-2.01-.29.29-.2.74 0 1.2-.38.1-.67.2-.96.45.2-.1.38-.16.58-.22-.23 1.26-1.67 1.75-2.2 2.98.09-.06.18-.16.28-.22v.16a10.4 10.4 0 0 1 1.6-1.3s0 .03-.04.03c-.06.13-.03.26.07.4.06.09.06.25.06.45 0 .13-.06.22-.16.22-.38.07-.67.17-.9.3-.15.03-.22 0-.18-.13-.04-.04-.1-.07-.13-.13-.03.06-.1.1-.16.1-.13.1-.2.25-.16.48 0 .03.03.1.13.2.06.1.1.16.12.16.07.13.23.2.39.16.16.03.41 0 .8-.06.12-.04.22-.07.32-.07v.3c-.83.32-1.35.61-1.57.87-.06.1-.13.16-.2.16-.18.04-.25.2-.21.52 0 .17.03.26.12.33.07.06.16.03.3-.07.34-.22.53-.16.63.2-.06.39 0 .55.29.52.32-.07.54-.33.7-.72 0-.13.06-.22.16-.29.2-.23.32-.75.38-1.53l.74-.39v-.06c-.23.1-.42.16-.48.2-.1.06-.2.06-.23 0-.03-.07 0-.14.07-.23.22-.04.38-.1.5-.2 0-.06.04-.13.1-.13.07 0 .16 0 .23-.03.03.06.03.13.06.2.26.58.2 1.03-.54 1.23-.06-.1-.1-.2-.06-.3-.74 1.27.44.88 1.05.56.7.71.45 2.18 1.56 2.66-.03-1.04-.89-2.01-1.08-2.73Zm-2.84.91a1.63 1.63 0 0 1-.7-.29c0-.13 0-.26-.04-.39.26-.23.58-.45.9-.68l.12-.03c.04 0 .04.03.04.06 0 .72-.1 1.14-.32 1.33Zm.95-3.34a.87.87 0 0 1-.03-.49c-.03-.36-.16-.55-.32-.65l.58-.46c.06.2.19.46.22.69.1.26.13.52.16.81l-.6.1Zm1.4.55c.1-.03.17-.03.26-.03.07 0 .1-.04.13-.07-.06.23-.19.36-.32.62 0-.16-.03-.33-.06-.52Zm-30.77-2.86c.06-.06.16-.13.22-.2.22-.64-.41-1.13-.8-1.52l-.19-.2c.32.85-.57 2.34-1.3 2.4-.07.43-.07.79.05 1.21.13-.13.3-.42.52-.45.12-.04.35-.1.38.1.03.1-.03.22-.03.35 0 .26 0 .49.03.75.03.23.13.68.41.58a.9.9 0 0 0 .36-.26c.19-.26-.07-.52-.1-.78-.03-.35 0-.78-.03-1.13 0-.2-.03-.33.1-.5.09-.15.25-.22.38-.35Z" fill="#000"/><path d="m53.71 12.02-.35-.2a1.03 1.03 0 0 0-.45-.12 1.67 1.67 0 0 0-.8.06c-.6.2-.6.1-1.2.16a.71.71 0 0 1 .12-.55v-.1c0-.03 0-.1-.03-.13-.03-.1-.07-.16-.16-.2-.07-.02-.13-.02-.2-.06-.12 0-.25-.1-.38-.16-.1-.03-.12.59-.12.65 0 .23.03.46.03.68 0 .04-.07.07-.1.07-.06.03-.13.03-.19.06-.13.07-.25.1-.41.13-.23.04-.42.07-.64.07-.1 0-.2 0-.3.03-.31.1-2.03.16-2.26.49-.16.62-.06.84.51.84.96-.48 2.3-.97 3.39-1.17 0 1.27.03 2.57.29 3.8.41-.42.16-1.33.41-1.81.03-.33.06-.69.06-1.01 0-.26.04-.49.04-.75v-.2c0-.1 0-.12.06-.19.06-.03.16-.03.22-.03h.42l.6-.03c.2 0 .39 0 .58.03.2 0 .38.03.6.03.13 0 .26 0 .39-.03.03 0 .13-.03.13-.07 0-.03 0-.06-.03-.1 0-.03-.1-.12-.23-.19Zm-2.21-1.1c-.15 0-.25-.04-.34-.07-.26-.1-.42-.39-.48-.81-.45.3-.58.33-.6.36h-.1c-.13 0-.2-.03-.26-.1a.29.29 0 0 1-.03-.23v-.03l.03-.03c.29-.23.6-.52.93-.85 0-.1.03-.29.1-.58.09-.59.15-.94.18-1.01.1-.32.3-.39.48-.39h.13c.13.03.26.16.2.49-.1.2-.17.45-.17.71.48-.42.61-.61.64-.68-.06-.03-.1-.1-.1-.13v-.06c.04-.07.1-.1.2-.13 0 0 .06-.04.13-.2 0-.1.06-.2.19-.3l.03-.02.03.03c.03 0 .06.03.1.03.03 0 .06 0 .12-.03l.07-.03.03.03c.16.16.16.39.03.68a8.45 8.45 0 0 1-1.7 1.89c.07.35.23.52.55.52.07 0 .16 0 .23-.04.22-.06.41-.16.54-.26.03 0 .03-.03 0-.03a1.2 1.2 0 0 1-.13-.97c0-.07.03-.1.1-.1.06 0 .1.06.1.13.02.13.09.13.15.13.03 0 .1 0 .16-.03h.1s.13 0 .13.16c.1.55-.07 1-.42 1.4-.16.19-.45.32-.83.42-.2.13-.35.13-.51.13Zm18.75-1.37c.32-.26.67-.65 1.06-1.13l.03-.04c.1-.26.16-.42.13-.52-.1-.2-.32-.16-.7.04-.13.2-.17.29-.1.29 0 .3-.23.65-.67 1.07l-.29.3h-.32c-.2.1-.38.22-.57.32-.42.23-.87.39-1.25.68-.06.03-.13.07-.2.07-.37.26-.76.58-1.05.45.1-.36.32-.62.61-.65.13.2.29.26.51.1.07-.13.13-.26.2-.33.09-.1.15-.2.22-.26.06-.1.1-.22.1-.32-.04-.1-.07-.13-.17-.07-.25.07-.22-.2.07-.78.06-.06.1-.13.06-.22 0-.04-.06-.07-.16-.07-.64.3-.96.85-.99 1.66.03.06.03.1.07.13-.7.23-1.28 1.4-1.28 1.98 0 .16.16 1.04.45 1.04.35 0 .25-.84.41-.84.35-.75.51-1.17 1.57-1.66.31-.13.67-.33 1.02-.49h.03c.03 0 .1-.03.16-.06.13-.04.22-.1.35-.17l.2-.1c-.07.04-.14.04-.17.07.39-.13.8-.23 1.18-.2a3.56 3.56 0 0 1-2.55 1.44c-.74 0-.32.94 0 .97.25-.3.67-.52 1.02-.68-.25.42-.77.78-.51 1.27-3.2 1.1-.77 2.1.42 2.92.7.49.92-1.66.98-1.92.13-.39 1-.2.68-.9 0-.56-1.06-.6-1.4-.5.34-.38.95-.74.82-1.33 2.17.04 1.63-1.43.03-1.56Zm-.99 4.1c.07.03.1.06.13.13l.2-.1c0 1.24-.8 1.72-1.9 1-1.27-.64 1.45-1.32 1.73-1.45-.03.13.2.29-.16.42Z" fill="#000"/><path d="M68.72 9.1c0 .22.1.35.25.42.26-.03.39-.13.45-.3l.1-.32c.03-.16 0-.32-.03-.49-.16-.16-.32-.22-.45-.22-.1.03-.16.03-.23 0-.25.06-.35.32-.22.74.1.1.13.13.13.17Zm-22.64 9.97c0-.16-.13-.26-.35-.26-.2 0-.29.1-.29.26 0 .1.16.2.51.3.55.03.87.32.96.87-.03.5-.41.78-1.18.82-.73 0-1.12-.3-1.15-.82h.73c.04.2.16.3.42.3s.35-.1.35-.3c0-.16-.2-.26-.51-.32-.67-.13-.96-.42-.96-.85.03-.45.39-.71 1.12-.78.67 0 .99.26 1.05.78h-.7Zm2.56 0c0-.16-.13-.26-.36-.26-.19 0-.28.1-.28.26 0 .1.16.2.5.3.55.03.87.32.97.87-.04.5-.42.78-1.19.82-.73 0-1.11-.3-1.15-.82h.74c.03.2.16.3.41.3.26 0 .36-.1.36-.3 0-.16-.2-.26-.52-.32-.67-.13-.95-.42-.95-.85.03-.45.38-.71 1.11-.78.67 0 1 .26 1.06.78h-.7Zm2.04-1.85v.65h-.83v-.65h.83Zm-.03 1.14v2.63h-.8v-2.63h.8Zm8.78 2.64h-.8v-3.78h.8v3.77Zm5.01-1.93c0-.16-.13-.26-.35-.26-.2 0-.29.1-.29.26 0 .1.16.2.51.3.55.03.87.32.96.87-.03.5-.41.78-1.18.82-.73 0-1.12-.3-1.15-.82h.74c.03.2.16.3.41.3.26 0 .35-.1.35-.3 0-.16-.19-.26-.5-.32-.68-.13-.97-.42-.97-.85.04-.45.39-.71 1.12-.78.67 0 1 .26 1.05.78h-.7Zm1.44-.71v-.52h.77l.03.52h.57v.52h-.57v1.23c-.03.33.06.46.28.43.1 0 .2 0 .26-.04v.46c-.22 0-.42.03-.64.03-.51.03-.77-.26-.73-.84v-1.3h-.51v-.52h.54v.03Zm2.55-1.14v.65h-.83v-.65h.83Zm0 1.14v2.63h-.8v-2.63h.8Zm.83 0v-.52h.77l.03.52h.58v.52h-.58v1.23c-.03.33.07.46.29.43.1 0 .2 0 .25-.04v.46c-.22 0-.41.03-.63.03-.51.03-.77-.26-.74-.84v-1.3h-.5v-.52h.53v.03Zm5.08 0v-.52h.8v.52h.57v.52h-.57v1.23c-.03.33.06.46.29.43.1 0 .19 0 .25-.04v.46c-.22 0-.41.03-.64.03-.5.03-.76-.26-.73-.84v-1.3h-.51v-.52h.54v.03Zm2.43 1.53c0 .45.13.68.45.65.25 0 .41-.1.47-.33h.7c-.06.55-.44.81-1.17.81-.84 0-1.25-.42-1.22-1.36.03-.88.45-1.37 1.22-1.4.54 0 .89.2 1.11.62.1.16.13.3.13.49 0 .16.03.32.03.52h-1.72Zm.92-.52c0-.36-.16-.56-.44-.56-.29 0-.42.2-.45.56h.9Zm1.44.93h.77l-.6 1.24h-.55l.38-1.23Zm2.33-3.08h3v.65h-1.11v3.15h-.8v-3.15h-1.12v-.65h.03Zm4.7 1.85c0-.16-.13-.26-.35-.26-.2 0-.3.1-.3.26 0 .1.17.2.52.3.54.03.86.32.96.87-.03.5-.42.78-1.18.82-.74 0-1.12-.3-1.15-.82h.73c.03.2.16.3.42.3.25 0 .35-.1.35-.3 0-.16-.2-.26-.51-.32-.67-.13-.96-.42-.96-.85.03-.45.38-.71 1.12-.78.67 0 1.02.26 1.05.78h-.7Zm2.04-1.85v.65h-.83v-.65h.83Zm-.03 1.14v2.63h-.8v-2.63h.8Zm6.26 2.4c.03.85-.39 1.27-1.28 1.24-.8 0-1.18-.3-1.21-.85h.73c.03.23.16.33.45.33.41 0 .6-.3.5-.88-.15.23-.38.36-.73.36-.67-.03-1.02-.49-1.05-1.3.06-.85.41-1.3 1.09-1.33.35 0 .57.13.7.35v-.29h.8v2.37Zm-1.31-.32c.35 0 .5-.26.5-.78 0-.55-.15-.85-.5-.85-.32 0-.51.3-.51.85.03.52.19.78.5.78Zm15.64-3.22v2.37c-.03.95-.57 1.43-1.6 1.47-1.05-.04-1.59-.52-1.62-1.47v-2.37h.8v2.08c0 .46.03.75.16.91.13.2.35.3.67.3.32 0 .5-.1.64-.3.12-.16.16-.45.16-.9v-2.09h.8Zm4.6 0v.65h-.83v-.65h.83Zm-.03 1.14v2.63h-.8v-2.63h.8Zm.39 0h.83l.57 1.79.6-1.8h.74l-.92 2.64h-.84l-.98-2.63Zm3.76 1.53c0 .45.13.68.45.65.25 0 .41-.1.48-.33h.7c-.06.55-.45.81-1.18.81-.83 0-1.25-.42-1.21-1.36.03-.88.44-1.37 1.21-1.4.54 0 .9.2 1.12.62.1.16.13.3.13.49 0 .16.03.32.03.52h-1.73Zm.9-.52c0-.36-.16-.56-.45-.56-.29 0-.42.2-.45.56h.9Zm1.92-1.01v.49h.02c.16-.36.45-.55.9-.52v.68h-.35c-.2.03-.32.1-.39.2l-.1.39v1.4h-.76v-2.32c0-.16-.03-.25-.03-.35h.7v.03Zm2.58.71c0-.16-.13-.26-.35-.26-.2 0-.29.1-.29.26 0 .1.16.2.51.3.55.03.86.32.96.87-.03.5-.41.78-1.18.82-.74 0-1.12-.3-1.15-.82h.73c.03.2.16.3.42.3.25 0 .35-.1.35-.3 0-.16-.2-.26-.51-.32-.67-.13-.96-.42-.96-.85.03-.45.38-.71 1.12-.78.67 0 .99.26 1.05.78h-.7Zm2.07-1.85v.65h-.83v-.65h.83Zm-.03 1.14v2.63h-.8v-2.63h.8Zm.83 0v-.52h.8v.52h.58v.52h-.58v1.23c-.03.33.07.46.29.43.1 0 .2 0 .25-.04v.46c-.22 0-.41.03-.63.03-.52.03-.77-.26-.74-.84v-1.3h-.5v-.52h.53v.03Zm3.48 0h.77l-1.3 3.6h-.77l.31-.97-.99-2.63h.83l.58 1.82.57-1.82Zm-88.2 1.72c0-.03 0-.06-.03-.13-.03-.55-.25-.81-.67-.84v-.04c.51-.13.77-.42.77-.9 0-.66-.45-.98-1.28-.98h-1.6v3.8h.8v-1.5h.83c.13 0 .2.07.26.17v1.33h1.08c-.03-.13-.12-.45-.16-.9Zm-1.3-1.23h-.68v-1.01h.68c.38 0 .57.13.57.49-.03.35-.22.52-.57.52Z" fill="#000"/><path d="M40.17 19.4h-.1a.18.18 0 0 0-.15.1c.13 0 .22.13.22.26.1 0 .16-.07.16-.16.03-.13-.03-.2-.13-.2Zm3.96 1.27v-2.31h-.8v1.6c0 .35-.16.54-.44.58-.29 0-.45-.2-.45-.59v-1.6h-.77v1.73c0 .16 0 .3.04.42.1.33.38.52.86.56a1 1 0 0 0 .8-.36l.03.32h.96c-.1-.13-.2-.22-.23-.35Zm56.49 0v-2.31h-.8v1.6c0 .35-.16.54-.44.58-.29 0-.45-.2-.45-.59v-1.6h-.77v1.73c0 .16 0 .3.04.42.1.33.38.52.86.56a1 1 0 0 0 .8-.36l.03.32h.96a.74.74 0 0 1-.23-.35Zm-27.11 0v-2.31h-.8v1.6c0 .35-.16.54-.44.58-.3 0-.45-.2-.45-.59v-1.6h-.77v1.73c0 .16 0 .3.03.42.1.33.39.52.87.56a1 1 0 0 0 .8-.36l.03.32h.96c-.13-.13-.23-.22-.23-.35Zm-20.02-.1v-1.3c0-.65-.35-.98-1.09-.98-.35 0-.57.07-.76.17a.71.71 0 0 0-.35.65h.73c.03-.26.13-.4.35-.4.23 0 .32.14.35.33v.26c-.41 0-.76.03-.99.13a.96.96 0 0 0-.57.85c0 .48.29.71.83.74.38 0 .64-.13.8-.39 0 .1 0 .23.03.36h.9a.56.56 0 0 1-.23-.42Zm-1.21-.03c-.26 0-.39-.13-.39-.36 0-.33.29-.46.83-.42 0 .52-.12.78-.44.78Zm4.31.03v-1.3c0-.1-.04-.26-.07-.42-.1-.33-.38-.52-.83-.59-.38 0-.64.13-.8.4l-.03-.04v-.3h-.76v2.64h.76v-1.56c.03-.4.2-.59.45-.62.32 0 .45.2.45.62v1.56h.99a.55.55 0 0 1-.16-.4Zm55.34 0v-1.3c0-.1-.04-.26-.07-.42-.1-.33-.38-.52-.83-.59-.38 0-.64.13-.8.4l-.03-.04v-.3h-.76v2.64h.76v-1.56c.03-.4.2-.59.45-.62.32 0 .48.2.48.62v1.56h.99a.46.46 0 0 1-.2-.4Zm-20.63 0v-1.3c0-.1-.03-.26-.07-.42-.1-.33-.38-.52-.83-.59-.38 0-.64.13-.8.4l-.03-.04v-.3h-.76v2.64h.76v-1.56c.04-.4.2-.59.45-.62.32 0 .45.2.45.62v1.56h.99c-.1-.07-.16-.2-.16-.4Zm-28.77 0v-1.3c0-.1-.04-.26-.07-.42-.1-.33-.38-.52-.83-.59-.38 0-.64.13-.8.4l-.03-.04v-.3h-.76v2.64h.76v-1.56c.03-.4.2-.59.45-.62.32 0 .45.2.45.62v1.56h.99c-.1-.07-.16-.2-.16-.4Zm40.94.13v-1.43c0-.65-.36-.98-1.1-.98-.34 0-.57.07-.76.17a.72.72 0 0 0-.35.65h.74c.03-.26.12-.4.35-.4.22 0 .32.14.35.33v.26c-.42 0-.77.03-1.02.13a.96.96 0 0 0-.58.85c0 .48.29.71.83.74.38 0 .64-.13.8-.39 0 .1 0 .23.03.36h.96c-.1 0-.22-.13-.25-.29Zm-1.22-.16c-.25 0-.38-.13-.38-.36 0-.33.28-.46.83-.42 0 .52-.16.78-.45.78Zm-4.44.46c-.16 0-.32-.17-.32-.33v-1.4c0-.1-.03-.26-.06-.42-.1-.33-.39-.52-.83-.59-.39 0-.64.13-.8.4v-1.44h-.77v3.8h.77v-1.56c.03-.39.2-.58.45-.61.32 0 .44.2.44.61v1.56h1.12v-.03Z" fill="#000"/><path fill-rule="evenodd" clip-rule="evenodd" d="M27.62 0h-22.67a5.18 5.18 0 0 0-4.95 5.2c0 2.86 2.3 5.2 5.1 5.2.78 0 1.54-.2 2.18-.49v12.09h2.94v-16.44c0-.13.03-.23.03-.36 0-.81-.2-1.56-.51-2.24h13.25a5.24 5.24 0 0 0-.5 2.24l.02.65v16.12h2.94v-12.03c.64.3 1.37.5 2.14.5a5.18 5.18 0 0 0 5.11-5.2 5.13 5.13 0 0 0-5.08-5.24Zm-22.51 7.44c-1.21 0-2.2-1-2.2-2.24 0-1.24.99-2.24 2.2-2.24 1.21 0 2.2 1 2.2 2.24 0 1.23-.99 2.24-2.2 2.24Zm22.51 0a2.2 2.2 0 0 1-2.14-1.79v-.1h-.03c-.03-.12-.03-.22-.03-.35 0-1.24.99-2.24 2.2-2.24 1.22 0 2.2 1 2.2 2.24a2.25 2.25 0 0 1-2.2 2.24Z" fill="url(#b)"/><path fill-rule="evenodd" clip-rule="evenodd" d="M17.08 6.01c-2.45.03-3.7.46-5.74.36.63 2.11 2 2.7 3.67 2.8v12.83h2.94v-12.93a77.1 77.1 0 0 0 3.25-.85s-.5-2.27-4.12-2.2Z" fill="url(#c)"/></g><defs><linearGradient id="b" x1="20.637" y1="13.722" x2="10.774" y2="-.428" gradientUnits="userSpaceOnUse"><stop stop-color="#003D96"/><stop offset=".287" stop-color="#662D8C"/><stop offset=".527" stop-color="#920883"/><stop offset="1" stop-color="#D80E19"/></linearGradient><linearGradient id="c" x1="18.326" y1="15.332" x2="8.463" y2="1.182" gradientUnits="userSpaceOnUse"><stop stop-color="#003D96"/><stop offset=".287" stop-color="#662D8C"/><stop offset=".527" stop-color="#920883"/><stop offset="1" stop-color="#D80E19"/></linearGradient><clipPath id="a"><path fill="#fff" d="M0 0h130v22h-130z"/></clipPath></defs></svg>