<svg viewBox="0 0 280 51" fill="none" xmlns="http://www.w3.org/2000/svg"><path d="M126.1 14.12h8.95s2.96-1.4 2.96-4.61c0-3.5-7.36-5.53-7.4-9.51v.04c-.03 3.98-7.4 6-7.4 9.5-.07 3.18 2.89 4.58 2.89 4.58Zm14.43 6.56a8.37 8.37 0 0 0-5.25 1.95v-7.11h-9.33v13.63c4.7.7 8.33 4.76 8.33 9.66a9.8 9.8 0 0 1-7.55 9.5h8.55v-18.13c1.51-1.25 3.1-.1 3.29.7v17.4h9.47v-22.08c0-1.77-3.73-5.52-7.5-5.52Z" fill="#F33"/><path d="M114.7 39v-.19c0-4.94 3.7-9.03 8.51-9.66v-9.1a7.7 7.7 0 0 0-4.4 2.06v-1.95h-10.36v28.12h13.76a9.71 9.71 0 0 1-7.5-9.29Z" fill="#07589B"/><path d="M125.95 29.15a9.51 9.51 0 0 0-2.7-.03 9.76 9.76 0 0 0-8.5 9.65v.22a9.75 9.75 0 0 0 9.8 9.55 9.8 9.8 0 0 0 9.8-9.77 9.9 9.9 0 0 0-8.4-9.62Zm-2.73.78a12.03 12.03 0 0 0-3.04 3.76c-.11-.08-.22-.19-.33-.26-.7-.6-1.07-1.22-1.22-1.44a9.18 9.18 0 0 1 4.59-2.06Zm-5.19 2.61a6.54 6.54 0 0 0 1.82 1.88 12.37 12.37 0 0 0-.89 4.17h-3.52a9.24 9.24 0 0 1 2.6-6.05Zm0 12.54a9.16 9.16 0 0 1-2.55-5.72h3.52a12.56 12.56 0 0 0 .85 4.16c-.63.38-1.22.86-1.81 1.56Zm.56.51a6.22 6.22 0 0 1 1.55-1.33 11.1 11.1 0 0 0 2.7 3.4 9.38 9.38 0 0 1-4.25-2.07Zm5.51 1.59v.36a9.58 9.58 0 0 1-3.22-3.64 5.12 5.12 0 0 1 3.19-.23v3.5h.03Zm0-4.32a5.62 5.62 0 0 0-1.66-.07c-.56.04-1.22.15-1.85.44a9.83 9.83 0 0 1-.67-2.54c-.07-.4-.1-.85-.1-1.29h4.32v3.46h-.04Zm0-4.27h-4.33c.04-1.44.37-2.7.78-3.76.78.4 1.74.66 2.92.66.19 0 .41 0 .63-.03v3.13Zm0-3.9a6.02 6.02 0 0 1-3.22-.56 10.06 10.06 0 0 1 2.34-3.13c.36-.34.66-.6.88-.74v4.42Zm.78-4.84a9 9 0 0 1 8.62 8.73h-2.07l-.81-1.98c-.08-.15-.23-.26-.41-.22-.19 0-.34.14-.34.3l-1.1 5.08.33-9.51a.43.43 0 0 0-.34-.4c-.18-.04-.36.1-.44.29l-1.59 7.81-.26-1.1a.36.36 0 0 0-.37-.3h-1.22v-8.7Zm1.07 17.8c-.33.08-.7.12-1.07.12v-8.4h.93l.14.7.41 1.87c.04.19.19.3.37.3a.4.4 0 0 0 .37-.3l1-4.94-.33 9.3c0 .21.14.36.33.4h.04c.18 0 .33-.11.37-.3l1.77-8.29.45 1.03c.07.15.22.26.37.26h2.33a8.92 8.92 0 0 1-7.48 8.26Z" fill="#D4D4D4"/><path d="M159.09 13.24c.48 0 .9.08 1.26.24a1.81 1.81 0 0 1 1.13 1.75c0 .4-.1.76-.29 1.07-.2.3-.47.53-.84.69a3.1 3.1 0 0 1-1.26.24h-1.27v1.61h-1.05v-5.6h2.31Zm-.05 3.1c.45 0 .8-.09 1.03-.28a1 1 0 0 0 .36-.83 1 1 0 0 0-.36-.82c-.23-.2-.58-.29-1.03-.29h-1.22v2.23h1.22Zm6.91 2.58a3.2 3.2 0 0 1-1.55-.37 2.8 2.8 0 0 1-1.48-2.5 2.8 2.8 0 0 1 1.48-2.51 3.2 3.2 0 0 1 1.55-.38c.58 0 1.1.13 1.55.38a2.74 2.74 0 0 1 1.48 2.5 2.82 2.82 0 0 1-1.48 2.51c-.46.25-.97.37-1.55.37Zm0-.91a2 2 0 0 0 1.01-.25c.3-.17.54-.4.71-.7.17-.3.26-.65.26-1.02a2 2 0 0 0-.26-1 1.8 1.8 0 0 0-.7-.71c-.3-.17-.64-.26-1.02-.26-.37 0-.71.09-1.01.26-.3.16-.54.4-.7.7a2 2 0 0 0-.27 1.01c0 .37.1.71.26 1.02.17.3.4.53.7.7.3.17.65.25 1.02.25Zm7.58.91a3.2 3.2 0 0 1-1.55-.37 2.82 2.82 0 0 1-1.46-2.5 2.82 2.82 0 0 1 1.47-2.51c.46-.25.97-.38 1.54-.38.46 0 .88.08 1.26.24.38.16.7.4.97.7l-.68.63c-.4-.44-.9-.66-1.5-.66-.38 0-.73.09-1.04.26-.3.16-.54.4-.71.7a2 2 0 0 0-.26 1.01 2 2 0 0 0 .26 1.02c.17.3.41.53.71.7.3.17.66.25 1.04.25.6 0 1.1-.22 1.5-.66l.68.64a2.75 2.75 0 0 1-2.23.93Zm6.47 0c-.57 0-1.08-.12-1.54-.37a2.75 2.75 0 0 1-1.08-1.03 2.87 2.87 0 0 1-.38-1.48 2.82 2.82 0 0 1 1.47-2.5c.46-.25.97-.38 1.54-.38.46 0 .88.08 1.26.24.38.16.7.4.96.7l-.67.63c-.4-.44-.9-.66-1.5-.66-.39 0-.73.09-1.04.26a1.86 1.86 0 0 0-.97 1.71 1.86 1.86 0 0 0 .97 1.72c.3.17.65.25 1.04.25.6 0 1.1-.22 1.5-.66l.67.64c-.26.3-.58.53-.97.7-.38.15-.8.23-1.26.23Zm4.01-5.68h1.03v3.98l3.02-3.98h.97v5.6h-1.02v-3.97l-3.02 3.97h-.98v-5.6Zm7.41 0h1.03v3.98l3.02-3.98h.97v5.6h-1.02v-3.97l-3.02 3.97h-.98v-5.6Zm2.5-.38c-.48 0-.84-.1-1.1-.3-.23-.19-.35-.48-.36-.86h.73c0 .2.07.35.2.46.12.1.3.16.53.16a.8.8 0 0 0 .54-.16c.13-.1.2-.26.2-.46h.73c0 .38-.13.66-.38.87-.25.2-.61.3-1.09.3Zm7.5 6.06c-.58 0-1.1-.12-1.55-.37a2.82 2.82 0 0 1-1.46-2.5 2.82 2.82 0 0 1 1.47-2.51c.46-.25.97-.38 1.54-.38.46 0 .88.08 1.26.24.38.16.7.4.96.7l-.67.63c-.4-.44-.9-.66-1.5-.66-.39 0-.73.09-1.04.26a1.9 1.9 0 0 0-.97 1.71 1.94 1.94 0 0 0 .97 1.72c.3.17.65.25 1.04.25.6 0 1.1-.22 1.5-.66l.67.64c-.26.3-.58.53-.97.7-.38.15-.8.23-1.26.23Zm6.07-2.44h-1.04v2.36h-1.03v-5.6h1.03v2.35h1.07l1.62-2.35h1.1l-1.92 2.71 2 2.9h-1.18l-1.65-2.37Zm4.35-3.24h1.03v3.98l3.02-3.98h.97v5.6h-1.03v-3.97l-3.02 3.97h-.97v-5.6Zm7.4 0h1.03v3.98l3.03-3.98h.97v5.6h-1.03v-3.97l-3.02 3.97h-.97v-5.6Zm2.5-.38c-.48 0-.84-.1-1.09-.3-.24-.19-.36-.48-.37-.86h.73c.01.2.07.35.2.46.12.1.3.16.54.16.23 0 .4-.05.53-.16.14-.1.2-.26.21-.46h.73c0 .38-.14.66-.39.87-.25.2-.6.3-1.08.3Zm13.5 5.1v2.08h-.96v-1.2h-4.31v1.2h-.97v-2.08h.25c.35-.01.6-.27.74-.77.14-.51.23-1.23.26-2.17l.06-1.78h4.13v4.72h.8Zm-4.07-2.85c-.03.73-.09 1.33-.18 1.82-.1.48-.24.82-.43 1.03h2.85v-3.84h-2.2l-.04 1Zm8.47 3.81c-.58 0-1.1-.12-1.55-.37a2.8 2.8 0 0 1-1.48-2.5 2.8 2.8 0 0 1 1.48-2.51c.46-.25.97-.38 1.55-.38.57 0 1.09.13 1.55.38a2.74 2.74 0 0 1 1.47 2.5 2.82 2.82 0 0 1-1.47 2.51 3.2 3.2 0 0 1-1.55.37Zm0-.91a1.98 1.98 0 0 0 1.72-.95c.17-.3.25-.65.25-1.02a2 2 0 0 0-.25-1 1.8 1.8 0 0 0-.71-.71 2 2 0 0 0-1.01-.26 2 2 0 0 0-1.01.26c-.3.16-.54.4-.71.7a2 2 0 0 0-.26 1.01c0 .37.09.71.26 1.02.17.3.4.53.7.7.3.17.64.25 1.02.25Zm10.15.83v-3.71l-1.86 3.07h-.46l-1.85-3.02v3.66h-.99v-5.6h.86l2.23 3.7 2.2-3.7h.85l.02 5.6h-1Zm-87.85 9.84-.01-3.71-1.85 3.07h-.47l-1.84-3.02v3.66h-1v-5.6h.87l2.22 3.7 2.2-3.7h.86l.01 5.6h-1Zm7.59-.87v.87h-4.22v-5.6h4.1v.87h-3.06v1.46h2.72v.85h-2.72v1.55h3.18Zm6.82-1.49h-.97v2.36h-1.02v-2.36h-.96l-1.42 2.36h-1.2l1.76-2.92-1.65-2.68h1.11l1.38 2.34h.98v-2.34h1.02v2.34h.98l1.38-2.34h1.1l-1.63 2.69 1.76 2.91h-1.2l-1.42-2.36Zm9.86 1.48v2.07h-.97v-1.19h-4.31v1.2h-.97v-2.08h.25c.35-.02.6-.27.73-.78.15-.5.24-1.23.27-2.16l.06-1.78h4.12v4.72h.82Zm-4.09-2.85c-.02.73-.08 1.33-.17 1.82-.1.48-.24.82-.44 1.03h2.86v-3.84h-2.2l-.04 1Zm10.7-1.87-2.44 4.52c-.22.4-.47.7-.77.9-.3.2-.62.3-.97.3-.28 0-.55-.06-.82-.17l.25-.82c.22.07.4.1.55.1.34 0 .61-.17.83-.52l.1-.13-2.25-4.18h1.12l1.66 3.29 1.71-3.3h1.03Zm6.53 0v5.6h-1.05v-2.4h-2.9v2.4h-1.05v-5.6h1.05v2.31h2.9v-2.31h1.05Zm6.1 4.3h-2.8l-.56 1.3h-1.08l2.53-5.6h1.03l2.54 5.6h-1.1l-.55-1.3Zm-.34-.81-1.06-2.45-1.05 2.45h2.1Zm5.98-3.5c.49 0 .9.09 1.27.25a1.83 1.83 0 0 1 1.13 1.75 1.82 1.82 0 0 1-1.13 1.75 3.1 3.1 0 0 1-1.27.24h-1.27v1.62h-1.04v-5.6h2.3Zm-.05 3.11c.46 0 .8-.1 1.04-.28a1 1 0 0 0 .35-.83 1 1 0 0 0-.35-.82c-.24-.2-.58-.3-1.04-.3h-1.22v2.23h1.22Zm6.92 2.58c-.58 0-1.1-.12-1.55-.37a2.78 2.78 0 0 1-1.48-2.51 2.8 2.8 0 0 1 1.48-2.5c.46-.26.97-.38 1.55-.38.57 0 1.08.12 1.54.37a2.72 2.72 0 0 1 1.49 2.51 2.82 2.82 0 0 1-1.49 2.51c-.46.25-.97.37-1.54.37Zm0-.91c.37 0 .7-.08 1-.25.3-.17.54-.4.71-.7.18-.3.26-.65.26-1.02s-.08-.71-.26-1c-.17-.31-.4-.55-.7-.71-.3-.17-.64-.26-1.01-.26-.38 0-.72.09-1.02.26a1.93 1.93 0 0 0-.96 1.71c0 .37.08.71.26 1.02.17.3.4.53.7.7.3.17.64.25 1.02.25Zm10.4-.05v2.07h-.96v-1.19h-4.32v1.2h-.97v-2.08h.25c.35-.02.6-.27.74-.78.14-.5.23-1.23.26-2.16l.07-1.78h4.12v4.72h.81Zm-4.08-2.85c-.03.73-.09 1.33-.18 1.82-.09.48-.23.82-.43 1.03h2.85v-3.84h-2.2l-.04 1Zm10.86-1.87v5.6h-1.04v-2.4h-2.9v2.4h-1.05v-5.6h1.04v2.31h2.9v-2.31h1.05Zm4.99 5.68c-.57 0-1.1-.12-1.55-.37a2.78 2.78 0 0 1-1.48-2.51 2.8 2.8 0 0 1 1.48-2.5 3.1 3.1 0 0 1 1.55-.38c.57 0 1.09.12 1.55.37a2.82 2.82 0 0 1 1.48 2.5 2.82 2.82 0 0 1-1.48 2.52 3.2 3.2 0 0 1-1.55.37Zm0-.91c.37 0 .71-.08 1.01-.25a1.96 1.96 0 0 0 .96-1.72c0-.37-.08-.71-.25-1a1.73 1.73 0 0 0-.71-.71 2 2 0 0 0-1.01-.26 1.97 1.97 0 0 0-1.72.96 2.09 2.09 0 0 0 0 2.03c.17.3.4.53.7.7.3.17.64.25 1.02.25Zm8.8-3.9h-2.79l.01 4.73h-1.03v-5.6h3.82l-.01.88Zm3.65 4.81c-.58 0-1.1-.12-1.55-.37a2.78 2.78 0 0 1-1.48-2.51 2.8 2.8 0 0 1 1.48-2.5c.46-.26.97-.38 1.55-.38.57 0 1.09.12 1.55.37a2.72 2.72 0 0 1 1.48 2.51 2.82 2.82 0 0 1-1.48 2.51 3.2 3.2 0 0 1-1.55.37Zm0-.91c.37 0 .7-.08 1-.25.3-.17.54-.4.71-.7.18-.3.26-.65.26-1.02s-.08-.71-.26-1c-.16-.31-.4-.55-.7-.71-.3-.17-.64-.26-1.01-.26a2 2 0 0 0-1.02.26 1.93 1.93 0 0 0-.96 1.71c0 .37.09.71.26 1.02.17.3.4.53.7.7.3.17.64.25 1.02.25Zm-90.81 5.07v5.6h-1.05v-2.4h-2.9v2.4h-1.05v-5.6h1.05v2.31h2.9v-2.31h1.05Zm6.1 4.3h-2.8l-.56 1.3h-1.08l2.53-5.6h1.03l2.54 5.6h-1.1l-.55-1.3Zm-.34-.81-1.06-2.45-1.05 2.45h2.11Zm8.21-3.5-2.44 4.53c-.21.4-.47.7-.77.9-.3.2-.62.3-.96.3-.28 0-.56-.06-.83-.18l.25-.81c.22.07.4.1.55.1.34 0 .62-.17.84-.52l.08-.13-2.24-4.18h1.12l1.66 3.29 1.71-3.3h1.03Zm6.04 0v5.61h-1.04v-2.11c-.53.2-1.03.3-1.51.3-.72 0-1.27-.18-1.66-.52-.39-.35-.58-.84-.58-1.49v-1.78h1.03v1.67c0 .4.12.7.35.9.23.21.56.32.99.32.48 0 .94-.1 1.38-.3v-2.6h1.04Zm7.37 0v5.61h-1.04v-2.4h-2.9v2.4h-1.05v-5.6h1.04v2.31h2.9v-2.31h1.05Zm4.99 5.69c-.58 0-1.1-.12-1.55-.37a2.79 2.79 0 0 1-1.48-2.51 2.8 2.8 0 0 1 1.48-2.5 3.2 3.2 0 0 1 1.55-.38c.57 0 1.09.12 1.55.37a2.73 2.73 0 0 1 1.48 2.5 2.83 2.83 0 0 1-1.48 2.52 3.2 3.2 0 0 1-1.55.37Zm0-.91a1.93 1.93 0 0 0 1.72-.95c.17-.3.25-.65.25-1.02 0-.38-.08-.71-.26-1.01a1.8 1.8 0 0 0-.7-.7c-.3-.18-.64-.26-1.01-.26a2 2 0 0 0-1.02.26c-.3.16-.53.4-.7.7-.17.3-.26.63-.26 1 0 .38.09.72.26 1.02.17.3.4.54.7.7.3.17.64.26 1.02.26Zm4.68-1.81h2.2v.83h-2.2v-.83Zm8.03-2.08h-1.86v4.72h-1.03v-4.72h-1.86v-.88h4.75v.88Zm5.93 3.85v.87h-4.22v-5.6h4.1v.87h-3.06v1.46h2.72v.85h-2.72v1.55h3.18Zm2.55-4.73 1.33 1.87 1.32-1.87h1.22l-1.88 2.69 2.04 2.91h-1.24l-1.46-2.04-1.46 2.04h-1.2l2.03-2.87-1.9-2.73h1.2Zm10.52 0v5.6h-1.04v-2.4h-2.9v2.4h-1.05v-5.6h1.04v2.31h2.91v-2.31h1.04Zm2.4 0h1.02v3.98l3.02-3.98h.98v5.6h-1.03v-3.97l-3.02 3.97h-.97v-5.6Zm11.63 0v5.6h-1.04v-2.11c-.53.2-1.03.3-1.51.3a2.5 2.5 0 0 1-1.67-.52c-.38-.35-.57-.84-.57-1.49v-1.78h1.03v1.67c0 .4.12.7.35.9.23.21.56.32.99.32.48 0 .94-.1 1.38-.3v-2.6h1.03Zm6.6 4.73v.87h-4.23v-5.6h4.1v.87h-3.05v1.46h2.71v.85h-2.71v1.55h3.17Zm4.52.95c-.57 0-1.08-.12-1.54-.37a2.82 2.82 0 0 1-1.46-2.51 2.83 2.83 0 0 1 1.47-2.5c.46-.26.97-.38 1.54-.38.46 0 .88.08 1.26.24.38.16.7.39.97.7l-.68.63c-.4-.44-.9-.66-1.5-.66-.39 0-.73.08-1.04.26-.3.16-.54.4-.71.7a2 2 0 0 0-.26 1 2 2 0 0 0 .26 1.02c.17.3.4.54.71.7.3.17.65.26 1.04.26.6 0 1.1-.22 1.5-.67l.68.64c-.27.3-.59.54-.98.7-.38.16-.8.24-1.26.24Zm6.08-2.44h-1.04v2.36h-1.03v-5.6h1.03v2.34h1.07l1.62-2.34h1.1l-1.91 2.71 1.99 2.89h-1.18l-1.65-2.36Zm6.93 2.44c-.57 0-1.1-.12-1.55-.37a2.8 2.8 0 0 1-1.48-2.51 2.8 2.8 0 0 1 1.48-2.5 3.1 3.1 0 0 1 1.55-.38c.57 0 1.09.12 1.55.37a2.74 2.74 0 0 1 1.48 2.5 2.82 2.82 0 0 1-1.48 2.52 3.2 3.2 0 0 1-1.55.37Zm0-.91c.37 0 .71-.09 1.01-.25a1.96 1.96 0 0 0 .96-1.72 2 2 0 0 0-.25-1.01 1.8 1.8 0 0 0-.71-.7 2 2 0 0 0-1.01-.26 2 2 0 0 0-1.01.26c-.3.16-.54.4-.71.7a2 2 0 0 0-.26 1c0 .38.09.72.26 1.02.17.3.4.54.7.7.3.17.64.26 1.02.26Zm8.8-3.9h-2.79l.01 4.73h-1.03v-5.6h3.82v.88Zm3.65 4.81c-.58 0-1.1-.12-1.55-.37a2.8 2.8 0 0 1-1.48-2.51 2.82 2.82 0 0 1 1.48-2.5 3.2 3.2 0 0 1 1.55-.38c.57 0 1.09.12 1.55.37a2.74 2.74 0 0 1 1.48 2.5 2.82 2.82 0 0 1-1.48 2.52 3.2 3.2 0 0 1-1.55.37Zm0-.91c.37 0 .7-.09 1.01-.25a1.96 1.96 0 0 0 .96-1.72 2 2 0 0 0-.25-1.01c-.17-.3-.41-.54-.71-.7-.3-.18-.64-.26-1.01-.26-.38 0-.71.08-1.01.26-.3.16-.54.4-.71.7-.17.3-.26.63-.26 1 0 .38.09.72.26 1.02.17.3.4.54.7.7.3.17.64.26 1.02.26Zm-117.1 10.75c-.57 0-1.08-.12-1.54-.37a2.81 2.81 0 0 1-1.47-2.51 2.76 2.76 0 0 1 1.47-2.5 3.1 3.1 0 0 1 1.55-.38c.46 0 .88.08 1.26.24.38.16.7.39.96.7l-.67.62a2 2 0 0 0-1.5-.65c-.4 0-.74.08-1.04.25a1.86 1.86 0 0 0-.97 1.72 2 2 0 0 0 .25 1.01c.17.3.41.54.72.7.3.17.65.26 1.03.26.6 0 1.1-.23 1.5-.67l.68.64c-.26.3-.59.54-.97.7-.38.16-.8.24-1.26.24Zm6.49 0a3.2 3.2 0 0 1-1.55-.37 2.8 2.8 0 0 1-1.48-2.51 2.8 2.8 0 0 1 1.48-2.5 3.2 3.2 0 0 1 1.55-.38c.57 0 1.09.12 1.55.37a2.74 2.74 0 0 1 1.48 2.5 2.82 2.82 0 0 1-1.48 2.52 3.2 3.2 0 0 1-1.55.37Zm0-.91c.37 0 .71-.09 1.01-.25.3-.17.54-.4.7-.7.18-.31.26-.65.26-1.02a2 2 0 0 0-.25-1.01 1.8 1.8 0 0 0-.7-.7c-.3-.18-.65-.26-1.02-.26a2 2 0 0 0-1.01.25c-.3.17-.54.4-.71.7a2 2 0 0 0-.26 1.02c0 .37.09.7.26 1.01.17.3.4.54.7.7.3.17.64.26 1.02.26Zm8.99-3.9h-1.87v4.73h-1.03v-4.72h-1.86v-.88h4.76v.88Zm4.02-.87c.48 0 .9.08 1.27.24.36.16.64.39.83.68.2.3.3.66.3 1.07a1.85 1.85 0 0 1-1.13 1.75 3.1 3.1 0 0 1-1.27.24h-1.27v1.62h-1.05v-5.6h2.32Zm-.05 3.1c.45 0 .8-.1 1.03-.29a1 1 0 0 0 .36-.82 1 1 0 0 0-.35-.83 1.65 1.65 0 0 0-1.04-.28h-1.22v2.22h1.22Zm8.94-3.1-2.45 4.52c-.21.4-.47.7-.77.9-.3.2-.62.3-.96.3-.28 0-.56-.06-.83-.18l.26-.81c.22.07.4.1.54.1.34 0 .62-.17.84-.52l.09-.14-2.25-4.17h1.12l1.66 3.29 1.72-3.3h1.03Zm7.01 4.72v2.07h-.96v-1.2h-4.31v1.2h-.98l.01-2.07h.24c.36-.02.6-.28.74-.78.15-.5.24-1.23.27-2.17l.06-1.77h4.12v4.72h.81Zm-4.08-2.85a12 12 0 0 1-.18 1.82c-.09.48-.23.82-.43 1.03h2.85v-3.84h-2.2l-.04.99Zm10.87-1.87v5.6h-1.05v-2.4h-2.9v2.4h-1.05v-5.6h1.04v2.3h2.91v-2.3h1.05Zm2.38 0h1.03v3.97l3.02-3.97h.98v5.6h-1.03v-3.97l-3.02 3.97h-.97v-5.6Zm11.64 0v5.6h-1.04v-2.11c-.53.2-1.03.3-1.51.3-.72 0-1.27-.18-1.66-.52-.39-.35-.58-.84-.58-1.49v-1.78h1.03v1.67c0 .4.12.7.35.9.23.21.56.31.99.31.48 0 .95-.1 1.38-.3v-2.58h1.04Zm6.6 4.73v.87h-4.22v-5.6h4.1v.87h-3.06v1.45h2.71v.86h-2.71v1.55h3.17Zm4.52.95c-.56 0-1.08-.12-1.54-.37a2.81 2.81 0 0 1-1.46-2.51 2.82 2.82 0 0 1 1.47-2.5c.46-.26.97-.38 1.54-.38.46 0 .88.08 1.26.24.38.16.7.39.97.7l-.68.62c-.4-.43-.9-.65-1.5-.65-.39 0-.73.08-1.04.25-.3.17-.54.4-.71.7-.17.3-.26.64-.26 1.02s.09.71.26 1.01c.17.3.4.54.71.7.3.17.65.26 1.04.26.6 0 1.1-.23 1.5-.67l.68.64c-.27.3-.59.54-.98.7-.38.16-.8.24-1.26.24Zm8.03-4.8h-1.87v4.72h-1.03v-4.72h-1.86v-.88h4.76v.88Zm5.4 1.8c.36.1.64.27.82.5.2.23.29.52.29.87 0 .49-.19.87-.55 1.14-.37.27-.9.4-1.58.4h-2.67v-5.6h2.51c.64 0 1.13.13 1.48.38.36.25.53.6.53 1.07a1.31 1.31 0 0 1-.82 1.24Zm-2.66-.3h1.4c.33 0 .59-.06.77-.2.17-.12.26-.32.26-.58a.72.72 0 0 0-.26-.6 1.3 1.3 0 0 0-.77-.2h-1.4v1.59Zm1.6 2.42c.74 0 1.11-.28 1.11-.83 0-.55-.37-.82-1.1-.82h-1.61v1.65h1.6Zm7.89-.5h-2.81l-.56 1.3h-1.08l2.53-5.6h1.03l2.54 5.6h-1.1l-.55-1.3Zm-.35-.81-1.06-2.45-1.05 2.45h2.11Zm-225.85-33.09a18.86 18.86 0 0 1-3.45 6.53c.2.3.53.95.64 1.24a23.51 23.51 0 0 0 3.94-7.46l-1.13-.3Zm-1.28 3.92v10.71h1.14v-11.78l-.03-.03-1.11 1.1Zm6.95-3.6c-1.2.6-3.3 1.2-5.14 1.6.15.28.32.68.39.95 1.9-.39 4.13-.95 5.65-1.62l-.9-.93Zm-5.12 4.56v1.08h10.88v-1.08h-10.88Zm2.68-3.3v11.6c0 .24-.08.3-.32.3-.22.02-1 .02-1.82 0 .17.32.33.82.37 1.12 1.11 0 1.85-.01 2.3-.2.45-.2.61-.52.61-1.22v-11.6h-1.14Zm-2.8 7.8.33 1.17 5.91-1.63-.13-1.07c-2.25.57-4.6 1.18-6.1 1.53Zm6.38-9.3c.05 7.86.66 14.57 3.36 14.59 1.06 0 1.43-.76 1.6-3.19a3 3 0 0 1-.9-.62c-.05 1.87-.22 2.65-.57 2.65-1.54 0-2.38-5.84-2.3-13.43h-1.19Zm3.23 6.65a13.56 13.56 0 0 1-5.23 6.5c.24.2.64.62.82.84a16.22 16.22 0 0 0 5.49-7.06l-1.08-.28Zm-1.22-5.85a16.6 16.6 0 0 1 1.64 3.06l.95-.46a15.7 15.7 0 0 0-1.69-2.98l-.9.38Zm14.7.75h2.72v2.4h-2.72v-2.4Zm-3.79 0h2.69v2.4h-2.69v-2.4Zm-3.7 0h2.6v2.4h-2.6v-2.4Zm-1.15-1.04v4.5h12.56v-4.5h-12.56Zm3.07 8.68c1.16.87 2.5 2.16 3.13 3l1-.68a19.81 19.81 0 0 0-3.2-2.91l-.93.6Zm.13-2.58v1.1h7.65v-1.1h-7.65Zm1.19-1.74c-.86 1.54-2.75 3.1-4.73 4.03.24.21.6.64.77.92a13.1 13.1 0 0 0 5.16-4.55l-1.2-.4Zm6.17 1.74v.21c-1.64 4.07-6.06 5.94-11.07 6.7.24.23.57.76.69 1.07 5.1-.88 9.7-2.93 11.66-7.51l-.8-.51-.23.04h-.25Zm14.1-1.42v1.1h5.9v-1.1h-5.9Zm3.2.48v8.88h1.14v-8.88h-1.14Zm-3.57-4.32v5.49c0 2.16-.16 4.9-1.75 6.9.27.16.68.54.84.78 1.78-2.22 2.02-5.38 2.02-7.65v-4.88c.23-.03.3-.1.32-.21l-1.43-.43Zm5.05-1.3a21.4 21.4 0 0 1-4.82 1.73c.14.24.34.66.42.91a27.87 27.87 0 0 0 5.41-1.76l-1.01-.88Zm-13.35 1.92v1.06h7.63v-1.06h-7.63Zm1.84 2.53v.98h4.09v-.98h-4.09Zm0 2.47v.97h4.13v-.97h-4.13Zm-2.08 2.6v1.08h7.98v-1.07h-7.98Zm1.54-9.57v10.04h1.1v-10.04h-1.1Zm4.16 0v10.04h1.12v-10.04h-1.12Zm-3.44 10.98a7.96 7.96 0 0 1-2.18 2.76c.29.16.77.51.98.72a10.7 10.7 0 0 0 2.36-3.14l-1.16-.34Zm2.52.48c.65.72 1.39 1.7 1.7 2.33l.97-.6c-.32-.6-1.1-1.55-1.73-2.22l-.94.5Zm13.03-8.45v1.17h11.94v-1.17h-11.94Zm5.82-3.15v3.65h1.24v-3.65h-1.24Zm5.74 3.15v.29a28.22 28.22 0 0 1-8.55 8.44c.29.2.67.57.87.83a31 31 0 0 0 9.09-9.06l-.9-.58-.24.08h-.27Zm-9.03 6.79-1.03.43c1.5 3.36 4.2 4.05 8.2 4.05h3.75c.07-.33.28-.9.45-1.18l-4.14.01c-3.41 0-6.04-.53-7.23-3.31Zm-2.43 4.74a34.52 34.52 0 0 0 3-5.67l-1.17-.45c-.62 1.72-1.85 4-2.99 5.43l1.16.69Zm22.6-14.7v2.13h1.24v-2.13h-1.23Zm-5.99 1.43v3.18h1.18v-2.08h10.95v2.08h1.23v-3.18h-13.36Zm2.06 2.7v1.06h9.05v-1.06h-9.05Zm2.1 2.4c3.12 2.37 3.19 6 2.05 6.8-.33.28-.68.31-1.11.31-.37 0-.92-.01-1.51-.08.2.34.32.83.35 1.15.5.04 1.01.05 1.4.05.72 0 1.17-.11 1.72-.54 1.65-1.16 1.57-5.62-2-8.25l-.9.56Zm2.41-2.16c-1.46 1.36-4.22 2.45-6.68 3.04.21.23.53.72.66.95 2.5-.72 5.37-1.95 7.02-3.56l-1-.43Zm-1.14 3.06a17.28 17.28 0 0 1-5.43 2.6c.24.25.5.67.65.94a21.6 21.6 0 0 0 5.59-3l-.8-.54Zm1.2 1.65c-1.52 1.55-4.63 3.22-7.19 3.89.23.27.5.7.64 1 2.57-.84 5.7-2.6 7.38-4.28l-.84-.61Zm1.47-4.53-1 .2c.97 4.02 2.86 7.27 6.03 8.72.2-.34.56-.8.84-1.05-3.06-1.21-4.99-4.27-5.87-7.87Zm4.13 1.18c-.92.82-2.47 1.9-3.57 2.55l.76.73c1.14-.6 2.65-1.6 3.74-2.48l-.93-.8Zm-94.15 16.98v1.08h8.24v-1.08h-8.24Zm.45 3.35v1.06h7.4v-1.06h-7.4Zm-.7 3.76v1.03h8.85v-1.03h-8.84Zm3.74-6.77v7.32h1.12v-7.32h-1.12Zm2.13 4.77c.58.54 1.27 1.33 1.6 1.83l.81-.5c-.32-.5-1.03-1.23-1.64-1.76l-.77.43Zm-8.14-7.59v14.01h1.22v-12.9h10.81v12.9h1.29v-14h-13.32Zm.66 12.09v1.1h11.97v-1.1h-11.97Zm16.2-12.14v14.04h1.16v-12.95h2.88v-1.09h-4.03Zm3.75 0v.34a56.2 56.2 0 0 1-1.56 4.37c1.2 1.28 1.48 2.39 1.48 3.27 0 .5-.1.94-.34 1.12-.14.08-.32.13-.53.14-.24.02-.58 0-.94-.01.19.3.3.75.32 1.05.37.02.78.02 1.12-.01a2 2 0 0 0 .87-.3c.48-.33.67-1.02.67-1.88 0-1.01-.29-2.16-1.47-3.5.54-1.27 1.15-2.86 1.65-4.17l-.85-.46-.21.04h-.2Zm2.3.55v1.12h7.02v-1.12h-7.02Zm-.7 3.82v1.13h8.59v-1.13h-8.58Zm3.45.55v7.6c0 .2-.07.26-.3.28-.23 0-.97.01-1.8-.02.15.37.33.88.36 1.23 1.13 0 1.88-.01 2.35-.22.48-.21.6-.58.6-1.27v-7.6h-1.21Zm2.3 2.66a24.15 24.15 0 0 1 1.74 4.93l1.11-.4a22.7 22.7 0 0 0-1.83-4.85l-1.03.32Zm-4.63-.3a12.82 12.82 0 0 1-2.04 4.57c.27.14.75.47.96.64.88-1.23 1.69-3.1 2.18-4.95l-1.1-.25Zm12.45-6.64v13.37h1.17v-13.37h-1.17Zm-2.72 3.2v1.13h6.27v-1.14h-6.27Zm2.78.42a16.94 16.94 0 0 1-3.02 5.77c.21.27.5.76.61 1.1 1.24-1.49 2.52-4.29 3.17-6.55l-.76-.32Zm2.5-4.72c-1.21.54-3.32 1-5.13 1.3.13.27.29.67.35.94 1.83-.25 4.05-.69 5.53-1.26l-.74-.98Zm-1.45 5.64-.57.5c.49.62 1.74 2.52 2.13 3.29l.75-.95c-.35-.48-1.9-2.41-2.31-2.84Zm7.73-5.86v14.7h1.18v-14.7h-1.18Zm-5.48 10.42.17 1.13 8.57-1.39-.2-1.12-8.54 1.38Zm1.3-8.6c.95.64 2.07 1.6 2.58 2.27l.84-.78a12.51 12.51 0 0 0-2.65-2.2l-.77.71Zm-.65 4.16a14.2 14.2 0 0 1 2.86 2.37l.8-.8a13.6 13.6 0 0 0-2.9-2.27l-.76.7Zm15.51-3.45v1.12h8.85v-1.12h-8.85Zm.34 3.52v1.1h7.08v-1.1h-7.08Zm3.45-6.05v6.67h1.19v-6.67h-1.19Zm-1.9 6.86-1.09.32c1.4 3.77 4 6.42 7.86 7.56.18-.3.51-.78.79-1.02-3.76-1-6.35-3.5-7.55-6.86Zm5.44-.81v.2c-1.18 3.96-4.57 6.44-8.25 7.39.23.25.53.76.65 1.08 3.93-1.18 7.44-3.79 8.8-8.38l-.75-.34-.23.05h-.22Zm-12.8 2.43.34 1.15c1.43-.41 3.3-.96 5.05-1.49l-.15-1.08c-1.9.54-3.9 1.08-5.25 1.42Zm.2-5.25v1.14h5.04v-1.14h-5.04Zm2.07-3.22v13.27c0 .23-.1.3-.3.3-.21.02-.92.02-1.67 0 .16.33.33.8.37 1.11 1.1 0 1.78-.03 2.2-.22.43-.18.6-.51.6-1.19v-13.27h-1.2Zm18 5.22v1.07h8.11v-1.07h-8.11Zm-.3 7.78v1.07h8.62v-1.07h-8.61Zm-.54-4.69v6.42h1.17v-5.33h7.44v5.33h1.22v-6.42h-9.83Zm4.84-7.1a21.86 21.86 0 0 0 6.86 5.63c.2-.35.5-.77.8-1.06a18.92 18.92 0 0 1-7.12-5.75h-1.22c-1.27 2.07-3.95 4.52-6.78 5.94.28.26.6.7.76.96 2.75-1.48 5.38-3.76 6.7-5.71Zm16.7 1.47-.55 1.15h8.17v-1.15h-7.61Zm2.02 3.47v1.1h5.23v-1.1h-5.23Zm-.02 3.52v1.14h5.48v-1.14h-5.48Zm-.6-6.63v11.67h1.24v-11.67h-1.23Zm-.78-2.86a16.83 16.83 0 0 1-3.55 6.18c.27.19.75.62.93.83a21.39 21.39 0 0 0 3.8-6.7l-1.18-.31Zm-3.86-.13a18.19 18.19 0 0 1-4.01 6.39c.22.29.59.93.7 1.21a22.96 22.96 0 0 0 4.47-7.23l-1.16-.37Zm-1.72 4.13v10.52h1.22v-11.7l-.03-.02-1.19 1.2Z" fill="#fff"/></svg>