<svg viewBox="0 0 32 40" fill="none" xmlns="http://www.w3.org/2000/svg"><path d="m32 39-1.16-2.32c-.03-.08-.08-.14-.1-.21l-.46-.86c-.47-.89-.95-1.75-1.45-2.6l-1.04-1.75c-.86-1.38-1.73-2.72-2.6-4a54.35 54.35 0 0 0-2.53-3.4c2.3-.94 4.07-2.22 5.34-3.84l.2-.25c1.28-1.72 1.91-3.98 1.91-6.76 0-2.3-.42-4.3-1.28-5.97a10 10 0 0 0-3.48-3.88 15.53 15.53 0 0 0-3.62-1.75c-2.75-.94-6.1-1.41-10.08-1.41-.85 0-1.74.02-2.7.06-.9.05-1.87.09-2.9.17-2.08.15-4.1.42-6.05.8v37.93c.95.23 2.19.44 3.68.6a6.22 6.22 0 0 1-.04-3.21 6.26 6.26 0 0 1 2.6-3.66 6.25 6.25 0 0 1 3.4-7.73 3.8 3.8 0 0 1 3.67-4.23c.96-1.72 2.32-3.4 4.09-4.85-.3-.24-.6-.48-.9-.74l-.87.38c-.33.13-.89.53-1.09.12l-.01-.14c.17-.6.4-1.32.68-1.97.27-.6.65-1.24 1.19-1.53.45-.24 1.07-.23 1.73-.2 1.45-2.03 3.11-3.88 6.27-4.42l.22-.01c.1.03.17.09.21.18l.02.27c-.05 3.16-1.59 5-3.29 6.7.12.5.29 1.27.12 1.8-.2.6-.83 1.08-1.4 1.45-.4.28-.88.53-1.4.77-.25.12-.58.35-.71.05-.05-.12.01-.35.04-.47l.32-1.26c-.24-.23-.5-.45-.76-.66a18.47 18.47 0 0 0-2.55 4.97 3.8 3.8 0 0 1 1.47 5.24 6.2 6.2 0 0 1 1.63 5.02 6.24 6.24 0 0 1 4.2 8.57c4.1-.18 7.46-.54 9.48-1Z" fill="#fff"/></svg>