<svg viewBox="0 0 51 56" fill="none" xmlns="http://www.w3.org/2000/svg"><path d="M39.28 41.77c-.18 0-.3.12-.3.3 0 .17.12.28.3.28.17 0 .29-.11.29-.29 0-.11-.12-.29-.3-.29Zm.98 2.86c0 .17.12.29.3.29.17 0 .29-.12.29-.3 0-.17-.12-.28-.3-.28-.17 0-.29.11-.29.29Zm-.98-.29c-.18 0-.3.11-.3.29 0 .17.12.29.3.29.17 0 .29-.12.29-.3 0-.17-.12-.28-.3-.28Zm2.26.29c0 .17.12.29.3.29.17 0 .29-.12.29-.3 0-.17-.12-.28-.3-.28-.17 0-.29.11-.29.29Zm-2.67-5.72.06.76-.64-.06v.82l.64-.12-.06.76h.81l-.06-.76.64.12v-.82l-.64.06.06-.76h-.81Zm.93 2.63v2.62h2.5a3.1 3.1 0 0 0-2.5-2.62Zm-.52 1.51c-.18 0-.3.12-.3.3 0 .17.12.29.3.29.17 0 .29-.12.29-.3 0-.17-.12-.29-.3-.29Zm1.04 3.33c-.06 0-.29.64-.06 1.1.12.24.35.36.59.3.23-.06.29-.3.29-.41-.06-.52-.47-1-.82-1Zm-2.09 0c-.35 0-.76.47-.76.99 0 .18.06.35.29.4.23.07.47-.05.58-.28.12-.47-.06-1.11-.11-1.11Zm1.04-.35c-.23 0-.93 1.34-.4 1.98a.5.5 0 0 0 .4.18c.18 0 .35-.06.41-.18.47-.64-.17-1.98-.4-1.98Z" fill="#fff"/><path d="M36.2 44.63c0-.3.05-.53.05-.53h2.5v-2.62a3.2 3.2 0 0 0-2.5 2.4c-.06.1-.3.17-.47.1-.93-.1-2.8-.46-2.8-.87 0-.58.42-.81.77-.81.52 0 1.1.29 1.57-.41-1.69.06-.41-2.4-1.8-2.86.05.64 0 1.75-.24 2.33 0 0-.52-.52-1.05-.76.06.47-.06 1.4-.23 1.87 0 0-.58-.58-1.22-.76.58.82.58 2.04.4 2.74-.05.24.12.47.53.47.7-.06 3.03.06 4.02.47.29.11.58.29.7.52.11.3.34.76.7 1 .17-.53.75-1.11 1.16-1.06.11 0 .23.24.29.41.06-.17.35-.7.64-.7.29 0 .58.41.7.76.05-.23.17-.46.29-.46.4 0 .93.35 1.1.99.18-.18.88-1.11.93-1.75h-6.05v-.47Z" fill="#fff"/><path d="M37.7 44.63c0 .17.12.29.3.29.17 0 .28-.12.28-.3 0-.17-.11-.28-.29-.28-.17 0-.29.11-.29.29Zm-1.22 0c0 .17.12.29.3.29.17 0 .28-.12.28-.3 0-.17-.11-.28-.29-.28-.17 0-.29.11-.29.29Zm-24.1 1.28a1.7 1.7 0 0 0-.23 1.17c.06.17.12.23.29.23.17 0 .23-.11.3-.29.05-.4-.24-1.05-.36-1.1Zm2.15 1.81c-.11.18-.29.23-.34.3.05.05.23.17.4.17.12 0 .24-.06.3-.12.17-.35 0-.64-.06-.76-.06.12-.12.3-.3.41Zm-.81-.82c.23-.23.3-.4.23-.52-.05-.18-.58-.7-1.16-1.34 0 .11-.06.23-.06.35.41.58.58 1.16.47 1.69.06.06.06.06.11.06.12.11.3-.06.41-.24Zm.81.06c0-.11 0-.17-.05-.23h-.06c-.06 0-.12.12-.18.17-.05.06-.11.18-.23.3l-.29.29c-.12.06-.18.17-.18.23v.06c.06.06.06.06.12.06s.23-.06.53-.35c.29-.3.34-.41.34-.53Zm-3.83-3.09s-.06.06-.12.18c.11 0 .29 0 .4.06v-.41c-.11 0-.23.11-.29.17Z" fill="#fff"/><path d="M12.26 44.05s1.23 1.05 1.63 1.45c.12.12.24.12.35.06.06-.06.18-.06.3-.11a14.8 14.8 0 0 1 3.9-.47c.46 0 .58-.23.52-.47-.12-.7-.18-1.92.4-2.74-.63.23-1.22.76-1.22.76-.23-.4-.29-1.4-.23-1.87a2.6 2.6 0 0 0-1.05.76c-.23-.58-.29-1.69-.23-2.33-1.4.46-.12 2.97-1.8 2.86.46.7 1.04.4 1.57.4.35 0 .81.24.75.82-.05.41-2.32.88-3.26.88-.64 0-1.1-.18-1.4-.64-.17-.24-.28-.3-.46-.3-.23.06-.46.24-.46.82 0 .35.17 1.17.58 1.17.23.05.23-.65.11-1.05Zm-2.32-.35h.17c-.17.23-.17.4-.11.46.11.12.17-.11.46-.4.3-.3.47-.41.4-.53-.05-.06-.22-.06-.46.12 0-.06.06-.12 0-.18-.11-.29-.52-.64-.81-.64h-.12c.12-.18.06-.3 0-.4-.06-.07-.11 0-.23.1 0-.05 0-.17-.06-.28a13.04 13.04 0 0 0-2.8-2.63c-.28-.12-.34.06-.34.06s-.18.12-.06.35c.17.47 2.1 2.4 2.62 2.74.12.06.23.12.29.06-.12.12-.17.12-.06.23.06.06.18.12.35 0v.12c.12.23.47.7.76.82Zm1.39 1.4c0-.18-.35-.53-.81-.53-.64 0-.93.41-.93.64 0 .41.4.47.52.47.4 0 1.17-.47 1.22-.58Zm-.58.99c-.17.23-.23.47-.17.64.06.23.29.35.52.35.24 0 .47-.12.58-.3.24-.4.24-1.27.18-1.33-.23 0-.82.23-1.1.64Zm-5.7-9.1c-.18-.18-.58.11-.82-.06.12-.59.53 0 .88-.35.17-.18.06-.41 0-.47-.18.18-.41.12-.47 0 .4-1.05-.4-2.16-1.22-2.04.17.23.23 1 .12 1.17.29.23.11.75-.24.58-.23-.12-.64-.7-.17-1.05 0-.18-.3-.18-.53.17.18-.64-1.04-.46-1.28-.29-.11.3-.29 1.52.35 1.29-.35.29-.29.58-.17.58.4-.47.93-.12 1.05.12.17.35-.35.58-.59.29-.17.06-.93.06-1.1-.12-.12.82 1.05 1.7 2.04 1.23.11 0 .17.29 0 .46.05.12.34.18.46 0 .4-.4-.17-.81.35-.93.12.23-.12.64.06.82.29.29.64-.3 1.05-.3 0-.46.52-.81.23-1.1Zm-3.03-1.35s-.17-.11.06-.4c.23-.24.35-.06.35-.06s.23.46.3.7c-.24 0-.7-.24-.7-.24Zm1.86 1.46c-.11 0-.4.3-.52.12l-.64-.64.35-.35.35-.35.64.64c.06.17-.18.47-.18.58Zm1.34 1.05c-.06 0-.11 0-.17.06-.06.06-.06.18-.06.3 0 .11.12.23.23.34.06.18.24.24.35.24.06 0 .12 0 .18-.06.11-.12.06-.47-.12-.64-.12-.12-.3-.24-.4-.24Z" fill="#fff"/><path d="m3.36 36.23-.17.17-.18.18s.35.47.64.29c.18-.3-.29-.64-.29-.64Zm33.99-1.75c0 .12-.46.35-.81-.3-.35-.05-.7-.17-.93-.28.4.81.75 1.51 1.34 1.86.87.53 2.2.41 2.62-.17a5.86 5.86 0 0 1-2.1-2.45c-.12.23-.3.64-.4.93.05.12.17.3.28.41Zm8.09-12.78a13.3 13.3 0 0 0 2.92-1.92c.05.11.29.64-.41 1.22-.53.41-1.57.93-2.33 1.23a7.69 7.69 0 0 1-1.98 1.75c1.86-.3 4.07-1.05 5.18-2.1 2.04-2.05.99-4.5.7-5.08-1.34 1.7-3.9 3.44-6.29 4.38.82.11 1.63.29 2.21.52Zm-1.51-3.73c1.22-1 2.5-2.98 2.74-3.68.29.18.4.76.05 1.4-.64 1.11-1.8 2.1-2.79 2.92-.06.7-.35 1.58-.7 2.22 1.46-1 3.15-2.45 3.9-3.45a5.1 5.1 0 0 0 1.22-3.85 4.9 4.9 0 0 0-1.4-3.26c-.28 1.57-1.86 4.26-3.25 5.77.11.53.23 1.29.23 1.93Zm-.93 9.22c.3.35.58.75.82 1.1 1.1.24 2.44.18 2.44.18s-.06.58-.81.64c-.35 0-1.4-.17-1.8-.3-.18.07-1 .3-1.81.42 1.16.4 2.85.81 3.9.81h.29a3.05 3.05 0 0 0 2.62-2.62c-.53.12-1.4.17-2.27.17-.82 0-2.27-.05-3.38-.4Zm7.04-4.44a15.2 15.2 0 0 1-6.34 1.64c.52.35 1.05.7 1.4 1.05.87-.06 2.1-.35 2.79-.59 0 .12 0 .7-.81.94-.59.17-1.4.17-2.04.17-.53.35-1.28.64-1.92.88.58.05 1.34.11 1.98.11 1.1 0 2.15-.11 2.79-.35.58-.17 2.5-.99 2.15-3.85Zm-8.14 8.05c.63.3 1.33.53 1.91.58 0 0-.11.59-.98.47-.53-.06-1.11-.47-1.23-.52a7.6 7.6 0 0 1-1.51 0c.99.7 2.5 1.51 3.78 1.63h.18c1.34 0 2.38-1.34 2.68-1.98-1.34 0-3.67-.59-5.07-1.35.06.24.18.7.23 1.17Zm-2.33 1.81c.35.4.93.64.93.64s-.18.3-.53.3c-.11 0-.23-.06-.35-.12-.23-.12-.58-.53-.58-.53a8.33 8.33 0 0 1-1.28-.23c.7.87 1.86 1.98 3.14 2.27.18.06.35.06.59.06 1.1 0 2.03-.81 2.27-1.34a8.55 8.55 0 0 1-4.08-2.1c0 .35-.06.76-.11 1.05Zm-8.33 14.29c.64 0 1.05-.23 1.34-.87-.87.4-1.8.17-3.55-.35 0 0-.64.3-1.05.35 1.05.3 2.56.82 2.8 1.4.11.47-.18.58-.18.58-.58-.7-1.28-1.1-2.8-1.57 0 .29-.05.46-.05.46s-.3.06-.99-.05c.58.46 1.98 1.69 2.15 2.97.12.88-.52.94-.52.94-.06-1.35-.64-2.16-1.92-3.5 0 0-.23.29-.47.46 0 0-.46-.06-.81-.35.17 1.75.23 5.95.12 6.6-.06.46-.35.7-.35.7s-.3-.18-.35-.7c-.12-.7 0-4.9.11-6.6-.4.23-.81.35-.81.35-.3-.17-.47-.47-.47-.47-1.22 1.35-1.8 2.22-1.92 3.5 0 0-.58-.05-.52-.93.17-1.28 1.57-2.5 2.15-2.97-.64.11-.99.05-.99.05s-.06-.17-.06-.46c-1.5.46-2.15.87-2.79 1.57 0 0-.3-.06-.17-.58.23-.58 1.74-1.05 2.79-1.4a6.95 6.95 0 0 1-1.05-.35c-1.69.52-2.68.76-3.55.35.23.64.7.87 1.34.87a3.1 3.1 0 0 0-1.8 1.93c.58 2.16 2.44 2.8 2.44 2.8-.47-1.05-.3-3.1 2.5-4.5-1.68 1.7-2.38 3.27-1.92 4.73.41 1.34 1.8 1.87 2.8 1.93-.7-2.22-.41-4.26 1.1-5.84-.64 1.75-1.57 7.18 1.05 8.06 2.62-.88 1.69-6.3 1.05-8.06 1.51 1.64 1.8 3.62 1.1 5.84 1.05 0 2.39-.59 2.8-1.93.46-1.46-.18-3.03-1.92-4.72 2.8 1.4 2.97 3.5 2.5 4.49 0 0 1.86-.64 2.44-2.8 0-.82-.81-1.57-1.57-1.93Zm-18.04-11.14c.58-.35.93-1.05 1.34-1.87a3.5 3.5 0 0 1-.93.3c-.35.64-.82.4-.82.29.12-.12.23-.3.3-.41-.13-.3-.3-.7-.42-.94a5.9 5.9 0 0 1-2.1 2.45c.42.59 1.75.7 2.63.18Zm-6.76-11.78a6.8 6.8 0 0 1-1.97-1.75 8.68 8.68 0 0 1-2.33-1.23c-.7-.58-.47-1.1-.41-1.22a9.74 9.74 0 0 0 2.91 1.92c.58-.23 1.4-.4 2.21-.52a16.11 16.11 0 0 1-6.28-4.32c-.3.52-1.4 3.03.7 5.07 1.04 1 3.31 1.76 5.17 2.05Zm.41-3.21a5.82 5.82 0 0 1-.7-2.22c-.98-.76-2.1-1.75-2.79-2.92-.35-.64-.23-1.22.06-1.4.23.7 1.51 2.69 2.74 3.68 0-.64.11-1.4.29-1.93-1.4-1.51-3.03-4.2-3.26-5.77a4.85 4.85 0 0 0-1.4 3.27 5.1 5.1 0 0 0 1.22 3.85c.7.99 2.39 2.5 3.84 3.44Zm-.58 7.53c.18-.36.53-.76.82-1.11-1.11.29-2.57.35-3.32.35-.93 0-1.8-.06-2.27-.18.06.93.93 2.5 2.62 2.63h.29c1.05 0 2.73-.41 3.9-.82a7.57 7.57 0 0 1-1.8-.4c-.47.22-1.52.4-1.87.34-.76-.06-.81-.64-.81-.64s1.34.06 2.44-.18Zm-4.07-1.64a8.9 8.9 0 0 0 2.79.35c.7 0 1.4-.06 1.98-.12a9.65 9.65 0 0 1-1.92-.87c-.64 0-1.52-.06-2.04-.18-.81-.23-.81-.81-.81-.93.7.3 1.92.58 2.79.58.35-.29.81-.7 1.4-1.05-2.1 0-4.83-.81-6.35-1.63-.35 2.8 1.57 3.62 2.16 3.85Zm3.9 6.24h.17a8.82 8.82 0 0 0 3.78-1.63c-.29.06-1.16.06-1.51 0-.12.12-.76.47-1.22.52-.93.12-1-.46-1-.46.6-.06 1.29-.3 1.93-.59.06-.46.17-.93.29-1.22-1.45.82-3.78 1.4-5.12 1.4.29.64 1.34 1.98 2.68 1.98Zm2.5 2.1c.17 0 .4 0 .58-.06 1.22-.29 2.45-1.4 3.14-2.27-.4.12-.81.23-1.28.23 0 0-.29.35-.58.53a.82.82 0 0 1-.35.11c-.35 0-.52-.29-.52-.29s.58-.29.93-.64a5.7 5.7 0 0 1-.12-1.05 8.3 8.3 0 0 1-4.07 2.1 2.6 2.6 0 0 0 2.27 1.34Zm15.95-31.9c0 .28.23.46.46.46a.5.5 0 0 0 .47-.47c0-.29-.23-.46-.47-.46-.23-.06-.46.17-.46.46Zm.17-1.06h.64l-.06-.81.7.11v-.64l-.7.06.06-.76h-.64l.06.76-.7-.06v.64l.7-.11-.06.81Zm-2.27 7.7c.06 0 .18.06.24.06h4.65c.12 0 .18 0 .24-.06.17-.06.23-.17.29-.35h-5.7c.05.24.17.3.28.35Zm5.12-.7c.06 0 .06-.06.06-.06v-.35c0-.05-.06-.05-.06-.05h-5.06c-.06 0-.06.05-.06.05v.35c0 .06.06.06.06.06h5.06Zm.53-.87c.12-.18.76-1.4.76-2.69 0-1.16-1.46-1.8-2.27-1.8-.12 1.63-.76 4.2-1.57 4.2-.76 0-1.46-2.57-1.58-4.2-.87 0-2.27.64-2.27 1.8 0 1.29.64 2.57.76 2.69h6.17Z" fill="#fff"/><path d="M25.01 7.06c.41 0 .88-1.23 1.05-2.45 0-.24-.4-.59-1.05-.64-.64 0-1.05.35-1.05.64.18 1.1.7 2.45 1.05 2.45Zm7.39 19.14c0-.18-.11-.3-.29-.3h-14.14c-.18 0-.3.12-.3.3v9.85s0 .53.24 1.11c.3.7 1.51 1.87 3.03 2.69a24.19 24.19 0 0 1 4.07 2.5c.64-.52 1.92-1.4 4.08-2.5 1.57-.82 2.73-1.99 3.02-2.69.3-.64.24-1.1.24-1.1l.05-9.87Zm-4.77 3.55v.06c.18.7.35 1.46.4 2.16a16 16 0 0 1 1.58 1.4c.87-1 1.34-1.93 1.34-2.68a.77.77 0 0 1-.76-.76c0-.18.06-.3.12-.41-.4-.18-.87-.23-1.28-.23-.35 0-.7.05-1.1.11h-.07l-.11.06.06-.06c.05-.11.05-.17.11-.29 1.17-.23 2.1-.12 2.68.23a.82.82 0 0 1 .35-.11c.4 0 .76.35.76.76 0 .29-.18.52-.41.64 0 .81-.47 1.86-1.46 3.03l.18.18.11.11v.06l-.17.18h-.12c-.06-.06-.06-.06-.06-.12-.05-.06-.05-.12-.11-.18l-.35.35-.12.18c-.17.12-.35.17-.46.12h-.06l.06-.06c.29-.24.52-.53.75-.7-.35-.41-.81-.82-1.28-1.23.06.41.06.82.06 1.23 0 .35 0 .76-.06 1.16-.06.06-.17.12-.23.18l-.06.06v-.06c.06-.47.06-.93.06-1.34v-.53a12.01 12.01 0 0 0-.4-3.03v-.06c.05-.06.1-.12.17-.17l-.12-.24Zm-4.77-1.05c.58-1.4 1.4-2.16 2.21-2.16.82 0 1.63.76 2.21 2.16v.06h-.06c-.05 0-.11.06-.23.12h-.06v-.06c-.52-1.23-1.22-1.93-1.92-1.93s-1.4.7-1.92 1.93v.06h-.06c-.06-.12-.17-.12-.17-.18Zm-.23.35c.17.12.7.41 1.28.24.52-.18 1.1-.18 1.1-.18s.64 0 1.1.18a1.6 1.6 0 0 0 1.29-.24c.06 0 .06 0 .06.06-.06.23-.24.82-1.1 1.05-.82.18-1.23 1.11-1.35 1.52 0 .06-.06.06-.11 0-.12-.41-.53-1.34-1.34-1.52a1.32 1.32 0 0 1-1.1-1.05c.1-.06.17-.06.17-.06Zm1.4 2.34c.1 0 .28-.06.4-.12l.17.4a.98.98 0 0 1-.58.18 1.1 1.1 0 0 1-1.1-1.1c0-.18.05-.3.11-.41l.41.17c-.06.06-.06.18-.06.23-.06.35.3.65.64.65Zm-.3-.7v-.12c.18.06.35.23.47.35-.06.06-.12.06-.18.06-.17 0-.29-.12-.29-.3Zm.3 1.51c.23 0 .52-.06.75-.23.06.06.17.3.23.3.12 0 .18-.24.24-.3.23.12.52.23.75.23.41 0 .76-.17 1.05-.4v.05c.12.47.17 1.05.12 1.29 0 .23-.12.46-.18.7-.11.29-.17.52-.17.52s0 .06-.06.18c-.06.23-.23.64-.47 1.05a2.6 2.6 0 0 0-1.51-.41c-.52 0-.99.11-1.4.35-.17-.41-.35-.76-.4-.94-.06-.11-.06-.17-.06-.17s-.12-.23-.24-.58a2.1 2.1 0 0 1-.11-.65c0-.17-.06-.75.11-1.28 0-.06.06-.12.06-.17.4.23.87.46 1.28.46Zm2.03-.81c.4 0 .7-.3.7-.7 0-.12 0-.18-.06-.24.12-.06.3-.11.4-.17.07.11.12.29.12.4a1.1 1.1 0 0 1-1.1 1.11.98.98 0 0 1-.58-.17c.05-.12.11-.23.17-.4.06.1.23.17.35.17Zm-.17-.47a.9.9 0 0 1 .46-.35v.12c0 .17-.12.29-.29.29-.06 0-.12 0-.17-.06Zm-6.76-1.63c.18 0 .3.05.41.11.4-.23.87-.35 1.51-.35.35 0 .7.06 1.11.12h.06c0 .06.06.17.11.29l.06.06-.11-.06h-.12a6.4 6.4 0 0 0-1.05-.12c-.4 0-.93.06-1.28.3.06.11.12.23.12.4 0 .41-.35.76-.76.76 0 .7.47 1.64 1.34 2.69.47-.47.99-1 1.57-1.4.06-.7.23-1.46.4-2.16v-.06l.07.06.17.17.06.06v.06c-.12.47-.23.87-.3 1.34v.06c-.05.35-.1.82-.1 1.28 0 .35-.07.64-.07.88 0 .35 0 .7.06 1.16v.06h-.06c-.11-.06-.17-.06-.23-.06h-.06v-.05c0-.3-.06-.7-.06-1.11 0-.41 0-.82.06-1.23-.46.41-.93.82-1.28 1.23.3.35.7.7 1.17 1.1l.05.06h-.05a.5.5 0 0 1-.41 0c-.35-.35-.64-.58-.93-.87-.06.06-.12.12-.12.17l-.06.06c-.05 0-.11.06-.23.12l-.06-.06s-.06 0-.06-.06h-.05v-.06c.11-.17.23-.29.34-.4-.98-1.11-1.45-2.16-1.45-2.98a.72.72 0 0 1-.4-.64c-.12-.58.23-.93.63-.93Zm8.27 9.04c-.4 1.17-1 1.98-1.63 2.33-.06.35-.35.64-.7.64s-.64-.29-.7-.64c-.64-.35-1.22-1.1-1.63-2.27v-.06l.35-.12v.06c.35 1 .82 1.7 1.34 2.04.12-.29.35-.52.7-.52s.58.23.7.46c.52-.35.99-1.05 1.34-1.98v-.06h.05c0 .06.06.06.18.12Zm-2.97-.06c0-.23.06-.88.17-1.1a1 1 0 0 1 .47-.13.9.9 0 0 1 .52.18c.06.23.18.82.18 1.05 0 .23-.58.4-.64.47-.18-.06-.7-.18-.7-.47Zm7.45-2.33c-.06.05-.12.11-.17.11-.06 0-.12.06-.24.06h-.06c-.11 0-.23 0-.29-.06-.05 0-.05-.06-.11-.06-.18 0-.58.12-.7.18.06 0 .58.06.93.35.18.12.52.17.64.17 0 .06-.58.47-1.69.24l-.29-.06a6.7 6.7 0 0 0-1.51-.18c.06 0 .11.06.11.06.12.06.3.12.41.18 0 0 .06 0 .06.06h.06c.06 0 .12 0 .12.05.05 0 .11.06.17.06.06.06.17.12.17.18s.06.06.06.12c0 .11 0 .17-.06.29-.17.23-.4.23-.64 0l-.05-.06a.8.8 0 0 1-.18-.24v-.05h-.06c-.11-.06-.17-.18-.29-.18l-.58-.17h-.17c.17.11.34.23.4.35v.05c.12.18.12.35.18.53.17.35.23.4.4.52-.17.06-1.04.06-1.45-.58 0 0-.06-.06-.06-.12-.11-.23-.17-.46-.23-.64-.06-.17.06-.35-.06-.4-.12-.06-.17 0-.17 0l-.06.05v.06c0 .06-.06.06-.06.06v.06s0 .06-.06.06h-.23s-.06 0-.06.06c-.06 0-.12.05-.18.05-.05 0-.11-.05-.11-.11v-.12h-.12c-.06 0-.06 0-.11-.06v-.17c-.06.06-.06.06-.12.06h-.12c-.05 0-.05-.06-.05-.12v-.12h-.12c-.06 0-.18-.06-.23-.06h-.06c-.06 0-.18.06-.24.06h-.11v-.11l.06-.06v-.06h-.12v.06h-.06v.11c0 .06 0 .12-.06.12-.06.06-.06.06-.11 0 0 0-.06 0-.06-.06 0 0-.06 0-.06-.06 0 0 0 .06.06.06v.12c-.06.06-.06.06-.12.06h-.11c0 .06.05.06 0 .11 0 .06-.06.06-.12.06h-.23l-.06-.06h-.12s-.06 0-.06-.06l-.05-.05v-.06c-.12-.12-.3.29-.3.29-.52 1.1-1.8 1.34-1.8 1.28 0 0 .29-.11.4-.52.07-.24.07-.3.18-.53 0-.06.06-.06.06-.11.06-.12.23-.18.35-.3h-.18c-.17.06-.34.06-.58.18-.11.06-.17.12-.29.17h-.06v.06c0 .06-.06.12-.11.24l-.06.06c-.23.23-.4.23-.64 0l-.06-.06a.18.18 0 0 1 0-.24c0-.06.06-.11.12-.17.05-.06.11-.06.17-.12.06-.06.12-.06.18-.06.05 0 .05 0 .11-.06h.12s0-.05.06-.05c.05 0 .11-.06.17-.06.06 0 .12-.06.18-.06 0 0 .05 0 .11-.06-.46 0-.93.06-1.45.18-.06 0-.18.05-.3.05a3.65 3.65 0 0 1-1.68-.23c0-.06.29-.06.58-.23.23-.12.35-.24.52-.3.3.24.64.24.7.24-.11-.06-.64-.12-.81-.18 0 0-.06.06-.12.06-.11.06-.23.06-.35.06-.06 0-.17 0-.23-.06-.06 0-.12-.06-.18-.11-.05-.06-.05-.12-.05-.3.05-.23.29-.35.58-.29a1 1 0 0 1 .35.18l.06.06c.17 0 .4.11.64.17.23.12.4.18.52.18-.06 0-.12-.06-.17-.06-.06 0-.12-.06-.12-.06-.06-.06-.12-.06-.18-.12-.34-.17-.7-.35-.93-.58a1.37 1.37 0 0 1-.29-.58c-.06-.53-.29-.76-.29-.82.06-.06.87.35 1.17.64.17.23.23.41.29.58v.06c.05.18.23.35.52.53.06 0 .06.06.12.06-.06-.12-.12-.18-.18-.3v-.05l-.06-.06s-.05-.06-.05-.12c-.06-.06-.06-.11-.12-.17-.06-.18-.06-.35 0-.41s.12-.12.23-.18c.23-.06.4.06.47.41v.47c.11.35.4.64.75.87-.4-.35-.64-1.16-.58-1.16.06-.06.4.17.76.35.17.06.35.17.52.29.12.06.24.17.3.23.11.06.17.18.23.24a288.4 288.4 0 0 0 .29.29c.11.06.29 0 .29 0 .06 0 .11 0 .17-.06l.06-.06c.06-.06.12-.06.18-.06v-.06c0-.11.05-.17.17-.23 0 0 .06 0 .06-.06h.17c0-.06.06-.06.12-.12.12-.05.3-.05.4.06.07.06.07.12.12.18v.29h.35c.06 0 .12 0 .18.06.06 0 .11-.06.17-.06h.18v-.18c0-.05 0-.11.06-.17 0 0 0-.06.05-.06l.06-.06a.37.37 0 0 1 .35 0c.06 0 .06.06.12.12h.23c.12.06.18.12.18.23h.11s.3 0 .35.06h.3l.1-.12c.07-.05.18-.17.24-.23.12-.06.18-.17.3-.23.17-.12.4-.18.57-.24.59-.23.64-.58.7-.58.06.06-.11 1-.52 1.34.29-.23.58-.52.76-.87v-.47c.11-.3.23-.47.46-.4.12.05.18.1.23.17.06.11.06.23 0 .4 0 .06-.05.12-.11.18l-.12.12-.06.06v.05a1 1 0 0 1-.23.3l.12-.12c.29-.23.46-.4.52-.58.06-.18.12-.35.3-.59.28-.29.34-.4.63-.58.06-.06.47-.12.53-.12.05.06-.3.18-.41.76-.06.18-.12.47-.3.7-.23.3-.46.35-.75.53l-.06.05c-.06.06-.11.06-.23.12-.12.06-.18.12-.23.12.17-.06.35-.12.58-.18.17-.11.4-.17.64-.17 0 0 0-.06.06-.06a.95.95 0 0 1 .35-.18c.29-.11.52 0 .58.3.06.17 0 .29-.06.35Z" fill="#fff"/><path d="M42.07 24.2c.87-.4 2.33-1.4 2.9-2.1-.8-.28-2.44-.46-3.37-.46 1.92-1.34 1.98-4.14 1.46-6.18a9.87 9.87 0 0 1-2.39 3.8c.06.8-.17 2.2-.64 3.02.64.24 1.4.59 1.92 1-.35.46-1.1 1.1-1.57 1.51.4.41 1.05 1.17 1.4 1.64-.47.35-1.4.7-1.92.87.23.53.58 1.4.7 2.04-.59.12-1.34.18-2.16.18.06.58-.06 1.52-.17 2.1a5.66 5.66 0 0 1-2.04-.58c-.23.81-.76 1.63-.76 1.69-.7-.82-1.4-1.11-2.03-1.11v-.53c.64 0 1.33.24 1.86.76.23-.4.46-1.16.58-1.63a8.1 8.1 0 0 0 1.86.64c.06-.58.12-1.34.06-1.93.64.06 1.34.06 2.1-.05a7.78 7.78 0 0 0-.88-1.87 9.49 9.49 0 0 0 1.87-.76c-.35-.47-.93-1.1-1.34-1.52a11.6 11.6 0 0 0 1.51-1.28c-.52-.35-1.22-.7-1.8-.93.81-1.11.99-3.39.81-4.44-.7 2.4-2.8 4.15-4.07 4.96-.06.06-.12.12-.18.12-.06.06-.29.35-.17.7 0 .12.06.17.06.29.11.47.11 1.17-.59 1.8-.58.53-1.28.6-1.68.53v-1.28c0-.17-.12-.29-.3-.29h-.87l-.4-.4h.87c.46-.07.99-.3.99-.3s-.53 0-.76-.06c-.3.06-.93-.23-1.46-.82-.17-.23-.34-.46-.46-.7-.47-.4-.99-.93-1.34-1.69a6.88 6.88 0 0 1-.4-1.75c-.18.12-.36.35-.59.64-.4.53-.58 1.29-.58 1.29l-.18.58-.29-.52s-.4-.7-.46-1.58c0-.4 0-.76.06-1.05-.12.06-.3.18-.47.3-.7.52-1.1 1.04-1.1 1.04-.36.47-.59.88-.65 1.05a3.68 3.68 0 0 0-.64-1.05s-.35-.58-1.1-1.05c-.18-.11-.35-.23-.47-.29.06.3.06.7.06 1.05-.06.88-.46 1.52-.46 1.58l-.3.46-.17-.58s-.23-.76-.58-1.28c-.24-.3-.41-.53-.58-.65a6.36 6.36 0 0 1-.41 1.75 4.03 4.03 0 0 1-1.34 1.7c-.12.23-.3.46-.47.7-.52.58-1.16.87-1.45.93-.23.06-.76.06-.76.06s.53.23 1 .29c.46.06.86 0 .86 0l-.4.4h-.88c-.17 0-.29.12-.29.3v1.28c-.4.06-1.16 0-1.69-.52a1.9 1.9 0 0 1-.58-1.81c.06-.06.06-.18.06-.3.12-.34-.12-.63-.17-.7-.06-.05-.12-.1-.18-.1-1.28-.83-3.32-2.58-4.07-4.97-.18 1.05.05 3.27.81 4.44a8.8 8.8 0 0 0-1.8.93c.29.35 1.04 1 1.51 1.28a8.32 8.32 0 0 0-1.34 1.52c.4.23 1.22.58 1.86.76a7.94 7.94 0 0 0-.87 1.87c.7.11 1.46.11 2.1.05-.06.59 0 1.4.05 1.93.65-.12 1.4-.35 1.87-.64.11.4.35 1.22.58 1.63a2.64 2.64 0 0 1 1.86-.76v.53c-.64 0-1.34.29-2.03 1.1 0-.05-.53-.87-.76-1.69-.4.18-1.28.53-2.04.59a12.8 12.8 0 0 1-.17-2.1c-.82 0-1.58-.06-2.16-.18.12-.64.47-1.51.7-2.04-.52-.17-1.45-.58-1.92-.87.3-.47.99-1.23 1.4-1.64a9.69 9.69 0 0 1-1.57-1.51 7.61 7.61 0 0 1 1.92-1 6.63 6.63 0 0 1-.64-3.03 8.68 8.68 0 0 1-2.39-3.8c-.58 2.05-.47 4.9 1.45 6.2-.93 0-2.56.23-3.37.46a12 12 0 0 0 2.9 2.1 9.2 9.2 0 0 0-2.44 1.4c.64.4 2.1.87 2.8 1.05-.4.35-1.22 1.28-1.51 1.75a11 11 0 0 0 2.5.35 8.1 8.1 0 0 0-.58 1.92c.35.06 1.57 0 2.2-.17-.05.52-.05 1.4.07 1.8.58-.05 1.45-.34 1.86-.46.12.47.52 1.4.7 1.63a4 4 0 0 0 .87-.23 1.6 1.6 0 0 1 2.04.82c.58 1.34.35 2.91-.76 2.62-1.28.24-.4 1.87-1.16 2.4.99.7 1.28-.94 2.56-.65-.12.59-.12 1.7 0 2.16.4-.29.99-.52 1.34-.58a4.03 4.03 0 0 0-.06 1.69 14.7 14.7 0 0 1 1.92-.64s-.64 1.28-.23 2.57c.23.17 1.74-.59 1.74-1 .06.53-.58 1.7-1.57 1.93 1.05 1.05 1.98 1 2.1 1 .17 0 .29 0 .4-.13-.05.3-.11.7-.05.94h.17c.3 0 .53-.06.7-.12a2 2 0 0 0 .35.82l.12.11c.23 0 .81-.29.93-.46.11.17.7.46.93.46.06-.05.11-.05.11-.11.24-.24.35-.59.35-.82.24.12.47.12.7.12h.18c.05-.24.05-.64-.06-.94.11.06.29.12.4.12.12 0 1.05.06 2.1-1-.99-.22-1.63-1.4-1.57-1.92 0 .47 1.51 1.17 1.75 1 .4-1.29-.24-2.57-.24-2.57s1.63.4 1.92.64c.12-.53.06-1.34-.05-1.7.34 0 .93.3 1.33.6a6.7 6.7 0 0 0 0-2.17c1.23-.29 1.52 1.34 2.57.64-.7-.52.17-2.15-1.17-2.39-1.1.35-1.34-1.28-.76-2.62a1.64 1.64 0 0 1 2.04-.82c.3.12.58.18.88.23.11-.23.58-1.16.7-1.63a8 8 0 0 0 1.86.47c.05-.41.11-1.29.05-1.81.59.12 1.87.17 2.22.17a6.75 6.75 0 0 0-.59-1.92c.76-.06 1.93-.18 2.5-.35a7.45 7.45 0 0 0-1.5-1.75c.7-.18 2.15-.64 2.79-1.05a6.35 6.35 0 0 0-2.33-1.46Zm-9.43 13.14c-.06.11-.12.17-.18.29 0 .06-.05.06-.05.11a.83.83 0 0 0-.18.24l-.11.11c-.06.12-.18.18-.24.3a144.12 144.12 0 0 1-.35.35l-.23.23-.12.12c-.17.17-.4.35-.64.46a4.9 4.9 0 0 1-.93.59l-.35.17c-2.62 1.34-3.9 2.4-4.3 2.68h-.06c-.41-.35-1.7-1.34-4.31-2.68l-.35-.17a5.02 5.02 0 0 1-.93-.59c-.23-.17-.4-.35-.64-.46-.06-.06-.12-.06-.12-.12-.06-.06-.17-.12-.23-.23a288.4 288.4 0 0 1-.35-.35 1.03 1.03 0 0 1-.23-.3l-.12-.11a.67.67 0 0 1-.17-.24c0-.05-.06-.05-.06-.11-.06-.12-.12-.18-.18-.3-.35-.75-.29-1.4-.29-1.4v-10.2c0-.18.12-.3.3-.3h15.36c.17 0 .3.12.3.3v10.2c.05 0 .1.65-.24 1.4Zm-.34-28.01c.22 0 .34-.17.34-.4 0-.24-.17-.41-.35-.41-.23 0-.35.17-.35.4 0 .24.18.41.35.41Zm-.01 2.17c.23 0 .47-1 .47-1.47a.46.46 0 0 0-.47-.46.46.46 0 0 0-.47.46c0 .47.24 1.46.47 1.46Zm-.23-3.57h.52l-.12-.64.64.06v-.52l-.64.11.12-.64h-.52l.05.64-.64-.11v.52l.64-.06-.05.64Z" fill="#fff"/><path d="M30.02 12.66c.17.06.35.06.52.12h.76c.47 0 .93-.12 1.4-.24.46-.11.93-.23 1.45-.23h.35c.12-.53.3-1.11.3-1.46 0-.7-.41-1.46-1.75-1.7 0 .88-.41 2.93-.88 2.93h-.05c-.47 0-.88-2.05-.88-2.92-1.34.23-1.74.99-1.74 1.69 0 .4.17 1.17.35 1.7.17.05.17.05.17.1Zm6.98-3.68s-.34-.93.24-1.22c.64-.23-.24-.12.23-1.4.52-1.52 1.69-1.17 1.69-1.17-.82-.64-1.46-.58-1.92-.23-.3.23-.7.7-1 1.63-.22 1.17.18 2.28.76 2.4Z" fill="#fff"/><path d="M40.03 6.7c.06 1.93 3.26 2.75 3.26 2.75s-1.86-1.34-1.51-2.33c0 0 1.22.52 2.62.29-2.97-.64-1.98-1.58-2.74-2.33-.76-.82-1.92-.88-2.21-.94a3.49 3.49 0 0 0-1.69.18c2.04.06 2.27 1.1 2.27 2.39Zm-.41 3.63c.41-1.52-.34-2.22-.34-2.22-.24-.3-1.46-.23-1.93.06 0 0 1.17 0 1 1.69-.18 1.7-2.5 2.04-3.15 2.1l-.06.23c1.1 0 4.02-.35 4.48-1.86Zm-12.16-.06h-1.17c.59 1.63 2.28 2.16 3.38 2.33l-.06-.17c-1.16-.47-1.74-.94-2.15-2.16Zm-9.66-.94c.23 0 .35-.17.35-.4 0-.24-.18-.41-.35-.41-.24 0-.35.17-.35.4-.06.24.11.41.35.41Zm0 2.17c.23 0 .46-1 .46-1.47a.45.45 0 0 0-.46-.46.46.46 0 0 0-.47.46c0 .47.17 1.46.47 1.46Zm-.3-3.57h.53l-.06-.64.64.06v-.52l-.64.11.06-.64h-.53l.12.64-.64-.11v.52l.64-.06-.12.64Z" fill="#fff"/><path d="M15.47 12.31h.35c.52.06 1.04.12 1.45.23.41.12.93.24 1.4.24h.76c.17 0 .35-.06.52-.12 0-.06 0-.06.06-.06.17-.52.35-1.28.35-1.69 0-.7-.35-1.46-1.75-1.7 0 .83-.4 2.93-.87 2.93h-.06c-.47 0-.87-2.05-.87-2.92-1.34.23-1.75.99-1.75 1.69 0 .35.12.93.3 1.46.05-.06.05-.06.1-.06Zm-4.6-7.11s1.16-.36 1.69 1.16c.46 1.28-.41 1.16.23 1.4.64.23.23 1.22.23 1.22.64-.11 1.05-1.22.7-2.45-.29-.93-.7-1.4-.99-1.63-.46-.3-1.05-.35-1.86.3Z" fill="#fff"/><path d="M8.25 7.12c.35.99-1.51 2.33-1.51 2.33s3.26-.81 3.26-2.74c.05-1.28.23-2.33 2.2-2.4-.86-.17-.92-.17-1.68-.17-.3 0-1.45.12-2.21.94-.7.75.23 1.69-2.74 2.33 1.46.23 2.68-.3 2.68-.3Zm3.49 2.74c-.17-1.7.99-1.7.99-1.7-.4-.28-1.63-.28-1.92-.05 0 0-.76.64-.35 2.22.4 1.51 3.38 1.86 4.48 1.86l-.06-.23c-.64-.06-2.96-.4-3.14-2.1Zm12.06.41h-1.17c-.4 1.22-1 1.69-2.16 2.16l-.05.17c1.16-.17 2.79-.7 3.37-2.33Zm2.73 7.17a9.77 9.77 0 0 0-.88 1.7c.18-.24.47-.47.76-.7.52-.35 1-.59 1-.59l.46-.17-.12.46s-.17.76-.12 1.4c0 .3.12.59.18.76.11-.29.29-.58.46-.87.59-.76 1.05-1.05 1.05-1.05l.35-.18v.41s.12 1.34.4 2.04a4.48 4.48 0 0 0 2.1 2.1l-.29-.29c-.29-.29-.58-.81-.75-1.92-.12-.94.23-1.87.35-2.16.05.23.17.46.29.52 0 0 0-.23.05-.46a4 4 0 0 1 1.75-2.22l.47-.3c.17-.05.29-.17.4-.28-.17 0-.4.05-.58.05h-.58c-.47 0-.99-.05-1.4-.4a1.9 1.9 0 0 1-.64-.94h-.7c-.35 0-.64-.11-.81-.11-.47.29-.93.4-1.51.46h-.24c.18.18.41.3.58.41h.06l-.11.06c.05-.06-.76.4-1.98 2.27Zm7.62-3.26h-.64v.35c.06.17.12.29.23.4.18-.11.35-.4.41-.75Z" fill="#fff"/><path d="M34.62 12.83c-.06 0-.06 0 0 0h-.23c-.47 0-.94.12-1.4.24a6.3 6.3 0 0 1-1.46.23h-.81a5.7 5.7 0 0 1-2.1-.64c.06.12.18.23.35.4l.18.18c.11.12.29.24.46.35a4.5 4.5 0 0 0 2.5.35c1.46-.23 1.75-.17 2.1-.17h.12c.52.06 1.28.35 1.57.52.12-.29.29-.58.35-.87-.06-.06-.18-.18-.41-.3-.06-.05-.12-.05-.23-.1-.12-.07-.3-.13-.53-.13-.23-.06-.34-.06-.46-.06Zm4.08 4.79c-.07 0-.59.29-1.7-.41-1.1-.7-1.92-1-2.38-1.1-.12.05-.18.1-.3.17-.1.05-.28.17-.46.29-.06.06-.11.06-.17.11h.11c1.05.12 1.87.7 1.92.94h.06c.12-.35-.06-.64-.06-.64s.47.29 1.4.81c1 .65 1.4.06 1.57-.17Zm-5.54-2.86c-.06-.06-.11-.18-.17-.23-.06-.12-.06-.18-.06-.24-.23 0-.52.06-.87.12h-.24c.18.35.47.7 1.05.82h.23c.24.05.53.05.7.05.41 0 .88-.05 1.34-.17.12-.12.18-.3.3-.4 0 0-.07-.07-.12-.07-.12-.06-.41-.23-.59-.29-.05.18-.17.35-.29.47-.17.11-.4.17-.64.17-.23 0-.46-.06-.58-.17-.06 0-.06-.06-.06-.06Zm3.09-.88a5.07 5.07 0 0 1-1.34 1.99c2.62-.7 3.09.64 3.09.7 0 .06 0 .06.05 0 .06-.06.94-1 .3-1.87-.53-.7-1.7-.82-2.1-.82Zm0 .7a.78.78 0 0 0 .17-.35c.18 0 .53.06.53.3-.24-.06-.53-.06-.7.05Zm-19.68-.05v-.35h-.64c.06.35.23.64.4.75a.94.94 0 0 0 .24-.4Zm2.97-1.29c-.06 0-.06 0 0 0h-.82a5.7 5.7 0 0 1-1.45-.23c-.52-.06-.99-.17-1.45-.17h-.47c-.23 0-.4.05-.52.11-.06.06-.18.06-.24.12-.17.12-.29.17-.4.29.05.3.23.64.34.88.3-.18 1.05-.53 1.58-.53h.11c.35 0 .64-.06 2.1.18 1.28.17 2.21-.24 2.5-.35a3.22 3.22 0 0 0 .64-.53c.12-.17.23-.3.35-.4-.52.17-1.22.52-2.27.63Zm-8.14 4.38c.17.17.57.82 1.5.29.94-.52 1.4-.82 1.4-.82s-.17.3-.06.65h.06c.12-.24.93-.88 1.92-.94h.12c-.06-.06-.12-.06-.17-.11-.18-.12-.35-.24-.47-.3-.12-.05-.17-.11-.3-.17-.46.06-1.27.4-2.38 1.1-1.05.59-1.57.3-1.63.3Z" fill="#fff"/><path d="m15.35 14.35-.58.3c-.06 0-.06.05-.12.05.12.18.18.3.3.41.46.12.92.17 1.33.17.23 0 .47 0 .7-.05h.23c.59-.12.93-.53 1.05-.82h-.23c-.35-.06-.64-.12-.88-.12 0 .06-.05.18-.05.24a.8.8 0 0 1-.18.23l-.06.06a1.17 1.17 0 0 1-1.22 0c-.17-.12-.23-.3-.29-.47Zm-3.67.35c-.64.88.24 1.81.3 1.87.05.06.05 0 .05 0 0-.06.47-1.4 3.09-.7a5.06 5.06 0 0 1-1.34-1.99c-.35 0-1.57.12-2.1.82Zm2.16-.12c-.18-.11-.47-.11-.7-.05 0-.24.35-.3.52-.3 0 0 .06.24.18.35Z" fill="#fff"/><path d="M22.05 14.7h-.24c-.58 0-1.05-.17-1.51-.47-.18.06-.53.12-.82.12h-.7c-.05.23-.23.64-.63.93a2.1 2.1 0 0 1-1.4.41h-.58c-.12 0-.35-.06-.59-.06.18.12.3.18.41.3.12.05.3.17.47.29.93.64 1.63 1.57 1.74 2.21.06.24.06.47.06.47.12-.06.23-.29.3-.52.1.29.52 1.22.34 2.15-.17 1.11-.46 1.64-.75 1.93l-.3.3c.59-.3 1.58-.94 2.1-2.1.29-.65.4-2 .4-2v-.4l.36.17s.52.3 1.04 1.05c.18.3.35.59.47.88.06-.23.12-.47.17-.76.06-.7-.11-1.4-.11-1.4l-.12-.47.47.18s.46.17.99.58c.35.24.58.47.75.7-.23-.58-.46-1.16-.87-1.69-1.22-1.87-1.98-2.27-1.98-2.27l-.12-.06h.06c.18-.18.41-.35.59-.47Z" fill="#fff"/></svg>