<svg viewBox="0 0 36 36" fill="none" xmlns="http://www.w3.org/2000/svg"><path d="M17.65 0a17.65 17.65 0 1 0 0 35.3 17.65 17.65 0 0 0 0-35.3Zm0 33.43a15.78 15.78 0 1 1 0-31.55 15.78 15.78 0 0 1 0 31.55Z" fill="url(#a)"/><path d="m25.37 16.84-11.71-6.76a.93.93 0 0 0-1.4.8v13.54a.93.93 0 0 0 1.4.8l11.7-6.77a.93.93 0 0 0 0-1.61Zm-11.25 5.94v-10.26l8.91 5.13-8.9 5.13Z" fill="url(#b)"/><defs><linearGradient id="a" x1="17.647" y1="0" x2="17.647" y2="35.293" gradientUnits="userSpaceOnUse"><stop stop-color="#EE9305"/><stop offset="1" stop-color="#FFC32E"/></linearGradient><linearGradient id="b" x1="17.647" y1="0" x2="17.647" y2="35.293" gradientUnits="userSpaceOnUse"><stop stop-color="#EE9305"/><stop offset="1" stop-color="#FFC32E"/></linearGradient></defs></svg>