<svg viewBox="0 0 18 21" fill="none" xmlns="http://www.w3.org/2000/svg"><path d="m10.2 1 3.25 5.63a1 1 0 0 1-.37 1.37l-1.3.75 1 1.73-1.73 1-1-1.74-1.3.76a1 1 0 0 1-1.37-.37l-1.83-3.18a5 5 0 0 0-3.23 6.56 4.98 4.98 0 0 1 6.76 1.33l7.69-4.44 1 1.73-7.88 4.55a5.04 5.04 0 0 1 .01 2.05h8.1v2h-17a4.98 4.98 0 0 1-.19-5.73 7 7 0 0 1 3.72-9.82l-.4-.68a2 2 0 0 1 .74-2.73l2.6-1.5a2 2 0 0 1 2.73.73Zm-5.2 13.73a3 3 0 0 0-2.83 4h5.66a3.01 3.01 0 0 0-2.83-4Zm3.46-12.73-2.6 1.5 2.76 4.76 2.6-1.5-2.76-4.76Z" fill="#000"/></svg>